<svg xmlns="http://www.w3.org/2000/svg" id="prefix___360-degrees" width="58.292" height="43.149" data-name="360-degrees" viewBox="0 0 58.292 43.149">
    <defs>
        <style>
            .prefix__cls-1{fill:#474747}
        </style>
    </defs>
    <path id="prefix__Trazado_485" d="M309.388 165.412c-.843 0-1.8-.1-1.911-.956-.118-.931.025-1.793.956-1.911a41.405 41.405 0 0 0 14.334-4.778c3.073-1.79 4.778-3.7 4.778-5.734 0-2.239-2.161-3.635-3.822-4.778-.773-.532-1.487-2.094-.956-2.867s2.094-.532 2.867 0c3.345 2.3 4.778 4.7 4.778 7.645 0 3.338-2.469 6.142-6.689 8.6a37.3 37.3 0 0 1-14.334 4.778c-.074.01.07.001-.001.001zm0 0" class="prefix__cls-1" data-name="Trazado 485" transform="translate(-272.12 -127.188)"/>
    <path id="prefix__Trazado_486" d="M28.26 158.029l-3.822-4.778a2.313 2.313 0 0 0-2.867 0 1.167 1.167 0 0 0 0 1.911l.956 1.911a35.748 35.748 0 0 1-12.427-3.822c-4.013-1.93-6.689-4.332-6.689-6.689 0-2 1.786-3.96 4.778-5.734.807-.478.478-1.1 0-1.911s-1.1-1.434-1.911-.956c-5.211 3.089-6.689 6.3-6.689 8.6 0 3.769 3.287 7 8.6 9.556a45.311 45.311 0 0 0 15.29 3.822l-1.911 1.911a2.315 2.315 0 0 0 0 2.867c.332.331.521 0 .956 0s1.579.331 1.911 0l3.822-4.778a1.167 1.167 0 0 0 .003-1.91zm0 0" class="prefix__cls-1" data-name="Trazado 486" transform="translate(.408 -121.716)"/>
    <path id="prefix__Trazado_487" d="M100.609 101.514v-.956c0-1.442-.728-1.911-1.911-1.911-.732 0-.956-.31-.956-.956s.224-.956.956-.956c.817 0 1.911-.168 1.911-1.911a1.893 1.893 0 0 0-1.909-1.91c-1.054 0-1.911.117-1.911.956 0 .731.292 1.911-.956 1.911a1.668 1.668 0 0 1-1.911-1.911c0-1.678 1.078-3.822 4.778-3.822 2.733 0 4.778.918 4.778 3.822 0 1.57-.835 3.327-1.911 3.822 1.269.473 2.867 1.124 2.867 2.867v.956c0 3.528-2.721 4.778-5.734 4.778-3.7 0-5.734-2.971-5.734-4.778 0-.968.728-.956 1.911-.956 1.377 0 1.911.138 1.911.956a2 2 0 0 0 1.911 1.911c1.462-.001 1.91-.513 1.91-1.912zm0 0" class="prefix__cls-1" data-name="Trazado 487" transform="translate(-82.453 -79.535)"/>
    <path id="prefix__Trazado_488" d="M219.137 100.558c0 3.7-1.809 5.734-4.778 5.734a5.524 5.524 0 0 1-5.734-5.734v-5.734c0-3.7 2.635-4.778 5.734-4.778 3.636 0 4.778 2.037 4.778 3.822 0 1.033.12 1.911-.956 1.911a2.052 2.052 0 0 1-1.911-1.911c0-.817-.9-.956-1.911-.956-1.269 0-1.911.427-1.911 1.911v1.911c.689-.753.878-.956 1.911-.956 2.453.002 4.778 1.337 4.778 4.78zm-6.689.956c0 1.484.706 1.911 1.911 1.911s1.911-.427 1.911-1.911v-.956c0-1.571-.685-1.911-1.911-1.911a1.674 1.674 0 0 0-1.911 1.911zm0 0" class="prefix__cls-1" data-name="Trazado 488" transform="translate(-184.736 -79.535)"/>
    <path id="prefix__Trazado_489" d="M325.129 100.558v-5.734c0-3.7 1.809-4.778 4.778-4.778s5.734 1.078 5.734 4.778v5.734a5.524 5.524 0 0 1-5.734 5.734c-2.969-.001-4.778-2.034-4.778-5.734zm6.689-5.734c0-1.484-.706-1.911-1.911-1.911S328 93.34 328 94.824v5.734c0 1.484.706 2.867 1.911 2.867s1.911-1.382 1.911-2.867zm0 0" class="prefix__cls-1" data-name="Trazado 489" transform="translate(-287.861 -79.535)"/>
    <path id="prefix__Trazado_490" d="M414.215 10.106a4.575 4.575 0 0 1-4.778-4.778c0-2.81 1.968-5.734 4.778-5.734a6.261 6.261 0 0 1 5.734 5.734c0 2.809-2.924 4.778-5.734 4.778zm0-6.689a2.087 2.087 0 0 0-1.915 1.911 1.911 1.911 0 1 0 3.822 0 2.087 2.087 0 0 0-1.907-1.912zm0 0" class="prefix__cls-1" data-name="Trazado 490" transform="translate(-362.613 .406)"/>
</svg>
