<svg height="82.31" viewBox="0 0 91.143 82.31" width="91.143" xmlns="http://www.w3.org/2000/svg"><g fill="#fff"><path d="m86.584 38.411h-3.038v-1.372a4.357 4.357 0 0 0 -4.557-4.115h-21.267a4.357 4.357 0 0 0 -4.557 4.115v1.372h-42.533v-27.437c0-4.305 3.67-7.885 8.424-8.208s8.98 2.719 9.691 6.976c-4.329.715-7.474 4.118-7.482 8.091v1.367a1.452 1.452 0 0 0 1.519 1.372h15.19a1.451 1.451 0 0 0 1.52-1.372v-1.367c-.008-4.042-3.262-7.482-7.682-8.119-.737-5.777-6.339-10.031-12.767-9.696s-11.452 5.14-11.451 10.956v27.437h-3.038a4.358 4.358 0 0 0 -4.556 4.115 4.155 4.155 0 0 0 3.038 3.866v11.224c.017 10.065 8.632 18.412 19.748 19.136v1.441a4.353 4.353 0 0 0 4.557 4.116 4.353 4.353 0 0 0 4.557-4.116v-1.371h27.342v1.371a4.581 4.581 0 0 0 9.114 0v-1.441c11.116-.724 19.73-9.072 19.748-19.136v-11.228a4.159 4.159 0 0 0 3.038-3.863 4.374 4.374 0 0 0 -4.557-4.115zm-50.128-20.578h-12.156c0-3.031 2.72-5.487 6.076-5.487s6.08 2.454 6.08 5.487zm41.014 20.578v-1.372a1.527 1.527 0 0 1 3.038 0v1.372zm-21.27-1.372a1.452 1.452 0 0 1 1.519-1.371h16.99a3.711 3.711 0 0 0 -.28 1.371v15.09h-13.669a1.379 1.379 0 1 0 0 2.744h13.672v2.744h-18.232zm-27.34 41.154a1.527 1.527 0 0 1 -3.038 0v-1.371h3.038zm36.457 0a1.527 1.527 0 0 1 -3.038 0v-1.371h3.038zm1.519-4.115h-42.536c-10.059-.01-18.213-7.378-18.225-16.462v-10.974h39.5a1.379 1.379 0 1 0 0-2.744h-41.019a1.563 1.563 0 0 1 -1.082-.419 1.257 1.257 0 0 1 -.437-.953 1.453 1.453 0 0 1 1.519-1.371h48.61v16.461a2.7 2.7 0 0 0 1.519 2.362v3.122a1.527 1.527 0 0 0 3.038 0v-2.74h3.037v2.74a1.527 1.527 0 0 0 3.038 0v-2.74h3.038v2.74a1.527 1.527 0 0 0 3.039 0v-2.74h3.038v2.74a1.527 1.527 0 0 0 3.038 0v-3.122a2.7 2.7 0 0 0 1.519-2.362v-10.975h7.6v10.975c-.016 9.084-8.17 16.452-18.234 16.462zm19.748-30.178h-9.114v-2.746h9.114a1.567 1.567 0 0 1 1.083.42 1.257 1.257 0 0 1 .436.951 1.453 1.453 0 0 1 -1.519 1.375zm0 0" transform="translate(.001 .001)"/><path d="m165.171 146.438a1.527 1.527 0 0 0 -3.038 0v1.372a1.527 1.527 0 0 0 3.038 0zm0 0" transform="translate(-133.271 -121.746)"/><path d="m163.652 187.73a1.452 1.452 0 0 0 -1.519 1.372v1.372a1.527 1.527 0 0 0 3.038 0v-1.374a1.451 1.451 0 0 0 -1.519-1.37zm0 0" transform="translate(-133.271 -157.55)"/><path d="m133.765 135.715-1.063.98a1.28 1.28 0 0 0 .022 1.94 1.637 1.637 0 0 0 2.149-.02l1.063-.98a1.281 1.281 0 0 0 -.022-1.94 1.637 1.637 0 0 0 -2.149.02zm0 0" transform="translate(-108.721 -113.551)"/><path d="m103.9 166.186-1.063.98a1.279 1.279 0 0 0 .022 1.94 1.637 1.637 0 0 0 2.149-.019l1.063-.98a1.279 1.279 0 0 0 -.022-1.94 1.637 1.637 0 0 0 -2.149.019zm0 0" transform="translate(-84.171 -139.124)"/><path d="m186.484 135.7a1.282 1.282 0 0 0 -.022 1.94l1.063.98a1.63 1.63 0 0 0 1.464.369 1.458 1.458 0 0 0 1.086-.96 1.283 1.283 0 0 0 -.378-1.329l-1.064-.98a1.636 1.636 0 0 0 -2.149-.019zm0 0" transform="translate(-152.913 -113.552)"/><path d="m216.325 168.11 1.063.98a1.633 1.633 0 0 0 1.464.369 1.458 1.458 0 0 0 1.085-.96 1.282 1.282 0 0 0 -.378-1.329l-1.064-.98a1.636 1.636 0 0 0 -2.148-.019 1.28 1.28 0 0 0 -.022 1.939zm0 0" transform="translate(-177.459 -139.127)"/><path d="m70.947 362.213h-4.557c-6.709-.007-12.145-4.917-12.153-10.975a1.527 1.527 0 0 0 -3.038 0c.01 7.573 6.8 13.71 15.191 13.718h4.557a1.379 1.379 0 1 0 0-2.744zm0 0" transform="translate(-42.085 -293.622)"/><path d="m52.719 311.315a1.451 1.451 0 0 0 1.519-1.372v-1.372a1.527 1.527 0 0 0 -3.038 0v1.372a1.452 1.452 0 0 0 1.519 1.372zm0 0" transform="translate(-42.085 -257.814)"/></g></svg>