<svg xmlns="http://www.w3.org/2000/svg" id="prefix__bathroom" width="91.143" height="82.31" viewBox="0 0 91.143 82.31">
    <defs>
        <style>
            .prefix__cls-1{fill:#fff}
        </style>
    </defs>
    <path id="prefix__Trazado_313" d="M86.584 38.411h-3.038v-1.372a4.357 4.357 0 0 0-4.557-4.115H57.722a4.357 4.357 0 0 0-4.557 4.115v1.372H10.632V10.974c0-4.305 3.67-7.885 8.424-8.208s8.98 2.719 9.691 6.976c-4.329.715-7.474 4.118-7.482 8.091V19.2a1.452 1.452 0 0 0 1.519 1.372h15.19a1.451 1.451 0 0 0 1.52-1.372v-1.367c-.008-4.042-3.262-7.482-7.682-8.119C31.075 3.937 25.473-.317 19.045.018S7.593 5.158 7.594 10.974v27.437H4.556A4.358 4.358 0 0 0 0 42.526a4.155 4.155 0 0 0 3.038 3.866v11.224c.017 10.065 8.632 18.412 19.748 19.136v1.441a4.353 4.353 0 0 0 4.557 4.116 4.353 4.353 0 0 0 4.557-4.116v-1.371h27.342v1.371a4.581 4.581 0 0 0 9.114 0v-1.441c11.116-.724 19.73-9.072 19.748-19.136V46.388a4.159 4.159 0 0 0 3.038-3.863 4.374 4.374 0 0 0-4.557-4.115zM36.456 17.833H24.3c0-3.031 2.72-5.487 6.076-5.487s6.08 2.454 6.08 5.487zM77.47 38.411v-1.372a1.527 1.527 0 0 1 3.038 0v1.372zM56.2 37.039a1.452 1.452 0 0 1 1.519-1.371h16.99a3.711 3.711 0 0 0-.28 1.371v15.09H60.76a1.379 1.379 0 1 0 0 2.744h13.672v2.744H56.2zM28.86 78.193a1.527 1.527 0 0 1-3.038 0v-1.371h3.038zm36.457 0a1.527 1.527 0 0 1-3.038 0v-1.371h3.038zm1.519-4.115H24.3C14.241 74.068 6.087 66.7 6.075 57.616V46.642h39.5a1.379 1.379 0 1 0 0-2.744H4.556a1.563 1.563 0 0 1-1.082-.419 1.257 1.257 0 0 1-.437-.953 1.453 1.453 0 0 1 1.519-1.371h48.61v16.461a2.7 2.7 0 0 0 1.519 2.362V63.1a1.527 1.527 0 0 0 3.038 0v-2.74h3.037v2.74a1.527 1.527 0 0 0 3.038 0v-2.74h3.038v2.74a1.527 1.527 0 0 0 3.039 0v-2.74h3.038v2.74a1.527 1.527 0 0 0 3.038 0v-3.122a2.7 2.7 0 0 0 1.519-2.362V46.641h7.6v10.975c-.016 9.084-8.17 16.452-18.234 16.462zM86.584 43.9H77.47v-2.746h9.114a1.567 1.567 0 0 1 1.083.42 1.257 1.257 0 0 1 .436.951 1.453 1.453 0 0 1-1.519 1.375zm0 0" class="prefix__cls-1" data-name="Trazado 313" transform="translate(.001 .001)"/>
    <path id="prefix__Trazado_314" d="M165.171 146.438a1.527 1.527 0 0 0-3.038 0v1.372a1.527 1.527 0 0 0 3.038 0zm0 0" class="prefix__cls-1" data-name="Trazado 314" transform="translate(-133.271 -121.746)"/>
    <path id="prefix__Trazado_315" d="M163.652 187.73a1.452 1.452 0 0 0-1.519 1.372v1.372a1.527 1.527 0 0 0 3.038 0V189.1a1.451 1.451 0 0 0-1.519-1.37zm0 0" class="prefix__cls-1" data-name="Trazado 315" transform="translate(-133.271 -157.55)"/>
    <path id="prefix__Trazado_316" d="M133.765 135.715l-1.063.98a1.28 1.28 0 0 0 .022 1.94 1.637 1.637 0 0 0 2.149-.02l1.063-.98a1.281 1.281 0 0 0-.022-1.94 1.637 1.637 0 0 0-2.149.02zm0 0" class="prefix__cls-1" data-name="Trazado 316" transform="translate(-108.721 -113.551)"/>
    <path id="prefix__Trazado_317" d="M103.9 166.186l-1.063.98a1.279 1.279 0 0 0 .022 1.94 1.637 1.637 0 0 0 2.149-.019l1.063-.98a1.279 1.279 0 0 0-.022-1.94 1.637 1.637 0 0 0-2.149.019zm0 0" class="prefix__cls-1" data-name="Trazado 317" transform="translate(-84.171 -139.124)"/>
    <path id="prefix__Trazado_318" d="M186.484 135.7a1.282 1.282 0 0 0-.022 1.94l1.063.98a1.63 1.63 0 0 0 1.464.369 1.458 1.458 0 0 0 1.086-.96 1.283 1.283 0 0 0-.378-1.329l-1.064-.98a1.636 1.636 0 0 0-2.149-.019zm0 0" class="prefix__cls-1" data-name="Trazado 318" transform="translate(-152.913 -113.552)"/>
    <path id="prefix__Trazado_319" d="M216.325 168.11l1.063.98a1.633 1.633 0 0 0 1.464.369 1.458 1.458 0 0 0 1.085-.96 1.282 1.282 0 0 0-.378-1.329l-1.064-.98a1.636 1.636 0 0 0-2.148-.019 1.28 1.28 0 0 0-.022 1.939zm0 0" class="prefix__cls-1" data-name="Trazado 319" transform="translate(-177.459 -139.127)"/>
    <path id="prefix__Trazado_320" d="M70.947 362.213H66.39c-6.709-.007-12.145-4.917-12.153-10.975a1.527 1.527 0 0 0-3.038 0c.01 7.573 6.8 13.71 15.191 13.718h4.557a1.379 1.379 0 1 0 0-2.744zm0 0" class="prefix__cls-1" data-name="Trazado 320" transform="translate(-42.085 -293.622)"/>
    <path id="prefix__Trazado_321" d="M52.719 311.315a1.451 1.451 0 0 0 1.519-1.372v-1.372a1.527 1.527 0 0 0-3.038 0v1.372a1.452 1.452 0 0 0 1.519 1.372zm0 0" class="prefix__cls-1" data-name="Trazado 321" transform="translate(-42.085 -257.814)"/>
</svg>
