<svg height="64.911" viewBox="0 0 104.641 64.911" width="104.641" xmlns="http://www.w3.org/2000/svg"><g fill="#fff"><path d="m103.106 102.349h-8.3c0-.031.005-.061.005-.092v-7.49h3.379a1.453 1.453 0 0 0 1.515-1.615l-1.638-8.877a1.5 1.5 0 0 0 -1.515-1.159h-6.552a1.5 1.5 0 0 0 -1.515 1.159l-1.638 8.877a1.453 1.453 0 0 0 1.515 1.615h3.378v7.49c0 .031 0 .062.005.092h-7.694s-.707-2.041-.707-2.127v-15.722a4.6 4.6 0 0 0 -4.812-4.346h-52.423a4.6 4.6 0 0 0 -4.809 4.346v15.812c0 .063-.707 2.034-.707 2.034h-7.693c0-.031.005-.061.005-.092v-7.49h3.375a1.453 1.453 0 0 0 1.515-1.615l-1.638-8.877a1.5 1.5 0 0 0 -1.515-1.159h-6.553a1.5 1.5 0 0 0 -1.515 1.159l-1.638 8.88a1.453 1.453 0 0 0 1.514 1.615h3.379v7.49c0 .031 0 .062.005.092h-8.3a1.467 1.467 0 0 0 -1.534 1.387v17.754a1.467 1.467 0 0 0 1.536 1.387h11.031l-1.012 2.59a1.273 1.273 0 0 0 -.087.462v11.836a1.577 1.577 0 0 0 2.622.981l.654-.591v1.09a1.467 1.467 0 0 0 1.536 1.387h1.74v3.051a1.467 1.467 0 0 0 1.536 1.387h65.529a1.467 1.467 0 0 0 1.536-1.387v-3.053h1.741a1.467 1.467 0 0 0 1.536-1.387v-1.09l.654.591a1.577 1.577 0 0 0 2.622-.981v-11.836a1.269 1.269 0 0 0 -.088-.462l-1.012-2.59h11.031a1.467 1.467 0 0 0 1.536-1.387v-17.752a1.467 1.467 0 0 0 -1.535-1.387zm-12.931-10.356 1.126-6.1h3.951l1.126 6.1zm-65.806-7.493a1.665 1.665 0 0 1 1.741-1.572h52.422a1.665 1.665 0 0 1 1.741 1.572v14.89h-2.173a3.957 3.957 0 0 0 .327-1.572v-8.877a4.6 4.6 0 0 0 -4.809-4.341h-16.383a4.6 4.6 0 0 0 -4.812 4.346v8.877a3.958 3.958 0 0 0 .327 1.572h-.859a3.957 3.957 0 0 0 .327-1.572v-8.882a4.6 4.6 0 0 0 -4.812-4.341h-16.383a4.6 4.6 0 0 0 -4.812 4.346v8.877a3.958 3.958 0 0 0 .327 1.572h-2.17v-14.895zm47.931 11.037-4.634-4.185a3.424 3.424 0 0 0 -4.489 0l-4.633 4.184a2.669 2.669 0 0 0 -.2 3.853h-1.109a1.665 1.665 0 0 1 -1.741-1.572v-8.876a1.665 1.665 0 0 1 1.741-1.572h16.383a1.665 1.665 0 0 1 1.741 1.572v8.877a1.665 1.665 0 0 1 -1.741 1.572h-1.112a2.669 2.669 0 0 0 -.206-3.853zm-2.172 2.092-4.628 4.185a.111.111 0 0 1 -.145 0l-4.634-4.185a.086.086 0 0 1 0-.131l4.633-4.184a.111.111 0 0 1 .145 0l4.633 4.186a.086.086 0 0 1 0 .129zm-24.035-2.092-4.634-4.185a3.424 3.424 0 0 0 -4.489 0l-4.633 4.184a2.669 2.669 0 0 0 -.2 3.853h-1.113a1.665 1.665 0 0 1 -1.741-1.572v-8.876a1.665 1.665 0 0 1 1.741-1.572h16.382a1.665 1.665 0 0 1 1.741 1.572v8.877a1.665 1.665 0 0 1 -1.741 1.572h-1.112a2.67 2.67 0 0 0 -.201-3.853zm-2.172 2.092-4.633 4.185a.111.111 0 0 1 -.145 0l-4.633-4.185a.086.086 0 0 1 0-.131l4.633-4.184a.111.111 0 0 1 .145 0l4.633 4.186a.086.086 0 0 1 0 .129zm-20 4.534h11c.085 0 2.056 1.612 2.056 1.612a3.458 3.458 0 0 0 4.489 0l1.788-1.614h18.15l1.785 1.612a3.458 3.458 0 0 0 4.489 0l1.784-1.612h11.26l1.843 4.716h-60.489zm-15.657-10.17 1.126-6.1h3.951l1.126 6.1zm-5.192 13.13h16.434l-2.385 6.1h-14.049zm10.579 14.977h-10.579v-6.1h12.965zm69.9 22.192h-62.459v-1.662h62.457v1.664zm3.277-6.565v2.127h-69.012v-2.219c0-.081 2.377-2.4 2.377-2.4h64.256l2.418 2.183a1.261 1.261 0 0 0 -.041.311zm3.276-1.314-3.931-3.55a1.623 1.623 0 0 0 -1.086-.406h-65.531a1.625 1.625 0 0 0 -1.086.406l-3.931 3.55v-7.1h59.079a1.394 1.394 0 1 0 0-2.774h-58.444l5.818-14.887h62.657l5.818 14.887h-10.935a1.394 1.394 0 1 0 0 2.774h11.568zm11.466-14.313h-10.58l-2.385-6.1h12.965zm0-8.877h-14.049l-2.385-6.1h16.434z" transform="translate(0 -80.157)"/><path d="m445.673 224.438h-3.273a1.394 1.394 0 1 0 0 2.774h3.276a1.394 1.394 0 1 0 0-2.774z" transform="translate(-350.759 -197.808)"/><path d="m44.89 224.438h-3.276a1.394 1.394 0 1 0 0 2.774h3.276a1.394 1.394 0 1 0 0-2.774z" transform="translate(-31.887 -197.808)"/></g></svg>