<svg xmlns="http://www.w3.org/2000/svg" id="prefix__bedroom" width="104.641" height="64.911" viewBox="0 0 104.641 64.911">
    <defs>
        <style>
            .prefix__cls-1{fill:#fff}
        </style>
    </defs>
    <g id="prefix__Grupo_106" data-name="Grupo 106">
        <g id="prefix__Grupo_105" data-name="Grupo 105">
            <path id="prefix__Trazado_322" d="M103.106 102.349h-8.3c0-.031.005-.061.005-.092v-7.49h3.379a1.453 1.453 0 0 0 1.515-1.615l-1.638-8.877a1.5 1.5 0 0 0-1.515-1.159H90a1.5 1.5 0 0 0-1.515 1.159l-1.638 8.877a1.453 1.453 0 0 0 1.515 1.615h3.378v7.49c0 .031 0 .062.005.092h-7.694s-.707-2.041-.707-2.127V84.5a4.6 4.6 0 0 0-4.812-4.346H26.109A4.6 4.6 0 0 0 21.3 84.5v15.812c0 .063-.707 2.034-.707 2.034H12.9c0-.031.005-.061.005-.092v-7.49h3.375a1.453 1.453 0 0 0 1.515-1.615l-1.638-8.877a1.5 1.5 0 0 0-1.515-1.159H8.089a1.5 1.5 0 0 0-1.515 1.159l-1.638 8.88a1.453 1.453 0 0 0 1.514 1.615h3.379v7.49c0 .031 0 .062.005.092h-8.3A1.467 1.467 0 0 0 0 103.736v17.754a1.467 1.467 0 0 0 1.536 1.387h11.031l-1.012 2.59a1.273 1.273 0 0 0-.087.462v11.836a1.577 1.577 0 0 0 2.622.981l.654-.591v1.09a1.467 1.467 0 0 0 1.536 1.387h1.74v3.051a1.467 1.467 0 0 0 1.536 1.387h65.529a1.467 1.467 0 0 0 1.536-1.387v-3.053h1.741a1.467 1.467 0 0 0 1.536-1.387v-1.09l.654.591a1.577 1.577 0 0 0 2.622-.981v-11.836a1.269 1.269 0 0 0-.088-.462l-1.012-2.59h11.031a1.467 1.467 0 0 0 1.536-1.387v-17.752a1.467 1.467 0 0 0-1.535-1.387zM90.175 91.993l1.126-6.1h3.951l1.126 6.1zM24.369 84.5a1.665 1.665 0 0 1 1.741-1.572h52.422a1.665 1.665 0 0 1 1.741 1.572v14.89H78.1a3.957 3.957 0 0 0 .327-1.572v-8.877a4.6 4.6 0 0 0-4.809-4.341H57.235a4.6 4.6 0 0 0-4.812 4.346v8.877a3.958 3.958 0 0 0 .327 1.572h-.859a3.957 3.957 0 0 0 .327-1.572v-8.882a4.6 4.6 0 0 0-4.812-4.341H31.023a4.6 4.6 0 0 0-4.812 4.346v8.877a3.958 3.958 0 0 0 .327 1.572h-2.17V84.5zM72.3 95.537l-4.634-4.185a3.424 3.424 0 0 0-4.489 0l-4.633 4.184a2.669 2.669 0 0 0-.2 3.853h-1.109a1.665 1.665 0 0 1-1.741-1.572v-8.876a1.665 1.665 0 0 1 1.741-1.572h16.383a1.665 1.665 0 0 1 1.741 1.572v8.877a1.665 1.665 0 0 1-1.741 1.572h-1.112a2.669 2.669 0 0 0-.206-3.853zm-2.172 2.092l-4.628 4.185a.111.111 0 0 1-.145 0l-4.634-4.185a.086.086 0 0 1 0-.131l4.633-4.184a.111.111 0 0 1 .145 0l4.633 4.186a.086.086 0 0 1 0 .129zm-24.035-2.092l-4.634-4.185a3.424 3.424 0 0 0-4.489 0l-4.633 4.184a2.669 2.669 0 0 0-.2 3.853h-1.113a1.665 1.665 0 0 1-1.741-1.572v-8.876a1.665 1.665 0 0 1 1.741-1.572h16.382a1.665 1.665 0 0 1 1.741 1.572v8.877a1.665 1.665 0 0 1-1.741 1.572h-1.112a2.67 2.67 0 0 0-.201-3.853zm-2.172 2.092l-4.633 4.185a.111.111 0 0 1-.145 0l-4.633-4.185a.086.086 0 0 1 0-.131l4.633-4.184a.111.111 0 0 1 .145 0l4.633 4.186a.086.086 0 0 1 0 .129zm-20 4.534h11c.085 0 2.056 1.612 2.056 1.612a3.458 3.458 0 0 0 4.489 0l1.788-1.614h18.15l1.785 1.612a3.458 3.458 0 0 0 4.489 0l1.784-1.612h11.26l1.843 4.716H22.076zM8.264 91.993l1.126-6.1h3.951l1.126 6.1zm-5.192 13.13h16.434l-2.385 6.1H3.072v-6.1zM13.651 120.1H3.072V114h12.965zm69.9 22.192H21.092v-1.662h62.457v1.664zm3.277-6.565v2.127H17.816v-2.219c0-.081 2.377-2.4 2.377-2.4h64.256l2.418 2.183a1.261 1.261 0 0 0-.041.311zm3.276-1.314l-3.931-3.55a1.623 1.623 0 0 0-1.086-.406H19.556a1.625 1.625 0 0 0-1.086.406l-3.931 3.55v-7.1h59.079a1.394 1.394 0 1 0 0-2.774H15.174l5.818-14.887h62.657l5.818 14.887H78.532a1.394 1.394 0 1 0 0 2.774H90.1zM101.57 120.1H90.99l-2.385-6.1h12.965zm0-8.877H87.521l-2.385-6.1h16.434v6.1z" class="prefix__cls-1" data-name="Trazado 322" transform="translate(0 -80.157)"/>
        </g>
    </g>
    <g id="prefix__Grupo_108" data-name="Grupo 108" transform="translate(90.102 26.63)">
        <g id="prefix__Grupo_107" data-name="Grupo 107">
            <path id="prefix__Trazado_323" d="M445.673 224.438H442.4a1.394 1.394 0 1 0 0 2.774h3.276a1.394 1.394 0 1 0 0-2.774z" class="prefix__cls-1" data-name="Trazado 323" transform="translate(-440.861 -224.438)"/>
        </g>
    </g>
    <g id="prefix__Grupo_110" data-name="Grupo 110" transform="translate(8.191 26.63)">
        <g id="prefix__Grupo_109" data-name="Grupo 109">
            <path id="prefix__Trazado_324" d="M44.89 224.438h-3.276a1.394 1.394 0 1 0 0 2.774h3.276a1.394 1.394 0 1 0 0-2.774z" class="prefix__cls-1" data-name="Trazado 324" transform="translate(-40.078 -224.438)"/>
        </g>
    </g>
</svg>
