<svg xmlns="http://www.w3.org/2000/svg" width="54.371" height="51.03" viewBox="0 0 54.371 51.03">
    <g id="prefix__Capa_2" data-name="Capa 2" transform="translate(.598 .53)">
        <g id="prefix__Capa_2-2" data-name="Capa 2">
            <path id="prefix__Trazado_622" d="M39.375 27.476a10.5 10.5 0 0 1-10.324 10.675 10.5 10.5 0 0 1-10.325-10.675A10.5 10.5 0 0 1 29.051 16.8a10.506 10.506 0 0 1 10.324 10.674zm-11.029 25a24.021 24.021 0 0 0 20.629-11.961 25.746 25.746 0 0 0 .9-24.437M37.712 4.422A23.668 23.668 0 0 0 9.6 11.7a25.683 25.683 0 0 0-1.173 29.934m47.178-23.1l-5.825-2.855-2.757 6.021M2.5 40.719l6.295 1.4 1.364-6.509m18.892-24.97c-9 0-16.286 7.539-16.286 16.839s7.291 16.838 16.285 16.837 16.283-7.539 16.282-16.839-7.29-16.838-16.282-16.837z" data-name="Trazado 622" transform="translate(-2.5 -2.474)" style="fill:none;stroke:#fff;stroke-linecap:round;stroke-linejoin:round"/>
        </g>
    </g>
</svg>
