<svg height="88.32" viewBox="0 0 88.32 88.32" width="88.32" xmlns="http://www.w3.org/2000/svg"><g fill="#949494"><path d="m79.027 23.239a3.68 3.68 0 0 0 -1.71 4.914 36.425 36.425 0 0 1 3.643 16.007 36.8 36.8 0 1 1 -36.8-36.8 36.357 36.357 0 0 1 22.846 7.94 3.68 3.68 0 1 0 4.579-5.761 44.166 44.166 0 1 0 16.735 34.621 43.709 43.709 0 0 0 -4.379-19.211 3.676 3.676 0 0 0 -4.914-1.71zm0 0"/><path d="m179.68 64a3.681 3.681 0 0 0 -3.68 3.68v25.76a3.681 3.681 0 0 0 3.68 3.68h18.4a3.68 3.68 0 1 0 0-7.36h-14.72v-22.08a3.681 3.681 0 0 0 -3.68-3.68zm0 0" transform="translate(-135.52 -49.28)"/></g></svg>