<svg xmlns="http://www.w3.org/2000/svg" id="prefix__cog" width="42.501" height="43.002" viewBox="0 0 42.501 43.002">
    <defs>
        <style>
            .prefix__cls-1{fill:rgba(122,122,122,.59)}
        </style>
    </defs>
    <path id="prefix__Trazado_21" d="M42.543 26.563l-2.867-1.911a3.893 3.893 0 0 1 0-6.689l2.867-.956c.6-.348.348-1.309 0-1.911L37.765 6.5c-.347-.6-1.309-1.3-1.911-.956l-1.912 1.907c-2.533 1.462-5.734-.894-5.734-3.822V1.718c0-.7-.26-1.911-.956-1.911h-10.51c-.7 0-.956 1.215-.956 1.911v1.911c0 2.925-3.2 5.286-5.734 3.822L7.186 5.54c-.6-.348-1.563.353-1.911.956L.5 15.1c-.348.6.353 1.563.956 1.911l1.911.956a3.893 3.893 0 0 1 0 6.689l-1.915 1.907c-.6.348-1.3.353-.956.956l4.778 9.556c.347.6 1.309.348 1.911 0l2.867-.956c2.532-1.463 5.734-.062 5.734 2.867v2.867c0 .7.26.956.956.956h10.511c.7 0 .956-.26.956-.956v-2.867c0-2.924 3.2-4.331 5.734-2.867l1.911.956c.6.348 1.563.6 1.911 0l4.778-9.556c.347-.602.602-.608 0-.956zm-5.734 7.645l-1.909-.956c-4.213-2.433-9.556.865-9.556 5.734V40.9H17.7v-1.914c0-4.865-5.34-8.168-9.556-5.734l-.956.956-3.825-6.689.956-.956a5.95 5.95 0 0 0 0-10.512l-.956-.951 3.823-6.693.956.956C12.354 11.8 17.7 8.5 17.7 3.629v-.956h7.645v.956c0 4.865 5.34 8.168 9.556 5.734l1.911-.956 2.864 6.693-.956.956a5.95 5.95 0 0 0 0 10.512l.956.956zm0 0" class="prefix__cls-1" data-name="Trazado 21" transform="translate(-.404 .193)"/>
    <path id="prefix__Trazado_22" d="M157.844 150.535c-4.862 0-8.6 4.693-8.6 9.556a8.46 8.46 0 0 0 8.6 8.6c4.862 0 9.556-3.738 9.556-8.6s-4.694-9.556-9.556-9.556zm0 15.29a5.383 5.383 0 0 1-5.734-5.734c0-3.473 2.261-6.689 5.734-6.689a6.994 6.994 0 0 1 6.689 6.689c0 3.473-3.216 5.733-6.689 5.733zm0 0" class="prefix__cls-1" data-name="Trazado 22" transform="translate(-136.728 -138.112)"/>
</svg>
