<svg xmlns="http://www.w3.org/2000/svg" width="33.655" height="29.167" viewBox="0 0 33.655 29.167">
    <defs>
        <style>
            .prefix__cls-1{fill:#9bd218}
        </style>
    </defs>
    <g id="prefix__engine-motor-car-power" transform="translate(-2 -6)">
        <path id="prefix__Trazado_419" d="M35.094 16.657h-2.8a.561.561 0 0 0-.561.561v3.365h-1.127v-7.852a.561.561 0 0 0-.561-.561h-5.609v-1.683h5.609a.561.561 0 0 0 .555-.651l-.56-3.365A.561.561 0 0 0 29.485 6h-12.34a.561.561 0 0 0-.555.471l-.561 3.365a.561.561 0 0 0 .555.651h4.487v1.683h-4.487a.561.561 0 0 0-.359.129l-3.208 2.676H8.17a.561.561 0 0 0-.561.561v5.609H5.926v-.426l.5-1a.561.561 0 0 0 .062-.252v-3.932a.561.561 0 0 0-.561-.561H2.561a.561.561 0 0 0-.561.561v3.926a.561.561 0 0 0 .062.252l.5 1v4.218l-.5 1a.561.561 0 0 0-.062.262v3.926a.561.561 0 0 0 .561.561h3.365a.561.561 0 0 0 .561-.561v-3.926a.561.561 0 0 0-.062-.252l-.5-1v-.431h1.684v6.17a.561.561 0 0 0 .561.561h3.6l2.081 3.646a.561.561 0 0 0 .488.28H27.8a.561.561 0 0 0 .488-.28l2.244-3.926a.633.633 0 0 0 .073-.28v-5.61h1.122v3.365a.561.561 0 0 0 .561.561h2.8a.561.561 0 0 0 .561-.561V17.218a.561.561 0 0 0-.555-.561zm-29.729 2.67l-.5 1a.561.561 0 0 0-.062.252v4.487a.561.561 0 0 0 .062.252l.5 1v3.231H3.122v-3.222l.5-1a.561.561 0 0 0 .062-.252v-4.491a.561.561 0 0 0-.062-.252l-.5-1V16.1h2.243zm2.244 4.061H5.926v-1.122h1.683zm9.637-14.023l.376-2.244h11.386l.376 2.244zm6.069 1.122v1.683h-1.122v-1.683zm6.17 20.041l-2.008 3.517H14.665l-1.6-2.8h2.962v-1.126H8.731V16.1h4.487a.561.561 0 0 0 .359-.129l3.208-2.676h12.7zm2.244-6.579h-1.123v-2.244h1.122zm2.8 3.926H32.85v-10.1h1.683z" class="prefix__cls-1" data-name="Trazado 419"/>
        <path id="prefix__Trazado_420" d="M22.244 34a2.244 2.244 0 1 0 2.244 2.244A2.244 2.244 0 0 0 22.244 34zm0 3.365a1.122 1.122 0 1 1 1.122-1.122 1.122 1.122 0 0 1-1.122 1.122z" class="prefix__cls-1" data-name="Trazado 420" transform="translate(-7.904 -12.295)"/>
        <circle id="prefix__Elipse_82" cx="1" cy="1" r="1" class="prefix__cls-1" data-name="Elipse 82" transform="translate(22 17.167)"/>
        <path id="prefix__Rectángulo_1181" d="M0 0H2V1H0z" class="prefix__cls-1" data-name="Rectángulo 1181" transform="translate(17 30.167)"/>
        <path id="prefix__Trazado_421" d="M34.189 32.193l-1.5-6.5A2.8 2.8 0 0 0 29.9 23a2.775 2.775 0 0 0-2.059.92l-7.7 3.646a3.926 3.926 0 0 0 .785 7.774h11.215a2.244 2.244 0 0 0 2.244-2.24 2.212 2.212 0 0 0-.196-.907zM29.9 24.122a1.683 1.683 0 1 1-1.685 1.678 1.683 1.683 0 0 1 1.685-1.678zm-8.975 10.1a2.8 2.8 0 1 1 2.8-2.8 2.8 2.8 0 0 1-2.8 2.8zm9.289 0h-6.548a3.915 3.915 0 0 0-1.318-6.456l4.779-2.266a2.732 2.732 0 0 0-.034.309 2.8 2.8 0 0 0 2.8 2.8 2.776 2.776 0 0 0 2.092-.959l.763 3.3a2.21 2.21 0 0 0-.611-.1A2.244 2.244 0 0 0 29.9 33.1a2.191 2.191 0 0 0 .314 1.122zm1.93 0a1.122 1.122 0 1 1 1.119-1.122 1.122 1.122 0 0 1-1.122 1.118z" class="prefix__cls-1" data-name="Trazado 421" transform="translate(-6.583 -7.465)"/>
    </g>
</svg>
