<svg viewBox="0 0 100 100" xmlns="http://www.w3.org/2000/svg"><path d="m63.3 30.22-.2-.09a22.53 22.53 0 0 1 -13.1-25.13 33.77 33.77 0 0 0 -22.37 28.9q-.09 1.09-.12 2.19v.73a33.59 33.59 0 0 0 5.66 18.71 11.23 11.23 0 0 1 -12.69-10.65 33.76 33.76 0 0 0 27.46 50.06 15.48 15.48 0 0 1 -9.19-13.81c0-.11 0-.22 0-.33a15.46 15.46 0 0 1 9.37-14.22h.08a12.65 12.65 0 0 0 7.64-11.61 15.49 15.49 0 0 1 8.16 12.27c0 .34 0 .68.05 1v.33a15.39 15.39 0 0 1 -2.59 8.58l-1.25 1.85 2.25.29a7.12 7.12 0 0 0 .9.06 7 7 0 0 0 5.71-2.92 15.45 15.45 0 0 1 -3.34 14.65 33.75 33.75 0 0 0 18.01-29.08c0-.24 0-.48 0-.73a33.76 33.76 0 0 0 -20.44-31.05zm17.63 31.7a30.94 30.94 0 0 1 -8.52 20.65q.09-.88.09-1.78a18.31 18.31 0 0 0 -.73-5.11l-1.61-5.55-3.37 4.69a4.2 4.2 0 0 1 -1.54 1.31 18.22 18.22 0 0 0 1.63-7.55c0-.13 0-.26 0-.39 0-.39 0-.79-.06-1.19a18.21 18.21 0 0 0 -9.62-14.56l-4.13-2.2v4.68a9.86 9.86 0 0 1 -6 9l-.07.08a18.27 18.27 0 0 0 -11.07 16.8v.39a18.18 18.18 0 0 0 2.43 8.74 31 31 0 0 1 -18.06-37.33 14 14 0 0 0 11.42 5.84 14.22 14.22 0 0 0 1.8-.12l4.5-.58-2.52-3.74a30.79 30.79 0 0 1 -5.19-17.15c0-.22 0-.45 0-.67 0-.66.05-1.34.11-2a31 31 0 0 1 16.28-24.67 25.31 25.31 0 0 0 15.3 23.21h.06l.15.06a30.92 30.92 0 0 1 18.73 28.47c0 .22-.01.45-.01.67z"/></svg>