<svg height="43.002" viewBox="0 0 49.735 43.002" width="49.735" xmlns="http://www.w3.org/2000/svg"><g fill="#474747"><path d="m5.323 13.977a5.912 5.912 0 0 0 -5.733 5.734v18.156c0 2.89 2.534 4.778 5.734 4.778h21.023c3.2 0 5.734-1.888 5.734-4.778v-18.156a5.912 5.912 0 0 0 -5.734-5.734v-3.822c8.593.43 12.385 10.024 21.023 11.467 1.846.308 2.811-2.556.956-2.867-9.044-1.51-12.482-11.155-21.979-11.467v-3.822h-8.6v.956a1.911 1.911 0 0 1 -3.822 0v-.956h-8.6v10.511zm23.89 5.734v18.156a2.968 2.968 0 0 1 -2.867 2.867h-21.023a2.968 2.968 0 0 1 -2.867-2.867v-18.156a2.968 2.968 0 0 1 2.867-2.867h21.024a2.968 2.968 0 0 1 2.866 2.867zm-20.067-13.379h1.911c.626 1.815 2.565 2.868 4.778 2.868s4.153-1.052 4.778-2.867h2.867v7.645h-14.334z" transform="translate(.41 -3.466)"/><path d="m21.592 241.253a2.44 2.44 0 0 0 -1.911 1.911c0 .729 1.1.956 1.911.956h21.979c.81 0 .956-.226.956-.956s-.145-1.911-.956-1.911z" transform="translate(-15.858 -201.117)"/></g></svg>