<svg xmlns="http://www.w3.org/2000/svg" id="prefix__gas" width="49.735" height="43.002" viewBox="0 0 49.735 43.002">
    <defs>
        <style>
            .prefix__cls-1{fill:#474747}
        </style>
    </defs>
    <g id="prefix__Grupo_509" data-name="Grupo 509">
        <path id="prefix__Trazado_491" d="M5.323 13.977A5.912 5.912 0 0 0-.41 19.711v18.156c0 2.89 2.534 4.778 5.734 4.778h21.023c3.2 0 5.734-1.888 5.734-4.778V19.711a5.912 5.912 0 0 0-5.734-5.734v-3.822c8.593.43 12.385 10.024 21.023 11.467 1.846.308 2.811-2.556.956-2.867C39.282 17.245 35.844 7.6 26.347 7.288V3.466h-8.6v.956a1.911 1.911 0 0 1-3.822 0v-.956h-8.6v10.511zm23.89 5.734v18.156a2.968 2.968 0 0 1-2.867 2.867H5.323a2.968 2.968 0 0 1-2.867-2.867V19.711a2.968 2.968 0 0 1 2.867-2.867h21.024a2.968 2.968 0 0 1 2.866 2.867zM9.146 6.332h1.911c.626 1.815 2.565 2.868 4.778 2.868s4.153-1.052 4.778-2.867h2.867v7.645H9.146z" class="prefix__cls-1" data-name="Trazado 491" transform="translate(.41 -3.466)"/>
        <path id="prefix__Trazado_492" d="M21.592 241.253a2.44 2.44 0 0 0-1.911 1.911c0 .729 1.1.956 1.911.956h21.979c.81 0 .956-.226.956-.956s-.145-1.911-.956-1.911z" class="prefix__cls-1" data-name="Trazado 492" transform="translate(-15.858 -201.117)"/>
    </g>
</svg>
