<svg xmlns="http://www.w3.org/2000/svg" width="61.924" height="59.091" viewBox="0 0 61.924 59.091">
    <defs>
        <style>
            .prefix__cls-1{fill:#fff}
        </style>
    </defs>
    <g id="prefix__grid" transform="rotate(90 30.962 30.962)">
        <g id="prefix__Grupo_112" data-name="Grupo 112">
            <g id="prefix__Grupo_111" data-name="Grupo 111">
                <path id="prefix__Rectángulo_1152" d="M0 0H15.261V16.275H0z" class="prefix__cls-1" data-name="Rectángulo 1152" transform="translate(21.915 22.825)"/>
                <path id="prefix__Rectángulo_1153" d="M0 0H15.261V16.275H0z" class="prefix__cls-1" data-name="Rectángulo 1153"/>
                <path id="prefix__Rectángulo_1154" d="M0 0H15.261V16.275H0z" class="prefix__cls-1" data-name="Rectángulo 1154" transform="translate(21.915 45.649)"/>
                <path id="prefix__Rectángulo_1155" d="M0 0H15.261V16.275H0z" class="prefix__cls-1" data-name="Rectángulo 1155" transform="translate(0 22.825)"/>
                <path id="prefix__Rectángulo_1156" d="M0 0H15.261V16.275H0z" class="prefix__cls-1" data-name="Rectángulo 1156" transform="translate(0 45.649)"/>
                <path id="prefix__Rectángulo_1157" d="M0 0H15.261V16.275H0z" class="prefix__cls-1" data-name="Rectángulo 1157" transform="translate(43.83)"/>
                <path id="prefix__Rectángulo_1158" d="M0 0H15.261V16.275H0z" class="prefix__cls-1" data-name="Rectángulo 1158" transform="translate(21.915)"/>
                <path id="prefix__Rectángulo_1159" d="M0 0H15.261V16.275H0z" class="prefix__cls-1" data-name="Rectángulo 1159" transform="translate(43.83 22.825)"/>
                <path id="prefix__Rectángulo_1160" d="M0 0H15.261V16.275H0z" class="prefix__cls-1" data-name="Rectángulo 1160" transform="translate(43.83 45.649)"/>
            </g>
        </g>
    </g>
</svg>
