<svg height="59.091" viewBox="0 0 61.924 59.091" width="61.924" xmlns="http://www.w3.org/2000/svg"><g fill="#fff" transform="matrix(0 1 -1 0 61.924 0)"><path d="m0 0h15.261v16.275h-15.261z" transform="translate(21.915 22.825)"/><path d="m0 0h15.261v16.275h-15.261z"/><path d="m0 0h15.261v16.275h-15.261z" transform="translate(21.915 45.649)"/><path d="m0 0h15.261v16.275h-15.261z" transform="translate(0 22.825)"/><path d="m0 0h15.261v16.275h-15.261z" transform="translate(0 45.649)"/><path d="m0 0h15.261v16.275h-15.261z" transform="translate(43.83)"/><path d="m0 0h15.261v16.275h-15.261z" transform="translate(21.915)"/><path d="m0 0h15.261v16.275h-15.261z" transform="translate(43.83 22.825)"/><path d="m0 0h15.261v16.275h-15.261z" transform="translate(43.83 45.649)"/></g></svg>