<svg viewBox="0 0 512 512" xmlns="http://www.w3.org/2000/svg"><path d="m395.49 450h-269.69a15 15 0 0 1 -15-15v-238a15 15 0 0 1 30 0v223h239.69v-223a15 15 0 1 1 30 0v238a15 15 0 0 1 -15 15z"/><path d="m445.11 261.65a15 15 0 0 1 -10.61-4.39l-173.86-173.86-173.86 173.86a15 15 0 0 1 -21.21-21.21l184.43-184.47a15 15 0 0 1 21.21 0l184.51 184.47a15 15 0 0 1 -10.61 25.6z"/><path d="m304.15 450h-87a15 15 0 0 1 -15-15v-129.52a15 15 0 0 1 15-15h87a15 15 0 0 1 15 15v129.52a15 15 0 0 1 -15 15zm-72-30h57v-99.52h-57z"/></svg>