<svg xmlns="http://www.w3.org/2000/svg" width="43.958" height="43.426" viewBox="0 0 43.958 43.426">
    <path id="prefix__idea" d="M21.58 12.735A12.5 12.5 0 0 0 9.158 25.28a11.989 11.989 0 0 0 6.689 10.62c.444.241.956.443.956.965v5.79a3.6 3.6 0 0 0 3.822 3.86h1.911c2.323 0 4.778-1.514 4.778-3.86v-5.79c0-.521-.463-.712 0-.965A12.047 12.047 0 0 0 34 25.28a12.451 12.451 0 0 0-12.42-12.545zm.956 30.881h-1.911c-.774 0-.956-.183-.956-.965v-3.86h4.778v3.86c0 .782-1.137.965-1.911.965zm3.822-9.65a3.432 3.432 0 0 0-1.911 1.93h-5.733a3.424 3.424 0 0 0-1.911-1.93 9.635 9.635 0 0 1-4.778-8.685 9.515 9.515 0 0 1 9.556-9.65 9.623 9.623 0 0 1 9.556 9.65 9.681 9.681 0 0 1-4.779 8.685zM20.625 19.49c.3.724.717 1.631 0 1.93-1.052.439-2.457.86-2.867 1.93-.215.562-.392.965-.956.965-.983 0-2.267-1-1.911-1.93a6.813 6.813 0 0 1 3.822-3.86 1.591 1.591 0 0 1 1.912.965zM6.291 25.28c0 .783-1.136.965-1.911.965H1.513c-.775 0-1.911-.182-1.911-.965a2.438 2.438 0 0 1 1.911-1.93H4.38a2.438 2.438 0 0 1 1.911 1.93zm4.778 10.62a1.338 1.338 0 0 1 0 1.93L8.2 40.721c-.274.277-.6 0-.956 0-1.24 0-1.843-1.034-.956-1.93l2.867-2.9a1.307 1.307 0 0 1 1.914.009zm9.556-27.99V4.05c0-.783.18-.965.956-.965s1.911.182 1.911.965v3.86c0 .783-1.136.965-1.911.965s-.956-.182-.956-.965zM6.291 11.77a1.338 1.338 0 0 1 0-1.93 1.307 1.307 0 0 1 1.911 0l2.867 1.93c.887.9.284 2.9-.956 2.9-.359 0-.681-.688-.956-.965zm26.757 0l1.911-1.93a1.307 1.307 0 0 1 1.911 0 1.338 1.338 0 0 1 0 1.93l-1.911 1.93c-.274.277-.6.965-.956.965-1.24 0-1.843-1.999-.955-2.895zm10.511 13.51c0 .783-1.136.965-1.911.965h-2.867c-.775 0-.956-.182-.956-.965s.18-1.93.956-1.93h2.867a2.438 2.438 0 0 1 1.911 1.93zM36.87 38.791a1.338 1.338 0 0 1 0 1.93 1.307 1.307 0 0 1-1.911 0l-1.911-2.9a1.338 1.338 0 0 1 0-1.93 1.307 1.307 0 0 1 1.911 0z" transform="translate(.398 -3.085)" style="fill:rgba(122,122,122,.59)"/>
</svg>
