<svg height="58.115" viewBox="0 0 101.608 58.115" width="101.608" xmlns="http://www.w3.org/2000/svg"><g fill="#fff"><path d="m182.257 307.2h-44.03a1.617 1.617 0 0 0 -1.693 1.529v33.646a1.617 1.617 0 0 0 1.693 1.529h44.03a1.616 1.616 0 0 0 1.693-1.529v-33.646a1.616 1.616 0 0 0 -1.693-1.529zm-1.693 33.646h-40.643v-30.587h40.643z" transform="translate(-109.438 -285.789)"/><path d="m182.257 307.2h-44.03a1.617 1.617 0 0 0 -1.693 1.529v33.646a1.617 1.617 0 0 0 1.693 1.529h44.03a1.616 1.616 0 0 0 1.693-1.529v-33.646a1.616 1.616 0 0 0 -1.693-1.529zm-1.693 33.646h-40.643v-30.587h40.643z" transform="translate(-109.438 -285.789)"/><path d="m28.789 307.2h-27.096a1.617 1.617 0 0 0 -1.693 1.529v33.646a1.617 1.617 0 0 0 1.693 1.53h27.1a1.617 1.617 0 0 0 1.693-1.529v-33.647a1.617 1.617 0 0 0 -1.697-1.529zm-1.689 33.646h-23.713v-30.587h23.713z" transform="translate(0 -285.789)"/><path d="m387.189 307.2h-27.1a1.616 1.616 0 0 0 -1.693 1.529v33.646a1.616 1.616 0 0 0 1.693 1.529h27.1a1.616 1.616 0 0 0 1.693-1.529v-33.646a1.616 1.616 0 0 0 -1.693-1.529zm-1.689 33.646h-23.713v-30.587h23.713z" transform="translate(-287.274 -285.789)"/><path d="m202.843 375.467h-30.483a1.617 1.617 0 0 0 -1.693 1.533v15.29a1.617 1.617 0 0 0 1.693 1.529h30.482a1.616 1.616 0 0 0 1.693-1.529v-15.29a1.616 1.616 0 0 0 -1.692-1.533zm-1.693 15.293h-27.1v-12.234h27.1z" transform="translate(-136.798 -341.821)"/><path d="m0 0h3.387v3.059h-3.387z" transform="translate(52.497 27.528)"/><path d="m0 0h3.387v3.059h-3.387z" transform="translate(45.724 27.528)"/><path d="m0 0h3.387v3.059h-3.387z" transform="translate(38.95 27.528)"/><path d="m0 0h3.387v3.059h-3.387z" transform="translate(59.271 27.528)"/><path d="m0 0h27.095v3.059h-27.095z" transform="translate(1.693 33.646)"/><path d="m0 0h6.774v3.059h-6.774z" transform="translate(11.854 27.528)"/><path d="m0 0h6.774v3.059h-6.774z" transform="translate(11.854 39.763)"/><path d="m0 0h27.095v3.059h-27.095z" transform="translate(72.819 33.646)"/><path d="m0 0h3.387v21.411h-3.387z" transform="translate(84.673 35.175)"/><path d="m0 0h6.774v3.059h-6.774z" transform="translate(82.98 27.528)"/><path d="m0 0h3.387v4.588h-3.387z" transform="translate(77.899 42.822)"/><path d="m0 0h3.387v4.588h-3.387z" transform="translate(91.447 42.822)"/><path d="m433.441 187.733c-3.736 0-6.774 2.744-6.774 6.117v1.529h3.387v-1.529a3.4 3.4 0 0 1 6.774 0v16.823h3.387v-16.823c0-3.373-3.038-6.117-6.774-6.117z" transform="translate(-341.994 -187.733)"/><path d="m0 0h5.08v3.059h-5.08z" transform="translate(91.447 15.294)"/><path d="m172.229 256h-16.935a1.617 1.617 0 0 0 -1.693 1.529v9.176a1.617 1.617 0 0 0 1.693 1.529h16.935a1.617 1.617 0 0 0 1.693-1.529v-9.176a1.617 1.617 0 0 0 -1.693-1.529zm-1.694 9.176h-13.547v-6.117h13.548z" transform="translate(-123.118 -243.765)"/><path d="m0 0h5.08v3.059h-5.08z" transform="translate(27.095 15.294)"/><path d="m0 0h5.08v3.059h-5.08z" transform="translate(49.111 15.294)"/></g></svg>