<svg height="58.031" viewBox="0 0 64.259 58.031" width="64.259" xmlns="http://www.w3.org/2000/svg"><g fill="#fff"><path d="m57.055 0h-49.855c-3.968 0-7.2 2.918-7.2 6.506v45.02c0 3.587 3.232 6.505 7.2 6.505h49.855c3.972 0 7.2-2.918 7.2-6.505v-45.02c.004-3.588-3.228-6.506-7.2-6.506zm.645 51.526a.618.618 0 0 1 -.647.584h-49.853a.618.618 0 0 1 -.647-.584v-45.02a.618.618 0 0 1 .647-.584h49.855a.618.618 0 0 1 .647.584v45.02z"/><path d="m93.595 66.077a3.94 3.94 0 0 0 -4.089-3.5h-3.976a4.066 4.066 0 0 0 -3.921 2.637c-1.791 5.4-5.768 17.437-6.569 20.4h-.165c-.629-2.99-4.241-14.9-5.9-20.327a4.049 4.049 0 0 0 -3.945-2.714h-4.16a3.944 3.944 0 0 0 -4.087 3.463l-1.848 26.164a3.293 3.293 0 0 0 1.037 2.607 4.065 4.065 0 0 0 2.815 1.1 3.623 3.623 0 0 0 3.766-3.254c.313-6.286.986-19.78 1.152-23.2h.109c.737 3.661 5.388 19.5 6.846 24.436a2.17 2.17 0 0 0 2.121 1.473h3.211a2.184 2.184 0 0 0 2.1-1.4c1.665-4.859 7.144-20.913 8.116-24.511h.165c0 3.638.494 16.723.739 23.02a3.778 3.778 0 0 0 3.936 3.433 4.345 4.345 0 0 0 2.995-1.164 3.523 3.523 0 0 0 1.123-2.764z" transform="translate(-42.922 -50.228)"/></g></svg>