<svg height="43.002" viewBox="0 0 34.402 43.002" width="34.402" xmlns="http://www.w3.org/2000/svg"><g fill="#474747"><path d="m80.861 15.484h-2.866v-6.684a8.357 8.357 0 0 0 -8.6-8.6c-5 0-9.556 3.7-9.556 8.6v6.689h-2.868c-2.779 0-4.778 2.955-4.778 5.734v17.2a4.61 4.61 0 0 0 4.778 4.777h23.89c2.779 0 5.734-2 5.734-4.778v-17.2a6.314 6.314 0 0 0 -5.734-5.738zm-17.2-6.684a5.734 5.734 0 0 1 11.467 0v6.689h-11.467zm19.112 29.619c0 .926-.985.956-1.911.956h-23.891c-.926 0-1.911-.029-1.911-.956v-17.2a2.1 2.1 0 0 1 1.911-1.911h23.89a2.1 2.1 0 0 1 1.911 1.911z" transform="translate(-52.193 -.195)"/><path d="m222.338 286.058c-1.716 0-3.822 1.15-3.822 2.867a4.093 4.093 0 0 0 1.911 2.867v3.822a2.1 2.1 0 0 0 1.911 1.911c.928 0 .956-.984.956-1.911v-3.822a4.076 4.076 0 0 0 1.911-2.867 2.712 2.712 0 0 0 -2.867-2.867z" transform="translate(-205.138 -262.168)"/></g></svg>