<svg height="89.892" viewBox="0 0 56.388 89.892" width="56.388" xmlns="http://www.w3.org/2000/svg"><g fill="#94e538" transform="translate(-77.965)"><path d="m133.165 14.673a1.257 1.257 0 0 0 1.188-1.317v-8.431a4.708 4.708 0 0 0 -4.443-4.925h-47.5a4.708 4.708 0 0 0 -4.442 4.925v74.55a4.708 4.708 0 0 0 4.439 4.925h.83v2.4a2.956 2.956 0 0 0 2.789 3.092h3.374a2.956 2.956 0 0 0 2.784-3.092v-2.4h27.95v2.4a2.956 2.956 0 0 0 2.789 3.092h3.369a2.956 2.956 0 0 0 2.789-3.092v-2.4h.83a4.708 4.708 0 0 0 4.442-4.925v-59.963a1.194 1.194 0 1 0 -2.375 0v10.722h-33.809a1.324 1.324 0 0 0 0 2.634h33.808v46.608a2.191 2.191 0 0 1 -2.067 2.292h-47.5a2.191 2.191 0 0 1 -2.067-2.292v-46.608h12.274a1.324 1.324 0 0 0 0-2.634h-12.277v-25.309a2.191 2.191 0 0 1 2.067-2.292h47.5a2.191 2.191 0 0 1 2.067 2.292v8.431a1.257 1.257 0 0 0 1.188 1.317zm-43.356 72.127a.438.438 0 0 1 -.414.459h-3.369a.438.438 0 0 1 -.414-.459v-2.4h4.2zm36.9 0a.438.438 0 0 1 -.414.459h-3.369a.438.438 0 0 1 -.414-.459v-2.4h4.2z"/><path d="m112.011 41.894v14.865a4.514 4.514 0 0 0 9.027 0v-14.865a4.514 4.514 0 0 0 -9.027 0zm5.84 0v14.865a1.327 1.327 0 0 1 -2.653 0v-14.865a1.327 1.327 0 0 1 2.653 0z" transform="translate(-26.812 -29.437)"/><path d="m112.011 209.336v14.864a4.514 4.514 0 1 0 9.027 0v-14.864a4.514 4.514 0 1 0 -9.027 0zm5.84 0v14.864a1.327 1.327 0 0 1 -2.653 0v-14.864a1.327 1.327 0 0 1 2.653 0z" transform="translate(-26.812 -170.989)"/></g></svg>