<svg height="60.484" viewBox="0 0 62.51 60.484" width="62.51" xmlns="http://www.w3.org/2000/svg"><g fill="#fff"><path d="m3.349 6.048a3.2 3.2 0 0 0 3.351-3.024 3.2 3.2 0 0 0 -3.351-3.024 3.2 3.2 0 0 0 -3.349 3.024 3.2 3.2 0 0 0 3.349 3.024zm0-4.032a1.066 1.066 0 0 1 1.116 1.008 1.066 1.066 0 0 1 -1.116 1.008 1.066 1.066 0 0 1 -1.117-1.008 1.066 1.066 0 0 1 1.117-1.008z" transform="matrix(-1 0 0 -1 52.464 50.403)"/><path d="m3.349 6.048a3.2 3.2 0 0 0 3.351-3.024 3.2 3.2 0 0 0 -3.351-3.024 3.2 3.2 0 0 0 -3.349 3.024 3.2 3.2 0 0 0 3.349 3.024zm0-4.032a1.066 1.066 0 0 1 1.116 1.008 1.066 1.066 0 0 1 -1.116 1.008 1.066 1.066 0 0 1 -1.117-1.008 1.066 1.066 0 0 1 1.117-1.008z" transform="matrix(-1 0 0 -1 52.464 42.339)"/><path d="m3.349 6.048a3.2 3.2 0 0 0 3.351-3.024 3.2 3.2 0 0 0 -3.351-3.024 3.2 3.2 0 0 0 -3.349 3.024 3.2 3.2 0 0 0 3.349 3.024zm0-4.032a1.066 1.066 0 0 1 1.116 1.008 1.066 1.066 0 0 1 -1.116 1.008 1.066 1.066 0 0 1 -1.117-1.008 1.066 1.066 0 0 1 1.117-1.008z" transform="matrix(-1 0 0 -1 52.464 26.21)"/><path d="m3.349 6.048a3.2 3.2 0 0 0 3.351-3.024 3.2 3.2 0 0 0 -3.351-3.024 3.2 3.2 0 0 0 -3.349 3.024 3.2 3.2 0 0 0 3.349 3.024zm0-4.032a1.066 1.066 0 0 1 1.116 1.008 1.066 1.066 0 0 1 -1.116 1.008 1.066 1.066 0 0 1 -1.117-1.008 1.066 1.066 0 0 1 1.117-1.008z" transform="matrix(-1 0 0 -1 52.464 18.145)"/><path d="m3.349 6.048a3.2 3.2 0 0 0 3.351-3.024 3.2 3.2 0 0 0 -3.351-3.024 3.2 3.2 0 0 0 -3.349 3.024 3.2 3.2 0 0 0 3.349 3.024zm0-4.032a1.066 1.066 0 0 1 1.116 1.008 1.066 1.066 0 0 1 -1.116 1.008 1.066 1.066 0 0 1 -1.117-1.008 1.066 1.066 0 0 1 1.117-1.008z" transform="matrix(-1 0 0 -1 52.464 10.081)"/><path d="m3.349 6.048a3.2 3.2 0 0 0 3.351-3.024 3.2 3.2 0 0 0 -3.351-3.024 3.2 3.2 0 0 0 -3.349 3.024 3.2 3.2 0 0 0 3.349 3.024zm0-4.032a1.066 1.066 0 0 1 1.116 1.008 1.066 1.066 0 0 1 -1.116 1.008 1.066 1.066 0 0 1 -1.117-1.008 1.066 1.066 0 0 1 1.117-1.008z" transform="matrix(-1 0 0 -1 52.464 34.274)"/><path d="m1.116 60.484h8.93a1.066 1.066 0 0 0 1.116-1.008v-49.4h6.7v41.336a.961.961 0 0 0 .327.713l8.93 8.065a1.18 1.18 0 0 0 .789.3h8.93a1.18 1.18 0 0 0 .789-.3l8.93-8.065a.961.961 0 0 0 .327-.713v-50.404a1.066 1.066 0 0 0 -1.118-1.008h-8.93a1.066 1.066 0 0 0 -1.116 1.008v49.392h-6.7v-49.392a1.066 1.066 0 0 0 -1.114-1.008h-17.86a1.18 1.18 0 0 0 -.789.3l-8.93 8.06a.961.961 0 0 0 -.327.713v50.4a1.066 1.066 0 0 0 1.116 1.008zm36.836-13.1v-45.368h6.7v48.978l-6.7 6.048zm-8.93 5.04h6.7v6.048h-6.7zm-8.93-5.04v-45.368h6.7v55.027l-6.7-6.048zm-8.93-45.368h6.7v6.049h-6.7zm-8.93 51.412v-43.938l6.7-6.048v55.026h-6.7z" transform="matrix(-1 0 0 -1 54.696 60.484)"/><path d="m3.349 6.048a3.2 3.2 0 0 0 3.351-3.024 3.2 3.2 0 0 0 -3.351-3.024 3.2 3.2 0 0 0 -3.349 3.024 3.2 3.2 0 0 0 3.349 3.024zm0-4.032a1.066 1.066 0 0 1 1.116 1.008 1.066 1.066 0 0 1 -1.116 1.008 1.066 1.066 0 0 1 -1.117-1.008 1.066 1.066 0 0 1 1.117-1.008z" transform="matrix(-1 0 0 -1 16.744 16.129)"/><path d="m3.349 6.048a3.2 3.2 0 0 0 3.351-3.024 3.2 3.2 0 0 0 -3.351-3.024 3.2 3.2 0 0 0 -3.349 3.024 3.2 3.2 0 0 0 3.349 3.024zm0-4.032a1.066 1.066 0 0 1 1.116 1.008 1.066 1.066 0 0 1 -1.116 1.008 1.066 1.066 0 0 1 -1.117-1.008 1.066 1.066 0 0 1 1.117-1.008z" transform="matrix(-1 0 0 -1 16.744 24.194)"/><path d="m3.349 6.048a3.2 3.2 0 0 0 3.351-3.024 3.2 3.2 0 0 0 -3.351-3.024 3.2 3.2 0 0 0 -3.349 3.024 3.2 3.2 0 0 0 3.349 3.024zm0-4.032a1.066 1.066 0 0 1 1.116 1.008 1.066 1.066 0 0 1 -1.116 1.008 1.066 1.066 0 0 1 -1.117-1.008 1.066 1.066 0 0 1 1.117-1.008z" transform="matrix(-1 0 0 -1 16.744 40.323)"/><path d="m3.349 6.048a3.2 3.2 0 0 0 3.351-3.024 3.2 3.2 0 0 0 -3.351-3.024 3.2 3.2 0 0 0 -3.349 3.024 3.2 3.2 0 0 0 3.349 3.024zm0-4.032a1.066 1.066 0 0 1 1.116 1.008 1.066 1.066 0 0 1 -1.116 1.008 1.066 1.066 0 0 1 -1.117-1.008 1.066 1.066 0 0 1 1.117-1.008z" transform="matrix(-1 0 0 -1 16.744 48.387)"/><path d="m3.349 6.048a3.2 3.2 0 0 0 3.351-3.024 3.2 3.2 0 0 0 -3.351-3.024 3.2 3.2 0 0 0 -3.349 3.024 3.2 3.2 0 0 0 3.349 3.024zm0-4.032a1.066 1.066 0 0 1 1.116 1.008 1.066 1.066 0 0 1 -1.116 1.008 1.066 1.066 0 0 1 -1.117-1.008 1.066 1.066 0 0 1 1.117-1.008z" transform="matrix(-1 0 0 -1 16.744 56.452)"/><path d="m3.349 6.048a3.2 3.2 0 0 0 3.351-3.024 3.2 3.2 0 0 0 -3.351-3.024 3.2 3.2 0 0 0 -3.349 3.024 3.2 3.2 0 0 0 3.349 3.024zm0-4.032a1.066 1.066 0 0 1 1.116 1.008 1.066 1.066 0 0 1 -1.116 1.008 1.066 1.066 0 0 1 -1.117-1.008 1.066 1.066 0 0 1 1.117-1.008z" transform="matrix(-1 0 0 -1 16.744 32.258)"/><path d="m3.349 6.048a3.2 3.2 0 0 0 3.351-3.024 3.2 3.2 0 0 0 -3.351-3.024 3.2 3.2 0 0 0 -3.349 3.024 3.2 3.2 0 0 0 3.349 3.024zm0-4.032a1.066 1.066 0 0 1 1.116 1.008 1.066 1.066 0 0 1 -1.116 1.008 1.066 1.066 0 0 1 -1.117-1.008 1.066 1.066 0 0 1 1.117-1.008z" transform="matrix(-1 0 0 -1 34.604 16.129)"/><path d="m3.349 6.048a3.2 3.2 0 0 0 3.351-3.024 3.2 3.2 0 0 0 -3.351-3.024 3.2 3.2 0 0 0 -3.349 3.024 3.2 3.2 0 0 0 3.349 3.024zm0-4.032a1.066 1.066 0 0 1 1.116 1.008 1.066 1.066 0 0 1 -1.116 1.008 1.066 1.066 0 0 1 -1.117-1.008 1.066 1.066 0 0 1 1.117-1.008z" transform="matrix(-1 0 0 -1 34.604 24.194)"/><path d="m3.349 6.048a3.2 3.2 0 0 0 3.351-3.024 3.2 3.2 0 0 0 -3.351-3.024 3.2 3.2 0 0 0 -3.349 3.024 3.2 3.2 0 0 0 3.349 3.024zm0-4.032a1.066 1.066 0 0 1 1.116 1.008 1.066 1.066 0 0 1 -1.116 1.008 1.066 1.066 0 0 1 -1.117-1.008 1.066 1.066 0 0 1 1.117-1.008z" transform="matrix(-1 0 0 -1 34.604 40.323)"/><path d="m3.349 6.048a3.2 3.2 0 0 0 3.351-3.024 3.2 3.2 0 0 0 -3.351-3.024 3.2 3.2 0 0 0 -3.349 3.024 3.2 3.2 0 0 0 3.349 3.024zm0-4.032a1.066 1.066 0 0 1 1.116 1.008 1.066 1.066 0 0 1 -1.116 1.008 1.066 1.066 0 0 1 -1.117-1.008 1.066 1.066 0 0 1 1.117-1.008z" transform="matrix(-1 0 0 -1 34.604 48.387)"/><path d="m3.349 6.048a3.2 3.2 0 0 0 3.351-3.024 3.2 3.2 0 0 0 -3.351-3.024 3.2 3.2 0 0 0 -3.349 3.024 3.2 3.2 0 0 0 3.349 3.024zm0-4.032a1.066 1.066 0 0 1 1.116 1.008 1.066 1.066 0 0 1 -1.116 1.008 1.066 1.066 0 0 1 -1.117-1.008 1.066 1.066 0 0 1 1.117-1.008z" transform="matrix(-1 0 0 -1 34.604 56.452)"/><path d="m3.349 6.048a3.2 3.2 0 0 0 3.351-3.024 3.2 3.2 0 0 0 -3.351-3.024 3.2 3.2 0 0 0 -3.349 3.024 3.2 3.2 0 0 0 3.349 3.024zm0-4.032a1.066 1.066 0 0 1 1.116 1.008 1.066 1.066 0 0 1 -1.116 1.008 1.066 1.066 0 0 1 -1.117-1.008 1.066 1.066 0 0 1 1.117-1.008z" transform="matrix(-1 0 0 -1 34.604 32.258)"/><path d="m0 0h2.232v2.016h-2.232z" transform="matrix(-1 0 0 -1 41.301 56.452)"/><path d="m0 0h2.232v2.016h-2.232z" transform="matrix(-1 0 0 -1 23.441 6.048)"/><path d="m0 0h5.581v2.016h-5.581z" transform="matrix(-1 0 0 -1 62.51 31.25)"/><path d="m0 0 2.094.1.26 5.387-2.094-.1z" transform="matrix(-.60181502 .79863551 -.79863551 -.60181502 62.093333 35.540295)"/><path d="m0 0 5.387.26.1 2.094-5.387-.26z" transform="matrix(-.79863551 .60181502 -.60181502 -.79863551 62.027069 24.87467)"/><path d="m0 0h5.581v2.016h-5.581z" transform="matrix(-1 0 0 -1 5.582 31.25)"/><path d="m0 0 5.387.26.1 2.094-5.387-.26z" transform="matrix(-.79863551 .60181502 -.60181502 -.79863551 6.027141 34.034528)"/><path d="m0 0 2.094.1.26 5.387-2.094-.1z" transform="matrix(-.60181502 .79863551 -.79863551 -.60181502 6.418016 26.424885)"/></g></svg>