<svg xmlns="http://www.w3.org/2000/svg" width="62.51" height="60.484" viewBox="0 0 62.51 60.484">
    <defs>
        <style>
            .prefix__cls-1{fill:#fff}
        </style>
    </defs>
    <g id="prefix__outline" transform="rotate(180 31.255 30.242)">
        <path id="prefix__Trazado_329" d="M3.349 6.048A3.2 3.2 0 0 0 6.7 3.024 3.2 3.2 0 0 0 3.349 0 3.2 3.2 0 0 0 0 3.024a3.2 3.2 0 0 0 3.349 3.024zm0-4.032a1.066 1.066 0 0 1 1.116 1.008 1.066 1.066 0 0 1-1.116 1.008 1.066 1.066 0 0 1-1.117-1.008 1.066 1.066 0 0 1 1.117-1.008z" class="prefix__cls-1" data-name="Trazado 329" transform="translate(10.046 10.081)"/>
        <path id="prefix__Trazado_330" d="M3.349 6.048A3.2 3.2 0 0 0 6.7 3.024 3.2 3.2 0 0 0 3.349 0 3.2 3.2 0 0 0 0 3.024a3.2 3.2 0 0 0 3.349 3.024zm0-4.032a1.066 1.066 0 0 1 1.116 1.008 1.066 1.066 0 0 1-1.116 1.008 1.066 1.066 0 0 1-1.117-1.008 1.066 1.066 0 0 1 1.117-1.008z" class="prefix__cls-1" data-name="Trazado 330" transform="translate(10.046 18.145)"/>
        <path id="prefix__Trazado_331" d="M3.349 6.048A3.2 3.2 0 0 0 6.7 3.024 3.2 3.2 0 0 0 3.349 0 3.2 3.2 0 0 0 0 3.024a3.2 3.2 0 0 0 3.349 3.024zm0-4.032a1.066 1.066 0 0 1 1.116 1.008 1.066 1.066 0 0 1-1.116 1.008 1.066 1.066 0 0 1-1.117-1.008 1.066 1.066 0 0 1 1.117-1.008z" class="prefix__cls-1" data-name="Trazado 331" transform="translate(10.046 34.274)"/>
        <path id="prefix__Trazado_332" d="M3.349 6.048A3.2 3.2 0 0 0 6.7 3.024 3.2 3.2 0 0 0 3.349 0 3.2 3.2 0 0 0 0 3.024a3.2 3.2 0 0 0 3.349 3.024zm0-4.032a1.066 1.066 0 0 1 1.116 1.008 1.066 1.066 0 0 1-1.116 1.008 1.066 1.066 0 0 1-1.117-1.008 1.066 1.066 0 0 1 1.117-1.008z" class="prefix__cls-1" data-name="Trazado 332" transform="translate(10.046 42.339)"/>
        <path id="prefix__Trazado_333" d="M3.349 6.048A3.2 3.2 0 0 0 6.7 3.024 3.2 3.2 0 0 0 3.349 0 3.2 3.2 0 0 0 0 3.024a3.2 3.2 0 0 0 3.349 3.024zm0-4.032a1.066 1.066 0 0 1 1.116 1.008 1.066 1.066 0 0 1-1.116 1.008 1.066 1.066 0 0 1-1.117-1.008 1.066 1.066 0 0 1 1.117-1.008z" class="prefix__cls-1" data-name="Trazado 333" transform="translate(10.046 50.403)"/>
        <path id="prefix__Trazado_334" d="M3.349 6.048A3.2 3.2 0 0 0 6.7 3.024 3.2 3.2 0 0 0 3.349 0 3.2 3.2 0 0 0 0 3.024a3.2 3.2 0 0 0 3.349 3.024zm0-4.032a1.066 1.066 0 0 1 1.116 1.008 1.066 1.066 0 0 1-1.116 1.008 1.066 1.066 0 0 1-1.117-1.008 1.066 1.066 0 0 1 1.117-1.008z" class="prefix__cls-1" data-name="Trazado 334" transform="translate(10.046 26.21)"/>
        <path id="prefix__Trazado_335" d="M1.116 60.484h8.93a1.066 1.066 0 0 0 1.116-1.008v-49.4h6.7v41.336a.961.961 0 0 0 .327.713l8.93 8.065a1.18 1.18 0 0 0 .789.3h8.93a1.18 1.18 0 0 0 .789-.3l8.93-8.065a.961.961 0 0 0 .327-.713V1.008A1.066 1.066 0 0 0 45.766 0h-8.93a1.066 1.066 0 0 0-1.116 1.008V50.4h-6.7V1.008A1.066 1.066 0 0 0 27.906 0h-17.86a1.18 1.18 0 0 0-.789.3L.327 8.36A.961.961 0 0 0 0 9.073v50.4a1.066 1.066 0 0 0 1.116 1.008zm36.836-13.1V2.016h6.7v48.978l-6.7 6.048zm-8.93 5.04h6.7v6.048h-6.7zm-8.93-5.04V2.016h6.7v55.027l-6.7-6.048zm-8.93-45.368h6.7v6.049h-6.7zm-8.93 51.412V9.49l6.7-6.048v55.026h-6.7z" class="prefix__cls-1" data-name="Trazado 335" transform="translate(7.814)"/>
        <path id="prefix__Trazado_336" d="M3.349 6.048A3.2 3.2 0 0 0 6.7 3.024 3.2 3.2 0 0 0 3.349 0 3.2 3.2 0 0 0 0 3.024a3.2 3.2 0 0 0 3.349 3.024zm0-4.032a1.066 1.066 0 0 1 1.116 1.008 1.066 1.066 0 0 1-1.116 1.008 1.066 1.066 0 0 1-1.117-1.008 1.066 1.066 0 0 1 1.117-1.008z" class="prefix__cls-1" data-name="Trazado 336" transform="translate(45.766 44.355)"/>
        <path id="prefix__Trazado_337" d="M3.349 6.048A3.2 3.2 0 0 0 6.7 3.024 3.2 3.2 0 0 0 3.349 0 3.2 3.2 0 0 0 0 3.024a3.2 3.2 0 0 0 3.349 3.024zm0-4.032a1.066 1.066 0 0 1 1.116 1.008 1.066 1.066 0 0 1-1.116 1.008 1.066 1.066 0 0 1-1.117-1.008 1.066 1.066 0 0 1 1.117-1.008z" class="prefix__cls-1" data-name="Trazado 337" transform="translate(45.766 36.29)"/>
        <path id="prefix__Trazado_338" d="M3.349 6.048A3.2 3.2 0 0 0 6.7 3.024 3.2 3.2 0 0 0 3.349 0 3.2 3.2 0 0 0 0 3.024a3.2 3.2 0 0 0 3.349 3.024zm0-4.032a1.066 1.066 0 0 1 1.116 1.008 1.066 1.066 0 0 1-1.116 1.008 1.066 1.066 0 0 1-1.117-1.008 1.066 1.066 0 0 1 1.117-1.008z" class="prefix__cls-1" data-name="Trazado 338" transform="translate(45.766 20.161)"/>
        <path id="prefix__Trazado_339" d="M3.349 6.048A3.2 3.2 0 0 0 6.7 3.024 3.2 3.2 0 0 0 3.349 0 3.2 3.2 0 0 0 0 3.024a3.2 3.2 0 0 0 3.349 3.024zm0-4.032a1.066 1.066 0 0 1 1.116 1.008 1.066 1.066 0 0 1-1.116 1.008 1.066 1.066 0 0 1-1.117-1.008 1.066 1.066 0 0 1 1.117-1.008z" class="prefix__cls-1" data-name="Trazado 339" transform="translate(45.766 12.097)"/>
        <path id="prefix__Trazado_340" d="M3.349 6.048A3.2 3.2 0 0 0 6.7 3.024 3.2 3.2 0 0 0 3.349 0 3.2 3.2 0 0 0 0 3.024a3.2 3.2 0 0 0 3.349 3.024zm0-4.032a1.066 1.066 0 0 1 1.116 1.008 1.066 1.066 0 0 1-1.116 1.008 1.066 1.066 0 0 1-1.117-1.008 1.066 1.066 0 0 1 1.117-1.008z" class="prefix__cls-1" data-name="Trazado 340" transform="translate(45.766 4.032)"/>
        <path id="prefix__Trazado_341" d="M3.349 6.048A3.2 3.2 0 0 0 6.7 3.024 3.2 3.2 0 0 0 3.349 0 3.2 3.2 0 0 0 0 3.024a3.2 3.2 0 0 0 3.349 3.024zm0-4.032a1.066 1.066 0 0 1 1.116 1.008 1.066 1.066 0 0 1-1.116 1.008 1.066 1.066 0 0 1-1.117-1.008 1.066 1.066 0 0 1 1.117-1.008z" class="prefix__cls-1" data-name="Trazado 341" transform="translate(45.766 28.226)"/>
        <path id="prefix__Trazado_342" d="M3.349 6.048A3.2 3.2 0 0 0 6.7 3.024 3.2 3.2 0 0 0 3.349 0 3.2 3.2 0 0 0 0 3.024a3.2 3.2 0 0 0 3.349 3.024zm0-4.032a1.066 1.066 0 0 1 1.116 1.008 1.066 1.066 0 0 1-1.116 1.008 1.066 1.066 0 0 1-1.117-1.008 1.066 1.066 0 0 1 1.117-1.008z" class="prefix__cls-1" data-name="Trazado 342" transform="translate(27.906 44.355)"/>
        <path id="prefix__Trazado_343" d="M3.349 6.048A3.2 3.2 0 0 0 6.7 3.024 3.2 3.2 0 0 0 3.349 0 3.2 3.2 0 0 0 0 3.024a3.2 3.2 0 0 0 3.349 3.024zm0-4.032a1.066 1.066 0 0 1 1.116 1.008 1.066 1.066 0 0 1-1.116 1.008 1.066 1.066 0 0 1-1.117-1.008 1.066 1.066 0 0 1 1.117-1.008z" class="prefix__cls-1" data-name="Trazado 343" transform="translate(27.906 36.29)"/>
        <path id="prefix__Trazado_344" d="M3.349 6.048A3.2 3.2 0 0 0 6.7 3.024 3.2 3.2 0 0 0 3.349 0 3.2 3.2 0 0 0 0 3.024a3.2 3.2 0 0 0 3.349 3.024zm0-4.032a1.066 1.066 0 0 1 1.116 1.008 1.066 1.066 0 0 1-1.116 1.008 1.066 1.066 0 0 1-1.117-1.008 1.066 1.066 0 0 1 1.117-1.008z" class="prefix__cls-1" data-name="Trazado 344" transform="translate(27.906 20.161)"/>
        <path id="prefix__Trazado_345" d="M3.349 6.048A3.2 3.2 0 0 0 6.7 3.024 3.2 3.2 0 0 0 3.349 0 3.2 3.2 0 0 0 0 3.024a3.2 3.2 0 0 0 3.349 3.024zm0-4.032a1.066 1.066 0 0 1 1.116 1.008 1.066 1.066 0 0 1-1.116 1.008 1.066 1.066 0 0 1-1.117-1.008 1.066 1.066 0 0 1 1.117-1.008z" class="prefix__cls-1" data-name="Trazado 345" transform="translate(27.906 12.097)"/>
        <path id="prefix__Trazado_346" d="M3.349 6.048A3.2 3.2 0 0 0 6.7 3.024 3.2 3.2 0 0 0 3.349 0 3.2 3.2 0 0 0 0 3.024a3.2 3.2 0 0 0 3.349 3.024zm0-4.032a1.066 1.066 0 0 1 1.116 1.008 1.066 1.066 0 0 1-1.116 1.008 1.066 1.066 0 0 1-1.117-1.008 1.066 1.066 0 0 1 1.117-1.008z" class="prefix__cls-1" data-name="Trazado 346" transform="translate(27.906 4.032)"/>
        <path id="prefix__Trazado_347" d="M3.349 6.048A3.2 3.2 0 0 0 6.7 3.024 3.2 3.2 0 0 0 3.349 0 3.2 3.2 0 0 0 0 3.024a3.2 3.2 0 0 0 3.349 3.024zm0-4.032a1.066 1.066 0 0 1 1.116 1.008 1.066 1.066 0 0 1-1.116 1.008 1.066 1.066 0 0 1-1.117-1.008 1.066 1.066 0 0 1 1.117-1.008z" class="prefix__cls-1" data-name="Trazado 347" transform="translate(27.906 28.226)"/>
        <path id="prefix__Trazado_348" d="M0 0h2.232v2.016H0z" class="prefix__cls-1" data-name="Trazado 348" transform="translate(21.209 4.032)"/>
        <path id="prefix__Trazado_349" d="M0 0h2.232v2.016H0z" class="prefix__cls-1" data-name="Trazado 349" transform="translate(39.069 54.436)"/>
        <path id="prefix__Trazado_350" d="M0 0h5.581v2.016H0z" class="prefix__cls-1" data-name="Trazado 350" transform="translate(0 29.234)"/>
        <path id="prefix__Trazado_351" d="M0 0l2.094.1.26 5.387-2.094-.1z" class="prefix__cls-1" data-name="Trazado 351" transform="rotate(-53 25.223 12.054)"/>
        <path id="prefix__Trazado_352" d="M0 0l5.387.26.1 2.094L.1 2.094z" class="prefix__cls-1" data-name="Trazado 352" transform="rotate(-37 53.454 17.083)"/>
        <path id="prefix__Trazado_353" d="M0 0h5.581v2.016H0z" class="prefix__cls-1" data-name="Trazado 353" transform="translate(56.928 29.234)"/>
        <path id="prefix__Trazado_354" d="M0 0l5.387.26.1 2.094L.1 2.094z" class="prefix__cls-1" data-name="Trazado 354" transform="rotate(-37 67.766 -71.18)"/>
        <path id="prefix__Trazado_355" d="M0 0l2.094.1.26 5.387-2.094-.1z" class="prefix__cls-1" data-name="Trazado 355" transform="rotate(-53 62.202 -39.222)"/>
    </g>
</svg>
