<svg xmlns="http://www.w3.org/2000/svg" id="prefix__Page-1" width="43.086" height="43.002" viewBox="0 0 43.086 43.002">
    <defs>
        <style>
            .prefix__cls-1{fill:#474747}
        </style>
    </defs>
    <g id="prefix___023---Wifi-Hifi" data-name="023---Wifi-Hifi">
        <path id="prefix__Shape" d="M32.406 52.521H.872c-.238 0-.822.2-.956 0a1.414 1.414 0 0 1 0-.956l2.867-6.689c.109-.272.663-.955.956-.956h25.8c.293 0 .847.684.956.956l2.867 6.689c.088.221-.822.759-.956.956s.238 0 0 0zm-30.579-.956h29.624l-2.867-5.734H3.738z" class="prefix__cls-1" transform="translate(.168 -12.386)"/>
        <path id="prefix__Shape-2" d="M24.811 54.243h-6.689c-.224 0-.82.178-.956 0a1.593 1.593 0 0 1 0-.956l.956-1.911c.173-.62.312-.954.956-.956h4.778c.644 0 .782.336.956.956l.956 1.911a1.593 1.593 0 0 1 0 .956c-.137.178-.733 0-.957 0zm-5.734-.956h4.778v-1.911h-4.777zm0-2.867z" class="prefix__cls-1" data-name="Shape" transform="translate(-4.66 -14.108)"/>
        <path id="prefix__Shape-3" d="M31.455 58.235H1.831c-.791 0-1.91-.164-1.911-.956v-2.867c0-.4.56 0 .956 0s.956-.4.956 0v2.867h29.623v-2.867c0-.4.56 0 .956 0s.956-.4.956 0v2.867c-.002.791-1.121.955-1.912.956z" class="prefix__cls-1" data-name="Shape" transform="translate(.164 -15.233)"/>
        <path id="prefix__Shape-4" d="M30.677 39.621H4.876a1.192 1.192 0 0 1-.956-.956V23.376c0-.791 1.12-.955 1.911-.956h23.89c.791 0 1.91.164 1.911.956v15.29a1.192 1.192 0 0 1-.955.955zM5.831 37.71h23.89V23.376H5.831z" class="prefix__cls-1" data-name="Shape" transform="translate(-.969 -6.175)"/>
        <path id="prefix__Shape-5" d="M48.943 31.455H37.476a1.192 1.192 0 0 1-.956-.956c0-.4.56 0 .956 0h11.467a1.194 1.194 0 0 0 .956-.956V1.832c0-.4-.56 0-.956 0H29.831c-.4 0 0-.4 0 0v14.334a1.192 1.192 0 0 1-.956.956 1.192 1.192 0 0 1-.956-.956V1.832A1.767 1.767 0 0 1 29.831-.08h19.112a1.767 1.767 0 0 1 1.911 1.911v27.713a1.767 1.767 0 0 1-1.911 1.911z" class="prefix__cls-1" data-name="Shape" transform="translate(-7.768 .08)"/>
        <path id="prefix__Shape-6" d="M41.654 15.388a5.734 5.734 0 1 1 5.734-5.734 5.734 5.734 0 0 1-5.734 5.734zm0-9.556c-1.739 0-3.157.3-3.822 1.911a4.392 4.392 0 0 0 5.734 5.734 4.3 4.3 0 0 0 2.867-3.822c-.004-2.375-2.406-3.821-4.779-3.823z" class="prefix__cls-1" data-name="Shape" transform="translate(-10.035 -1.054)"/>
        <path id="prefix__Shape-7" d="M42.787 13.654a2.867 2.867 0 1 1 2.867-2.867 2.867 2.867 0 0 1-2.867 2.867zm0-3.822c-.792 0-.956.164-.956.956S42 12.7 42.787 12.7a2.385 2.385 0 0 0 1.913-1.913c0-.787-1.122-.955-1.913-.955z" class="prefix__cls-1" data-name="Shape" transform="translate(-11.168 -2.187)"/>
        <path id="prefix__Shape-8" d="M41.357 33.71c-.8 0-1.146.241-1.911 0-.374-.122-1.074-.58-.956-.956s.579-1.071.956-.956c3.13.988 6.311.133 7.645-2.867s.919-6.938-1.911-8.6a6.736 6.736 0 0 0-8.6 1.911c-.154.2-.7.031-.956 0s-.855.235-.956 0a1.244 1.244 0 0 1 0-.956c1.479-1.993 4.207-2.877 6.689-2.867A7.482 7.482 0 0 1 49 26.065a7.482 7.482 0 0 1-7.643 7.645z" class="prefix__cls-1" data-name="Shape" transform="translate(-9.738 -5.042)"/>
        <path id="prefix__Shape-9" d="M42.771 31.967a6.63 6.63 0 0 1-2.867-.956c-.337-.2-.2-.617 0-.956s.615-.2.956 0c.541.319 1.283.96 1.911.956a4 4 0 0 0 3.822-3.822 4 4 0 0 0-3.822-3.822c-.633 0-1.366.635-1.911.956a1.226 1.226 0 0 1-.956 0c-.225-.126 0-.7 0-.956s-.223-.826 0-.956c.766-.451 1.977 0 2.867 0a4.619 4.619 0 0 1 4.778 4.778 4.619 4.619 0 0 1-4.778 4.778z" class="prefix__cls-1" data-name="Shape" transform="translate(-11.152 -6.166)"/>
        <circle id="prefix__Oval" cx=".956" cy=".956" r=".956" class="prefix__cls-1" transform="translate(23.018 2.867)"/>
        <ellipse id="prefix__Oval-2" cx=".478" cy=".956" class="prefix__cls-1" data-name="Oval" rx=".478" ry=".956" transform="translate(39.264 2.867)"/>
        <circle id="prefix__Oval-3" cx=".478" cy=".478" r=".478" class="prefix__cls-1" data-name="Oval" transform="translate(39.264 27.712)"/>
        <path id="prefix__Shape-10" d="M18.075 10.315c-.29 0-.844-.688-.956-.956-1.332-3.209-4.17-4.778-7.645-4.778S3.162 6.151 1.83 9.36c-.152.365-.59 1.108-.956.956s-1.108-.59-.956-.956a10.922 10.922 0 0 1 9.557-6.69 10.922 10.922 0 0 1 9.556 6.69c.092.221-.823.756-.956.956s.24-.001 0-.001z" class="prefix__cls-1" data-name="Shape" transform="translate(.165 -.759)"/>
        <path id="prefix__Shape-11" d="M16.433 12.677c-.289 0-.844.267-.956 0A4.868 4.868 0 0 0 10.7 9.81a4.868 4.868 0 0 0-4.778 2.867c-.152.365-.59.152-.956 0s-1.108-.59-.956-.956C5.04 9.243 8.016 7.9 10.7 7.9a5.87 5.87 0 0 1 5.734 3.822 1.4 1.4 0 0 1 0 .956c-.134.199.239-.001-.001-.001z" class="prefix__cls-1" data-name="Shape" transform="translate(-1.06 -2.165)"/>
        <path id="prefix__Shape-12" d="M13.876 15.994c-.288 0 .112-.69 0-.956a2.021 2.021 0 0 0-1.911-.956 2.021 2.021 0 0 0-1.911.956c-.1.236-.7.924-.956.956s.154.2 0 0a1.245 1.245 0 0 1 0-.956 2.989 2.989 0 0 1 2.867-1.911 2.989 2.989 0 0 1 2.867 1.911 1.388 1.388 0 0 1 0 .956c-.132.201-.715 0-.956 0z" class="prefix__cls-1" data-name="Shape" transform="translate(-2.325 -3.572)"/>
        <path id="prefix__Shape-13" d="M16.433 12.677c-.289 0-.844.267-.956 0A4.868 4.868 0 0 0 10.7 9.81a4.868 4.868 0 0 0-4.778 2.867c-.152.365-.59.152-.956 0s-1.108-.59-.956-.956C5.04 9.243 8.016 7.9 10.7 7.9a5.87 5.87 0 0 1 5.734 3.822 1.4 1.4 0 0 1 0 .956c-.134.199.239-.001-.001-.001z" class="prefix__cls-1" data-name="Shape" transform="translate(-1.06 -2.165)"/>
        <path id="prefix__Shape-14" d="M13.876 15.994c-.288 0 .112-.69 0-.956a2.021 2.021 0 0 0-1.911-.956 2.021 2.021 0 0 0-1.911.956c-.1.236-.7.924-.956.956s.154.2 0 0a1.245 1.245 0 0 1 0-.956 2.989 2.989 0 0 1 2.867-1.911 2.989 2.989 0 0 1 2.867 1.911 1.388 1.388 0 0 1 0 .956c-.132.201-.715 0-.956 0z" class="prefix__cls-1" data-name="Shape" transform="translate(-2.325 -3.572)"/>
        <ellipse id="prefix__Oval-4" cx=".956" cy=".478" class="prefix__cls-1" data-name="Oval" rx=".956" ry=".478" transform="translate(8.684 12.423)"/>
        <path id="prefix__Shape-15" d="M16.992 35.86h-1.911a1.767 1.767 0 0 1-1.911-1.911v-2.867a1.767 1.767 0 0 1 1.911-1.911h1.911c.4 0 0 .56 0 .956v5.733c0 .395.396 0 0 0zm-1.911-5.734a1.194 1.194 0 0 0-.956.956v2.867a1.194 1.194 0 0 0 .956.956h.956v-4.779z" class="prefix__cls-1" data-name="Shape" transform="translate(-3.53 -8.147)"/>
        <path id="prefix__Shape-16" d="M20.989 37.879c-.26 0-.733-.821-.956-.956-.03-.018.027.022 0 0l-2.867-1.911c-.166-.136 0 .215 0 0v-5.734c0-.215-.166-.82 0-.956l2.867-1.911c.027-.022-.03.018 0 0 .443-.266.506-.254.956 0s.956.439.956.956v8.6c-.002.792-.165 1.908-.956 1.912zm-2.867-3.822l2.867 1.911v-8.6l-2.867 1.911z" class="prefix__cls-1" data-name="Shape" transform="translate(-4.66 -7.3)"/>
        <path id="prefix__Shape-17" d="M27.543 37.883c-.338 0-.884-.625-.956-.956s.647-.817.956-.956c1.637-.839 1.911-1.983 1.911-3.822s-.274-3.939-1.911-4.778c-.233-.106-.93-.7-.956-.956s-.208.149 0 0a1.242 1.242 0 0 1 .956 0 6.736 6.736 0 0 1 3.822 5.734 6.736 6.736 0 0 1-3.822 5.734c-.092.042.102 0 0 0z" class="prefix__cls-1" data-name="Shape" transform="translate(-7.392 -7.304)"/>
        <path id="prefix__Shape-18" d="M26.116 36.145c-.337 0-.884-.626-.956-.956s-.306-.815 0-.956c.556-.292.956-.328.956-.956a2.471 2.471 0 0 0-.956-1.911c-.36-.165-.165-.6 0-.956s.6-.165.956 0a3.389 3.389 0 0 1 1.911 2.867 3.389 3.389 0 0 1-1.911 2.867c-.093.044.103.001 0 .001z" class="prefix__cls-1" data-name="Shape" transform="translate(-6.92 -8.433)"/>
    </g>
</svg>
