<svg xmlns="http://www.w3.org/2000/svg" id="prefix__park" width="106.059" height="82.48" viewBox="0 0 106.059 82.48">
    <defs>
        <style>
            .prefix__cls-1{fill:#fff}
        </style>
    </defs>
    <path id="prefix__Trazado_325" d="M104.49 136.194a1.5 1.5 0 0 0 1.569-1.417v-5.668a1.5 1.5 0 0 0-1.569-1.417H83.572A1.5 1.5 0 0 0 82 129.109v5.668a1.5 1.5 0 0 0 1.569 1.417h8.89v7.745H75.615l-1.858-22.481h13.162a1.5 1.5 0 0 0 1.569-1.417v-7.557a1.5 1.5 0 0 0-1.569-1.417h-4.837a1.424 1.424 0 1 0 0 2.834h3.268v4.723H47.487V113.9h27.2a1.424 1.424 0 1 0 0-2.834H45.918a1.5 1.5 0 0 0-1.569 1.417v7.557a1.5 1.5 0 0 0 1.569 1.417H59.08l-1.857 22.481H40.374v-7.745h8.891a1.5 1.5 0 0 0 1.569-1.417v-5.668a1.5 1.5 0 0 0-1.569-1.417H28.346a1.5 1.5 0 0 0-1.569 1.417v5.668a1.5 1.5 0 0 0 1.569 1.417h8.89v7.745H31.61a6.315 6.315 0 0 0-4.166-4.246 6.341 6.341 0 0 0-4.209-4.045v-19.13a13.386 13.386 0 0 0 5.911 1.357c6.828 0 12.383-5.017 12.383-11.183a10.2 10.2 0 0 0-.254-2.259 6.1 6.1 0 0 0 2.237-4.659 5.983 5.983 0 0 0-1.652-4.1 10.277 10.277 0 0 0 1.652-5.583c0-5.351-4.171-9.893-9.868-10.95-1.523-4.717-6.356-8.045-11.887-8.045a13.331 13.331 0 0 0-5.6 1.208 1.355 1.355 0 0 0-.688 1.905 1.652 1.652 0 0 0 2.109.621 9.946 9.946 0 0 1 4.181-.9c4.41 0 8.225 2.832 9.071 6.734a1.518 1.518 0 0 0 1.359 1.137c4.666.48 8.185 4.045 8.185 8.292a7.759 7.759 0 0 1-1.8 4.942 1.326 1.326 0 0 0 .293 1.954 3.417 3.417 0 0 1 1.5 2.789 3.468 3.468 0 0 1-1.741 2.947 1.351 1.351 0 0 0-.628 1.581 7.611 7.611 0 0 1 .386 2.39c0 4.6-4.148 8.349-9.245 8.349a9.808 9.808 0 0 1-5.911-1.935v-10.252l4.337-3.917a1.323 1.323 0 0 0 0-2 1.691 1.691 0 0 0-2.219 0l-2.11 1.91v-2.989a1.577 1.577 0 0 0-3.138 0v8.683L17.95 102.6a1.691 1.691 0 0 0-2.219 0 1.321 1.321 0 0 0 0 2l4.366 3.944v4.554a9.805 9.805 0 0 1-5.911 1.936c-5.1 0-9.245-3.746-9.245-8.349a7.606 7.606 0 0 1 .412-2.471 1.344 1.344 0 0 0-.58-1.568 3.465 3.465 0 0 1-1.634-2.878 3.419 3.419 0 0 1 1.5-2.789 1.326 1.326 0 0 0 .293-1.953 7.759 7.759 0 0 1-1.795-4.943c0-4.247 3.519-7.812 8.185-8.293a1.517 1.517 0 0 0 1.362-1.136 7.7 7.7 0 0 1 .626-1.785A1.365 1.365 0 0 0 12.519 77a1.639 1.639 0 0 0-2.072.715 10.449 10.449 0 0 0-.577 1.42C4.172 80.2 0 84.739 0 90.089a10.277 10.277 0 0 0 1.651 5.584A5.985 5.985 0 0 0 0 99.774a6.1 6.1 0 0 0 2.089 4.526 10.171 10.171 0 0 0-.286 2.392c0 6.166 5.556 11.183 12.383 11.183a13.383 13.383 0 0 0 5.911-1.356v18.843a7.121 7.121 0 0 0-1.948.52 4.485 4.485 0 0 0-2.223-.577h-.016a4.485 4.485 0 0 0-2.223.577 7.243 7.243 0 0 0-2.858-.577 6.624 6.624 0 0 0-6.438 4.39 6.158 6.158 0 0 0-4.336 5.3 1.291 1.291 0 0 0-.054.363 1.5 1.5 0 0 0 1.569 1.417h102.92a1.424 1.424 0 1 0 0-2.834H95.6v-7.745zm-74.575-5.668H47.7v2.834H29.915zM3.543 143.939a3.524 3.524 0 0 1 2.5-1.732 1.483 1.483 0 0 0 1.257-1.23 3.44 3.44 0 0 1 3.53-2.84 3.779 3.779 0 0 1 2.1.623 1.685 1.685 0 0 0 2.17-.26 1.074 1.074 0 0 1 .8-.359h.054a1.074 1.074 0 0 1 .8.358 1.686 1.686 0 0 0 2.164.265 3.778 3.778 0 0 1 2.1-.623 3.44 3.44 0 0 1 3.53 2.84 1.482 1.482 0 0 0 1.257 1.23 3.524 3.524 0 0 1 2.5 1.732zm58.683-22.481h8.384l1.858 22.481h-12.1zm22.915 9.068h17.78v2.834h-17.78zm0 0" class="prefix__cls-1" data-name="Trazado 325" transform="translate(-.001 -71.094)"/>
    <path id="prefix__Trazado_327" d="M1.569 496.852h102.92a1.424 1.424 0 1 1 0 2.834H1.569a1.424 1.424 0 1 1 0-2.834zm0 0" class="prefix__cls-1" data-name="Trazado 327" transform="translate(0 -417.205)"/>
</svg>
