<svg xmlns="http://www.w3.org/2000/svg" width="100" height="100.87" viewBox="0 0 100 100.87">
    <defs>
        <style>
            .prefix__cls-1{fill:#fff}
        </style>
    </defs>
    <g id="prefix__rain">
        <path id="prefix__Trazado_434" d="M274.274 28.073a15.6 15.6 0 0 0-7.306-2.851A28.271 28.271 0 0 0 238.889 0a27.928 27.928 0 0 0-12.943 3.14 1.477 1.477 0 0 0 1.354 2.625 25.005 25.005 0 0 1 11.587-2.81 25.306 25.306 0 0 1 25.237 23.733 1.478 1.478 0 0 0 1.424 1.388 12.665 12.665 0 0 1 7 2.394 1.478 1.478 0 0 0 1.729-2.4zm0 0" class="prefix__cls-1" data-name="Trazado 434" transform="translate(-180.79)"/>
        <path id="prefix__Trazado_435" d="M485.824 166.509a1.478 1.478 0 0 0-2.608 1.39 12.732 12.732 0 0 1-.246 12.381 1.478 1.478 0 1 0 2.552 1.491 15.688 15.688 0 0 0 .3-15.261zm0 0" class="prefix__cls-1" data-name="Trazado 435" transform="translate(-387.657 -133.076)"/>
        <path id="prefix__Trazado_436" d="M91.354 78.6a12.669 12.669 0 0 1-7.039 2.124H56.866a14.4 14.4 0 0 0-7.552-25.8 20.649 20.649 0 0 0-13.355-11.7 25.231 25.231 0 0 1 5.441-6.77 1.478 1.478 0 0 0-1.953-2.218 28.173 28.173 0 0 0-6.512 8.378A20.61 20.61 0 0 0 9.922 60.532a11.636 11.636 0 0 0 1.713 23.144h72.68a15.611 15.611 0 0 0 8.676-2.619 1.478 1.478 0 0 0-1.637-2.46zm-79.719 2.121a8.679 8.679 0 0 1-.3-17.352 1.478 1.478 0 0 0 1.424-1.388 17.657 17.657 0 0 1 34.155-5.111 1.477 1.477 0 0 0 1.366.959 11.446 11.446 0 0 1-.141 22.892zm0 0" class="prefix__cls-1" data-name="Trazado 436" transform="translate(0 -27.195)"/>
        <path id="prefix__Trazado_437" d="M384.065 101.441a1.478 1.478 0 0 0 1.438-1.823 21.592 21.592 0 0 0-1.171-3.508 1.478 1.478 0 0 0-2.713 1.174 18.464 18.464 0 0 1 1.01 3.025 1.477 1.477 0 0 0 1.436 1.132zm0 0" class="prefix__cls-1" data-name="Trazado 437" transform="translate(-306.339 -76.46)"/>
        <path id="prefix__Trazado_438" d="M302.385 42.094a1.477 1.477 0 1 0 2.132-2.046 21.491 21.491 0 0 0-15.637-6.678 1.478 1.478 0 1 0 0 2.955 18.567 18.567 0 0 1 13.505 5.768zm0 0" class="prefix__cls-1" data-name="Trazado 438" transform="translate(-230.781 -26.796)"/>
        <path id="prefix__Trazado_439" d="M75.063 314.436c0-.534 0-2.16-3.179-6.952a2.8 2.8 0 0 0-4.668 0c-3.18 4.792-3.18 6.417-3.18 6.952a5.514 5.514 0 0 0 11.027 0zm-8.072 0c0-.573.673-2.253 2.559-5.124 1.885 2.871 2.559 4.551 2.559 5.124a2.559 2.559 0 0 1-5.118 0zm0 0" class="prefix__cls-1" data-name="Trazado 439" transform="translate(-51.42 -245.9)"/>
        <path id="prefix__Trazado_440" d="M167.5 314.436c0-.534 0-2.16-3.179-6.952a2.8 2.8 0 0 0-4.668 0c-3.18 4.792-3.18 6.417-3.18 6.952a5.514 5.514 0 0 0 11.027 0zm-8.072 0c0-.573.673-2.253 2.559-5.124 1.885 2.871 2.558 4.551 2.558 5.124a2.558 2.558 0 0 1-5.117 0zm0 0" class="prefix__cls-1" data-name="Trazado 440" transform="translate(-125.649 -245.9)"/>
        <path id="prefix__Trazado_441" d="M259.946 314.436c0-.534 0-2.16-3.179-6.952a2.8 2.8 0 0 0-4.668 0c-3.18 4.792-3.18 6.417-3.18 6.952a5.514 5.514 0 0 0 11.027 0zm-8.072 0c0-.573.673-2.254 2.559-5.124 1.885 2.871 2.558 4.551 2.558 5.124a2.558 2.558 0 0 1-5.117 0zm0 0" class="prefix__cls-1" data-name="Trazado 441" transform="translate(-199.879 -245.9)"/>
        <path id="prefix__Trazado_442" d="M352.387 314.439c0-.535 0-2.16-3.179-6.952a2.8 2.8 0 0 0-4.669 0c-3.179 4.792-3.179 6.417-3.179 6.952a5.514 5.514 0 0 0 11.027 0zm-8.072 0c0-.573.673-2.253 2.559-5.124 1.885 2.87 2.558 4.551 2.558 5.124a2.558 2.558 0 0 1-5.117 0zm0 0" class="prefix__cls-1" data-name="Trazado 442" transform="translate(-274.108 -245.903)"/>
        <path id="prefix__Trazado_443" d="M69.549 442.367a2.8 2.8 0 0 0-2.334 1.253c-3.18 4.792-3.18 6.417-3.18 6.952a5.514 5.514 0 0 0 11.027 0c0-.534 0-2.16-3.179-6.952a2.8 2.8 0 0 0-2.334-1.253zm0 10.763a2.561 2.561 0 0 1-2.559-2.558c0-.573.673-2.253 2.559-5.124 1.885 2.871 2.558 4.551 2.558 5.124a2.561 2.561 0 0 1-2.558 2.558zm0 0" class="prefix__cls-1" data-name="Trazado 443" transform="translate(-51.419 -355.216)"/>
        <path id="prefix__Trazado_444" d="M161.991 442.367a2.8 2.8 0 0 0-2.334 1.253c-3.18 4.792-3.18 6.417-3.18 6.952a5.514 5.514 0 0 0 11.027 0c0-.534 0-2.16-3.179-6.952a2.8 2.8 0 0 0-2.334-1.253zm0 10.763a2.561 2.561 0 0 1-2.559-2.558c0-.573.673-2.254 2.559-5.124 1.885 2.871 2.558 4.551 2.558 5.124a2.561 2.561 0 0 1-2.558 2.558zm0 0" class="prefix__cls-1" data-name="Trazado 444" transform="translate(-125.649 -355.216)"/>
        <path id="prefix__Trazado_445" d="M254.431 442.367a2.8 2.8 0 0 0-2.333 1.253c-3.18 4.792-3.18 6.417-3.18 6.952a5.514 5.514 0 0 0 11.027 0c0-.534 0-2.16-3.18-6.952a2.794 2.794 0 0 0-2.334-1.253zm0 10.763a2.561 2.561 0 0 1-2.559-2.558c0-.573.673-2.254 2.559-5.124 1.885 2.871 2.558 4.551 2.558 5.124a2.561 2.561 0 0 1-2.557 2.558zm0 0" class="prefix__cls-1" data-name="Trazado 445" transform="translate(-199.878 -355.216)"/>
        <path id="prefix__Trazado_446" d="M346.874 442.367a2.8 2.8 0 0 0-2.335 1.253c-3.179 4.792-3.179 6.417-3.179 6.952a5.514 5.514 0 0 0 11.027 0c0-.535 0-2.16-3.18-6.952a2.793 2.793 0 0 0-2.333-1.253zm0 10.763a2.561 2.561 0 0 1-2.559-2.558c0-.573.673-2.253 2.559-5.124 1.885 2.87 2.558 4.551 2.558 5.124a2.561 2.561 0 0 1-2.558 2.558zm0 0" class="prefix__cls-1" data-name="Trazado 446" transform="translate(-274.108 -355.216)"/>
        <path id="prefix__Trazado_447" d="M121.285 381.716c0-.534 0-2.159-3.18-6.952a2.8 2.8 0 0 0-4.668 0c-3.179 4.791-3.179 6.417-3.179 6.952a5.514 5.514 0 1 0 11.027 0zm-5.514 2.559a2.561 2.561 0 0 1-2.558-2.559c0-.573.673-2.253 2.558-5.124 1.885 2.871 2.559 4.552 2.559 5.124a2.562 2.562 0 0 1-2.559 2.559zm0 0" class="prefix__cls-1" data-name="Trazado 447" transform="translate(-88.535 -299.925)"/>
        <path id="prefix__Trazado_448" d="M213.727 381.716c0-.534 0-2.16-3.18-6.952a2.8 2.8 0 0 0-4.668 0c-3.179 4.792-3.179 6.417-3.179 6.952a5.514 5.514 0 1 0 11.027 0zm-5.514 2.559a2.561 2.561 0 0 1-2.558-2.559c0-.572.673-2.253 2.558-5.124 1.885 2.871 2.559 4.551 2.559 5.124a2.562 2.562 0 0 1-2.559 2.559zm0 0" class="prefix__cls-1" data-name="Trazado 448" transform="translate(-162.765 -299.925)"/>
        <path id="prefix__Trazado_449" d="M306.168 381.716c0-.534 0-2.159-3.18-6.952a2.8 2.8 0 0 0-4.668 0c-3.179 4.792-3.179 6.417-3.179 6.952a5.514 5.514 0 1 0 11.027 0zm-5.514 2.559a2.561 2.561 0 0 1-2.558-2.559c0-.572.673-2.253 2.559-5.124 1.885 2.871 2.558 4.552 2.558 5.124a2.562 2.562 0 0 1-2.559 2.559zm0 0" class="prefix__cls-1" data-name="Trazado 449" transform="translate(-236.994 -299.925)"/>
        <path id="prefix__Trazado_450" d="M393.092 373.512a2.793 2.793 0 0 0-2.334 1.253c-3.18 4.792-3.18 6.417-3.18 6.952a5.514 5.514 0 1 0 11.027 0c0-.534 0-2.159-3.179-6.952a2.8 2.8 0 0 0-2.334-1.253zm0 10.763a2.562 2.562 0 0 1-2.558-2.559c0-.572.673-2.253 2.558-5.124 1.885 2.871 2.559 4.552 2.559 5.124a2.562 2.562 0 0 1-2.559 2.559zm0 0" class="prefix__cls-1" data-name="Trazado 450" transform="translate(-311.221 -299.926)"/>
    </g>
</svg>
