<svg xmlns="http://www.w3.org/2000/svg" id="prefix__Sofa" width="111.519" height="63.784" viewBox="0 0 111.519 63.784">
    <path id="prefix__Trazado_304" d="M107.943 23.071h-3.717a6.041 6.041 0 0 0-1.859.309v-1.987c-.006-4.633-4.167-8.387-9.294-8.393H22.445c-5.13.006-9.287 3.76-9.293 8.393v1.987a6.041 6.041 0 0 0-1.859-.309H7.576A5.326 5.326 0 0 0 2 28.107V58.32c.006 4.633 4.163 8.387 9.293 8.393h2.143l1.6 8.67a1.814 1.814 0 0 0 1.833 1.4h11.152a1.814 1.814 0 0 0 1.833-1.4l1.6-8.67h52.611l1.6 8.67a1.814 1.814 0 0 0 1.833 1.4h11.151a1.814 1.814 0 0 0 1.833-1.4l1.6-8.67h2.143c5.13-.006 9.287-3.76 9.293-8.393V28.107a5.326 5.326 0 0 0-5.576-5.036zM16.869 48.249a1.775 1.775 0 0 1 1.859-1.679h33.455a1.775 1.775 0 0 1 1.859 1.679v5.036H16.869zm0-26.856a5.326 5.326 0 0 1 5.576-5.036h70.628a5.326 5.326 0 0 1 5.576 5.036v22.13a6.041 6.041 0 0 0-1.859-.309H63.335a5.326 5.326 0 0 0-5.576 5.036 5.326 5.326 0 0 0-5.576-5.036H18.728a6.041 6.041 0 0 0-1.859.309zm81.78 26.856v5.036H61.477v-5.036a1.775 1.775 0 0 1 1.859-1.679h33.455a1.775 1.775 0 0 1 1.858 1.679zm-72.2 25.178h-8L17.2 66.712h10.486zm70.628 0h-8l-1.24-6.714h10.478zM109.8 58.32a5.326 5.326 0 0 1-5.576 5.036H11.293a5.326 5.326 0 0 1-5.576-5.036V28.107a1.775 1.775 0 0 1 1.859-1.679h3.717a1.775 1.775 0 0 1 1.859 1.679v26.856a1.775 1.775 0 0 0 1.859 1.679h85.5a1.775 1.775 0 0 0 1.859-1.679V28.107a1.775 1.775 0 0 1 1.859-1.679h3.717a1.775 1.775 0 0 1 1.859 1.679z" data-name="Trazado 304" transform="translate(-2 -13)" style="fill:#fff"/>
</svg>
