<svg height="63.784" viewBox="0 0 111.519 63.784" width="111.519" xmlns="http://www.w3.org/2000/svg"><path d="m107.943 23.071h-3.717a6.041 6.041 0 0 0 -1.859.309v-1.987c-.006-4.633-4.167-8.387-9.294-8.393h-70.628c-5.13.006-9.287 3.76-9.293 8.393v1.987a6.041 6.041 0 0 0 -1.859-.309h-3.717a5.326 5.326 0 0 0 -5.576 5.036v30.213c.006 4.633 4.163 8.387 9.293 8.393h2.143l1.6 8.67a1.814 1.814 0 0 0 1.833 1.4h11.152a1.814 1.814 0 0 0 1.833-1.4l1.6-8.67h52.611l1.6 8.67a1.814 1.814 0 0 0 1.833 1.4h11.151a1.814 1.814 0 0 0 1.833-1.4l1.6-8.67h2.143c5.13-.006 9.287-3.76 9.293-8.393v-30.213a5.326 5.326 0 0 0 -5.576-5.036zm-91.074 25.178a1.775 1.775 0 0 1 1.859-1.679h33.455a1.775 1.775 0 0 1 1.859 1.679v5.036h-37.173zm0-26.856a5.326 5.326 0 0 1 5.576-5.036h70.628a5.326 5.326 0 0 1 5.576 5.036v22.13a6.041 6.041 0 0 0 -1.859-.309h-33.455a5.326 5.326 0 0 0 -5.576 5.036 5.326 5.326 0 0 0 -5.576-5.036h-33.455a6.041 6.041 0 0 0 -1.859.309zm81.78 26.856v5.036h-37.172v-5.036a1.775 1.775 0 0 1 1.859-1.679h33.455a1.775 1.775 0 0 1 1.858 1.679zm-72.2 25.178h-8l-1.249-6.715h10.486zm70.628 0h-8l-1.24-6.714h10.478zm12.723-15.107a5.326 5.326 0 0 1 -5.576 5.036h-92.931a5.326 5.326 0 0 1 -5.576-5.036v-30.213a1.775 1.775 0 0 1 1.859-1.679h3.717a1.775 1.775 0 0 1 1.859 1.679v26.856a1.775 1.775 0 0 0 1.859 1.679h85.5a1.775 1.775 0 0 0 1.859-1.679v-26.856a1.775 1.775 0 0 1 1.859-1.679h3.717a1.775 1.775 0 0 1 1.859 1.679z" fill="#fff" transform="translate(-2 -13)"/></svg>