<svg xmlns="http://www.w3.org/2000/svg" id="prefix__surface1" width="38.784" height="38.784" viewBox="0 0 38.784 38.784">
    <defs>
        <style>
            .prefix__cls-1{fill:#fff}
        </style>
    </defs>
    <g id="prefix__Grupo_434" data-name="Grupo 434" transform="translate(7.302)">
        <path id="prefix__Trazado_412" d="M108.488 0a12.09 12.09 0 0 0-7.222 21.786V22.8a3.563 3.563 0 0 0-.255 5.116 3.567 3.567 0 0 0 1.553 5.845 6 6 0 0 0 11.848 0 3.568 3.568 0 0 0 1.553-5.845 3.562 3.562 0 0 0-.255-5.116v-1.014A12.09 12.09 0 0 0 108.488 0zm4.869 24.18a1.3 1.3 0 0 1 0 2.6h-9.737a1.3 1.3 0 1 1 0-2.6zm-4.869 12.332a3.739 3.739 0 0 1-3.555-2.6h7.111a3.739 3.739 0 0 1-3.556 2.6zm4.869-4.868h-9.737a1.3 1.3 0 1 1 0-2.6h9.737a1.3 1.3 0 0 1 0 2.6zm.585-11.39a1.136 1.136 0 0 0-.5.944v.711h-1.381v-4.48l1.629-1.629a1.136 1.136 0 0 0-1.607-1.607l-1.965 1.965a1.136 1.136 0 0 0-.333.8v4.949h-2.6v-4.949a1.137 1.137 0 0 0-.333-.8l-1.965-1.965a1.136 1.136 0 0 0-1.607 1.607l1.632 1.632v4.478h-1.381v-.71a1.136 1.136 0 0 0-.5-.944 9.817 9.817 0 1 1 10.907 0zm0 0" class="prefix__cls-1" data-name="Trazado 412" transform="translate(-96.398)"/>
    </g>
    <path id="prefix__Trazado_413" d="M4.707 145.738A1.136 1.136 0 0 0 3.57 144.6H1.136a1.136 1.136 0 1 0 0 2.273H3.57a1.136 1.136 0 0 0 1.137-1.135zm0 0" class="prefix__cls-1" data-name="Trazado 413" transform="translate(0 -133.648)"/>
    <path id="prefix__Trazado_414" d="M453.437 144.6H451a1.136 1.136 0 0 0 0 2.273h2.434a1.136 1.136 0 1 0 0-2.273zm0 0" class="prefix__cls-1" data-name="Trazado 414" transform="translate(-415.789 -133.648)"/>
    <path id="prefix__Trazado_415" d="M34.962 249.184l-2.108 1.216a1.136 1.136 0 1 0 1.136 1.968l2.108-1.217a1.136 1.136 0 1 0-1.136-1.968zm0 0" class="prefix__cls-1" data-name="Trazado 415" transform="translate(-29.84 -230.167)"/>
    <path id="prefix__Trazado_416" d="M423.019 27.589a1.132 1.132 0 0 0 .567-.152l2.108-1.217a1.136 1.136 0 0 0-1.136-1.968l-2.108 1.217a1.136 1.136 0 0 0 .569 2.12zm0 0" class="prefix__cls-1" data-name="Trazado 416" transform="translate(-389.924 -22.274)"/>
    <path id="prefix__Trazado_417" d="M425.693 250.4l-2.108-1.217a1.136 1.136 0 1 0-1.136 1.968l2.108 1.217a1.136 1.136 0 0 0 1.136-1.968zm0 0" class="prefix__cls-1" data-name="Trazado 417" transform="translate(-389.922 -230.171)"/>
    <path id="prefix__Trazado_418" d="M36.1 25.47l-2.108-1.217a1.136 1.136 0 0 0-1.136 1.968l2.108 1.217A1.136 1.136 0 0 0 36.1 25.47zm0 0" class="prefix__cls-1" data-name="Trazado 418" transform="translate(-29.842 -22.275)"/>
</svg>
