<svg height="43.002" viewBox="0 0 43.958 43.002" width="43.958" xmlns="http://www.w3.org/2000/svg"><path d="m41.489 28.339h-4.778v-1.911c1.271 0 2.867-.642 2.867-1.911a3.79 3.79 0 0 0 -.956-1.911 3.79 3.79 0 0 0 .956-1.911c0-.59-.589-.548-.956-.956a3.79 3.79 0 0 0 .956-1.911c0-.59-.589-.548-.956-.956a3.79 3.79 0 0 0 .956-1.911c0-1.27-1.594-1.911-2.867-1.911h-.956v-1.912c0-1.482-.425-1.911-1.911-1.911h-.956c-1.486 0-2.867.429-2.867 1.911v1.911h-.956a1.691 1.691 0 0 0 -1.911 1.911c0 .59-.367 1.5 0 1.911-.367.408 0 .365 0 .956s-.367 1.5 0 1.911c-.367.408 0 .365 0 .956s-.367 1.5 0 1.911c-.367.408 0 1.321 0 1.911a1.694 1.694 0 0 0 1.911 1.911v1.911h-7.643v-6.688a1.128 1.128 0 0 0 -.956-.956h-3.822v-5.733a4.918 4.918 0 0 0 -4.778-4.778h-7.645c-2.535 0-3.821 2.238-3.821 4.778v32.49c0 2.549 1.282 4.778 3.821 4.778h7.645a4.908 4.908 0 0 0 4.778-4.778v-4.778h3.822a1.128 1.128 0 0 0 .956-.956v-5.733h20.067a2.736 2.736 0 0 0 2.867-2.867v-1.911a2.736 2.736 0 0 0 -2.867-2.867zm-25.8-8.6-3.822 2.867a2.142 2.142 0 0 0 0 1.911c.15.15-.2 0 0 0s.806.15.956 0l2.867-2.867v1.911l-3.822 3.822a.62.62 0 0 0 0 .956c.15.15-.2.956 0 .956s.806-.806.956-.956l2.867-1.911v1.911l-3.822 3.822a.62.62 0 0 0 0 .956c.15.15-.2 0 0 0s.806.15.956 0l2.867-2.867v2.867l-3.822 3.822a.62.62 0 0 0 0 .956c.15.15-.2 0 0 0s.806.15.956 0l2.867-2.867v2.867l-3.822 3.822a.62.62 0 0 0 0 .956c.15.15-.2 0 0 0s.806.15.956 0l2.867-2.867v2.867l-3.828 3.827a.62.62 0 0 0 0 .956c.15.15-.2 0 0 0s.806.15.956 0l2.867-2.867v2.867c0 1.7-2.131 2.867-3.822 2.867h-7.646a2.736 2.736 0 0 1 -2.867-2.867v-2.872l2.867 2.867c.15.15.759 0 .956 0s-.15.15 0 0a.62.62 0 0 0 0-.956l-3.823-3.822v-2.867l2.867 2.867c.15.15.759 0 .956 0s-.15.15 0 0a.62.62 0 0 0 0-.956l-3.823-3.822v-2.867l2.867 2.867c.15.15.759 0 .956 0s-.15.15 0 0a.62.62 0 0 0 0-.956l-3.823-3.822v-2.867l2.867 2.867c.15.15.759 0 .956 0s-.15.15 0 0a.62.62 0 0 0 0-.956l-3.823-3.822v-1.911l2.867 1.911c.15.15.759.956.956.956s-.15-.806 0-.956a.62.62 0 0 0 0-.956l-3.823-3.822v-1.911l2.867 2.867c.15.15.759 0 .956 0s-.15.15 0 0a2.142 2.142 0 0 0 0-1.911l-3.823-2.867v-2.867l2.867 2.867c.15.15.759 0 .956 0s-.15.15 0 0a.62.62 0 0 0 0-.956l-3.823-3.822a2.991 2.991 0 0 1 2.867-2.867h7.645c1.588 0 3.667 1.314 3.822 2.867l-3.822 3.822a.62.62 0 0 0 0 .956c.15.15-.2 0 0 0s.806.15.956 0l2.867-2.867zm3.822 8.6v12.423h-2.867v-18.157h2.866zm12.423-17.2a.844.844 0 0 1 .956-.956h.956a.845.845 0 0 1 .956.956v1.911h-2.869zm-2.868 2.861h7.645a1.111 1.111 0 0 1 .956.956 1.126 1.126 0 0 1 -.956.956h-7.645a1.111 1.111 0 0 1 -.956-.956 1.126 1.126 0 0 1 .956-.956zm0 2.867h7.645a1.111 1.111 0 0 1 .956.956 1.126 1.126 0 0 1 -.956.956h-7.645a1.111 1.111 0 0 1 -.956-.956 1.126 1.126 0 0 1 .956-.951zm0 3.822h7.645c.433 0 .956-.431.956 0a1.126 1.126 0 0 1 -.956.956h-7.645a1.111 1.111 0 0 1 -.956-.956c.001-.418.53.005.956.005zm-.956 3.822a1.126 1.126 0 0 1 .956-.956h7.645a1.111 1.111 0 0 1 .956.956c0 .423-.53 0-.956 0h-7.645c-.433.006-.955.436-.955.006zm7.645 1.911v1.911h-4.777v-1.905zm7.645 6.695c0 .848-1.064.956-1.911.956h-20.067v-4.778h20.067a2.257 2.257 0 0 1 1.911 1.911z" fill="#474747" transform="translate(-.398 -9.227)"/></svg>