<svg height="23.334" viewBox="0 0 10.242 23.334" width="10.242" xmlns="http://www.w3.org/2000/svg"><g fill="#fff"><path d="m112.253 2.431a2.33 2.33 0 1 0 -4.655 0v15.134a3.478 3.478 0 0 0 -.931 2.367 3.262 3.262 0 1 0 6.517 0 3.478 3.478 0 0 0 -.931-2.367zm-2.328 18.959a1.43 1.43 0 0 1 -1.4-1.458 1.453 1.453 0 0 1 .931-1.369v-8.354a.466.466 0 1 1 .931 0v8.354a1.453 1.453 0 0 1 .931 1.369 1.43 1.43 0 0 1 -1.392 1.457z" transform="translate(-102.943)"/><path d="m24.592 341.333h-2.792a.487.487 0 0 0 0 .972h2.793a.487.487 0 0 0 0-.972z" transform="translate(-21.333 -325.777)"/><path d="m65.4 298.667h-.931a.487.487 0 0 0 0 .972h.931a.487.487 0 0 0 0-.972z" transform="translate(-62.138 -285.056)"/><path d="m65.4 256h-.931a.487.487 0 0 0 0 .972h.931a.487.487 0 0 0 0-.972z" transform="translate(-62.138 -244.333)"/><path d="m21.8 214.305h2.793a.487.487 0 0 0 0-.972h-2.793a.487.487 0 0 0 0 .972z" transform="translate(-21.333 -203.611)"/><path d="m21.8 86.305h2.793a.487.487 0 0 0 0-.972h-2.793a.487.487 0 0 0 0 .972z" transform="translate(-21.333 -81.444)"/><path d="m65.4 170.667h-.931a.487.487 0 0 0 0 .972h.931a.487.487 0 0 0 0-.972z" transform="translate(-62.138 -162.889)"/><path d="m65.4 128h-.931a.487.487 0 0 0 0 .972h.931a.487.487 0 0 0 0-.972z" transform="translate(-62.138 -122.167)"/></g></svg>