<svg xmlns="http://www.w3.org/2000/svg" width="46.824" height="42.792" viewBox="0 0 46.824 42.792">
    <path id="prefix__toolbox_1_" d="M43.164 26.987H32.652v-2.853c0-1.253-1.608-1.9-2.867-1.9H17.363c-1.259 0-2.867.649-2.867 1.9v2.853H3.985c-2.28 0-3.822 2.485-3.822 4.755v28.527c0 2.269 1.542 4.755 3.822 4.755h39.18c2.28 0 3.822-2.485 3.822-4.755V31.742c-.001-2.27-1.543-4.755-3.823-4.755zm-13.378-1.9v1.9H17.363v-1.9zm13.378 4.753c.76 0 .956 1.145.956 1.9v8.56H31.7c-.225-1.379-.1-2.669-.956-3.8a11.177 11.177 0 0 0-4.778-3.8c-.418-.126-.6.692-.956.951s-.956.517-.956.951v3.8l-.956.951v-4.759c0-.434-.6-.692-.956-.951s-.538-1.077-.956-.951a11.177 11.177 0 0 0-4.778 3.8A9.057 9.057 0 0 0 14.5 40.3H3.029v-8.558c0-.756.2-1.9.956-1.9zM29.786 41.251c0 3.279-3.394 5.706-6.689 5.706a5.563 5.563 0 0 1-5.734-5.706A6.2 6.2 0 0 1 20.23 36.5v2.853c0 .548.45.734.956.951l1.911.951a1.077 1.077 0 0 0 .956 0l1.911-.951c.506-.217.956-.4.956-.951V36.5a6.2 6.2 0 0 1 2.866 4.751zm-8.6 8.558c.805.244 1.027 0 1.911 0a11.243 11.243 0 0 0 2.867 0v3.8h-4.779zM3.029 60.269V42.2H14.5a9.689 9.689 0 0 0 3.822 5.706v7.607c0 .758.194.951.956.951h8.6c.761 0 .956-.193.956-.951v-7.606A8.47 8.47 0 0 0 31.7 42.2h12.42v18.069c0 .756-.2 1.9-.956 1.9H3.985c-.761.002-.956-1.143-.956-1.9z" data-name="toolbox (1)" transform="translate(-.162 -22.232)" style="fill:rgba(122,122,122,.59)"/>
</svg>
