<svg xmlns="http://www.w3.org/2000/svg" id="prefix__tyre" width="43.002" height="43.002" viewBox="0 0 43.002 43.002">
    <defs>
        <style>
            .prefix__cls-1{fill:#474747}
        </style>
    </defs>
    <g id="prefix__Grupo_534" data-name="Grupo 534" transform="translate(15.263 38.981)">
        <g id="prefix__Grupo_533" data-name="Grupo 533">
            <path id="prefix__Trazado_505" d="M169.122 432.5c-.007-.045.021.04 0 0s.027.04 0 0a.673.673 0 0 0-.956 0c-.031.034.027-.037 0 0s.016-.046 0 0 .008-.045 0 0 0-.048 0 0a7.147 7.147 0 0 0 0 .956c.037.087-.063-.07 0 0s-.087-.036 0 0c.267.114.75.205.956 0 .063-.07-.037.087 0 0a8.561 8.561 0 0 0 0-.956c-.001-.046.009.049 0 0z" class="prefix__cls-1" data-name="Trazado 505" transform="translate(-168.14 -432.303)"/>
        </g>
    </g>
    <g id="prefix__Grupo_536" data-name="Grupo 536" transform="translate(18.099 39.092)">
        <g id="prefix__Grupo_535" data-name="Grupo 535">
            <path id="prefix__Trazado_506" d="M201.122 432.41c-.168-.17-.722-.049-.956 0-.045.008.041-.021 0 0s.04-.027 0 0c-.131.137 0-.19 0 0a8.6 8.6 0 0 0 0 .956c.04.087-.065-.07 0 0s-.087-.036 0 0c.265.109.751.2.956 0 .068-.068-.036.088 0 0 .116-.266.211-.755 0-.956z" class="prefix__cls-1" data-name="Trazado 506" transform="translate(-200.109 -432.322)"/>
        </g>
    </g>
    <g id="prefix__Grupo_538" data-name="Grupo 538" transform="translate(15.268 2.851)">
        <g id="prefix__Grupo_537" data-name="Grupo 537">
            <path id="prefix__Trazado_507" d="M169.122 32.857a8.784 8.784 0 0 0 0-.956c-.031-.034.04.023 0 0s.044.014 0 0 .048.007 0 0a7.085 7.085 0 0 0-.956 0c-.047.007.043-.022 0 0s.04-.027 0 0 .034-.031 0 0c-.063.07.036.869 0 .956s0-.094 0 0-.034-.087 0 0-.063-.072 0 0a.659.659 0 0 0 .956 0c.068-.068-.036.088 0 0 .078-.173.078.174 0 0z" class="prefix__cls-1" data-name="Trazado 507" transform="translate(-168.145 -31.886)"/>
        </g>
    </g>
    <g id="prefix__Grupo_540" data-name="Grupo 540" transform="translate(18.098 2.851)">
        <g id="prefix__Grupo_539" data-name="Grupo 539">
            <path id="prefix__Trazado_508" d="M201.122 31.9c-.033-.032.038.025 0 0s.044.014 0 0 .048.007 0 0a7.085 7.085 0 0 0-.956 0c-.045.008.041-.021 0 0s.04-.027 0 0c-.133.136 0 .765 0 .956a1.2 1.2 0 0 0 .956.956c.187 0-.135-.826 0-.956s0 .192 0 0 .137-.82 0-.956z" class="prefix__cls-1" data-name="Trazado 508" transform="translate(-200.108 -31.886)"/>
        </g>
    </g>
    <g id="prefix__Grupo_542" data-name="Grupo 542" transform="translate(34.402)">
        <g id="prefix__Grupo_541" data-name="Grupo 541">
            <path id="prefix__Trazado_509" d="M390.609 38.145h-2.867a1.193 1.193 0 0 1-.956-.956V7.566c0-.4.56 0 .956 0a4.005 4.005 0 0 0 3.822-3.822 3.822 3.822 0 0 0-7.645 0 .956.956 0 1 0 1.911 0 1.911 1.911 0 1 1 3.822 0 1.765 1.765 0 0 1-1.911 1.911 1.765 1.765 0 0 0-1.911 1.911v29.623a1.765 1.765 0 0 0 1.911 1.911h2.867a1.193 1.193 0 0 1 .956.956v1.911c0 .4-.4.956 0 .956a1.193 1.193 0 0 0 .956-.956v-1.911a1.765 1.765 0 0 0-1.911-1.911z" class="prefix__cls-1" data-name="Trazado 509" transform="translate(-383.92 .079)"/>
        </g>
    </g>
    <g id="prefix__Grupo_544" data-name="Grupo 544">
        <g id="prefix__Grupo_543" data-name="Grupo 543">
            <path id="prefix__Trazado_510" d="M33.366 18.077c-.4 0 0 .56 0 .956v1.911h-1.911a3.964 3.964 0 0 0-1.911-2.867L21.9 6.61v-.956l1.91-1.911c.134-.134.956-.765.956-.956V.876a1.193 1.193 0 0 0-.956-.956H10.432c-.4 0 0 .56 0 .956v1.912c0 .19-.134.821 0 .956l1.911 1.911v.955L4.7 18.077a3.963 3.963 0 0 0-1.911 2.867H.876a1.193 1.193 0 0 0-.956.956c0 .4.56 0 .956 0h1.911A3.964 3.964 0 0 0 4.7 24.766l7.645 12.423v.956l-1.911 1.911c-.134.134 0-.19 0 0v1.911c0 .4-.4.956 0 .956H23.81a1.193 1.193 0 0 0 .956-.956v-1.911c0-.19-.821.134-.956 0l-1.91-1.911v-.956l7.645-12.423a3.963 3.963 0 0 0 1.91-2.866h1.911v2.867c0 .4-.4 0 0 0s.956.4.956 0v-5.734a1.193 1.193 0 0 0-.956-.956zm-5.734 0a3.17 3.17 0 0 0-1.911.956L18.076 7.566h2.867zm-2.867 2.867H10.432c-.043-.2-.879-.769-.956-.956l7.645-12.422 7.645 12.423a9.14 9.14 0 0 0-.001.955zm0 1.911l-7.644 12.423-7.645-12.423c.077-.187.912-.758.956-.956h14.333a9.165 9.165 0 0 0 0 .956zM11.387 2.788v-.956h11.467v.956L20.943 4.7c-.134.134 0-.19 0 0v.956H13.3V4.7c0-.19.134.134 0 0zM13.3 7.566h2.867L8.52 19.033a3.17 3.17 0 0 0-1.911-.956zM4.7 21.9c0-1.187.724-2.867 1.911-2.867S8.52 20.712 8.52 21.9a1.765 1.765 0 0 1-1.911 1.911A1.765 1.765 0 0 1 4.7 21.9zm1.911 2.867a3.17 3.17 0 0 0 1.911-.956l7.645 12.423H13.3zm16.245 15.29v1.911H11.387v-1.912l1.913-1.911c.134-.134 0 .19 0 0v-.956h7.645v.956c0 .19-.134-.134 0 0zm-1.911-3.822h-2.869l7.645-12.423a3.17 3.17 0 0 0 1.911.956zm6.689-12.423a1.765 1.765 0 0 1-1.913-1.912c0-1.187.724-2.867 1.911-2.867A3.577 3.577 0 0 1 30.5 21.9c0 1.187-1.68 1.911-2.868 1.911z" class="prefix__cls-1" data-name="Trazado 510" transform="translate(.08 .079)"/>
        </g>
    </g>
</svg>
