<svg height="43.002" viewBox="0 0 43.002 43.002" width="43.002" xmlns="http://www.w3.org/2000/svg"><g fill="#474747"><path d="m169.122 432.5c-.007-.045.021.04 0 0s.027.04 0 0a.673.673 0 0 0 -.956 0c-.031.034.027-.037 0 0s.016-.046 0 0 .008-.045 0 0 0-.048 0 0a7.147 7.147 0 0 0 0 .956c.037.087-.063-.07 0 0s-.087-.036 0 0c.267.114.75.205.956 0 .063-.07-.037.087 0 0a8.561 8.561 0 0 0 0-.956c-.001-.046.009.049 0 0z" transform="translate(-152.877 -393.322)"/><path d="m201.122 432.41c-.168-.17-.722-.049-.956 0-.045.008.041-.021 0 0s.04-.027 0 0c-.131.137 0-.19 0 0a8.6 8.6 0 0 0 0 .956c.04.087-.065-.07 0 0s-.087-.036 0 0c.265.109.751.2.956 0 .068-.068-.036.088 0 0 .116-.266.211-.755 0-.956z" transform="translate(-182.01 -393.23)"/><path d="m169.122 32.857a8.784 8.784 0 0 0 0-.956c-.031-.034.04.023 0 0s.044.014 0 0 .048.007 0 0a7.085 7.085 0 0 0 -.956 0c-.047.007.043-.022 0 0s.04-.027 0 0 .034-.031 0 0c-.063.07.036.869 0 .956s0-.094 0 0-.034-.087 0 0-.063-.072 0 0a.659.659 0 0 0 .956 0c.068-.068-.036.088 0 0 .078-.173.078.174 0 0z" transform="translate(-152.877 -29.035)"/><path d="m201.122 31.9c-.033-.032.038.025 0 0s.044.014 0 0 .048.007 0 0a7.085 7.085 0 0 0 -.956 0c-.045.008.041-.021 0 0s.04-.027 0 0c-.133.136 0 .765 0 .956a1.2 1.2 0 0 0 .956.956c.187 0-.135-.826 0-.956s0 .192 0 0 .137-.82 0-.956z" transform="translate(-182.01 -29.035)"/><path d="m390.609 38.145h-2.867a1.193 1.193 0 0 1 -.956-.956v-29.623c0-.4.56 0 .956 0a4.005 4.005 0 0 0 3.822-3.822 3.822 3.822 0 0 0 -7.645 0 .956.956 0 1 0 1.911 0 1.911 1.911 0 1 1 3.822 0 1.765 1.765 0 0 1 -1.911 1.911 1.765 1.765 0 0 0 -1.911 1.911v29.623a1.765 1.765 0 0 0 1.911 1.911h2.867a1.193 1.193 0 0 1 .956.956v1.911c0 .4-.4.956 0 .956a1.193 1.193 0 0 0 .956-.956v-1.911a1.765 1.765 0 0 0 -1.911-1.911z" transform="translate(-349.518 .079)"/><path d="m33.366 18.077c-.4 0 0 .56 0 .956v1.911h-1.911a3.964 3.964 0 0 0 -1.911-2.867l-7.644-11.467v-.956l1.91-1.911c.134-.134.956-.765.956-.956v-1.911a1.193 1.193 0 0 0 -.956-.956h-13.378c-.4 0 0 .56 0 .956v1.912c0 .19-.134.821 0 .956l1.911 1.911v.955l-7.643 11.467a3.963 3.963 0 0 0 -1.911 2.867h-1.913a1.193 1.193 0 0 0 -.956.956c0 .4.56 0 .956 0h1.911a3.964 3.964 0 0 0 1.913 2.866l7.645 12.423v.956l-1.911 1.911c-.134.134 0-.19 0 0v1.911c0 .4-.4.956 0 .956h13.376a1.193 1.193 0 0 0 .956-.956v-1.911c0-.19-.821.134-.956 0l-1.91-1.911v-.956l7.645-12.423a3.963 3.963 0 0 0 1.91-2.866h1.911v2.867c0 .4-.4 0 0 0s.956.4.956 0v-5.734a1.193 1.193 0 0 0 -.956-.956zm-5.734 0a3.17 3.17 0 0 0 -1.911.956l-7.645-11.467h2.867zm-2.867 2.867h-14.333c-.043-.2-.879-.769-.956-.956l7.645-12.422 7.645 12.423a9.14 9.14 0 0 0 -.001.955zm0 1.911-7.644 12.423-7.645-12.423c.077-.187.912-.758.956-.956h14.333a9.165 9.165 0 0 0 0 .956zm-13.378-20.067v-.956h11.467v.956l-1.911 1.912c-.134.134 0-.19 0 0v.956h-7.643v-.956c0-.19.134.134 0 0zm1.913 4.778h2.867l-7.647 11.467a3.17 3.17 0 0 0 -1.911-.956zm-8.6 14.334c0-1.187.724-2.867 1.911-2.867s1.909 1.679 1.909 2.867a1.765 1.765 0 0 1 -1.911 1.911 1.765 1.765 0 0 1 -1.909-1.911zm1.911 2.867a3.17 3.17 0 0 0 1.911-.956l7.645 12.423h-2.867zm16.245 15.29v1.911h-11.469v-1.912l1.913-1.911c.134-.134 0 .19 0 0v-.956h7.645v.956c0 .19-.134-.134 0 0zm-1.911-3.822h-2.869l7.645-12.423a3.17 3.17 0 0 0 1.911.956zm6.689-12.423a1.765 1.765 0 0 1 -1.913-1.912c0-1.187.724-2.867 1.911-2.867a3.577 3.577 0 0 1 2.868 2.867c0 1.187-1.68 1.911-2.868 1.911z" transform="translate(.08 .079)"/></g></svg>