<svg height="75.557" viewBox="0 0 75.557 75.557" width="75.557" xmlns="http://www.w3.org/2000/svg"><path d="m4.832 41.931a33.188 33.188 0 0 1 59.48-24.075h-4.4a2.214 2.214 0 1 0 0 4.427h8.854a2.212 2.212 0 0 0 2.214-2.214v-8.854a2.214 2.214 0 1 0 -4.427 0v2.285a37.714 37.714 0 0 0 -66.261 28.98 2.366 2.366 0 0 0 2.342 1.939 2.416 2.416 0 0 0 .276-.019 2.214 2.214 0 0 0 1.922-2.471zm31.189-27.631c-1.632 2.127-15.951 21.072-15.951 30.119a17.709 17.709 0 1 0 35.417 0c0-9.047-14.319-27.992-15.951-30.123a2.293 2.293 0 0 0 -3.515 0zm15.039 30.119a13.281 13.281 0 0 1 -26.563 0c0-5.635 8.415-18.376 13.281-25.071 4.866 6.695 13.282 19.436 13.282 25.071zm24.2-11.342a2.359 2.359 0 0 0 -2.618-1.922 2.214 2.214 0 0 0 -1.922 2.471 33.188 33.188 0 0 1 -59.475 24.074h4.4a2.214 2.214 0 1 0 0-4.427h-8.857a2.212 2.212 0 0 0 -2.214 2.214v8.854a2.214 2.214 0 0 0 4.427 0v-2.429a37.867 37.867 0 0 0 28.777 13.645 37.792 37.792 0 0 0 37.486-42.48z" fill="#fff"/></svg>