<svg xmlns="http://www.w3.org/2000/svg" id="prefix__XMLID_1689_" width="43.315" height="43.018" viewBox="0 0 43.315 43.018">
    <defs>
        <style>
            .prefix__cls-1{fill:#474747}
        </style>
    </defs>
    <g id="prefix__XMLID_454_">
        <path id="prefix__XMLID_521_" d="M228.71 184.489c0-1.5-.414-2.867-1.911-2.867a2.867 2.867 0 1 0 0 5.734c1.501 0 1.911-1.369 1.911-2.867zm-3.822 0c0-.571 1.34-.956 1.911-.956a.956.956 0 0 1 0 1.911c-.571.001-1.912-.383-1.912-.955z" class="prefix__cls-1" transform="translate(-204.743 -166.324)"/>
        <path id="prefix__XMLID_524_" d="M42.918 34.017l-.956-3.822v-.956c.621-.946 1.256-1.776.956-2.867l-.955-2.872a5 5 0 0 0-1.911-2.867c-.155-.1.183-.014 0 0-.395-8.271-7.109-15.586-15.29-17.2-.455-.09-.866.5-.956.956s.5.866.956.956A16.7 16.7 0 0 1 38.14 21.594c0 .232.01.723 0 .956l-1.911.956c.06-.542 0-1.365 0-1.911a17.277 17.277 0 0 0 0-2.867c0-.024.005.023 0 0C34.94 11.882 29.109 7.26 21.9 7.26s-14 4.618-15.29 11.467c0 .02 0-.02 0 0a17.24 17.24 0 0 0 0 2.867c0 .547-.06 1.369 0 1.911l-1.911-.956c-.01-.232 0-.723 0-.956A16.677 16.677 0 0 1 18.073 5.349c.455-.089 1.045-.5.956-.956s-.5-1.045-.956-.956C9.88 5.044 4.134 12.357 3.739 20.638a2.666 2.666 0 0 0-.956 0A5 5 0 0 0 .872 23.5l-.956 2.867c-.3 1.091.335 1.921.956 2.867l.956.956-1.912 3.827c-.179.428.528.776.956.956.106.044-.108 0 0 0 .328 0 .821-.634.956-.956l.956-2.867 3.822.956-2.867 13.378c-.107.451-.451.848 0 .956.065.016-.064 0 0 0 .38 0 .864-.57.956-.956l2.866-11.467c3.424 3.865 9.117 5.734 14.334 5.734a15.477 15.477 0 0 0 7.645-1.911c1.987-1.026 4.246-2.144 5.734-3.822l2.866 11.466c.092.386.575.956.956.956.064 0-.065.015 0 0 .451-.107 1.063-.5.956-.956l-3.823-13.379 3.822-.956.956 2.867c.135.322.627.956.956.956a6.873 6.873 0 0 0 .956 0c.427-.179.181-.528-.001-.955zM39.1 23.5c.129-.069.878.124.956 0v-.956c.286.334-.119 1.48 0 1.911l.956 1.911a2.4 2.4 0 0 1 0 1.911l-.956.956-4.778.956a4.934 4.934 0 0 1-.956-2.867v-1.906c0-.249-.241.062 0 0v-.956c.6.347 1.285 1.29 1.911.956zm-28.668.956h4.778a2.944 2.944 0 0 1 2.867 2.867v6.689c-3.186-.792-5.808-1.941-7.645-4.778a11.853 11.853 0 0 0 0-1.911v-1.907a4.767 4.767 0 0 0-.004-.955zm4.778-.956H8.517c-.058-.5 0-1.4 0-1.911a13.968 13.968 0 0 1 0-1.911l8.6-1.911a17.852 17.852 0 0 1 8.6 0l8.6 1.911a13.968 13.968 0 0 1 0 1.911c0 .509.058 1.407 0 1.911h-6.688c-2.452 0-4.778 1.371-4.778 3.822v7.645a5.364 5.364 0 0 1-.956 0c-.51 0-1.413.057-1.911 0v-7.64c0-2.451-2.327-3.827-4.778-3.827zm9.556 3.822a2.944 2.944 0 0 1 2.867-2.867h4.778a4.761 4.761 0 0 0 0 .956v1.911a11.852 11.852 0 0 0 0 1.911c-1.837 2.837-4.459 3.986-7.645 4.778zM21.9 8.215a13.073 13.073 0 0 1 12.423 9.556l-7.65-1.911a20.232 20.232 0 0 0-9.556 0l-8.6 1.911c1.597-5.434 7.434-9.556 13.383-9.556zM1.828 26.372l.956-1.911c.119-.431-.286-1.577 0-1.911l.956.956c.078.123-.129-.069 0 0l2.867 1.911c.626.334 1.315-.609 1.911-.956v.956c.241.062 0-.249 0 0v1.911c0 .842.587 2.264 0 2.867h-.957l-4.778-.956-.956-.956a2.4 2.4 0 0 1 .001-1.911zM21.9 37.839c-5.09 0-10.267-1.731-13.378-5.734l.956-.956c.139-.143-.12-.8 0-.956a18.335 18.335 0 0 0 4.778 4.778 16.191 16.191 0 0 0 7.644 1.912 12.667 12.667 0 0 0 6.689-1.911 18.343 18.343 0 0 0 4.778-4.778c.12.157-.14.812 0 .956l.956.956c-3.113 3.994-7.36 5.733-12.423 5.733z" class="prefix__cls-1" transform="translate(.161 -3.428)"/>
        <path id="prefix__XMLID_531_" d="M247.258 1.834c.464 0 0-.492 0-.956s.464-.956 0-.956a1.051 1.051 0 0 0-.956.956 1.051 1.051 0 0 0 .956.956z" class="prefix__cls-1" transform="translate(-225.202 .087)"/>
    </g>
</svg>
