<svg xmlns="http://www.w3.org/2000/svg" width="50.861" height="31.063" viewBox="0 0 50.861 31.063">
  <g id="Grupo_765" data-name="Grupo 765" transform="translate(-2544.25 -1919.461)">
    <g id="Grupo_764" data-name="Grupo 764" transform="translate(2554.834 1919.461)">
      <g id="Grupo_763" data-name="Grupo 763" transform="translate(0 1.511)">
        <g id="Trazado_714" data-name="Trazado 714" transform="translate(-2558.747 -1921.573)" fill="none">
          <path d="M2563.034,1935.087a5.414,5.414,0,0,1-2.593-.561,6.353,6.353,0,0,1-1.695-1.276l.858-1.1a5.972,5.972,0,0,0,1.378,1.083,3.816,3.816,0,0,0,1.95.469,2.86,2.86,0,0,0,1.94-.653,2.183,2.183,0,0,0,.755-1.736,2.266,2.266,0,0,0-.919-1.878,5.465,5.465,0,0,0-3.246-.715v-1.286a4.463,4.463,0,0,0,2.889-.7,2.2,2.2,0,0,0,.806-1.725,1.953,1.953,0,0,0-.6-1.5,2.311,2.311,0,0,0-1.643-.562,3.11,3.11,0,0,0-1.511.378,5.479,5.479,0,0,0-1.266.949l-.9-1.062a7.538,7.538,0,0,1,1.674-1.164,4.471,4.471,0,0,1,2.063-.469,4.384,4.384,0,0,1,2.8.867,2.927,2.927,0,0,1,1.1,2.44,2.858,2.858,0,0,1-.653,1.939,4.216,4.216,0,0,1-1.715,1.163v.082a4.07,4.07,0,0,1,2,1.122,3,3,0,0,1,.816,2.185,3.288,3.288,0,0,1-1.245,2.725A4.732,4.732,0,0,1,2563.034,1935.087Z" stroke="none"/>
          <path d="M 2563.034423828125 1935.08740234375 C 2561.999755859375 1935.08740234375 2561.1357421875 1934.900634765625 2560.44189453125 1934.526611328125 C 2559.747802734375 1934.15234375 2559.1826171875 1933.726806640625 2558.7470703125 1933.250244140625 L 2559.604736328125 1932.147705078125 C 2559.9853515625 1932.556396484375 2560.44482421875 1932.9169921875 2560.982666015625 1933.230224609375 C 2561.5205078125 1933.54296875 2562.170166015625 1933.699462890625 2562.9326171875 1933.699462890625 C 2563.7216796875 1933.699462890625 2564.368408203125 1933.48193359375 2564.872314453125 1933.04638671875 C 2565.375 1932.610595703125 2565.627685546875 1932.03271484375 2565.627685546875 1931.310791015625 C 2565.627685546875 1930.535400390625 2565.32080078125 1929.909423828125 2564.70849609375 1929.43310546875 C 2564.095947265625 1928.95654296875 2563.01416015625 1928.71826171875 2561.462646484375 1928.71826171875 L 2561.462646484375 1927.431884765625 C 2562.850341796875 1927.431884765625 2563.8134765625 1927.197509765625 2564.351318359375 1926.727294921875 C 2564.888671875 1926.258056640625 2565.15771484375 1925.682861328125 2565.15771484375 1925.00244140625 C 2565.15771484375 1924.37646484375 2564.95654296875 1923.87646484375 2564.55517578125 1923.50244140625 C 2564.15380859375 1923.12744140625 2563.60595703125 1922.94091796875 2562.912109375 1922.94091796875 C 2562.36767578125 1922.94091796875 2561.864013671875 1923.066650390625 2561.401123046875 1923.318603515625 C 2560.938232421875 1923.5703125 2560.51611328125 1923.886474609375 2560.135498046875 1924.267822265625 L 2559.237060546875 1923.206298828125 C 2559.74072265625 1922.743408203125 2560.298828125 1922.355712890625 2560.9111328125 1922.042236328125 C 2561.5234375 1921.729736328125 2562.2109375 1921.572998046875 2562.9736328125 1921.572998046875 C 2564.10302734375 1921.572998046875 2565.035400390625 1921.862060546875 2565.77001953125 1922.440185546875 C 2566.50537109375 1923.018798828125 2566.872314453125 1923.832275390625 2566.872314453125 1924.88037109375 C 2566.872314453125 1925.669189453125 2566.655029296875 1926.31591796875 2566.21923828125 1926.819580078125 C 2565.78369140625 1927.3232421875 2565.2119140625 1927.7109375 2564.50439453125 1927.98291015625 L 2564.50439453125 1928.065185546875 C 2565.29345703125 1928.25537109375 2565.960205078125 1928.629638671875 2566.50537109375 1929.1875 C 2567.049072265625 1929.74560546875 2567.321533203125 1930.473876953125 2567.321533203125 1931.372314453125 C 2567.321533203125 1932.529052734375 2566.90673828125 1933.437744140625 2566.076171875 1934.09716796875 C 2565.246337890625 1934.757568359375 2564.23193359375 1935.08740234375 2563.034423828125 1935.08740234375 Z" stroke="none" fill="#adadad"/>
        </g>
      </g>
      <g id="Trazado_715" data-name="Trazado 715" transform="translate(-2562.963 -1920.062)" fill="none">
        <path d="M2580.9,1927.891a3.654,3.654,0,0,0-2.7-1.011,3.329,3.329,0,0,0-1.612.449,4.978,4.978,0,0,0-1.429,1.184q.062-3.1,1.062-4.317a2.987,2.987,0,0,1,2.368-1.215,2.687,2.687,0,0,1,2.144,1.021l.938-1.042a4.818,4.818,0,0,0-1.316-.99,3.916,3.916,0,0,0-1.827-.4,4.413,4.413,0,0,0-2.419.725,5.076,5.076,0,0,0-1.837,2.317,10.52,10.52,0,0,0-.7,4.205,7.282,7.282,0,0,0,1.286,4.706,3.989,3.989,0,0,0,3.2,1.562,3.68,3.68,0,0,0,2.716-1.163,4.128,4.128,0,0,0,1.143-3.022A4.086,4.086,0,0,0,2580.9,1927.891Zm-1.235,5.083a2.021,2.021,0,0,1-1.613.786q-2.531,0-2.858-3.9a4.076,4.076,0,0,1,1.348-1.307,2.845,2.845,0,0,1,1.368-.408,2.186,2.186,0,0,1,1.807.745,3.637,3.637,0,0,1-.051,4.083Z" stroke="none"/>
        <path d="M 2578.519287109375 1921.572998046875 C 2579.226806640625 1921.572998046875 2579.83544921875 1921.705322265625 2580.346435546875 1921.970703125 C 2580.8564453125 1922.236083984375 2581.295654296875 1922.566650390625 2581.66259765625 1922.9609375 L 2580.72412109375 1924.00244140625 C 2580.15234375 1923.322021484375 2579.437744140625 1922.981689453125 2578.580078125 1922.981689453125 C 2577.66796875 1922.981689453125 2576.87890625 1923.386474609375 2576.212158203125 1924.1962890625 C 2575.54541015625 1925.006103515625 2575.19140625 1926.445556640625 2575.150390625 1928.513671875 C 2575.55908203125 1928.0244140625 2576.035400390625 1927.62939453125 2576.579833984375 1927.329833984375 C 2577.12353515625 1927.03076171875 2577.661376953125 1926.88037109375 2578.192138671875 1926.88037109375 C 2579.32177734375 1926.88037109375 2580.223876953125 1927.217529296875 2580.89697265625 1927.891357421875 C 2581.571044921875 1928.565185546875 2581.907958984375 1929.56884765625 2581.907958984375 1930.90234375 C 2581.907958984375 1932.141357421875 2581.526611328125 1933.148681640625 2580.764892578125 1933.924072265625 C 2580.002197265625 1934.69970703125 2579.09716796875 1935.08740234375 2578.049072265625 1935.08740234375 C 2576.770263671875 1935.08740234375 2575.701904296875 1934.5673828125 2574.84423828125 1933.525634765625 C 2573.986572265625 1932.48486328125 2573.55810546875 1930.916015625 2573.55810546875 1928.81982421875 C 2573.55810546875 1927.07861328125 2573.792724609375 1925.676513671875 2574.2626953125 1924.61474609375 C 2574.73193359375 1923.55322265625 2575.34423828125 1922.780517578125 2576.099853515625 1922.2978515625 C 2576.855224609375 1921.81494140625 2577.661376953125 1921.572998046875 2578.519287109375 1921.572998046875 Z M 2578.049072265625 1933.760986328125 C 2578.688720703125 1933.760986328125 2579.226806640625 1933.49853515625 2579.662353515625 1932.974853515625 C 2580.097412109375 1932.451171875 2580.3154296875 1931.760009765625 2580.3154296875 1930.90234375 C 2580.3154296875 1930.058837890625 2580.114501953125 1929.388671875 2579.71337890625 1928.891357421875 C 2579.31201171875 1928.39501953125 2578.70947265625 1928.146728515625 2577.90673828125 1928.146728515625 C 2577.48486328125 1928.146728515625 2577.0283203125 1928.28271484375 2576.5390625 1928.554443359375 C 2576.049072265625 1928.8271484375 2575.599853515625 1929.2626953125 2575.19140625 1929.861572265625 C 2575.40869140625 1932.461181640625 2576.361572265625 1933.760986328125 2578.049072265625 1933.760986328125 Z" stroke="none" fill="#adadad"/>
      </g>
      <g id="Trazado_716" data-name="Trazado 716" transform="translate(-2566.967 -1920.062)" fill="none">
        <path d="M2594.864,1923.288a3.592,3.592,0,0,0-6.125,0,9.235,9.235,0,0,0-1.112,5,9.456,9.456,0,0,0,1.112,5.043,3.548,3.548,0,0,0,6.125,0,9.453,9.453,0,0,0,1.113-5.043A9.232,9.232,0,0,0,2594.864,1923.288Zm-1.225,9.156a1.95,1.95,0,0,1-3.675,0,9.157,9.157,0,0,1-.7-4.155,8.882,8.882,0,0,1,.7-4.114,1.972,1.972,0,0,1,3.675,0,8.884,8.884,0,0,1,.7,4.114A9.159,9.159,0,0,1,2593.639,1932.444Z" stroke="none"/>
        <path d="M 2591.81201171875 1921.572998046875 C 2593.1044921875 1921.572998046875 2594.1220703125 1922.14453125 2594.86376953125 1923.287841796875 C 2595.605712890625 1924.430908203125 2595.97705078125 1926.0986328125 2595.97705078125 1928.2890625 C 2595.97705078125 1930.48095703125 2595.605712890625 1932.161376953125 2594.86376953125 1933.331787109375 C 2594.1220703125 1934.5029296875 2593.1044921875 1935.08740234375 2591.81201171875 1935.08740234375 C 2590.505615234375 1935.08740234375 2589.481201171875 1934.5029296875 2588.7392578125 1933.331787109375 C 2587.99755859375 1932.161376953125 2587.626953125 1930.48095703125 2587.626953125 1928.2890625 C 2587.626953125 1926.0986328125 2587.99755859375 1924.430908203125 2588.7392578125 1923.287841796875 C 2589.481201171875 1922.14453125 2590.505615234375 1921.572998046875 2591.81201171875 1921.572998046875 Z M 2591.81201171875 1933.740234375 C 2592.56005859375 1933.740234375 2593.169921875 1933.30810546875 2593.63916015625 1932.444091796875 C 2594.1083984375 1931.579833984375 2594.34375 1930.19482421875 2594.34375 1928.2890625 C 2594.34375 1926.384033203125 2594.1083984375 1925.0126953125 2593.63916015625 1924.175537109375 C 2593.169921875 1923.338623046875 2592.56005859375 1922.920166015625 2591.81201171875 1922.920166015625 C 2591.04931640625 1922.920166015625 2590.43408203125 1923.338623046875 2589.96435546875 1924.175537109375 C 2589.494873046875 1925.0126953125 2589.26025390625 1926.384033203125 2589.26025390625 1928.2890625 C 2589.26025390625 1930.19482421875 2589.494873046875 1931.579833984375 2589.96435546875 1932.444091796875 C 2590.43408203125 1933.30810546875 2591.04931640625 1933.740234375 2591.81201171875 1933.740234375 Z" stroke="none" fill="#adadad"/>
      </g>
      <g id="Trazado_717" data-name="Trazado 717" transform="translate(-2570.89 -1919.461)" fill="none">
        <path d="M2606.7,1920.36a3.1,3.1,0,0,0-4.369,0,3.96,3.96,0,0,0,0,5.073,3.08,3.08,0,0,0,4.369,0,3.959,3.959,0,0,0,0-5.073Zm-.867,4.276a1.538,1.538,0,0,1-1.317.664,1.564,1.564,0,0,1-1.327-.664,2.829,2.829,0,0,1-.49-1.725,2.867,2.867,0,0,1,.49-1.746,1.565,1.565,0,0,1,1.327-.664,1.539,1.539,0,0,1,1.317.664,2.92,2.92,0,0,1,.479,1.746A2.881,2.881,0,0,1,2605.831,1924.636Z" stroke="none"/>
        <path d="M 2604.513427734375 1919.461059570312 C 2605.356689453125 1919.461059570312 2606.085205078125 1919.760009765625 2606.697509765625 1920.359619140625 C 2607.310546875 1920.958251953125 2607.61669921875 1921.808959960938 2607.61669921875 1922.911376953125 C 2607.61669921875 1923.986572265625 2607.310546875 1924.8271484375 2606.697509765625 1925.432250976562 C 2606.085205078125 1926.038208007812 2605.356689453125 1926.3408203125 2604.513427734375 1926.3408203125 C 2603.669189453125 1926.3408203125 2602.941650390625 1926.038208007812 2602.32861328125 1925.432250976562 C 2601.716064453125 1924.8271484375 2601.409912109375 1923.986572265625 2601.409912109375 1922.911376953125 C 2601.409912109375 1921.808959960938 2601.716064453125 1920.958251953125 2602.32861328125 1920.359619140625 C 2602.941650390625 1919.760009765625 2603.669189453125 1919.461059570312 2604.513427734375 1919.461059570312 Z M 2604.513427734375 1925.300048828125 C 2605.071533203125 1925.300048828125 2605.510009765625 1925.078857421875 2605.83056640625 1924.636108398438 C 2606.1494140625 1924.193969726562 2606.309814453125 1923.618774414062 2606.309814453125 1922.911376953125 C 2606.309814453125 1922.190185546875 2606.1494140625 1921.60791015625 2605.83056640625 1921.165771484375 C 2605.510009765625 1920.7236328125 2605.071533203125 1920.501953125 2604.513427734375 1920.501953125 C 2603.955322265625 1920.501953125 2603.513427734375 1920.7236328125 2603.186279296875 1921.165771484375 C 2602.859375 1921.60791015625 2602.6962890625 1922.190185546875 2602.6962890625 1922.911376953125 C 2602.6962890625 1923.618774414062 2602.859375 1924.193969726562 2603.186279296875 1924.636108398438 C 2603.513427734375 1925.078857421875 2603.955322265625 1925.300048828125 2604.513427734375 1925.300048828125 Z" stroke="none" fill="#adadad"/>
      </g>
    </g>
    <path id="Trazado_718" data-name="Trazado 718" d="M2574.122,1950.662c11.511-.979,20.24-5.694,20.24-11.362,0-2.392-1.554-4.614-4.215-6.458m-40.986.006c-2.628,1.836-4.161,4.043-4.161,6.419,0,5.721,8.888,10.47,20.555,11.389m-3.055,3.146,3.286-3.286-3.286-3.286" transform="translate(0 -3.808)" fill="none" stroke="#adadad" stroke-width="1.5"/>
  </g>
</svg>
