<svg height="31.063" viewBox="0 0 50.861 31.063" width="50.861" xmlns="http://www.w3.org/2000/svg"><g fill="none"><g transform="translate(-2548.163 -1920.062)"><path d="m2563.034 1935.087a5.414 5.414 0 0 1 -2.593-.561 6.353 6.353 0 0 1 -1.695-1.276l.858-1.1a5.972 5.972 0 0 0 1.378 1.083 3.816 3.816 0 0 0 1.95.469 2.86 2.86 0 0 0 1.94-.653 2.183 2.183 0 0 0 .755-1.736 2.266 2.266 0 0 0 -.919-1.878 5.465 5.465 0 0 0 -3.246-.715v-1.286a4.463 4.463 0 0 0 2.889-.7 2.2 2.2 0 0 0 .806-1.725 1.953 1.953 0 0 0 -.6-1.5 2.311 2.311 0 0 0 -1.643-.562 3.11 3.11 0 0 0 -1.511.378 5.479 5.479 0 0 0 -1.266.949l-.9-1.062a7.538 7.538 0 0 1 1.674-1.164 4.471 4.471 0 0 1 2.063-.469 4.384 4.384 0 0 1 2.8.867 2.927 2.927 0 0 1 1.1 2.44 2.858 2.858 0 0 1 -.653 1.939 4.216 4.216 0 0 1 -1.715 1.163v.082a4.07 4.07 0 0 1 2 1.122 3 3 0 0 1 .816 2.185 3.288 3.288 0 0 1 -1.245 2.725 4.732 4.732 0 0 1 -3.043.985z"/><path d="m2563.03442383 1935.08740234c-1.03466797 0-1.89868164-.18676757-2.5925293-.56079101-.6940918-.37426758-1.25927734-.79980469-1.69482422-1.27636719l.85766602-1.10253906c.38061523.4086914.84008789.76928711 1.37792969 1.08251953.53784179.31274414 1.1875.46923828 1.94995117.46923828.7890625 0 1.43579101-.2175293 1.93969726-.65307617.50268555-.43579102.7553711-1.01367188.7553711-1.7355957 0-.77539063-.30688477-1.40136719-.91918946-1.87768555-.61254882-.4765625-1.69433593-.71484375-3.24584961-.71484375v-1.28637695c1.38769532 0 2.35083008-.234375 2.88867188-.70458985.53735352-.46923828.80639648-1.04443359.80639648-1.72485351 0-.62597657-.20117187-1.12597657-.60253906-1.5-.40136719-.375-.94921875-.56152344-1.6430664-.56152344-.5444336 0-1.04809571.12573242-1.51098633.37768555-.46289063.25170898-.88500977.56787109-1.265625.94921875l-.8984375-1.06152344c.50366211-.46289063 1.06176758-.85058594 1.67407226-1.1640625.61230469-.3125 1.29980469-.46923828 2.0625-.46923828 1.12939453 0 2.06176758.2890625 2.79638672.8671875.73535156.57861328 1.10229492 1.39208984 1.10229492 2.44018554 0 .78881836-.21728515 1.43554688-.65307617 1.93920899-.43554687.50366211-1.00732422.89135742-1.71484375 1.16333008v.08227539c.7890625.19018554 1.45581055.56445312 2.00097656 1.12231445.54370118.55810547.81616211 1.28637695.81616211 2.18481445 0 1.15673828-.41479492 2.06542969-1.24536132 2.72485352-.82983399.66040039-1.84423829.99023437-3.04174805.99023437z" fill="#adadad"/></g><g transform="translate(-2552.379 -1920.062)"><path d="m2580.9 1927.891a3.654 3.654 0 0 0 -2.7-1.011 3.329 3.329 0 0 0 -1.612.449 4.978 4.978 0 0 0 -1.429 1.184q.062-3.1 1.062-4.317a2.987 2.987 0 0 1 2.368-1.215 2.687 2.687 0 0 1 2.144 1.021l.938-1.042a4.818 4.818 0 0 0 -1.316-.99 3.916 3.916 0 0 0 -1.827-.4 4.413 4.413 0 0 0 -2.419.725 5.076 5.076 0 0 0 -1.837 2.317 10.52 10.52 0 0 0 -.7 4.205 7.282 7.282 0 0 0 1.286 4.706 3.989 3.989 0 0 0 3.2 1.562 3.68 3.68 0 0 0 2.716-1.163 4.128 4.128 0 0 0 1.143-3.022 4.086 4.086 0 0 0 -1.017-3.009zm-1.235 5.083a2.021 2.021 0 0 1 -1.613.786q-2.531 0-2.858-3.9a4.076 4.076 0 0 1 1.348-1.307 2.845 2.845 0 0 1 1.368-.408 2.186 2.186 0 0 1 1.807.745 3.637 3.637 0 0 1 -.051 4.083z"/><path d="m2578.51928711 1921.57299805c.70751953 0 1.31616211.13232422 1.82714844.39770508.51000976.26538085.94921875.59594726 1.31616211.99023437l-.93847657 1.04150391c-.57177734-.68041993-1.28637695-1.02075196-2.14404296-1.02075196-.91210938 0-1.70117188.40478516-2.36791993 1.21459961-.66674804.80981446-1.02075195 2.24926758-1.06176757 4.31738282.4086914-.48925782.88500976-.88427735 1.42944335-1.1838379.54370118-.29907226 1.08154297-.44946289 1.61230469-.44946289 1.12963867 0 2.03173828.33715821 2.70483399 1.01098633.67407226.67382813 1.01098632 1.67749024 1.01098632 3.01098633 0 1.23901367-.38134765 2.24633789-1.1430664 3.02172852-.76269531.77563476-1.66772461 1.16333007-2.71582031 1.16333007-1.2788086 0-2.34716797-.52001953-3.20483399-1.56176757-.85766601-1.04077149-1.28613281-2.60961914-1.28613281-4.70581055 0-1.74121094.23461914-3.14331055.70458984-4.20507813.46923828-1.06152343 1.08154297-1.83422851 1.83715821-2.31689453.75537109-.48291015 1.56152343-.72485351 2.41943359-.72485351zm-.47021484 12.18798828c.63964843 0 1.17773437-.26245117 1.61328125-.78613281.43505859-.52368164.65307617-1.21484375.65307617-2.07250977 0-.84350586-.20092774-1.51367187-.60205078-2.01098633-.40136719-.49633789-1.00390625-.7446289-1.80664063-.7446289-.421875 0-.87841797.13598632-1.36767578.40771484-.48999023.27270508-.93920898.70825195-1.34765625 1.30712891.21728516 2.59960937 1.17016602 3.89941406 2.85766602 3.89941406z" fill="#adadad"/></g><g transform="translate(-2556.383 -1920.062)"><path d="m2594.864 1923.288a3.592 3.592 0 0 0 -6.125 0 9.235 9.235 0 0 0 -1.112 5 9.456 9.456 0 0 0 1.112 5.043 3.548 3.548 0 0 0 6.125 0 9.453 9.453 0 0 0 1.113-5.043 9.232 9.232 0 0 0 -1.113-5zm-1.225 9.156a1.95 1.95 0 0 1 -3.675 0 9.157 9.157 0 0 1 -.7-4.155 8.882 8.882 0 0 1 .7-4.114 1.972 1.972 0 0 1 3.675 0 8.884 8.884 0 0 1 .7 4.114 9.159 9.159 0 0 1 -.7 4.155z"/><path d="m2591.81201172 1921.57299805c1.29248047 0 2.31005859.5715332 3.05175781 1.71484375.74194336 1.1430664 1.11328125 2.81079101 1.11328125 5.0012207 0 2.19189453-.37133789 3.87231445-1.11328125 5.04272461-.74169922 1.17114258-1.75927734 1.75561523-3.05175781 1.75561523-1.30639649 0-2.33081055-.58447265-3.07275391-1.75561523-.74169922-1.17041016-1.11230468-2.85083008-1.11230468-5.04272461 0-2.19042969.37060546-3.8581543 1.11230468-5.0012207.74194336-1.14331055 1.76635742-1.71484375 3.07275391-1.71484375zm0 12.16723633c.74804687 0 1.35791016-.43212891 1.82714844-1.29614258.46923828-.86425782.70458984-2.24926758.70458984-4.1550293 0-1.9050293-.23535156-3.27636719-.70458984-4.11352539-.46923828-.83691406-1.07910157-1.25537109-1.82714844-1.25537109-.76269531 0-1.37792969.41845703-1.84765625 1.25537109-.46948242.8371582-.70410156 2.20849609-.70410156 4.11352539 0 1.90576172.23461914 3.29077148.70410156 4.1550293.46972656.86401367 1.08496094 1.29614258 1.84765625 1.29614258z" fill="#adadad"/></g><g transform="translate(-2560.306 -1919.461)"><path d="m2606.7 1920.36a3.1 3.1 0 0 0 -4.369 0 3.96 3.96 0 0 0 0 5.073 3.08 3.08 0 0 0 4.369 0 3.959 3.959 0 0 0 0-5.073zm-.867 4.276a1.538 1.538 0 0 1 -1.317.664 1.564 1.564 0 0 1 -1.327-.664 2.829 2.829 0 0 1 -.49-1.725 2.867 2.867 0 0 1 .49-1.746 1.565 1.565 0 0 1 1.327-.664 1.539 1.539 0 0 1 1.317.664 2.92 2.92 0 0 1 .479 1.746 2.881 2.881 0 0 1 -.481 1.725z"/><path d="m2604.51342773 1919.46105957c.84326172 0 1.57177735.2989502 2.18408204.89855957.61303711.59863281.91918945 1.44934082.91918945 2.55175781 0 1.07519532-.30615234 1.91577149-.91918945 2.52087403-.61230469.60595703-1.34082032.90856933-2.18408204.90856933-.84423828 0-1.57177734-.3026123-2.18481445-.90856933-.61254883-.60510254-.91870117-1.44567871-.91870117-2.52087403 0-1.10241699.30615234-1.953125.91870117-2.55175781.61303711-.59960937 1.34057617-.89855957 2.18481445-.89855957zm0 5.83898926c.55810547 0 .99658204-.22119141 1.31713868-.66394043.31884765-.44213867.47924804-1.01733399.47924804-1.72473145 0-.7211914-.16040039-1.30346679-.47924804-1.74560547-.32055664-.44213867-.75903321-.66381835-1.31713868-.66381835-.55810546 0-1 .22167968-1.32714843.66381835-.3269043.44213868-.48999024 1.02441407-.48999024 1.74560547 0 .70739746.16308594 1.28259278.48999024 1.72473145.32714843.44274902.76904297.66394043 1.32714843.66394043z" fill="#adadad"/></g><path d="m2574.122 1950.662c11.511-.979 20.24-5.694 20.24-11.362 0-2.392-1.554-4.614-4.215-6.458m-40.986.006c-2.628 1.836-4.161 4.043-4.161 6.419 0 5.721 8.888 10.47 20.555 11.389m-3.055 3.146 3.286-3.286-3.286-3.286" stroke="#adadad" stroke-width="1.5" transform="translate(-2544.25 -1923.269)"/></g></svg>