<svg id="Page-1" xmlns="http://www.w3.org/2000/svg" width="60" height="53.003" viewBox="0 0 60 53.003">
  <g id="_032---Sensor" data-name="032---Sensor" transform="translate(0 0)">
    <path id="Shape" d="M58,33.816V47a3,3,0,0,1-2,2.816V51a3,3,0,0,1-3,3H7a3,3,0,0,1-3-3V49.816A3,3,0,0,1,2,47V33.816A3,3,0,0,1,0,31V29a1,1,0,0,1,1-1H59a1,1,0,0,1,1,1v2A3,3,0,0,1,58,33.816ZM6,51a1,1,0,0,0,1,1H53a1,1,0,0,0,1-1V50H6ZM4,47a1,1,0,0,0,1,1H55a1,1,0,0,0,1-1V34H4ZM58,30H2v1a1,1,0,0,0,1,1H57a1,1,0,0,0,1-1Z" transform="translate(0 -28)" fill="#393939"/>
    <path id="Shape-2" data-name="Shape" d="M53,38H7a1,1,0,1,1,0-2H53a1,1,0,1,1,0,2Z" transform="translate(0 -20)" fill="#393939"/>
    <path id="Shape-3" data-name="Shape" d="M27,23a3,3,0,1,1,3,3A3,3,0,0,1,27,23Zm4,0a1,1,0,1,0-1,1A1,1,0,0,0,31,23Z" transform="translate(0 8)" fill="#393939"/>
    <path id="Shape-4" data-name="Shape" d="M36.313,11.724a3.015,3.015,0,0,1,2.708-1.707,3,3,0,0,1,2.706,4.293,13,13,0,0,1-23.454,0,3,3,0,1,1,5.414-2.586,7,7,0,0,0,12.626,0Zm-14.431.861a1,1,0,0,0-1.8.863,10.994,10.994,0,0,0,19.844,0,1,1,0,0,0-.47-1.334,1.022,1.022,0,0,0-1.334.471,9,9,0,0,1-16.236,0Z" transform="translate(0 22.293)" fill="#393939"/>
    <path id="Shape-5" data-name="Shape" d="M46.242,1a3,3,0,0,1,2.7,4.3A21,21,0,0,1,30,17.23,21.005,21.005,0,0,1,11.052,5.3,3,3,0,0,1,16.462,2.7,15.006,15.006,0,0,0,30,11.229,15.006,15.006,0,0,0,43.532,2.7,3.018,3.018,0,0,1,46.242,1ZM30,13.227A17.1,17.1,0,0,1,14.661,3.564a1,1,0,0,0-1.8.866A19.006,19.006,0,0,0,30,15.227,19.006,19.006,0,0,0,47.142,4.43a1,1,0,0,0-.47-1.335,1.02,1.02,0,0,0-1.333.469A17.1,17.1,0,0,1,30,13.227Z" transform="translate(0 35.773)" fill="#393939"/>
  </g>
</svg>
