<svg xmlns="http://www.w3.org/2000/svg" width="56.738" height="51" viewBox="0 0 56.738 51">
    <g id="prefix__Capa_2" data-name="Capa 2" transform="translate(.5 .5)">
        <g id="prefix__Capa_2-2" data-name="Capa 2">
            <path id="prefix__Trazado_607" d="M58.239 52.5H2.5l27.87-50zM30.37 45.381a1.038 1.038 0 0 0 .776-.32 1.116 1.116 0 0 0 .309-.8 1.09 1.09 0 0 0-.292-.788 1.013 1.013 0 0 0-.754-.322 1.044 1.044 0 0 0-1.1 1.11 1.088 1.088 0 0 0 .29.8 1.011 1.011 0 0 0 .766.322zm-.877-22.441v18.53h1.736V22.94z" data-name="Trazado 607" transform="translate(-2.5 -2.5)" style="fill:none;stroke:#fff;stroke-linecap:round;stroke-linejoin:round"/>
        </g>
    </g>
</svg>
