<svg xmlns="http://www.w3.org/2000/svg" width="40" height="40" viewBox="0 0 40 40">
  <g id="Grupo_1030" data-name="Grupo 1030" transform="translate(-694 -336)">
    <path id="Trazado_901" data-name="Trazado 901" d="M87.165,0h-6.25a.781.781,0,0,0-.781.781V1.6L79.092,1.59h0a.781.781,0,0,0,0,1.563l1.052.006v8.105c-2.046,1.288-3.892.547-5.841-.238a8.157,8.157,0,0,0-3.938-.886c-.418.052-1.547.216-2.741.39-1.132.164-2.3.334-2.705.385a.775.775,0,0,1-.575-.161.8.8,0,0,1-.3-.534c-.017-.138-.063-.506.916-.96A39.287,39.287,0,0,1,71.007,7a.781.781,0,0,0-.4-1.51,40.891,40.891,0,0,0-6.315,2.35A3.447,3.447,0,0,0,62.811,9l-7.833,2.136c-.824.207-1.247-.121-1.368-.5a.871.871,0,0,1,.614-1.081c.613-.233,2.076-.878,3.928-1.693,2.454-1.08,5.508-2.424,7.943-3.412a13.6,13.6,0,0,1,6.739-1.34h0a.781.781,0,0,0,0-1.563,15.12,15.12,0,0,0-7.331,1.455c-2.457,1-5.522,2.346-7.986,3.43-1.763.776-3.286,1.446-3.859,1.664l-.007,0a2.418,2.418,0,0,0-1.534,3.015,2.537,2.537,0,0,0,3.246,1.532l.013,0,7.151-1.95A2.358,2.358,0,0,0,65.1,12.465c.417-.052,1.543-.216,2.735-.389,1.135-.165,2.308-.335,2.711-.386a7.009,7.009,0,0,1,3.159.785,11.076,11.076,0,0,0,4.109,1.05,5.633,5.633,0,0,0,2.315-.492v.248a.781.781,0,0,0,.781.781h6.25a.781.781,0,0,0,.781-.781V.781A.781.781,0,0,0,87.165,0Zm-.781,12.5H81.7V2.388h0V1.562h4.688Zm0,0" transform="translate(646.053 336)" fill="#393939"/>
    <path id="Trazado_903" data-name="Trazado 903" d="M121.468,196.938a5.465,5.465,0,0,0,4.484-2.344h2.886a.781.781,0,0,0,.552-.229l1.334-1.334h.916l1.334,1.334a.781.781,0,0,0,.552.229h1.223a.781.781,0,0,0,.552-.229l2.344-2.344a.781.781,0,0,0,.229-.552v-2.344a.781.781,0,0,0-.781-.781H125.953a5.467,5.467,0,1,0-4.484,8.594Zm14.844-7.031v1.239l-1.886,1.886h-.576l-1.334-1.334a.781.781,0,0,0-.552-.229H130.4a.781.781,0,0,0-.552.229l-1.334,1.334h-1.807a5.455,5.455,0,0,0,0-3.125Zm-14.844-2.344a3.906,3.906,0,1,1-3.906,3.906A3.911,3.911,0,0,1,121.468,187.563Zm0,0" transform="translate(587.063 164.531)" fill="#393939"/>
    <path id="Trazado_906" data-name="Trazado 906" d="M32.578,333.416l-.013,0-7.151,1.95a2.358,2.358,0,0,0-2.571-1.769c-.417.052-1.543.216-2.735.389-1.135.165-2.308.335-2.711.386a7.015,7.015,0,0,1-3.159-.785c-1.824-.734-4.028-1.622-6.425-.559v-.247A.781.781,0,0,0,7.031,332H.781a.781.781,0,0,0-.781.781v12.5a.781.781,0,0,0,.781.781h6.25a.781.781,0,0,0,.781-.781v-.815l1.042.006h0a.781.781,0,0,0,0-1.562l-1.052-.006V334.8c2.046-1.288,3.892-.547,5.841.238a8.152,8.152,0,0,0,3.938.886c.418-.052,1.547-.216,2.741-.389,1.132-.165,2.3-.334,2.705-.385a.774.774,0,0,1,.575.161.8.8,0,0,1,.3.534c.017.138.063.506-.916.96a39.259,39.259,0,0,1-6.059,2.257.781.781,0,0,0,.4,1.51,40.9,40.9,0,0,0,6.315-2.35,3.451,3.451,0,0,0,1.479-1.158l7.832-2.136c.824-.208,1.247.121,1.368.5a.871.871,0,0,1-.614,1.081c-.613.233-2.077.878-3.929,1.693-2.454,1.08-5.508,2.424-7.943,3.412a13.6,13.6,0,0,1-6.739,1.34h0a.781.781,0,0,0,0,1.563H15.3a14.992,14.992,0,0,0,7.142-1.455c2.456-1,5.522-2.346,7.985-3.43,1.763-.776,3.286-1.446,3.859-1.664l.008,0a2.418,2.418,0,0,0,1.534-3.015,2.538,2.538,0,0,0-3.246-1.532ZM1.563,344.5V333.566H6.25v10.112h0v.824Zm0,0" transform="translate(694 29.934)" fill="#393939"/>
  </g>
</svg>
