<svg height="59.274" viewBox="0 0 52.185 59.274" width="52.185" xmlns="http://www.w3.org/2000/svg"><path d="m19.94 7.212h-13.152v-3.912a3.3 3.3 0 0 1 3.3-3.3h6.543a3.3 3.3 0 0 1 3.309 3.3zm6.787 0h-26.727v50.062h26.728zm23.458 12.919h-18.772v-4.454h18.772zm-1.909 11.613h-14.476v-11.613h14.476zm-7.238 4.985a2.307 2.307 0 0 1 -2.307-2.307v-2.622h4.614v2.625a2.307 2.307 0 0 1 -2.307 2.304zm-2.784-21.052h-3.342v-7.717a1.671 1.671 0 0 1 1.672-1.67 1.67 1.67 0 0 1 1.67 1.671zm8.962-.053h-3.341v-7.715a1.671 1.671 0 0 1 1.671-1.671 1.671 1.671 0 0 1 1.671 1.671zm-26.728 16.737h-7.474l1.475 12.42-9.262-16.63 7.473-.105v-10.846zm20.523 4.545v10.34a4.3 4.3 0 1 1 -8.591 0v-10.279a5.682 5.682 0 0 0 -5.62-5.629" fill="none" stroke="#94e538" stroke-miterlimit="10" stroke-width="2" transform="translate(1 1)"/></svg>