<svg xmlns="http://www.w3.org/2000/svg" width="52.185" height="59.274" viewBox="0 0 52.185 59.274">
  <path id="Trazado_721" data-name="Trazado 721" d="M19.94,7.212H6.788V3.3a3.3,3.3,0,0,1,3.3-3.3h6.543A3.3,3.3,0,0,1,19.94,3.3Zm6.787,0H0V57.274H26.728ZM50.185,20.131H31.413V15.677H50.185ZM48.276,31.744H33.8V20.131H48.276Zm-7.238,4.985h0a2.307,2.307,0,0,1-2.307-2.307V31.8h4.614v2.625A2.307,2.307,0,0,1,41.038,36.729ZM38.254,15.677H34.912V7.96A1.671,1.671,0,0,1,36.584,6.29h0a1.67,1.67,0,0,1,1.67,1.671Zm8.962-.053H43.875V7.909a1.671,1.671,0,0,1,1.671-1.671h0a1.671,1.671,0,0,1,1.671,1.671ZM20.488,32.361H13.014l1.475,12.42L5.227,28.151l7.473-.105V17.2Zm20.523,4.545v10.34a4.3,4.3,0,1,1-8.591,0V36.967A5.682,5.682,0,0,0,26.8,31.338" transform="translate(1 1)" fill="none" stroke="#94e538" stroke-miterlimit="10" stroke-width="2"/>
</svg>
