<svg xmlns="http://www.w3.org/2000/svg" id="prefix__bathroom" width="113.54" height="102.536" viewBox="0 0 113.54 102.536">
    <defs>
        <style>
            .prefix__cls-1{fill:#393939}
        </style>
    </defs>
    <path id="prefix__Trazado_313" d="M5.676 47.849h3.785V46.14a5.428 5.428 0 0 1 5.676-5.126H41.63a5.428 5.428 0 0 1 5.676 5.126v1.709h52.985V13.671c0-5.363-4.572-9.822-10.494-10.225s-11.187 3.387-12.072 8.69c5.392.89 9.311 5.129 9.321 10.08v1.709a1.808 1.808 0 0 1-1.893 1.709H66.231a1.808 1.808 0 0 1-1.893-1.709v-1.71c.01-5.036 4.064-9.32 9.569-10.114C74.827 4.9 81.8-.394 89.812.022s14.266 6.4 14.264 13.649v34.178h3.785a5.429 5.429 0 0 1 5.677 5.126 5.176 5.176 0 0 1-3.785 4.816v13.983C109.733 84.312 99 94.711 85.154 95.612v1.8a5.706 5.706 0 0 1-11.354 0V95.7H39.738v1.708a5.423 5.423 0 0 1-5.676 5.127 5.423 5.423 0 0 1-5.677-5.127v-1.8c-13.848-.9-24.579-11.3-24.6-23.839V57.788A5.181 5.181 0 0 1 0 52.976a5.449 5.449 0 0 1 5.677-5.126zm62.447-25.633h15.138c0-3.775-3.389-6.836-7.569-6.836s-7.569 3.06-7.569 6.836zM17.03 47.849V46.14a1.808 1.808 0 0 0-1.893-1.709 1.807 1.807 0 0 0-1.892 1.709v1.709zm26.492-1.709a1.808 1.808 0 0 0-1.892-1.709H20.466a4.623 4.623 0 0 1 .349 1.709v18.8h17.031a1.718 1.718 0 1 1 0 3.418H20.815v3.418h22.707zm34.063 51.268a1.9 1.9 0 0 0 3.785 0V95.7h-3.785zm-45.416 0a1.9 1.9 0 0 0 3.785 0V95.7h-3.785zm-1.892-5.126h52.984c12.535-.013 22.694-9.187 22.708-20.507V58.1h-49.2a1.718 1.718 0 1 1 0-3.418h51.092a1.948 1.948 0 0 0 1.348-.523 1.566 1.566 0 0 0 .545-1.187 1.81 1.81 0 0 0-1.893-1.709H47.307v20.511a3.364 3.364 0 0 1-1.892 2.943v3.893a1.9 1.9 0 0 1-3.785 0v-3.418h-3.784v3.418a1.9 1.9 0 0 1-3.785 0v-3.418h-3.784v3.418a1.9 1.9 0 0 1-3.785 0v-3.418h-3.785v3.418a1.9 1.9 0 0 1-3.785 0v-3.894a3.362 3.362 0 0 1-1.892-2.942V58.1H7.568v13.674c.014 11.32 10.172 20.494 22.708 20.507zm-24.6-37.6H17.03v-3.415H5.676a1.953 1.953 0 0 0-1.35.523 1.565 1.565 0 0 0-.543 1.185 1.81 1.81 0 0 0 1.893 1.71zm0 0" class="prefix__cls-1" data-name="Trazado 313" transform="translate(.001 .001)"/>
    <path id="prefix__Trazado_314" d="M162.133 146.775a1.9 1.9 0 0 1 3.785 0v1.709a1.9 1.9 0 0 1-3.785 0zm0 0" class="prefix__cls-1" data-name="Trazado 314" transform="translate(-88.332 -116.015)"/>
    <path id="prefix__Trazado_315" d="M164.025 187.73a1.808 1.808 0 0 1 1.893 1.709v1.709a1.9 1.9 0 0 1-3.785 0v-1.709a1.808 1.808 0 0 1 1.892-1.709zm0 0" class="prefix__cls-1" data-name="Trazado 315" transform="translate(-88.332 -150.134)"/>
    <path id="prefix__Trazado_316" d="M135.511 135.816l1.324 1.221a1.594 1.594 0 0 1-.027 2.417 2.04 2.04 0 0 1-2.677-.025l-1.325-1.22a1.6 1.6 0 0 1 .027-2.417 2.04 2.04 0 0 1 2.678.024zm0 0" class="prefix__cls-1" data-name="Trazado 316" transform="translate(-53.168 -108.206)"/>
    <path id="prefix__Trazado_317" d="M105.645 166.288l1.324 1.221a1.594 1.594 0 0 1-.027 2.416 2.039 2.039 0 0 1-2.677-.024l-1.324-1.221a1.594 1.594 0 0 1 .027-2.416 2.039 2.039 0 0 1 2.677.024zm0 0" class="prefix__cls-1" data-name="Trazado 317" transform="translate(-16.678 -132.576)"/>
    <path id="prefix__Trazado_318" d="M190.572 135.793a1.6 1.6 0 0 1 .027 2.417l-1.324 1.22a2.03 2.03 0 0 1-1.823.459 1.816 1.816 0 0 1-1.352-1.2 1.6 1.6 0 0 1 .471-1.655l1.325-1.221a2.038 2.038 0 0 1 2.677-.024zm0 0" class="prefix__cls-1" data-name="Trazado 318" transform="translate(-118.852 -108.207)"/>
    <path id="prefix__Trazado_319" d="M220.461 168.683l-1.325 1.221a2.034 2.034 0 0 1-1.823.459 1.817 1.817 0 0 1-1.352-1.2 1.6 1.6 0 0 1 .471-1.655l1.325-1.221a2.038 2.038 0 0 1 2.676-.024 1.594 1.594 0 0 1 .028 2.42zm0 0" class="prefix__cls-1" data-name="Trazado 319" transform="translate(-155.337 -132.579)"/>
    <path id="prefix__Trazado_320" d="M53.092 365.247h5.676c8.357-.009 15.13-6.125 15.139-13.671a1.9 1.9 0 0 1 3.785 0c-.012 9.434-8.477 17.079-18.924 17.089h-5.676a1.718 1.718 0 1 1 0-3.418zm0 0" class="prefix__cls-1" data-name="Trazado 320" transform="translate(24.493 -279.801)"/>
    <path id="prefix__Trazado_321" d="M53.091 312.327a1.808 1.808 0 0 1-1.892-1.709v-1.709a1.9 1.9 0 0 1 3.785 0v1.709a1.808 1.808 0 0 1-1.893 1.709zm0 0" class="prefix__cls-1" data-name="Trazado 321" transform="translate(47.202 -245.678)"/>
</svg>
