<svg height="84.201" viewBox="0 0 135.737 84.201" width="135.737" xmlns="http://www.w3.org/2000/svg"><path d="m133.745 108.943h-10.765c0-.04.007-.08.007-.12v-9.715h4.383a1.884 1.884 0 0 0 1.965-2.095l-2.125-11.513a1.944 1.944 0 0 0 -1.965-1.5h-8.5a1.944 1.944 0 0 0 -1.965 1.5l-2.125 11.515a1.885 1.885 0 0 0 1.965 2.095h4.38v9.715c0 .04 0 .08.007.12h-9.98s-.917-2.648-.917-2.759v-20.392c0-3.108-2.8-5.637-6.242-5.637h-68c-3.442 0-6.242 2.529-6.242 5.637v20.506c0 .082-.917 2.639-.917 2.639h-9.98c0-.04.007-.08.007-.12v-9.711h4.383a1.884 1.884 0 0 0 1.965-2.095l-2.127-11.513a1.944 1.944 0 0 0 -1.965-1.5h-8.5a1.944 1.944 0 0 0 -1.965 1.5l-2.127 11.513a1.885 1.885 0 0 0 1.965 2.095h4.385v9.715c0 .04 0 .08.007.12h-10.765a1.9 1.9 0 0 0 -1.992 1.8v23.029a1.9 1.9 0 0 0 1.992 1.8h14.308l-1.313 3.359a1.651 1.651 0 0 0 -.113.6v15.353c0 1.568 2.172 2.382 3.4 1.272l.849-.767v1.411a1.9 1.9 0 0 0 1.992 1.8h2.258v3.958a1.9 1.9 0 0 0 1.992 1.8h85a1.9 1.9 0 0 0 1.992-1.8v-3.958h2.258a1.9 1.9 0 0 0 1.992-1.8v-1.414l.849.767c1.23 1.11 3.4.293 3.4-1.272v-15.352a1.646 1.646 0 0 0 -.114-.6l-1.313-3.359h14.309a1.9 1.9 0 0 0 1.992-1.8v-23.027a1.9 1.9 0 0 0 -1.985-1.8zm-16.773-13.433 1.461-7.916h5.125l1.461 7.916zm-85.362-9.716a2.159 2.159 0 0 1 2.258-2.039h68a2.159 2.159 0 0 1 2.258 2.039v19.311h-2.815a5.133 5.133 0 0 0 .424-2.039v-11.514c0-3.108-2.8-5.637-6.242-5.637h-21.249c-3.444-.001-6.244 2.528-6.244 5.637v11.515a5.134 5.134 0 0 0 .424 2.039h-1.113a5.133 5.133 0 0 0 .424-2.039v-11.515c0-3.108-2.8-5.637-6.242-5.637h-21.251c-3.442-.001-6.242 2.528-6.242 5.637v11.515a5.134 5.134 0 0 0 .424 2.039h-2.814zm62.181 14.313-6.011-5.428a4.442 4.442 0 0 0 -5.823 0l-6.01 5.428a3.462 3.462 0 0 0 -.261 5h-1.442a2.159 2.159 0 0 1 -2.258-2.039v-11.516a2.159 2.159 0 0 1 2.258-2.039h21.25a2.159 2.159 0 0 1 2.258 2.039v11.515a2.159 2.159 0 0 1 -2.258 2.039h-1.442a3.463 3.463 0 0 0 -.261-4.998zm-2.818 2.714-6.01 5.428a.144.144 0 0 1 -.188 0l-6.011-5.429a.112.112 0 0 1 0-.169l6.01-5.428a.144.144 0 0 1 .188 0l6.01 5.428a.111.111 0 0 1 .001.171zm-31.183-2.713-6.01-5.429a4.442 4.442 0 0 0 -5.823 0l-6.01 5.428a3.462 3.462 0 0 0 -.261 5h-1.443a2.159 2.159 0 0 1 -2.258-2.039v-11.516a2.159 2.159 0 0 1 2.258-2.039h21.251a2.159 2.159 0 0 1 2.258 2.039v11.515a2.159 2.159 0 0 1 -2.258 2.039h-1.442a3.463 3.463 0 0 0 -.262-4.998zm-2.818 2.714-6.01 5.428a.144.144 0 0 1 -.188 0l-6.01-5.429a.112.112 0 0 1 0-.169l6.01-5.428a.144.144 0 0 1 .188 0l6.01 5.428a.112.112 0 0 1 .001.17zm-25.944 5.878h14.262c.111 0 2.667 2.091 2.667 2.091a4.486 4.486 0 0 0 5.823 0l2.32-2.091h23.544l2.315 2.091a4.486 4.486 0 0 0 5.823 0l2.318-2.091h14.61l2.391 6.117h-78.464zm-20.309-13.19 1.461-7.916h5.125l1.461 7.916zm-6.735 17.032h21.316l-3.094 7.916h-18.222zm13.724 19.431h-13.724v-7.916h16.816zm90.669 28.787h-81.017v-2.16h81.017v2.159zm4.25-8.516v2.756h-89.517v-2.879c0-.1 3.083-3.118 3.083-3.118h83.351l3.136 2.832a1.636 1.636 0 0 0 -.052.408zm4.25-1.7-5.1-4.605a2.106 2.106 0 0 0 -1.409-.527h-85a2.107 2.107 0 0 0 -1.409.527l-5.1 4.605v-9.21h76.635a1.809 1.809 0 1 0 0-3.6h-75.811l7.547-19.311h81.276l7.547 19.311h-14.184a1.809 1.809 0 1 0 0 3.6h15.008zm14.875-18.566h-13.723l-3.094-7.916h16.818zm0-11.515h-18.223l-3.094-7.916h21.317z" fill="#393939" transform="translate(0 -80.157)"/></svg>