<svg xmlns="http://www.w3.org/2000/svg" width="135.737" height="84.201" viewBox="0 0 135.737 84.201">
    <g id="prefix__bedroom" transform="translate(0 19.289)">
        <g id="prefix__Grupo_106" data-name="Grupo 106" transform="translate(0 -19.289)">
            <g id="prefix__Grupo_105" data-name="Grupo 105">
                <path id="prefix__Trazado_322" d="M133.745 108.943H122.98c0-.04.007-.08.007-.12v-9.715h4.383a1.884 1.884 0 0 0 1.965-2.095L127.21 85.5a1.944 1.944 0 0 0-1.965-1.5h-8.5a1.944 1.944 0 0 0-1.965 1.5l-2.125 11.515a1.885 1.885 0 0 0 1.965 2.095H119v9.715c0 .04 0 .08.007.12h-9.98s-.917-2.648-.917-2.759V85.794c0-3.108-2.8-5.637-6.242-5.637h-68c-3.442 0-6.242 2.529-6.242 5.637V106.3c0 .082-.917 2.639-.917 2.639h-9.98c0-.04.007-.08.007-.12v-9.711h4.383a1.884 1.884 0 0 0 1.965-2.095L20.957 85.5a1.944 1.944 0 0 0-1.965-1.5h-8.5a1.944 1.944 0 0 0-1.965 1.5L6.4 97.013a1.885 1.885 0 0 0 1.965 2.095h4.385v9.715c0 .04 0 .08.007.12H1.992a1.9 1.9 0 0 0-1.992 1.8v23.029a1.9 1.9 0 0 0 1.992 1.8H16.3l-1.313 3.359a1.651 1.651 0 0 0-.113.6v15.353c0 1.568 2.172 2.382 3.4 1.272l.849-.767v1.411a1.9 1.9 0 0 0 1.992 1.8h2.258v3.958a1.9 1.9 0 0 0 1.992 1.8h85a1.9 1.9 0 0 0 1.992-1.8V158.6h2.258a1.9 1.9 0 0 0 1.992-1.8v-1.414l.849.767c1.23 1.11 3.4.293 3.4-1.272v-15.352a1.646 1.646 0 0 0-.114-.6l-1.313-3.359h14.309a1.9 1.9 0 0 0 1.992-1.8v-23.027a1.9 1.9 0 0 0-1.985-1.8zM116.972 95.51l1.461-7.916h5.125l1.461 7.916zM31.61 85.794a2.159 2.159 0 0 1 2.258-2.039h68a2.159 2.159 0 0 1 2.258 2.039v19.311h-2.815a5.133 5.133 0 0 0 .424-2.039V91.552c0-3.108-2.8-5.637-6.242-5.637H74.244C70.8 85.914 68 88.443 68 91.552v11.515a5.134 5.134 0 0 0 .424 2.039h-1.113a5.133 5.133 0 0 0 .424-2.039V91.552c0-3.108-2.8-5.637-6.242-5.637H40.242C36.8 85.914 34 88.443 34 91.552v11.515a5.134 5.134 0 0 0 .424 2.039H31.61V85.794zm62.181 14.313l-6.011-5.428a4.442 4.442 0 0 0-5.823 0l-6.01 5.428a3.462 3.462 0 0 0-.261 5h-1.442a2.159 2.159 0 0 1-2.258-2.039V91.552a2.159 2.159 0 0 1 2.258-2.039h21.25a2.159 2.159 0 0 1 2.258 2.039v11.515a2.159 2.159 0 0 1-2.258 2.039h-1.442a3.463 3.463 0 0 0-.261-4.998zm-2.818 2.714l-6.01 5.428a.144.144 0 0 1-.188 0l-6.011-5.429a.112.112 0 0 1 0-.169l6.01-5.428a.144.144 0 0 1 .188 0l6.01 5.428a.111.111 0 0 1 .001.171zm-31.183-2.713l-6.01-5.429a4.442 4.442 0 0 0-5.823 0l-6.01 5.428a3.462 3.462 0 0 0-.261 5h-1.443a2.159 2.159 0 0 1-2.258-2.039V91.552a2.159 2.159 0 0 1 2.258-2.039h21.251a2.159 2.159 0 0 1 2.258 2.039v11.515a2.159 2.159 0 0 1-2.258 2.039h-1.442a3.463 3.463 0 0 0-.262-4.998zm-2.818 2.714l-6.01 5.428a.144.144 0 0 1-.188 0l-6.01-5.429a.112.112 0 0 1 0-.169l6.01-5.428a.144.144 0 0 1 .188 0l6.01 5.428a.112.112 0 0 1 .001.17zM31.028 108.7H45.29c.111 0 2.667 2.091 2.667 2.091a4.486 4.486 0 0 0 5.823 0l2.32-2.091h23.544l2.315 2.091a4.486 4.486 0 0 0 5.823 0L90.1 108.7h14.61l2.391 6.117H28.637zM10.719 95.51l1.461-7.916h5.125l1.461 7.916zm-6.735 17.032H25.3l-3.094 7.916H3.984v-7.916zm13.724 19.431H3.984v-7.916H20.8zm90.669 28.787H27.36v-2.16h81.017v2.159zm4.25-8.516V155H23.11v-2.879c0-.1 3.083-3.118 3.083-3.118h83.351l3.136 2.832a1.636 1.636 0 0 0-.052.408zm4.25-1.7l-5.1-4.605a2.106 2.106 0 0 0-1.409-.527h-85a2.107 2.107 0 0 0-1.409.527l-5.1 4.605v-9.21h76.635a1.809 1.809 0 1 0 0-3.6H19.683l7.547-19.311h81.276l7.547 19.311h-14.184a1.809 1.809 0 1 0 0 3.6h15.008zm14.875-18.566h-13.723l-3.094-7.916h16.818zm0-11.515h-18.223l-3.094-7.916h21.317v7.916z" data-name="Trazado 322" transform="translate(0 -80.157)" style="fill:#393939"/>
            </g>
        </g>
    </g>
</svg>
