<svg height="68.005" viewBox="0 0 43.07 68.005" width="43.07" xmlns="http://www.w3.org/2000/svg"><g fill="#94e538"><path d="m115.4 0a21.559 21.559 0 0 0 -21.533 21.535v24.935a21.535 21.535 0 1 0 43.07 0v-24.935a21.559 21.559 0 0 0 -21.537-21.535zm19.27 46.47a19.268 19.268 0 1 1 -38.536 0v-24.935a19.268 19.268 0 0 1 38.536 0z" transform="translate(-93.867)"/><path d="m184.509 124.84-8.5-9.442 8.5-9.442a1.134 1.134 0 0 0 0-1.511l-9.067-10.2a1.133 1.133 0 0 0 -1.981.753v17.572l-9.359-10.4a1.133 1.133 0 0 0 -1.684 1.517l10.543 11.713-10.538 11.709a1.133 1.133 0 0 0 1.684 1.517l9.359-10.4v17.574a1.134 1.134 0 0 0 1.981.753l9.067-10.2a1.132 1.132 0 0 0 -.005-1.513zm-8.777-26.863 6.413 7.215-6.413 7.126zm0 34.841v-14.341l6.413 7.126z" transform="translate(-153.064 -81.395)"/></g></svg>