<svg xmlns="http://www.w3.org/2000/svg" width="102.068" height="166.885" viewBox="0 0 102.068 166.885">
    <defs>
        <style>
            .prefix__cls-1{fill:#8d8d8d}
        </style>
    </defs>
    <g id="prefix__cable" transform="rotate(180 51.034 83.442)">
        <path id="prefix__Trazado_452" d="M2.455 9.819H4.91v2.455a2.455 2.455 0 0 0 4.91 0V9.819h2.455a2.455 2.455 0 0 0 0-4.91H9.819V2.455a2.455 2.455 0 0 0-4.91 0V4.91H2.455a2.455 2.455 0 0 0 0 4.91z" class="prefix__cls-1" data-name="Trazado 452" transform="translate(18.747 9.819)"/>
        <path id="prefix__Trazado_453" d="M17.183 34.367A17.183 17.183 0 1 0 0 17.183a17.2 17.2 0 0 0 17.183 17.184zm0-29.457A12.274 12.274 0 1 1 4.91 17.183 12.288 12.288 0 0 1 17.183 4.91z" class="prefix__cls-1" data-name="Trazado 453" transform="translate(8.928)"/>
        <path id="prefix__Trazado_454" d="M2.455 4.91h9.819a2.455 2.455 0 0 0 0-4.91H2.455a2.455 2.455 0 0 0 0 4.91z" class="prefix__cls-1" data-name="Trazado 454" transform="translate(68.591 14.729)"/>
        <path id="prefix__Trazado_455" d="M17.183 34.367A17.183 17.183 0 1 0 0 17.183a17.2 17.2 0 0 0 17.183 17.184zm0-29.457A12.274 12.274 0 1 1 4.91 17.183 12.288 12.288 0 0 1 17.183 4.91z" class="prefix__cls-1" data-name="Trazado 455" transform="translate(58.772)"/>
        <path id="prefix__Trazado_456" d="M2.455 14.729h9.983A12.288 12.288 0 0 1 24.711 27v4.91a2.455 2.455 0 0 0 2.455 2.455h2.455v7.692a2.455 2.455 0 1 0 4.91 0v-7.69h2.455a2.455 2.455 0 0 0 2.455-2.455V27a27.033 27.033 0 0 0-27-27H2.455A2.455 2.455 0 0 0 0 2.455v9.819a2.455 2.455 0 0 0 2.455 2.455zM4.91 4.91h7.528A22.118 22.118 0 0 1 34.53 27v2.455h-4.91V27A17.2 17.2 0 0 0 12.437 9.819H4.91z" class="prefix__cls-1" data-name="Trazado 456" transform="rotate(-90 69.404 11.85)"/>
        <path id="prefix__Trazado_457" d="M2.455 34.367H4.91v7.692a2.455 2.455 0 1 0 4.909 0v-7.692h2.455a2.455 2.455 0 0 0 2.455-2.455V27A12.288 12.288 0 0 1 27 14.729h9.983a2.455 2.455 0 0 0 2.455-2.455V2.455A2.455 2.455 0 0 0 36.985 0H27A27.033 27.033 0 0 0 0 27v4.91a2.455 2.455 0 0 0 2.455 2.457zM4.91 27A22.118 22.118 0 0 1 27 4.91h7.53v4.91H27A17.2 17.2 0 0 0 9.819 27v2.455H4.91z" class="prefix__cls-1" data-name="Trazado 457" transform="rotate(90 1.35 43.163)"/>
        <path id="prefix__Trazado_475" d="M14.079 30.019l1.621-1.494c6.768 0 9.013-4.246 9.013-11.014V12.6a2.455 2.455 0 0 1 2.455-2.455h2.455v-7.69a2.455 2.455 0 1 1 4.91 0v7.692h2.455A2.455 2.455 0 0 1 39.44 12.6v4.91a27.033 27.033 0 0 1-27 27h.521c-1.356 0 1.993-3.554 1.993-4.91l.747-6.721c-.001-1.352-2.978-2.86-1.622-2.86zm.872 9.585h-2.513A22.118 22.118 0 0 0 34.53 17.511v-2.455h-4.91v2.455a17.2 17.2 0 0 1-17.182 17.183l2.513-.566z" class="prefix__cls-1" data-name="Trazado 475" transform="rotate(90 -20.468 106.978)"/>
    </g>
</svg>
