<svg height="80.031" viewBox="0 0 92.646 80.031" width="92.646" xmlns="http://www.w3.org/2000/svg"><g fill="#8d8d8d"><path d="m2.418 9.671h2.418v2.418a2.418 2.418 0 0 0 4.836 0v-2.418h2.418a2.418 2.418 0 0 0 0-4.836h-2.419v-2.417a2.418 2.418 0 0 0 -4.836 0v2.418h-2.417a2.418 2.418 0 0 0 0 4.836z" transform="matrix(-1 0 0 -1 75.614 70.361)"/><path d="m16.925 33.85a16.925 16.925 0 1 0 -16.925-16.925 16.944 16.944 0 0 0 16.925 16.925zm0-29.014a12.089 12.089 0 1 1 -12.089 12.089 12.1 12.1 0 0 1 12.089-12.089z" transform="matrix(-1 0 0 -1 85.286 80.032)"/><path d="m2.418 4.836h9.671a2.418 2.418 0 0 0 0-4.836h-9.671a2.418 2.418 0 0 0 0 4.836z" transform="matrix(-1 0 0 -1 26.52 65.525)"/><path d="m16.925 33.85a16.925 16.925 0 1 0 -16.925-16.925 16.944 16.944 0 0 0 16.925 16.925zm0-29.014a12.089 12.089 0 1 1 -12.089 12.089 12.1 12.1 0 0 1 12.089-12.089z" transform="matrix(-1 0 0 -1 36.191 80.032)"/><path d="m2.418 14.507h9.832a12.1 12.1 0 0 1 12.09 12.093v4.836a2.418 2.418 0 0 0 2.418 2.418h2.418v7.576a2.418 2.418 0 1 0 4.836 0v-7.58h2.418a2.418 2.418 0 0 0 2.418-2.418v-4.832a26.627 26.627 0 0 0 -26.598-26.6h-9.832a2.418 2.418 0 0 0 -2.418 2.418v9.671a2.418 2.418 0 0 0 2.418 2.418zm2.418-9.671h7.414a21.785 21.785 0 0 1 21.761 21.764v2.418h-4.835v-2.418a16.944 16.944 0 0 0 -16.926-16.929h-7.414z" transform="matrix(0 1 -1 0 43.843 .001)"/><path d="m2.418 33.85h2.418v7.576a2.418 2.418 0 1 0 4.836 0v-7.576h2.418a2.418 2.418 0 0 0 2.418-2.418v-4.832a12.1 12.1 0 0 1 12.092-12.093h9.833a2.418 2.418 0 0 0 2.418-2.418v-9.671a2.418 2.418 0 0 0 -2.422-2.418h-9.829a26.627 26.627 0 0 0 -26.6 26.6v4.836a2.418 2.418 0 0 0 2.418 2.414zm2.418-7.25a21.785 21.785 0 0 1 21.764-21.764h7.415v4.835h-7.415a16.944 16.944 0 0 0 -16.929 16.929v2.418h-4.835z" transform="matrix(0 -1 1 0 48.802 38.848)"/></g></svg>