<svg height="51" viewBox="0 0 51.738 51" width="51.738" xmlns="http://www.w3.org/2000/svg"><path d="m37.638 10.1h12.1a2.954 2.954 0 0 1 2.9 3v36.4a2.954 2.954 0 0 1 -2.9 3h-44.928a2.954 2.954 0 0 1 -2.9-3v-36.4a2.954 2.954 0 0 1 2.9-3h11.325m21.787-4.477a3.075 3.075 0 0 0 -3.022-3.123h-15.251a3.075 3.075 0 0 0 -3.025 3.123v5.977h21.3zm-15.541 28.377v8.408h9.779v-8.416a9.2 9.2 0 0 1 -9.779 0zm9.779 0a9.906 9.906 0 0 0 -.8-17.134v7.22l-4.09 2.433-4.088-2.432v-7.228a9.906 9.906 0 0 0 -.8 17.134m-20.622-8.542h16.075m19.076 0h15.881" fill="none" stroke="#fff" stroke-miterlimit="10" transform="translate(-1.405 -2)"/></svg>