<svg xmlns="http://www.w3.org/2000/svg" width="51.738" height="51" viewBox="0 0 51.738 51">
    <g id="prefix__Capa_2" data-name="Capa 2" transform="translate(.355 .5)">
        <g id="prefix__Capa_2-2" data-name="Capa 2">
            <path id="prefix__Trazado_605" d="M37.638 10.1h12.1a2.954 2.954 0 0 1 2.9 3v36.4a2.954 2.954 0 0 1-2.9 3H4.81a2.954 2.954 0 0 1-2.9-3V13.1a2.954 2.954 0 0 1 2.9-3h11.325m21.787-4.477A3.075 3.075 0 0 0 34.9 2.5H19.649a3.075 3.075 0 0 0-3.025 3.123V11.6h21.3zM22.381 34v8.408h9.779v-8.416a9.2 9.2 0 0 1-9.779 0zm9.779 0a9.906 9.906 0 0 0-.8-17.134v7.22l-4.09 2.433-4.088-2.432v-7.228a9.906 9.906 0 0 0-.8 17.134M1.76 25.451h16.075m19.076 0h15.881" data-name="Trazado 605" transform="translate(-1.76 -2.5)" style="fill:none;stroke:#fff;stroke-miterlimit:10"/>
        </g>
    </g>
</svg>
