<svg height="31.826" viewBox="0 0 35 31.826" width="35" xmlns="http://www.w3.org/2000/svg"><g fill="none" stroke="#fff" stroke-linecap="round" stroke-linejoin="round"><path d="m.5.5h34v30.826h-34z"/><path d="m.605 5.312h33.789"/><path d="m2077.648 8295.085h-5.485v-5.485h5.485zm8.036-5.485h-5.484v5.485h5.485zm8.037 0h-5.485v5.485h5.485zm-16.073 7.643h-5.485v5.484h5.485zm8.036 0h-5.484v5.484h5.485zm8.037 0h-5.485v5.484h5.485zm-16.073 7.643h-5.485v5.484h5.485zm8.036 0h-5.484v5.484h5.485zm8.037 0h-5.485v5.484h5.485z" transform="translate(-2069.357 -8281.728)"/><path d="m2311.48 8289.6h-5.48v5.485h5.485zm0 7.643h-5.48v5.484h5.485zm0 7.643h-5.48v5.484h5.485z" transform="translate(-2279.247 -8281.728)"/></g></svg>