<svg height="51" viewBox="0 0 41.582 51" width="41.582" xmlns="http://www.w3.org/2000/svg"><path d="m40.284 52.5h-34.984a2.842 2.842 0 0 1 -2.8-2.885v-27.271a2.842 2.842 0 0 1 2.8-2.884h34.984a2.842 2.842 0 0 1 2.8 2.885v27.27a2.842 2.842 0 0 1 -2.8 2.885zm-6.814-33.04v-5.947a10.85 10.85 0 0 0 -10.679-11.013 10.85 10.85 0 0 0 -10.691 11.013v5.947m14.735 14.978a4.158 4.158 0 0 0 -3.195-4.095 4.026 4.026 0 0 0 -4.555 2.357 4.266 4.266 0 0 0 1.269 5.09 2.542 2.542 0 0 0 -.019.294v4.846a2.457 2.457 0 1 0 4.912 0v-4.847a1.743 1.743 0 0 0 -.017-.294 4.226 4.226 0 0 0 1.619-3.35z" fill="none" stroke="#fff" stroke-linecap="round" stroke-linejoin="round" transform="translate(-2 -2)"/></svg>