<svg xmlns="http://www.w3.org/2000/svg" width="41.582" height="51" viewBox="0 0 41.582 51">
    <g id="prefix__Capa_2" data-name="Capa 2" transform="translate(.5 .5)">
        <g id="prefix__Capa_2-2" data-name="Capa 2">
            <path id="prefix__Trazado_637" d="M40.284 52.5H5.3a2.842 2.842 0 0 1-2.8-2.885V22.344a2.842 2.842 0 0 1 2.8-2.884h34.984a2.842 2.842 0 0 1 2.8 2.885v27.27a2.842 2.842 0 0 1-2.8 2.885zM33.47 19.46v-5.947A10.85 10.85 0 0 0 22.791 2.5 10.85 10.85 0 0 0 12.1 13.513v5.947m14.735 14.978a4.158 4.158 0 0 0-3.195-4.095 4.026 4.026 0 0 0-4.555 2.357 4.266 4.266 0 0 0 1.269 5.09 2.542 2.542 0 0 0-.019.294v4.846a2.457 2.457 0 1 0 4.912 0v-4.847a1.743 1.743 0 0 0-.017-.294 4.226 4.226 0 0 0 1.619-3.35z" data-name="Trazado 637" transform="translate(-2.5 -2.5)" style="fill:none;stroke:#fff;stroke-linecap:round;stroke-linejoin:round"/>
        </g>
    </g>
</svg>
