<svg xmlns="http://www.w3.org/2000/svg" width="49.404" height="51" viewBox="0 0 49.404 51">
    <g id="prefix__Capa_2" data-name="Capa 2" transform="translate(.5 .5)">
        <g id="prefix__Capa_2-2" data-name="Capa 2">
            <path id="prefix__Trazado_628" d="M34.3 32.167V49.3a3.153 3.153 0 0 1-3.1 3.2H5.6a3.153 3.153 0 0 1-3.1-3.2V32.167a3.153 3.153 0 0 1 3.1-3.2h25.6a3.153 3.153 0 0 1 3.1 3.2zM2.7 36.294h31.205m3.848 12.873h10.352a2.976 2.976 0 0 0 2.8-3.125V5.625a2.972 2.972 0 0 0-2.8-3.125H8.189a2.976 2.976 0 0 0-2.8 3.125v18.333m0-13.644h45.235M37.007 27.083l6.435-7.183m0 4.687V19.9h-4.2" data-name="Trazado 628" transform="translate(-2.5 -2.5)" style="fill:none;stroke:#fff;stroke-linecap:round;stroke-linejoin:round"/>
        </g>
    </g>
</svg>
