<svg xmlns="http://www.w3.org/2000/svg" width="83.04" height="83" viewBox="0 0 83.04 83">
  <g id="Grupo_1037" data-name="Grupo 1037" transform="translate(-54 -40)">
    <g id="battery" transform="translate(78.887 39.587)">
      <path id="Trazado_1098" data-name="Trazado 1098" d="M32.713,59.673H1.086A1.086,1.086,0,0,0,0,60.759v18.8a1.086,1.086,0,0,0,1.086,1.086H32.713A1.086,1.086,0,0,0,33.8,79.557v-18.8A1.086,1.086,0,0,0,32.713,59.673Zm-1.086,18.8H2.172V61.845H31.627Z" transform="translate(0 -26.305)" fill="#393939"/>
      <path id="Trazado_1099" data-name="Trazado 1099" d="M28.77,126.747h6.236a1.086,1.086,0,1,0,0-2.172H28.77a1.086,1.086,0,1,0,0,2.172Z" transform="translate(-23.675 -81.809)" fill="#393939"/>
      <path id="Trazado_1100" data-name="Trazado 1100" d="M148.731,108.334h2.032v2.032a1.086,1.086,0,0,0,2.172,0v-2.032h2.032a1.086,1.086,0,1,0,0-2.172h-2.032V104.13a1.086,1.086,0,0,0-2.172,0v2.032h-2.032a1.086,1.086,0,1,0,0,2.172Z" transform="translate(-126.264 -63.396)" fill="#393939"/>
      <path id="Trazado_1101" data-name="Trazado 1101" d="M28.77,31.085h6.236a1.086,1.086,0,0,0,0-2.172H28.77a1.086,1.086,0,1,0,0,2.172Z" transform="translate(-23.675)" fill="#393939"/>
      <path id="Trazado_1102" data-name="Trazado 1102" d="M148.731,31.085h6.236a1.086,1.086,0,0,0,0-2.172h-6.236a1.086,1.086,0,0,0,0,2.172Z" transform="translate(-126.264)" fill="#393939"/>
    </g>
    <g id="transform" transform="translate(53.999 39.875)">
      <path id="Trazado_1103" data-name="Trazado 1103" d="M41.522.125A41.828,41.828,0,0,0,9.554,15.217L6.441,12.154a2.258,2.258,0,0,0-2.48-.584,2.245,2.245,0,0,0-1.605,1.945L.022,29.564c-.264,1.976,2.015,3.1,2.772,2.723L18.843,30A2.3,2.3,0,0,0,20.788,28.4a2.45,2.45,0,0,0-.584-2.529l-3.7-3.7A31.786,31.786,0,0,1,73.3,41.528v.1c0,.618-.02,1.237-.059,1.85a2.433,2.433,0,0,0,2.782,2.558l4.9-.717A2.431,2.431,0,0,0,83,43c.016-.461.024-.92.024-1.371A41.63,41.63,0,0,0,41.522.125Z" transform="translate(0)" fill="#393939"/>
      <path id="Trazado_1104" data-name="Trazado 1104" d="M80.354,239.516,64.305,241.8a2.3,2.3,0,0,0-1.945,1.605,2.451,2.451,0,0,0,.584,2.529l3.891,3.891A31.764,31.764,0,0,1,9.852,230.665c.016-.316-.039-1,.067-2.292a2.435,2.435,0,0,0-2.763-2.609l-4.9.69a2.431,2.431,0,0,0-2.09,2.3C.1,230.1.133,231.195.126,231.686a41.48,41.48,0,0,0,73.711,25.095l2.869,2.869a2.3,2.3,0,0,0,2.48.584,2.245,2.245,0,0,0,1.605-1.945l2.334-16.049A2.474,2.474,0,0,0,80.354,239.516Z" transform="translate(-0.104 -189.04)" fill="#393939"/>
    </g>
  </g>
</svg>
