<svg height="51.751" viewBox="0 0 79.96 51.751" width="79.96" xmlns="http://www.w3.org/2000/svg"><path d="m21.171 52.039-10.154-.048a8.556 8.556 0 1 1 0-17.111h.249a14.274 14.274 0 0 1 13.391-11.415m10.793 4.263a14.229 14.229 0 0 0 -10.193-4.278c-.2 0-.4 0-.6.015a21.037 21.037 0 0 1 7.687-9.624 13.062 13.062 0 0 0 -19.652 17.089m22.752-3.2a14.355 14.355 0 0 1 2.012 2.581h1.6a10.865 10.865 0 0 1 0 21.73h-17.885c.675.114 40.191 0 40.191 0l3.112.123a15.946 15.946 0 1 0 0-31.891h-2.348a20.986 20.986 0 0 0 -29.782-6.431m43.933 22.266a10.544 10.544 0 0 0 -10.544-10.544m-59.268 9.186 4.365-2.77m26.383-24.668-3.466 3.831m-5.558-2.7 1.8-4.842m-8.045 4.047-.468-5.148m-8.121 2.464 2.584 4.479m-4.773 4.5-4.182-3.043m1.816 8.8-4.98-1.346m-.42 8.853 5.064-1.034" fill="none" stroke="#fff" stroke-linecap="round" stroke-linejoin="round" stroke-width="2" transform="translate(-1.46 -1.414)"/></svg>