<svg xmlns="http://www.w3.org/2000/svg" width="81.945" height="63.142" viewBox="0 0 81.945 63.142">
    <g id="prefix__Capa_2" data-name="Capa 2" transform="translate(-1.46 -1.43)">
        <g id="prefix__Capa_2-2" data-name="Capa 2" transform="translate(2.46 2.478)">
            <path id="prefix__Trazado_948" d="M21.647 45.406l-10.413-.034a8.773 8.773 0 1 1 0-17.547h.255A14.637 14.637 0 0 1 25.222 16.1m11.068 4.376a14.591 14.591 0 0 0-10.453-4.387h-.615A21.573 21.573 0 0 1 33.1 6.22m3.179 14.25a14.72 14.72 0 0 1 2.063 2.647h1.639a11.141 11.141 0 0 1 0 22.283H21.647c.692.117 41.214 0 41.214 0l3.191.126a16.352 16.352 0 1 0 0-32.7h-2.407A21.52 21.52 0 0 0 33.1 6.236m45.056 22.842a10.812 10.812 0 0 0-10.812-10.812M17.1 50.712v5.245m-2.269-3.932l4.541 2.619m0-2.619l-4.541 2.619m15.461-3.932v5.245m-2.272-3.932l4.544 2.619m0-2.619l-4.544 2.619m41.869-3.932v5.245m-2.269-3.932l4.541 2.619m0-2.619l-4.541 2.619m-10.926-3.932v5.245m-2.272-3.932l4.544 2.619m0-2.619l-4.544 2.619m-10.907-3.932v5.245m-2.272-3.932l4.541 2.619m0-2.619l-4.541 2.619m-30.516 3.689v5.239M8.458 59.64L13 62.262m-4.541 0L13 59.64m10.926-1.313v5.245m-2.273-3.932l4.547 2.622m-4.544 0L26.2 59.64m37.3-1.313v5.245m-2.274-3.932l4.544 2.622m0-2.622l-4.544 2.622M50.3 58.327v5.245m-2.269-3.932l4.541 2.622m0-2.622l-4.541 2.622M37.1 58.327v5.245m-2.267-3.932l4.541 2.622m-4.541 0l4.541-2.622" data-name="Trazado 948" transform="translate(-2.46 -2.478)" style="fill:none;stroke:#fff;stroke-linecap:round;stroke-linejoin:round;stroke-width:2px"/>
        </g>
    </g>
</svg>
