<svg height="63.142" viewBox="0 0 81.945 63.142" width="81.945" xmlns="http://www.w3.org/2000/svg"><path d="m21.647 45.406-10.413-.034a8.773 8.773 0 1 1 0-17.547h.255a14.637 14.637 0 0 1 13.733-11.725m11.068 4.376a14.591 14.591 0 0 0 -10.453-4.387h-.615a21.573 21.573 0 0 1 7.878-9.869m3.179 14.25a14.72 14.72 0 0 1 2.063 2.647h1.639a11.141 11.141 0 0 1 0 22.283h-18.334c.692.117 41.214 0 41.214 0l3.191.126a16.352 16.352 0 1 0 0-32.7h-2.407a21.52 21.52 0 0 0 -30.545-6.59m45.056 22.842a10.812 10.812 0 0 0 -10.812-10.812m-50.244 32.446v5.245m-2.269-3.932 4.541 2.619m0-2.619-4.541 2.619m15.461-3.932v5.245m-2.272-3.932 4.544 2.619m0-2.619-4.544 2.619m41.869-3.932v5.245m-2.269-3.932 4.541 2.619m0-2.619-4.541 2.619m-10.926-3.932v5.245m-2.272-3.932 4.544 2.619m0-2.619-4.544 2.619m-10.907-3.932v5.245m-2.272-3.932 4.541 2.619m0-2.619-4.541 2.619m-30.516 3.689v5.239m-2.269-3.932 4.542 2.622m-4.541 0 4.541-2.622m10.926-1.313v5.245m-2.273-3.932 4.547 2.622m-4.544 0 4.544-2.622m37.3-1.313v5.245m-2.274-3.932 4.544 2.622m0-2.622-4.544 2.622m-10.926-3.935v5.245m-2.269-3.932 4.541 2.622m0-2.622-4.541 2.622m-10.931-3.935v5.245m-2.267-3.932 4.541 2.622m-4.541 0 4.541-2.622" fill="none" stroke="#fff" stroke-linecap="round" stroke-linejoin="round" stroke-width="2" transform="translate(-1.46 -1.43)"/></svg>