<svg xmlns="http://www.w3.org/2000/svg" width="81.366" height="66.353" viewBox="0 0 81.366 66.353">
    <g id="prefix__Capa_2" data-name="Capa 2" transform="translate(-1.46 -1.43)">
        <g id="prefix__Capa_2-2" data-name="Capa 2" transform="translate(2.46 2.478)">
            <path id="prefix__Trazado_949" d="M21.508 45.1l-10.337-.034a8.71 8.71 0 1 1 0-17.42h.253a14.531 14.531 0 0 1 13.634-11.64m10.987 4.34a14.485 14.485 0 0 0-10.377-4.356h-.61a21.416 21.416 0 0 1 7.826-9.8m3.155 14.15a14.613 14.613 0 0 1 2.048 2.628h1.627a11.061 11.061 0 1 1 0 22.121H21.508c.687.116 40.916 0 40.916 0l3.168.125a16.233 16.233 0 1 0 0-32.466h-2.39a21.365 21.365 0 0 0-30.319-6.539m44.725 22.676a10.734 10.734 0 0 0-10.734-10.734m-36.28 30.573l-7 7.02m-4.523-7.02l-6.986 7.02m45.247-7.02l-7 7.02m18.523-7.02l-7 7.02m-30.869.763l-7 7m-4.526-7l-7 7m45.259-7l-7 7m18.52-7l-7 7M39.8 49.191l4.129-.015-2.78 5.54 5.39.076-9.377 11.991 3.763-8.958h-5.39z" data-name="Trazado 949" transform="translate(-2.46 -2.478)" style="fill:none;stroke:#fff;stroke-linecap:round;stroke-linejoin:round;stroke-width:2px"/>
        </g>
    </g>
</svg>
