<svg id="rain" xmlns="http://www.w3.org/2000/svg" width="105.109" height="106.024" viewBox="0 0 105.109 106.024">
  <path id="Trazado_434" data-name="Trazado 434" d="M276.784,29.508a16.4,16.4,0,0,0-7.679-3A29.716,29.716,0,0,0,239.591,0a29.355,29.355,0,0,0-13.6,3.3,1.553,1.553,0,0,0,1.426,2.759,26.283,26.283,0,0,1,12.179-2.953,26.6,26.6,0,0,1,26.526,24.946,1.553,1.553,0,0,0,1.5,1.458,13.312,13.312,0,0,1,7.353,2.516,1.553,1.553,0,0,0,1.818-2.519Zm0,0" transform="translate(-178.523 0)" fill="#fff"/>
  <path id="Trazado_435" data-name="Trazado 435" d="M485.98,166.549a1.553,1.553,0,0,0-2.741,1.461,13.382,13.382,0,0,1-.259,13.014,1.553,1.553,0,1,0,2.682,1.567,16.49,16.49,0,0,0,.318-16.041Zm0,0" transform="translate(-382.797 -131.408)" fill="#fff"/>
  <path id="Trazado_436" data-name="Trazado 436" d="M96.022,80.882a13.316,13.316,0,0,1-7.4,2.233H59.772A15.132,15.132,0,0,0,51.834,56,21.7,21.7,0,0,0,37.8,43.7a26.52,26.52,0,0,1,5.717-7.111,1.553,1.553,0,0,0-2.053-2.331,29.612,29.612,0,0,0-6.845,8.806A21.663,21.663,0,0,0,10.429,61.894a12.23,12.23,0,0,0,1.8,24.327H88.623a16.408,16.408,0,0,0,9.12-2.753,1.553,1.553,0,0,0-1.721-2.586ZM12.23,83.115a9.122,9.122,0,0,1-.32-18.239,1.553,1.553,0,0,0,1.5-1.458,18.56,18.56,0,0,1,35.9-5.372,1.552,1.552,0,0,0,1.436,1.008A12.031,12.031,0,0,1,50.6,83.115Zm0,0" transform="translate(0 -26.855)" fill="#fff"/>
  <path id="Trazado_437" data-name="Trazado 437" d="M384.2,101.759a1.553,1.553,0,0,0,1.512-1.916,22.694,22.694,0,0,0-1.23-3.687,1.553,1.553,0,0,0-2.851,1.234,19.408,19.408,0,0,1,1.061,3.18A1.553,1.553,0,0,0,384.2,101.759Zm0,0" transform="translate(-302.499 -75.502)" fill="#fff"/>
  <path id="Trazado_438" data-name="Trazado 438" d="M303.151,42.54a1.553,1.553,0,0,0,2.241-2.15,22.59,22.59,0,0,0-16.436-7.019,1.553,1.553,0,1,0,0,3.106,19.516,19.516,0,0,1,14.2,6.063Zm0,0" transform="translate(-227.888 -26.461)" fill="#fff"/>
  <path id="Trazado_439" data-name="Trazado 439" d="M75.626,314.855c0-.561,0-2.271-3.342-7.308a2.944,2.944,0,0,0-4.907,0c-3.342,5.037-3.342,6.745-3.342,7.308a5.8,5.8,0,0,0,11.591,0Zm-8.485,0c0-.6.708-2.368,2.69-5.386,1.982,3.017,2.69,4.784,2.69,5.386a2.69,2.69,0,0,1-5.379,0Zm0,0" transform="translate(-50.775 -242.817)" fill="#fff"/>
  <path id="Trazado_440" data-name="Trazado 440" d="M168.067,314.855c0-.561,0-2.271-3.342-7.308a2.944,2.944,0,0,0-4.907,0c-3.342,5.037-3.342,6.745-3.342,7.308a5.8,5.8,0,0,0,11.591,0Zm-8.485,0c0-.6.708-2.368,2.69-5.386,1.982,3.017,2.689,4.784,2.689,5.386a2.689,2.689,0,0,1-5.378,0Zm0,0" transform="translate(-124.074 -242.817)" fill="#fff"/>
  <path id="Trazado_441" data-name="Trazado 441" d="M260.509,314.855c0-.561,0-2.271-3.342-7.308a2.944,2.944,0,0,0-4.907,0c-3.342,5.037-3.342,6.745-3.342,7.308a5.8,5.8,0,0,0,11.591,0Zm-8.485,0c0-.6.708-2.369,2.69-5.386,1.982,3.017,2.689,4.784,2.689,5.386a2.689,2.689,0,0,1-5.378,0Zm0,0" transform="translate(-197.373 -242.817)" fill="#fff"/>
  <path id="Trazado_442" data-name="Trazado 442" d="M352.95,314.858c0-.562,0-2.271-3.342-7.307a2.945,2.945,0,0,0-4.908,0c-3.342,5.037-3.342,6.745-3.342,7.307a5.8,5.8,0,0,0,11.591,0Zm-8.485,0c0-.6.708-2.368,2.69-5.386,1.981,3.017,2.689,4.784,2.689,5.386a2.689,2.689,0,0,1-5.378,0Zm0,0" transform="translate(-270.672 -242.82)" fill="#fff"/>
  <path id="Trazado_443" data-name="Trazado 443" d="M69.831,442.367a2.938,2.938,0,0,0-2.453,1.317c-3.342,5.037-3.342,6.745-3.342,7.308a5.8,5.8,0,0,0,11.591,0c0-.561,0-2.271-3.342-7.308A2.938,2.938,0,0,0,69.831,442.367Zm0,11.313a2.692,2.692,0,0,1-2.69-2.689c0-.6.708-2.368,2.69-5.386,1.982,3.017,2.689,4.784,2.689,5.386A2.692,2.692,0,0,1,69.831,453.68Zm0,0" transform="translate(-50.775 -350.763)" fill="#fff"/>
  <path id="Trazado_444" data-name="Trazado 444" d="M162.272,442.367a2.938,2.938,0,0,0-2.453,1.317c-3.342,5.037-3.342,6.745-3.342,7.308a5.8,5.8,0,0,0,11.591,0c0-.561,0-2.271-3.342-7.308A2.938,2.938,0,0,0,162.272,442.367Zm0,11.313a2.692,2.692,0,0,1-2.69-2.689c0-.6.708-2.369,2.69-5.386,1.982,3.017,2.689,4.784,2.689,5.386A2.692,2.692,0,0,1,162.272,453.68Zm0,0" transform="translate(-124.074 -350.763)" fill="#fff"/>
  <path id="Trazado_445" data-name="Trazado 445" d="M254.713,442.367a2.938,2.938,0,0,0-2.453,1.317c-3.342,5.037-3.342,6.745-3.342,7.308a5.8,5.8,0,0,0,11.591,0c0-.561,0-2.271-3.342-7.308A2.937,2.937,0,0,0,254.713,442.367Zm0,11.313a2.692,2.692,0,0,1-2.69-2.689c0-.6.708-2.369,2.69-5.386,1.982,3.017,2.689,4.784,2.689,5.386A2.692,2.692,0,0,1,254.713,453.68Zm0,0" transform="translate(-197.372 -350.763)" fill="#fff"/>
  <path id="Trazado_446" data-name="Trazado 446" d="M347.155,442.367a2.94,2.94,0,0,0-2.454,1.317c-3.342,5.037-3.342,6.745-3.342,7.308a5.8,5.8,0,0,0,11.591,0c0-.562,0-2.271-3.342-7.308A2.935,2.935,0,0,0,347.155,442.367Zm0,11.313a2.692,2.692,0,0,1-2.69-2.689c0-.6.708-2.368,2.69-5.386,1.981,3.016,2.689,4.784,2.689,5.386A2.692,2.692,0,0,1,347.155,453.68Zm0,0" transform="translate(-270.672 -350.763)" fill="#fff"/>
  <path id="Trazado_447" data-name="Trazado 447" d="M121.848,382.135c0-.561,0-2.27-3.342-7.307a2.944,2.944,0,0,0-4.907,0c-3.342,5.036-3.342,6.745-3.342,7.307a5.8,5.8,0,1,0,11.591,0Zm-5.8,2.69a2.692,2.692,0,0,1-2.689-2.69c0-.6.708-2.368,2.689-5.386,1.982,3.017,2.69,4.785,2.69,5.386A2.693,2.693,0,0,1,116.052,384.825Zm0,0" transform="translate(-87.426 -296.166)" fill="#fff"/>
  <path id="Trazado_448" data-name="Trazado 448" d="M214.29,382.135c0-.561,0-2.271-3.342-7.307a2.944,2.944,0,0,0-4.907,0c-3.342,5.037-3.342,6.745-3.342,7.307a5.8,5.8,0,1,0,11.591,0Zm-5.8,2.69a2.692,2.692,0,0,1-2.689-2.69c0-.6.708-2.368,2.689-5.386,1.982,3.017,2.69,4.784,2.69,5.386A2.693,2.693,0,0,1,208.494,384.825Zm0,0" transform="translate(-160.725 -296.166)" fill="#fff"/>
  <path id="Trazado_449" data-name="Trazado 449" d="M306.731,382.135c0-.561,0-2.27-3.342-7.307a2.944,2.944,0,0,0-4.907,0c-3.342,5.037-3.342,6.745-3.342,7.307a5.8,5.8,0,1,0,11.591,0Zm-5.8,2.69a2.692,2.692,0,0,1-2.689-2.69c0-.6.708-2.368,2.69-5.386,1.981,3.017,2.689,4.785,2.689,5.386A2.693,2.693,0,0,1,300.935,384.825Zm0,0" transform="translate(-234.023 -296.166)" fill="#fff"/>
  <path id="Trazado_450" data-name="Trazado 450" d="M393.373,373.512a2.936,2.936,0,0,0-2.453,1.317c-3.342,5.037-3.342,6.745-3.342,7.307a5.8,5.8,0,1,0,11.591,0c0-.561,0-2.27-3.342-7.307a2.938,2.938,0,0,0-2.453-1.317Zm0,11.313a2.692,2.692,0,0,1-2.689-2.69c0-.6.707-2.368,2.689-5.386,1.982,3.018,2.69,4.785,2.69,5.386A2.693,2.693,0,0,1,393.373,384.825Zm0,0" transform="translate(-307.319 -296.166)" fill="#fff"/>
</svg>
