<svg height="21.45" viewBox="0 0 24.188 21.45" width="24.188" xmlns="http://www.w3.org/2000/svg"><g fill="#949494"><path d="m21.643 5.644a.851.851 0 0 0 -.468 1.194 8.028 8.028 0 0 1 1 3.888c0 4.928-4.521 8.938-10.078 8.938s-10.081-4.011-10.081-8.939 4.521-8.938 10.078-8.938a10.786 10.786 0 0 1 6.257 1.928 1.1 1.1 0 0 0 1.416-.143.827.827 0 0 0 -.167-1.255 13.124 13.124 0 0 0 -7.506-2.317c-6.668 0-12.094 4.812-12.094 10.725s5.426 10.725 12.094 10.725 12.094-4.812 12.094-10.725a9.634 9.634 0 0 0 -1.2-4.666 1.067 1.067 0 0 0 -1.346-.415zm0 0"/><path d="m177.008 64a.956.956 0 0 0 -1.008.894v6.256a.956.956 0 0 0 1.008.894h5.039a.9.9 0 1 0 0-1.788h-4.031v-5.362a.956.956 0 0 0 -1.008-.894zm0 0" transform="translate(-164.914 -60.425)"/></g></svg>