<svg id="close" xmlns="http://www.w3.org/2000/svg" width="43.572" height="43.572" viewBox="0 0 43.572 43.572">
  <g id="Grupo_505" data-name="Grupo 505">
    <path id="Trazado_482" data-name="Trazado 482" d="M21.786,0A21.786,21.786,0,1,0,43.572,21.786,21.811,21.811,0,0,0,21.786,0ZM30.6,28.03a.908.908,0,0,1,0,1.284L29.314,30.6a.908.908,0,0,1-1.284,0l-6.244-6.244L15.542,30.6a.908.908,0,0,1-1.284,0l-1.283-1.283a.908.908,0,0,1,0-1.284l6.244-6.244-6.244-6.244a.908.908,0,0,1,0-1.284l1.283-1.283a.908.908,0,0,1,1.284,0l6.244,6.244,6.244-6.244a.908.908,0,0,1,1.284,0L30.6,14.258a.908.908,0,0,1,0,1.284l-6.244,6.244Z" transform="translate(0 0)" fill="#fff"/>
  </g>
</svg>
