<svg height="51" viewBox="0 0 49.488 51" width="49.488" xmlns="http://www.w3.org/2000/svg"><path d="m34.017 27.487a7.277 7.277 0 1 1 -7.273-7.5 7.388 7.388 0 0 1 7.273 7.5zm10.421 0a6.252 6.252 0 0 1 6.154-6.345 3.382 3.382 0 0 1 .4.015v-.367l-6.5-11.6-.373-.219a6.053 6.053 0 0 1 -8.406 2.322 6.453 6.453 0 0 1 -2.252-8.667l-.225-.134h-12.988l-.291.173a6.451 6.451 0 0 1 -2.357 8.47 6.048 6.048 0 0 1 -8.3-2.127l-.3.181-6.5 11.601v.356h.164a6.348 6.348 0 0 1 0 12.69h-.164v.356l6.5 11.601.211.123a6.052 6.052 0 0 1 8.406-2.322 6.453 6.453 0 0 1 2.251 8.668l.385.228h12.986l.3-.177a6.514 6.514 0 0 1 -.133-6.458 6.067 6.067 0 0 1 10.785.113l.3-.179 6.5-11.6v-.367c-.131.01-.263.015-.4.015a6.252 6.252 0 0 1 -6.153-6.35zm-16.438 20.189a11.177 11.177 0 0 1 5.34-8.4 10.53 10.53 0 0 1 9.73-.565l1.212-2.165a11.343 11.343 0 0 1 0-18.108l-1.305-2.34a10.52 10.52 0 0 1 -9.568-.593 11.157 11.157 0 0 1 -5.347-8.2h-2.717a10.949 10.949 0 0 1 -10.729 9.669 10.486 10.486 0 0 1 -4.116-.854l-1.365 2.436a11.361 11.361 0 0 1 0 17.862l1.257 2.246a10.537 10.537 0 0 1 4.22-.89c.186 0 .373 0 .559.013a10.979 10.979 0 0 1 10.192 9.881z" fill="none" stroke="#fff" stroke-linecap="round" stroke-linejoin="round" transform="translate(-2 -1.99)"/></svg>