<svg xmlns="http://www.w3.org/2000/svg" width="49.488" height="51" viewBox="0 0 49.488 51">
  <g id="Componente_28_4" data-name="Componente 28 – 4" transform="translate(0.5 0.5)">
    <g id="Capa_2" data-name="Capa 2">
      <g id="Capa_2-2" data-name="Capa 2" transform="translate(0 0)">
        <path id="Trazado_616" data-name="Trazado 616" d="M34.017,27.487a7.277,7.277,0,1,1-7.273-7.5,7.388,7.388,0,0,1,7.273,7.5Zm10.421,0a6.252,6.252,0,0,1,6.154-6.345,3.382,3.382,0,0,1,.4.015V20.79l-6.5-11.6-.373-.219a6.053,6.053,0,0,1-8.406,2.322,6.453,6.453,0,0,1-2.252-8.667l-.225-.134H20.248l-.291.173A6.451,6.451,0,0,1,17.6,11.135a6.048,6.048,0,0,1-8.3-2.127L9,9.189,2.5,20.79v.356h.164a6.348,6.348,0,0,1,0,12.69H2.5v.356L9,45.793l.211.123a6.052,6.052,0,0,1,8.406-2.322,6.453,6.453,0,0,1,2.251,8.668l.385.228H33.239l.3-.177a6.514,6.514,0,0,1-.133-6.458,6.067,6.067,0,0,1,10.785.113l.3-.179,6.5-11.6v-.367c-.131.01-.263.015-.4.015A6.252,6.252,0,0,1,44.438,27.487ZM28,47.676a11.177,11.177,0,0,1,5.34-8.4,10.53,10.53,0,0,1,9.73-.565l1.212-2.165a11.343,11.343,0,0,1,0-18.108l-1.305-2.34a10.52,10.52,0,0,1-9.568-.593,11.157,11.157,0,0,1-5.347-8.2H25.345a10.949,10.949,0,0,1-10.729,9.669A10.486,10.486,0,0,1,10.5,16.12L9.135,18.556a11.361,11.361,0,0,1,0,17.862l1.257,2.246a10.537,10.537,0,0,1,4.22-.89c.186,0,.373,0,.559.013a10.979,10.979,0,0,1,10.192,9.881Z" transform="translate(-2.5 -2.49)" fill="none" stroke="#fff" stroke-linecap="round" stroke-linejoin="round" stroke-width="1"/>
      </g>
    </g>
  </g>
</svg>
