<svg xmlns="http://www.w3.org/2000/svg" width="37.166" height="51" viewBox="0 0 37.166 51">
    <g id="prefix__Capa_2" data-name="Capa 2" transform="translate(.5 .5)">
        <g id="prefix__Capa_2-2" data-name="Capa 2">
            <path id="prefix__Trazado_620" d="M27.368 27.788a4.085 4.085 0 0 0 .345 1.637L20.584 45 13.3 29.083a3.909 3.909 0 0 0-.088-2.833l7.373-16.1 7.228 15.79a4.058 4.058 0 0 0-.444 1.852zm-6.607-18.03zM13.21 26.25l7.373-16.1-.183-.388-5.545.025L8.1 24.375a3.611 3.611 0 0 1 2.949-.206 3.76 3.76 0 0 1 2.161 2.081zm14.6-.313a3.8 3.8 0 0 1 5.2-1.677L26.3 9.785l-5.539-.025-.187.385zM20.4 9.758zm.356 0h-.354l.187.385zM20.4 45.385zm7.308-15.962L20.584 45l.187.385 5.544-.025 6.441-13.917a3.807 3.807 0 0 1-5.036-2.013zm-6.947 15.962zM13.3 29.083a3.79 3.79 0 0 1-2.005 2.217 3.617 3.617 0 0 1-2.938.023l6.5 14.038 5.545.025.191-.386zm7.107 16.3h.354L20.574 45zm-7.107-16.3a3.909 3.909 0 0 0-.088-2.833M8.1 24.375a3.886 3.886 0 0 0 .256 6.944m24.4.115a4.029 4.029 0 0 0 .256-7.175m-5.2 1.677a4.062 4.062 0 0 0-.1 3.485m5.3-5.162a3.8 3.8 0 0 0-5.2 1.677M29.608 2.5H11.56v4.688h18.048zm-3.031 4.829H14.591v2.415h11.986zM11.56 52.5h18.048v-4.687H11.56zm3.031-4.829h11.986v-2.415H14.591zm-8.64-20.065H2.5m36.165 0h-3.443" data-name="Trazado 620" transform="translate(-2.5 -2.5)" style="fill:none;stroke:#fff;stroke-linecap:round"/>
        </g>
    </g>
</svg>
