<svg height="51" viewBox="0 0 37.166 51" width="37.166" xmlns="http://www.w3.org/2000/svg"><path d="m27.368 27.788a4.085 4.085 0 0 0 .345 1.637l-7.129 15.575-7.284-15.917a3.909 3.909 0 0 0 -.088-2.833l7.373-16.1 7.228 15.79a4.058 4.058 0 0 0 -.444 1.852zm-14.158-1.538 7.373-16.1-.183-.388-5.545.025-6.755 14.588a3.611 3.611 0 0 1 2.949-.206 3.76 3.76 0 0 1 2.161 2.081zm14.6-.313a3.8 3.8 0 0 1 5.2-1.677l-6.71-14.475-5.539-.025-.187.385zm-7.054-16.179h-.354l.187.385zm6.952 19.665-7.124 15.577.187.385 5.544-.025 6.441-13.917a3.807 3.807 0 0 1 -5.036-2.013zm-14.408-.34a3.79 3.79 0 0 1 -2.005 2.217 3.617 3.617 0 0 1 -2.938.023l6.5 14.038 5.545.025.191-.386zm7.107 16.3h.354l-.187-.383zm-7.107-16.3a3.909 3.909 0 0 0 -.088-2.833m-5.112-1.875a3.886 3.886 0 0 0 .256 6.944m24.4.115a4.029 4.029 0 0 0 .256-7.175m-5.2 1.677a4.062 4.062 0 0 0 -.1 3.485m5.3-5.162a3.8 3.8 0 0 0 -5.2 1.677m1.796-23.436h-18.048v4.688h18.048zm-3.031 4.829h-11.986v2.415h11.986zm-15.017 45.171h18.048v-4.687h-18.048zm3.031-4.829h11.986v-2.415h-11.986zm-8.64-20.065h-3.451m36.165 0h-3.443" fill="none" stroke="#fff" stroke-linecap="round" transform="translate(-2 -2)"/></svg>