<svg height="51" viewBox="0 0 41.986 51" width="41.986" xmlns="http://www.w3.org/2000/svg"><path d="m2.8 9.667h40.385m.3-7.167h-38.185a2.842 2.842 0 0 0 -2.8 2.885v47.115h40.987zm-20.491 16.225a12.648 12.648 0 0 0 -12.451 12.837 12.648 12.648 0 0 0 12.451 12.838 12.648 12.648 0 0 0 12.45-12.838 12.648 12.648 0 0 0 -12.45-12.837zm0 6.865a.907.907 0 0 0 -.674.278.966.966 0 0 0 -.27.7.943.943 0 0 0 .255.682.886.886 0 0 0 .655.279.907.907 0 0 0 .961-.962.941.941 0 0 0 -.253-.694.884.884 0 0 0 -.668-.283zm.746 11.942v-8.561h-1.509v8.562z" fill="none" stroke="#fff" stroke-linecap="round" stroke-linejoin="round" transform="translate(-2 -2)"/></svg>