<svg xmlns="http://www.w3.org/2000/svg" width="41.986" height="51" viewBox="0 0 41.986 51">
    <g id="prefix__Capa_2" data-name="Capa 2" transform="translate(.5 .5)">
        <g id="prefix__Capa_2-2" data-name="Capa 2">
            <path id="prefix__Trazado_627" d="M2.8 9.667h40.385m.3-7.167H5.3a2.842 2.842 0 0 0-2.8 2.885V52.5h40.987zM22.994 18.725a12.648 12.648 0 0 0-12.451 12.837A12.648 12.648 0 0 0 22.994 44.4a12.648 12.648 0 0 0 12.45-12.838 12.648 12.648 0 0 0-12.45-12.837zm0 6.865a.907.907 0 0 0-.674.278.966.966 0 0 0-.27.7.943.943 0 0 0 .255.682.886.886 0 0 0 .655.279.907.907 0 0 0 .961-.962.941.941 0 0 0-.253-.694.884.884 0 0 0-.668-.283zm.746 11.942v-8.561h-1.509v8.562z" data-name="Trazado 627" transform="translate(-2.5 -2.5)" style="fill:none;stroke:#fff;stroke-linecap:round;stroke-linejoin:round"/>
        </g>
    </g>
</svg>
