<svg height="67.893" viewBox="0 0 40.583 67.893" width="40.583" xmlns="http://www.w3.org/2000/svg"><path d="m571.187 6952.414v-53.114a12.725 12.725 0 0 1 12.687-12.687 12.725 12.725 0 0 1 12.687 12.687m4.18.2h-8.819a6.307 6.307 0 0 0 -6.289 6.29h21.4a6.307 6.307 0 0 0 -6.292-6.29zm-11.334 13.311a1.7 1.7 0 0 0 1.657-1.284c.191-.871-.517-1.691-.922-2.393l-.735-1.275-.735 1.275c-.406.7-1.113 1.522-.922 2.393a1.7 1.7 0 0 0 1.657 1.284zm6.924 0a1.7 1.7 0 0 0 1.657-1.284c.191-.871-.517-1.691-.922-2.393l-.735-1.275-.735 1.275c-.406.7-1.113 1.522-.922 2.393a1.7 1.7 0 0 0 1.658 1.284zm6.924 0a1.7 1.7 0 0 0 1.657-1.284c.191-.871-.517-1.691-.922-2.393l-.735-1.275-.735 1.275c-.405.7-1.113 1.522-.922 2.393a1.7 1.7 0 0 0 1.658 1.284zm-13.849 7.978a1.7 1.7 0 0 0 1.657-1.284c.191-.871-.517-1.691-.922-2.392l-.735-1.273-.735 1.273c-.406.7-1.113 1.521-.922 2.392a1.7 1.7 0 0 0 1.658 1.283zm6.924 0a1.7 1.7 0 0 0 1.657-1.284c.191-.871-.517-1.691-.922-2.392l-.735-1.273-.735 1.273c-.406.7-1.113 1.521-.922 2.392a1.7 1.7 0 0 0 1.659 1.283zm6.924 0a1.7 1.7 0 0 0 1.657-1.284c.191-.871-.517-1.691-.922-2.392l-.735-1.273-.735 1.273c-.405.7-1.113 1.521-.922 2.392a1.7 1.7 0 0 0 1.659 1.283zm-13.849 7.977a1.7 1.7 0 0 0 1.657-1.283c.191-.872-.517-1.692-.922-2.394l-.735-1.273-.735 1.273c-.406.7-1.113 1.521-.922 2.394a1.7 1.7 0 0 0 1.659 1.282zm6.924 0a1.7 1.7 0 0 0 1.657-1.283c.191-.872-.517-1.692-.922-2.394l-.735-1.273-.735 1.273c-.406.7-1.113 1.521-.922 2.394a1.694 1.694 0 0 0 1.66 1.282zm6.924 0a1.7 1.7 0 0 0 1.657-1.283c.191-.872-.517-1.692-.922-2.394l-.735-1.273-.735 1.273c-.405.7-1.113 1.521-.922 2.394a1.694 1.694 0 0 0 1.66 1.282zm-13.849 7.979a1.693 1.693 0 0 0 1.657-1.284c.191-.871-.517-1.691-.922-2.393l-.735-1.273-.735 1.273c-.406.7-1.113 1.521-.922 2.393a1.693 1.693 0 0 0 1.66 1.283zm6.924 0a1.693 1.693 0 0 0 1.657-1.284c.191-.871-.517-1.691-.922-2.393l-.735-1.273-.735 1.273c-.406.7-1.113 1.521-.922 2.393a1.693 1.693 0 0 0 1.661 1.283zm6.924 0a1.693 1.693 0 0 0 1.657-1.284c.191-.871-.517-1.691-.922-2.393l-.735-1.273-.735 1.273c-.405.7-1.113 1.521-.922 2.393a1.693 1.693 0 0 0 1.661 1.283zm-34.808 15.765h5.508" fill="none" stroke="#94e538" stroke-linecap="round" stroke-linejoin="round" stroke-width="2" transform="translate(-567.448 -6885.616)"/></svg>