<svg xmlns="http://www.w3.org/2000/svg" width="40.583" height="67.893" viewBox="0 0 40.583 67.893">
  <path id="Trazado_673" data-name="Trazado 673" d="M571.187,6952.414V6899.3a12.725,12.725,0,0,1,12.687-12.687h0a12.725,12.725,0,0,1,12.687,12.687m4.18.2h-8.819a6.307,6.307,0,0,0-6.289,6.29h21.4A6.307,6.307,0,0,0,600.741,6899.5Zm-11.334,13.311a1.7,1.7,0,0,0,1.657-1.284c.191-.871-.517-1.691-.922-2.393l-.735-1.275-.735,1.275c-.406.7-1.113,1.522-.922,2.393A1.7,1.7,0,0,0,589.407,6912.811Zm6.924,0a1.7,1.7,0,0,0,1.657-1.284c.191-.871-.517-1.691-.922-2.393l-.735-1.275-.735,1.275c-.406.7-1.113,1.522-.922,2.393A1.7,1.7,0,0,0,596.332,6912.811Zm6.924,0a1.7,1.7,0,0,0,1.657-1.284c.191-.871-.517-1.691-.922-2.393l-.735-1.275-.735,1.275c-.405.7-1.113,1.522-.922,2.393A1.7,1.7,0,0,0,603.256,6912.811Zm-13.849,7.978a1.7,1.7,0,0,0,1.657-1.284c.191-.871-.517-1.691-.922-2.392l-.735-1.273-.735,1.273c-.406.7-1.113,1.521-.922,2.392A1.7,1.7,0,0,0,589.407,6920.788Zm6.924,0a1.7,1.7,0,0,0,1.657-1.284c.191-.871-.517-1.691-.922-2.392l-.735-1.273-.735,1.273c-.406.7-1.113,1.521-.922,2.392A1.7,1.7,0,0,0,596.332,6920.788Zm6.924,0a1.7,1.7,0,0,0,1.657-1.284c.191-.871-.517-1.691-.922-2.392l-.735-1.273-.735,1.273c-.405.7-1.113,1.521-.922,2.392A1.7,1.7,0,0,0,603.256,6920.788Zm-13.849,7.977a1.7,1.7,0,0,0,1.657-1.283c.191-.872-.517-1.692-.922-2.394l-.735-1.273-.735,1.273c-.406.7-1.113,1.521-.922,2.394A1.7,1.7,0,0,0,589.407,6928.765Zm6.924,0a1.7,1.7,0,0,0,1.657-1.283c.191-.872-.517-1.692-.922-2.394l-.735-1.273-.735,1.273c-.406.7-1.113,1.521-.922,2.394A1.694,1.694,0,0,0,596.332,6928.765Zm6.924,0a1.7,1.7,0,0,0,1.657-1.283c.191-.872-.517-1.692-.922-2.394l-.735-1.273-.735,1.273c-.405.7-1.113,1.521-.922,2.394A1.694,1.694,0,0,0,603.256,6928.765Zm-13.849,7.979a1.693,1.693,0,0,0,1.657-1.284c.191-.871-.517-1.691-.922-2.393l-.735-1.273-.735,1.273c-.406.7-1.113,1.521-.922,2.393A1.693,1.693,0,0,0,589.407,6936.744Zm6.924,0a1.693,1.693,0,0,0,1.657-1.284c.191-.871-.517-1.691-.922-2.393l-.735-1.273-.735,1.273c-.406.7-1.113,1.521-.922,2.393A1.693,1.693,0,0,0,596.332,6936.744Zm6.924,0a1.693,1.693,0,0,0,1.657-1.284c.191-.871-.517-1.691-.922-2.393l-.735-1.273-.735,1.273c-.405.7-1.113,1.521-.922,2.393A1.693,1.693,0,0,0,603.256,6936.744Zm-34.808,15.765h5.508" transform="translate(-567.448 -6885.616)" fill="none" stroke="#94e538" stroke-linecap="round" stroke-linejoin="round" stroke-width="2"/>
</svg>
