<svg xmlns="http://www.w3.org/2000/svg" id="prefix__energy_1_" width="49.83" height="59.197" data-name="energy (1)" viewBox="0 0 49.83 59.197">
    <defs>
        <style>
            .prefix__cls-1{fill:#8d8d8d}
        </style>
    </defs>
    <path id="prefix__Trazado_458" d="M102.325 0a2.265 2.265 0 0 0-2.265 2.265v11.627h-6.8A2.265 2.265 0 0 0 91 16.157v9.06a2.265 2.265 0 0 0 2.265 2.265h2.265v11.325a20.414 20.414 0 0 0 18.234 20.272c14.119 1.4 22.537-9.846 22.537-20.272V27.482h2.265a2.265 2.265 0 0 0 2.265-2.265v-9.06a2.265 2.265 0 0 0-2.265-2.265h-6.8V2.265a2.265 2.265 0 1 0-4.53 0v11.627H104.59V2.265A2.265 2.265 0 0 0 102.325 0zM136.3 22.952h-2.265a2.265 2.265 0 0 0-2.265 2.265v13.59a15.855 15.855 0 1 1-31.71 0v-13.59a2.265 2.265 0 0 0-2.26-2.265h-2.27v-4.53h40.77z" class="prefix__cls-1" data-name="Trazado 458" transform="translate(-91)"/>
    <path id="prefix__Trazado_459" d="M223.34 191.116l-6.249-3.125 2.308-2.308a2.265 2.265 0 0 0-3.2-3.2l-4.53 4.53a2.266 2.266 0 0 0 .589 3.628l6.249 3.125-2.308 2.308c-2.122 2.122 1.107 5.3 3.2 3.2l4.53-4.53a2.266 2.266 0 0 0-.589-3.628z" class="prefix__cls-1" data-name="Trazado 459" transform="translate(-192.881 -154.334)"/>
</svg>
