<svg xmlns="http://www.w3.org/2000/svg" width="118.475" height="65.761" viewBox="0 0 118.475 65.761">
  <g id="cable" transform="translate(118.475) rotate(90)">
    <path id="Trazado_452" data-name="Trazado 452" d="M1.582,6.326H3.163V7.908a1.582,1.582,0,0,0,3.163,0V6.326H7.908a1.582,1.582,0,0,0,0-3.163H6.326V1.582a1.582,1.582,0,0,0-3.163,0V3.163H1.582a1.582,1.582,0,0,0,0,3.163Z" transform="translate(12.079 6.326)" fill="#393939"/>
    <path id="Trazado_453" data-name="Trazado 453" d="M11.071,22.142A11.071,11.071,0,1,0,0,11.071,11.084,11.084,0,0,0,11.071,22.142Zm0-18.979a7.908,7.908,0,1,1-7.908,7.908A7.917,7.917,0,0,1,11.071,3.163Z" transform="translate(5.752)" fill="#393939"/>
    <path id="Trazado_454" data-name="Trazado 454" d="M1.582,3.163H7.908A1.582,1.582,0,0,0,7.908,0H1.582a1.582,1.582,0,0,0,0,3.163Z" transform="translate(44.192 9.489)" fill="#393939"/>
    <path id="Trazado_455" data-name="Trazado 455" d="M11.071,22.142A11.071,11.071,0,1,0,0,11.071,11.084,11.084,0,0,0,11.071,22.142Zm0-18.979a7.908,7.908,0,1,1-7.908,7.908A7.917,7.917,0,0,1,11.071,3.163Z" transform="translate(37.866)" fill="#393939"/>
    <path id="Trazado_456" data-name="Trazado 456" d="M1.582,9.489H8.013A7.917,7.917,0,0,1,15.921,17.4V20.56A1.582,1.582,0,0,0,17.5,22.142h1.582V27.1a1.582,1.582,0,1,0,3.163,0V22.142h1.582a1.582,1.582,0,0,0,1.582-1.582V17.4A17.417,17.417,0,0,0,8.013,0H1.582A1.582,1.582,0,0,0,0,1.582V7.908A1.582,1.582,0,0,0,1.582,9.489ZM3.163,3.163h4.85A14.25,14.25,0,0,1,22.248,17.4v1.582H19.084V17.4A11.084,11.084,0,0,0,8.013,6.326H3.163Z" transform="translate(37.082 52.35) rotate(-90)" fill="#393939"/>
    <path id="Trazado_457" data-name="Trazado 457" d="M1.582,22.142H3.163V27.1a1.582,1.582,0,1,0,3.163,0V22.142H7.908A1.582,1.582,0,0,0,9.489,20.56V17.4A7.917,7.917,0,0,1,17.4,9.489h6.432a1.582,1.582,0,0,0,1.582-1.582V1.582A1.582,1.582,0,0,0,23.829,0H17.4A17.417,17.417,0,0,0,0,17.4V20.56A1.582,1.582,0,0,0,1.582,22.142ZM3.163,17.4A14.25,14.25,0,0,1,17.4,3.163h4.85V6.326H17.4A11.084,11.084,0,0,0,6.326,17.4v1.582H3.163Z" transform="translate(28.679 26.939) rotate(90)" fill="#393939"/>
    <path id="Trazado_475" data-name="Trazado 475" d="M1.582,19.19H8.013a7.917,7.917,0,0,0,7.908-7.908V8.119A1.582,1.582,0,0,1,17.5,6.537h1.582V1.582a1.582,1.582,0,1,1,3.163,0V6.537h1.582a1.582,1.582,0,0,1,1.582,1.582v3.163a17.417,17.417,0,0,1-17.4,17.4H1.582A1.582,1.582,0,0,1,0,27.1V20.771A1.582,1.582,0,0,1,1.582,19.19Zm1.582,6.326h4.85A14.25,14.25,0,0,0,22.248,11.282V9.7H19.084v1.582A11.084,11.084,0,0,1,8.013,22.353H3.163Z" transform="translate(56.381 93.064) rotate(90)" fill="#393939"/>
  </g>
</svg>
