<svg xmlns="http://www.w3.org/2000/svg" width="25.348" height="23.79" viewBox="0 0 25.348 23.79">
  <g id="rounded-plug" transform="translate(-19 -14.229)">
    <path id="Trazado_976" data-name="Trazado 976" d="M21.636,17.941A12.675,12.675,0,0,0,1.744,33.322a12.744,12.744,0,0,0,4.576,4.549,1.1,1.1,0,0,0,1.1-1.9A10.476,10.476,0,1,1,23.149,26.9a8.72,8.72,0,0,1-1.912,5.89,5.09,5.09,0,0,1-3.75,1.808A3.529,3.529,0,0,1,14,31.975a4.858,4.858,0,0,0,3.868-4.75v-3.2a.275.275,0,0,0-.275-.275h-1.47v-3a1.1,1.1,0,0,0-2.2,0v3h-2.5v-3a1.1,1.1,0,0,0-2.2,0v3H7.756a.275.275,0,0,0-.275.275v3.2a4.857,4.857,0,0,0,4.27,4.815,6.135,6.135,0,0,0,1.594,3.068A5.737,5.737,0,0,0,17.487,36.8a7.284,7.284,0,0,0,5.4-2.549A10.716,10.716,0,0,0,25.348,26.9,12.591,12.591,0,0,0,21.636,17.941Z" transform="translate(19)" fill="#707070"/>
  </g>
</svg>
