<svg height="49.062" viewBox="0 0 44.044 49.062" width="44.044" xmlns="http://www.w3.org/2000/svg"><g fill="#fff" transform="matrix(.8571673 -.51503807 .51503807 .8571673 -78.002249 60.564976)"><path d="m97.044 0a1.209 1.209 0 0 0 -1.209 1.209v6.2h-3.626a1.209 1.209 0 0 0 -1.209 1.213v4.835a1.209 1.209 0 0 0 1.209 1.209h1.209v6.044a10.894 10.894 0 0 0 9.731 10.818 10.894 10.894 0 0 0 10.818 9.731 1.209 1.209 0 0 0 0-2.418 8.474 8.474 0 0 1 -8.385-7.329 10.894 10.894 0 0 0 9.594-10.8v-6.046h1.209a1.209 1.209 0 0 0 1.209-1.209v-4.835a1.209 1.209 0 0 0 -1.209-1.209h-3.626v-6.2a1.209 1.209 0 1 0 -2.418 0v6.2h-12.088v-6.2a1.209 1.209 0 0 0 -1.209-1.213zm18.131 12.249h-1.209a1.209 1.209 0 0 0 -1.209 1.209v7.252a8.461 8.461 0 1 1 -16.923 0v-7.252a1.209 1.209 0 0 0 -1.209-1.209h-1.207v-2.418h21.758z"/><path d="m217.586 186.764-3.335-1.668 1.232-1.232a1.209 1.209 0 0 0 -1.709-1.709l-2.418 2.418a1.209 1.209 0 0 0 .314 1.936l3.33 1.667-1.232 1.232a1.209 1.209 0 0 0 1.709 1.709l2.423-2.417a1.209 1.209 0 0 0 -.314-1.936z" transform="translate(-110.332 -167.135)"/></g></svg>