<svg height="59.197" viewBox="0 0 49.83 59.197" width="49.83" xmlns="http://www.w3.org/2000/svg"><g fill="#8d8d8d"><path d="m102.325 0a2.265 2.265 0 0 0 -2.265 2.265v11.627h-6.8a2.265 2.265 0 0 0 -2.26 2.265v9.06a2.265 2.265 0 0 0 2.265 2.265h2.265v11.325a20.414 20.414 0 0 0 18.234 20.272c14.119 1.4 22.537-9.846 22.537-20.272v-11.325h2.265a2.265 2.265 0 0 0 2.265-2.265v-9.06a2.265 2.265 0 0 0 -2.265-2.265h-6.8v-11.627a2.265 2.265 0 1 0 -4.53 0v11.627h-22.646v-11.627a2.265 2.265 0 0 0 -2.265-2.265zm33.975 22.952h-2.265a2.265 2.265 0 0 0 -2.265 2.265v13.59a15.855 15.855 0 1 1 -31.71 0v-13.59a2.265 2.265 0 0 0 -2.26-2.265h-2.27v-4.53h40.77z" transform="translate(-91)"/><path d="m223.34 191.116-6.249-3.125 2.308-2.308a2.265 2.265 0 0 0 -3.2-3.2l-4.53 4.53a2.266 2.266 0 0 0 .589 3.628l6.249 3.125-2.308 2.308c-2.122 2.122 1.107 5.3 3.2 3.2l4.53-4.53a2.266 2.266 0 0 0 -.589-3.628z" transform="translate(-192.881 -154.334)"/></g></svg>