<svg xmlns="http://www.w3.org/2000/svg" width="44.044" height="49.062" viewBox="0 0 44.044 49.062">
    <defs>
        <style>
            .prefix__cls-1{fill:#fff}
        </style>
    </defs>
    <g id="prefix__energy" transform="rotate(-31 70.194 170.916)">
        <path id="prefix__Trazado_432" d="M97.044 0a1.209 1.209 0 0 0-1.209 1.209v6.2h-3.626A1.209 1.209 0 0 0 91 8.622v4.835a1.209 1.209 0 0 0 1.209 1.209h1.209v6.044a10.894 10.894 0 0 0 9.731 10.818 10.894 10.894 0 0 0 10.818 9.731 1.209 1.209 0 0 0 0-2.418 8.474 8.474 0 0 1-8.385-7.329 10.894 10.894 0 0 0 9.594-10.8v-6.046h1.209a1.209 1.209 0 0 0 1.209-1.209V8.622a1.209 1.209 0 0 0-1.209-1.209h-3.626v-6.2a1.209 1.209 0 1 0-2.418 0v6.2H98.253v-6.2A1.209 1.209 0 0 0 97.044 0zm18.131 12.249h-1.209a1.209 1.209 0 0 0-1.209 1.209v7.252a8.461 8.461 0 1 1-16.923 0v-7.252a1.209 1.209 0 0 0-1.209-1.209h-1.207V9.831h21.758z" class="prefix__cls-1" data-name="Trazado 432"/>
        <path id="prefix__Trazado_433" d="M217.586 186.764l-3.335-1.668 1.232-1.232a1.209 1.209 0 0 0-1.709-1.709l-2.418 2.418a1.209 1.209 0 0 0 .314 1.936l3.33 1.667-1.232 1.232a1.209 1.209 0 0 0 1.709 1.709l2.423-2.417a1.209 1.209 0 0 0-.314-1.936z" class="prefix__cls-1" data-name="Trazado 433" transform="translate(-110.332 -167.135)"/>
    </g>
</svg>
