<svg height="34.065" viewBox="0 0 39.306 34.065" width="39.306" xmlns="http://www.w3.org/2000/svg"><g fill="#fff" transform="translate(-2 -6)"><path d="m40.651 18.447h-3.276a.655.655 0 0 0 -.655.655v3.931h-1.31v-9.172a.655.655 0 0 0 -.655-.655h-6.555v-1.965h6.551a.655.655 0 0 0 .649-.76l-.652-3.931a.655.655 0 0 0 -.648-.55h-14.412a.655.655 0 0 0 -.649.55l-.655 3.931a.655.655 0 0 0 .649.76h5.241v1.965h-5.241a.655.655 0 0 0 -.419.151l-3.747 3.125h-5.661a.655.655 0 0 0 -.655.655v6.551h-1.965v-.5l.583-1.173a.655.655 0 0 0 .072-.295v-4.583a.655.655 0 0 0 -.655-.655h-3.931a.655.655 0 0 0 -.655.655v4.586a.655.655 0 0 0 .072.295l.583 1.173v4.926l-.583 1.173a.655.655 0 0 0 -.072.294v4.586a.655.655 0 0 0 .655.655h3.931a.655.655 0 0 0 .655-.655v-4.586a.655.655 0 0 0 -.072-.295l-.583-1.173v-.5h1.965v7.206a.655.655 0 0 0 .655.655h4.206l2.43 4.258a.655.655 0 0 0 .57.328h15.723a.655.655 0 0 0 .57-.328l2.62-4.586a.739.739 0 0 0 .085-.328v-6.548h1.31v3.927a.655.655 0 0 0 .655.655h3.275a.655.655 0 0 0 .655-.655v-13.1a.655.655 0 0 0 -.654-.653zm-34.72 3.118-.583 1.173a.655.655 0 0 0 -.072.295v5.241a.655.655 0 0 0 .072.295l.583 1.173v3.773h-2.621v-3.774l.583-1.173a.655.655 0 0 0 .072-.295v-5.24a.655.655 0 0 0 -.072-.295l-.583-1.173v-3.773h2.62zm2.62 4.743h-1.965v-1.308h1.965zm11.255-16.377.439-2.62h13.3l.439 2.62zm7.088 1.31v1.965h-1.31v-1.965zm7.206 23.406-2.345 4.107h-14.963l-1.874-3.275h3.459v-1.31h-8.516v-16.377h5.239a.655.655 0 0 0 .419-.151l3.747-3.125h14.834zm2.62-7.684h-1.31v-2.62h1.31zm3.28 4.586h-1.97v-11.792h1.97z"/><path d="m22.62 34a2.62 2.62 0 1 0 2.62 2.62 2.62 2.62 0 0 0 -2.62-2.62zm0 3.931a1.31 1.31 0 1 1 1.31-1.31 1.31 1.31 0 0 1 -1.31 1.31z" transform="translate(-6.208 -9.657)"/><ellipse cx="27" cy="20.5" rx="1" ry="1.5"/><path d="m0 0h2v1h-2z" transform="translate(20 34)"/><path d="m37.076 33.737-1.749-7.593a3.275 3.275 0 0 0 -3.262-3.144 3.241 3.241 0 0 0 -2.4 1.074l-8.995 4.258a4.586 4.586 0 0 0 .917 9.08h13.1a2.62 2.62 0 0 0 2.62-2.62 2.583 2.583 0 0 0 -.229-1.055zm-5.011-9.427a1.965 1.965 0 1 1 -1.965 1.965 1.965 1.965 0 0 1 1.965-1.965zm-10.482 11.79a3.275 3.275 0 1 1 3.275-3.275 3.275 3.275 0 0 1 -3.275 3.275zm10.848 0h-7.644a4.573 4.573 0 0 0 -1.539-7.54l5.581-2.647a3.191 3.191 0 0 0 -.039.36 3.276 3.276 0 0 0 3.275 3.275 3.242 3.242 0 0 0 2.444-1.12l.891 3.852a2.582 2.582 0 0 0 -.714-.111 2.62 2.62 0 0 0 -2.62 2.62 2.559 2.559 0 0 0 .367 1.31zm2.254 0a1.31 1.31 0 1 1 1.315-1.308 1.31 1.31 0 0 1 -1.315 1.308z" transform="translate(-5.171 -5.863)"/></g></svg>