<svg xmlns="http://www.w3.org/2000/svg" width="43.574" height="38.117" viewBox="0 0 43.574 38.117">
  <g id="eraser" transform="translate(0 -32.056)">
    <g id="Grupo_828" data-name="Grupo 828" transform="translate(6.952 32.056)">
      <g id="Grupo_827" data-name="Grupo 827" transform="translate(0 0)">
        <path id="Trazado_861" data-name="Trazado 861" d="M118.041,45.021,105.332,32.312a.933.933,0,0,0-1.284,0L83.014,53.346a4.541,4.541,0,0,0,0,6.42l5.447,5.447a4.51,4.51,0,0,0,3.21,1.329h4.252a4.51,4.51,0,0,0,3.21-1.329L118.041,46.3A.908.908,0,0,0,118.041,45.021Zm-20.19,18.91a2.71,2.71,0,0,1-1.926.8H91.671a2.71,2.71,0,0,1-1.926-.8L84.3,58.484a2.727,2.727,0,0,1,0-3.853l20.393-20.395,11.426,11.426Z" transform="translate(-81.685 -32.056)" fill="#fff"/>
      </g>
    </g>
    <g id="Grupo_830" data-name="Grupo 830" transform="translate(14.525 46.571)">
      <g id="Grupo_829" data-name="Grupo 829" transform="translate(0 0)">
        <path id="Trazado_862" data-name="Trazado 862" d="M184.92,215.586,172.21,202.877a.908.908,0,0,0-1.284,1.284l12.709,12.709a.908.908,0,1,0,1.284-1.284Z" transform="translate(-170.661 -202.611)" fill="#fff"/>
      </g>
    </g>
    <g id="Grupo_832" data-name="Grupo 832" transform="translate(0 64.726)">
      <g id="Grupo_831" data-name="Grupo 831">
        <path id="Trazado_863" data-name="Trazado 863" d="M9.986,415.928H.908a.908.908,0,0,0,0,1.816H9.986a.908.908,0,1,0,0-1.816Z" transform="translate(0 -415.928)" fill="#fff"/>
      </g>
    </g>
    <g id="Grupo_834" data-name="Grupo 834" transform="translate(9.078 68.357)">
      <g id="Grupo_833" data-name="Grupo 833" transform="translate(0 0)">
        <path id="Trazado_864" data-name="Trazado 864" d="M123.915,458.6H107.574a.908.908,0,1,0,0,1.816h16.341a.908.908,0,1,0,0-1.816Z" transform="translate(-106.666 -458.595)" fill="#fff"/>
      </g>
    </g>
  </g>
</svg>
