<svg xmlns="http://www.w3.org/2000/svg" width="54.849" height="50.297" viewBox="0 0 54.849 50.297">
  <path id="Trazado_671" data-name="Trazado 671" d="M2990.884,8393.868h51.656m-52.1-3.754h52.536m-42.974-30.839v30.3m-.11-20.782-4.506-5.5m10.331-6.972-5.715,6.972m34.676,5.274h-22.641v6.7h22.641Zm-8.06,6.7H3020.1l-1.466,14.748h9.452Zm10.038,8.536v6.167m5.276-11h-10.551v4.828h10.551Zm-31.873,4.828v6.167m5.276-11h-10.551v4.828h10.551Zm-2.7-19.878c0-2.426-1.439-4.438-3.332-4.842a9.492,9.492,0,0,0,.107-1.416c0-4.295-2.854-7.777-6.375-7.777a6.118,6.118,0,0,0-5.2,3.28,4.959,4.959,0,0,0-2.348-.6c-3.238,0-5.862,3.2-5.862,7.151a8.077,8.077,0,0,0,1.463,4.724,9.055,9.055,0,0,0-1.463,5.021c0,4.394,2.92,7.954,6.521,7.954a5.661,5.661,0,0,0,3.423-1.183,5.419,5.419,0,0,0,4.271,2.257c3.237,0,5.862-3.2,5.862-7.152a8.538,8.538,0,0,0-.395-2.579C3011.2,8363.539,3012.64,8361.527,3012.64,8359.106Z" transform="translate(-2988.881 -8344.321)" fill="none" stroke="#3d3d3d" stroke-linecap="round" stroke-linejoin="round" stroke-width="1.5"/>
</svg>
