<svg height="76.99" viewBox="0 0 76.99 76.99" width="76.99" xmlns="http://www.w3.org/2000/svg"><g fill="#fff"><path d="m89.473 60a29.473 29.473 0 1 0 29.473 29.473 29.506 29.506 0 0 0 -29.473-29.473zm0 54.435a24.962 24.962 0 1 1 24.962-24.962 24.99 24.99 0 0 1 -24.962 24.962zm0 0" transform="translate(-50.978 -50.978)"/><path d="m426.511 62.256a2.256 2.256 0 1 1 -2.255-2.256 2.255 2.255 0 0 1 2.255 2.256zm0 0" transform="translate(-358.543 -50.978)"/><path d="m64.511 62.256a2.256 2.256 0 1 1 -2.255-2.256 2.255 2.255 0 0 1 2.255 2.256zm0 0" transform="translate(-50.978 -50.978)"/><path d="m426.511 424.256a2.256 2.256 0 1 1 -2.255-2.256 2.255 2.255 0 0 1 2.255 2.256zm0 0" transform="translate(-358.543 -358.543)"/><path d="m70.224 0h-63.457a6.774 6.774 0 0 0 -6.767 6.767v63.457a6.775 6.775 0 0 0 6.767 6.766h63.457a6.775 6.775 0 0 0 6.767-6.767v-63.456a6.775 6.775 0 0 0 -6.767-6.767zm2.256 70.224a2.258 2.258 0 0 1 -2.256 2.256h-63.457a2.258 2.258 0 0 1 -2.256-2.256v-63.457a2.258 2.258 0 0 1 2.256-2.256h63.457a2.258 2.258 0 0 1 2.256 2.256zm0 0"/><path d="m64.511 424.256a2.256 2.256 0 1 1 -2.255-2.256 2.255 2.255 0 0 1 2.255 2.256zm0 0" transform="translate(-50.978 -358.543)"/><path d="m158.481 135.644-4.963-.3a6.771 6.771 0 0 0 -.734-1.269l2.224-4.443a8.587 8.587 0 0 0 -7.679-12.431h-.008a8.587 8.587 0 0 0 -7.674 12.427l2.224 4.449a6.778 6.778 0 0 0 -.733 1.266l-4.963.3a8.588 8.588 0 0 0 .256 17.156h.266a8.53 8.53 0 0 0 7.161-3.859l2.734-4.145a6.6 6.6 0 0 0 1.471 0l2.734 4.145a8.529 8.529 0 0 0 7.161 3.859h.267a8.587 8.587 0 0 0 .256-17.155zm-8.912 2.178a2.191 2.191 0 0 1 .015.25 2.256 2.256 0 0 1 -4.511 0 2.191 2.191 0 0 1 .015-.25 2.255 2.255 0 0 1 4.482 0zm-5.709-14.174a4 4 0 0 1 3.465-1.934 4.076 4.076 0 0 1 3.645 5.9l-1.955 3.906a6.788 6.788 0 0 0 -3.383 0l-1.954-3.908a4 4 0 0 1 .178-3.965zm-7.292 24.642a4.077 4.077 0 0 1 -.122-8.144l4.364-.262a6.763 6.763 0 0 0 1.692 2.925l-2.408 3.651a4 4 0 0 1 -3.526 1.83zm24.931-2.039a4.077 4.077 0 0 1 -6.935.209l-2.408-3.651a6.762 6.762 0 0 0 1.692-2.925l4.364.262a4.077 4.077 0 0 1 3.288 6.1zm0 0" transform="translate(-108.833 -99.579)"/></g></svg>