<svg xmlns="http://www.w3.org/2000/svg" width="30.178" height="38.347" viewBox="0 0 30.178 38.347">
  <g id="Capa_2" data-name="Capa 2" transform="translate(-115.34 131.5)">
    <g id="Capa_2-2" data-name="Capa 2" transform="translate(116.504 -130.5)">
      <path id="Trazado_733" data-name="Trazado 733" d="M27.15,16.027A13.9,13.9,0,0,1,30.4,26.78c-1.683,12.8-20.24,16.912-26.407,4.779-2.913-5.73-1.209-12.6,2.243-17.746a8.109,8.109,0,0,0,2.193,6.452,8.345,8.345,0,0,0,4.076,2.2,18.679,18.679,0,0,1,1.646-13A19.285,19.285,0,0,1,20.623,2.5C19.683,8.994,23.267,11.5,27.15,16.027ZM18.1,24.734a7.478,7.478,0,0,0-2.512,2.7,7.24,7.24,0,0,0-.639,5.039,3.242,3.242,0,0,1-1.579-.856,3.121,3.121,0,0,1-.851-2.5c-1.336,2-2,4.657-.867,6.878,2.391,4.7,9.584,3.109,10.235-1.855a5.389,5.389,0,0,0-1.257-4.166c-1.5-1.753-2.892-2.725-2.529-5.241Z" transform="translate(-2.504 -2.5)" fill="none" stroke="#94e538" stroke-linecap="round" stroke-linejoin="round" stroke-width="2"/>
    </g>
  </g>
</svg>
