<svg height="51.044" viewBox="0 0 36.938 51.044" width="36.938" xmlns="http://www.w3.org/2000/svg"><path d="m33.945 21.126a20.194 20.194 0 0 1 4.141 14.807c-2.147 17.623-25.821 23.288-33.686 6.581-3.717-7.89-1.544-17.344 2.859-24.436a11.781 11.781 0 0 0 2.8 8.884 10.435 10.435 0 0 0 5.2 3.029 27.584 27.584 0 0 1 2.1-17.9 25.881 25.881 0 0 1 8.261-9.6c-1.201 8.951 3.371 12.401 8.325 18.635zm-11.545 11.99a10.035 10.035 0 0 0 -3.2 3.719 10.692 10.692 0 0 0 -.815 6.938 4.056 4.056 0 0 1 -2.014-1.179 4.534 4.534 0 0 1 -1.086-3.442c-1.7 2.748-2.546 6.413-1.106 9.471 3.046 6.477 12.221 4.277 13.053-2.553a7.827 7.827 0 0 0 -1.6-5.736c-1.919-2.413-3.689-3.752-3.227-7.217z" fill="none" stroke="#fff" stroke-linecap="round" stroke-linejoin="round" transform="translate(-1.803 -2)"/></svg>