<svg xmlns="http://www.w3.org/2000/svg" width="36.938" height="51.044" viewBox="0 0 36.938 51.044">
    <g id="prefix__Capa_2" data-name="Capa 2" transform="translate(.701 .5)">
        <g id="prefix__Capa_2-2" data-name="Capa 2">
            <path id="prefix__Trazado_615" d="M33.945 21.126a20.194 20.194 0 0 1 4.141 14.807C35.939 53.556 12.265 59.221 4.4 42.514.683 34.624 2.856 25.17 7.259 18.078a11.781 11.781 0 0 0 2.8 8.884 10.435 10.435 0 0 0 5.2 3.029 27.584 27.584 0 0 1 2.1-17.9 25.881 25.881 0 0 1 8.261-9.6c-1.201 8.951 3.371 12.401 8.325 18.635zM22.4 33.116a10.035 10.035 0 0 0-3.2 3.719 10.692 10.692 0 0 0-.815 6.938 4.056 4.056 0 0 1-2.014-1.179 4.534 4.534 0 0 1-1.086-3.442c-1.7 2.748-2.546 6.413-1.106 9.471C17.225 55.1 26.4 52.9 27.232 46.07a7.827 7.827 0 0 0-1.6-5.736c-1.919-2.413-3.689-3.752-3.227-7.217z" data-name="Trazado 615" transform="translate(-2.504 -2.5)" style="fill:none;stroke:#fff;stroke-linecap:round;stroke-linejoin:round"/>
        </g>
    </g>
</svg>
