<svg xmlns="http://www.w3.org/2000/svg" width="43.258" height="51" viewBox="0 0 43.258 51">
    <g id="prefix__Capa_2" data-name="Capa 2" transform="translate(.5 .5)">
        <g id="prefix__Capa_2-2" data-name="Capa 2">
            <path id="prefix__Trazado_619" d="M32.7 48.479H5.3a2.842 2.842 0 0 1-2.8-2.885V18.581A2.842 2.842 0 0 1 5.3 15.7h27.4a2.842 2.842 0 0 1 2.8 2.885v27.009a2.842 2.842 0 0 1-2.8 2.885zM31.449 52.5zm-7.991-50a4.483 4.483 0 0 1-8.918 0h-7.1v12.99h23.1V2.5zm20.66 27.612c-4.8-1.392 4.784-14.344-1.216-21.3s-12.327.085-12.327.085" data-name="Trazado 619" transform="translate(-2.5 -2.5)" style="fill:none;stroke:#fff;stroke-linecap:round;stroke-linejoin:round"/>
        </g>
    </g>
</svg>
