<svg height="59.73" viewBox="0 0 65.757 59.73" width="65.757" xmlns="http://www.w3.org/2000/svg"><path d="m19.252 42.739c-1.709-7.813 4.635-15.159 8.27-21.456l6.578-11.403 6.59 11.414c3.634 6.3 9.985 13.644 8.27 21.456-1.5 6.839-7.988 11.48-14.866 11.507-6.854-.038-13.355-4.68-14.842-11.518zm16.792 5.083a8.56 8.56 0 0 0 8.56-8.56m-10.536-22.189-8.534 14.168m36.926-5.241a28.845 28.845 0 0 0 -56.718 0m0 10.584a28.845 28.845 0 0 0 56.718 0m-59.96-14.35 2.9 4.629 4.629-2.9m55.471 16.637-2.9-4.629-4.629 2.9" fill="none" stroke="#94e538" stroke-linecap="round" stroke-linejoin="round" stroke-width="2" transform="translate(-1.122 -1.431)"/></svg>