<svg xmlns="http://www.w3.org/2000/svg" width="65.757" height="59.73" viewBox="0 0 65.757 59.73">
    <g id="prefix__Capa_2" data-name="Capa 2" transform="translate(1.378 1)">
        <g id="prefix__Capa_2-2" data-name="Capa 2">
            <path id="prefix__Trazado_640" d="M19.252 42.739c-1.709-7.813 4.635-15.159 8.27-21.456L34.1 9.88l6.59 11.414c3.634 6.3 9.985 13.644 8.27 21.456-1.5 6.839-7.988 11.48-14.866 11.507-6.854-.038-13.355-4.68-14.842-11.518zm16.792 5.083a8.56 8.56 0 0 0 8.56-8.56M34.068 17.073l-8.534 14.168M62.46 26a28.845 28.845 0 0 0-56.718 0m0 10.584a28.845 28.845 0 0 0 56.718 0M2.5 22.234l2.9 4.629 4.629-2.9M65.5 40.6l-2.9-4.629-4.629 2.9" data-name="Trazado 640" transform="translate(-2.5 -2.431)" style="fill:none;stroke:#94e538;stroke-linecap:round;stroke-linejoin:round;stroke-width:2px"/>
        </g>
    </g>
</svg>
