<svg xmlns="http://www.w3.org/2000/svg" width="53.624" height="51.202" viewBox="0 0 53.624 51.202">
  <g id="Capa_2" data-name="Capa 2" transform="translate(0.354 0.702)">
    <path id="Trazado_625" data-name="Trazado 625" d="M45.371,18.2V49.789A2.711,2.711,0,0,1,42.66,52.5H37.886a2.711,2.711,0,0,1-2.713-2.711V34.8a2.713,2.713,0,0,0-2.713-2.713h-7.9A2.713,2.713,0,0,0,21.85,34.8V49.789A2.711,2.711,0,0,1,19.137,52.5H14.358a2.711,2.711,0,0,1-2.713-2.711V18.2m43.041,9.582L30.233,3.33a2.835,2.835,0,0,0-4.009,0L1.77,27.784M28.228,15.758c-3.037,0-5.5,1.777-5.5,3.969s2.459,3.969,5.5,3.969,5.5-1.777,5.5-3.969S31.263,15.758,28.228,15.758Z" transform="translate(-1.77 -2.5)" fill="none" stroke="#fff" stroke-miterlimit="10" stroke-width="1"/>
  </g>
</svg>
