<svg xmlns="http://www.w3.org/2000/svg" width="51.088" height="34.574" viewBox="0 0 51.088 34.574">
  <g id="Grupo_190" data-name="Grupo 190" transform="translate(-8.005 -29.368)">
    <g id="fire_1_" data-name="fire (1)" transform="translate(8.005 44.729)">
      <g id="Grupo_56" data-name="Grupo 56" transform="translate(0 0)">
        <path id="Trazado_280" data-name="Trazado 280" d="M76.362,9.823l-.012-.161A9.726,9.726,0,0,0,74,4.3C73.068,3.037,72.26,1.949,72.26.344a.344.344,0,0,0-.187-.306.34.34,0,0,0-.357.026,8.744,8.744,0,0,0-3.227,4.665,15.227,15.227,0,0,0-.354,3.487c-1.4-.3-1.72-2.4-1.723-2.42a.344.344,0,0,0-.49-.261c-.074.036-1.8.915-1.905,4.428-.007.117-.007.234-.007.351a6.188,6.188,0,1,0,12.376,0C76.385,10.142,76.373,9.982,76.362,9.823ZM70.2,15.814a2.136,2.136,0,0,1-2.063-2.2c0-.041,0-.083,0-.134a2.787,2.787,0,0,1,.217-1.092,1.256,1.256,0,0,0,1.135.822.344.344,0,0,0,.344-.344,6.878,6.878,0,0,1,.132-1.564,3.323,3.323,0,0,1,.7-1.318,4.43,4.43,0,0,0,.709,1.3,3.917,3.917,0,0,1,.881,2.147c0,.059.009.119.009.182A2.136,2.136,0,0,1,70.2,15.814Zm2.173-.449a2.946,2.946,0,0,0,.578-1.748c0-.081-.005-.156-.015-.3a4.5,4.5,0,0,0-1-2.428,2.729,2.729,0,0,1-.684-1.61.344.344,0,0,0-.551-.274,4.016,4.016,0,0,0-1.4,2.138,6.293,6.293,0,0,0-.144,1.22,1.633,1.633,0,0,1-.313-.738.345.345,0,0,0-.5-.26c-.087.044-.848.481-.891,2.086,0,.054,0,.109,0,.163a2.946,2.946,0,0,0,.578,1.748A5.508,5.508,0,0,1,64.7,10.313c0-.1,0-.206.007-.32a5.153,5.153,0,0,1,1.149-3.533c.3,1.074,1.086,2.479,2.626,2.479a.344.344,0,0,0,.344-.344,15.349,15.349,0,0,1,.333-3.7,8.158,8.158,0,0,1,2.46-3.877,7.844,7.844,0,0,0,1.837,3.687,9.031,9.031,0,0,1,2.212,5l.012.164c.011.143.022.286.022.439A5.508,5.508,0,0,1,72.37,15.365Z" transform="translate(-64.009 0.001)" fill="#94e538"/>
      </g>
    </g>
    <g id="handwash" transform="translate(24.519 29.368)">
      <path id="Trazado_281" data-name="Trazado 281" d="M334.2,210.446c-.022.032-.534.793-1.054,1.706a6.373,6.373,0,0,0-1.145,2.98,3.039,3.039,0,1,0,6.077,0,6.373,6.373,0,0,0-1.145-2.98c-.52-.913-1.032-1.674-1.054-1.706a1.013,1.013,0,0,0-1.679,0Zm.84,2.473a7.841,7.841,0,0,1,1.013,2.213,1.013,1.013,0,0,1-2.026,0A7.849,7.849,0,0,1,335.039,212.919Z" transform="translate(-309.581 -195.819)" fill="#94e538"/>
      <path id="Trazado_282" data-name="Trazado 282" d="M1.013,327.248H4.905a21.613,21.613,0,0,1,5.87,1.47,23.434,23.434,0,0,0,6.824,1.635l3.831,0c3.927,0,7.44-1.891,10.159-5.467,1.521-2,2.984-5.066,2.984-5.842a1.544,1.544,0,0,0-1.564-1.66c-.791,0-1.752.523-3.118,1.694a39.731,39.731,0,0,0-3.251,3.222,2.554,2.554,0,0,1-.534.443,1.779,1.779,0,0,0,.066-.48c0-.916-.687-1.613-2.043-2.072a16.756,16.756,0,0,0-3.274-.652,21.2,21.2,0,0,1-6.111-1.824,6.035,6.035,0,0,0-2.455-.516,6.708,6.708,0,0,0-3.427.974,6.9,6.9,0,0,1-3.7.97H1.013A1.013,1.013,0,0,0,0,320.158v6.077a1.013,1.013,0,0,0,1.013,1.013Zm1.013-6.077H5.162a8.923,8.923,0,0,0,4.638-1.2,4.829,4.829,0,0,1,2.491-.745,4.02,4.02,0,0,1,1.636.344,23.131,23.131,0,0,0,6.693,1.983,10.658,10.658,0,0,1,3.339.752,9,9,0,0,1-3.281.736c-1.317.131-2.573.152-3.079.155H16.342a1.013,1.013,0,1,0,0,2.026h8.071a4.956,4.956,0,0,0,3.722-1.553,27.327,27.327,0,0,1,4.058-3.823,18.419,18.419,0,0,1-2.384,4.032c-2.326,2.953-5.145,4.453-8.378,4.453l-3.831,0a22.294,22.294,0,0,1-6.172-1.529,22.319,22.319,0,0,0-6.523-1.577H2.026Z" transform="translate(0 -295.78)" fill="#94e538"/>
      <path id="Trazado_283" data-name="Trazado 283" d="M1.013,12.155h7.4a3.044,3.044,0,0,0,2.865,2.026h4.052a3.044,3.044,0,0,0,2.865-2.026h3.213a1.014,1.014,0,0,1,1.013,1.013,1.013,1.013,0,0,0,1.013,1.013h4.052A1.013,1.013,0,0,0,28.5,13.168a7.1,7.1,0,0,0-7.09-7.09H18.193a3.043,3.043,0,0,0-2.865-2.026H14.316V2.026h3.039a1.013,1.013,0,0,0,0-2.026h-8.1a1.013,1.013,0,0,0,0,2.026H12.29V4.052H11.277A3.043,3.043,0,0,0,8.413,6.077h-7.4A1.013,1.013,0,0,0,0,7.09v4.052A1.013,1.013,0,0,0,1.013,12.155Zm25.356,0h-2.1a3.044,3.044,0,0,0-2.865-2.026H18.367V8.1h3.039a5.073,5.073,0,0,1,4.963,4.052ZM11.277,6.077h4.052A1.014,1.014,0,0,1,16.342,7.09v4.052a1.014,1.014,0,0,1-1.013,1.013H11.277a1.014,1.014,0,0,1-1.013-1.013V7.09A1.014,1.014,0,0,1,11.277,6.077ZM2.026,8.1H8.238v2.026H2.026Z" fill="#94e538"/>
    </g>
  </g>
</svg>
