<svg height="31.324" viewBox="0 0 55.19 31.324" width="55.19" xmlns="http://www.w3.org/2000/svg"><g fill="#323232"><path d="m82.911 15.032-.018-.247c-.293-3.766-2.042-6.127-3.593-8.209-1.432-1.928-2.669-3.593-2.669-6.05a.527.527 0 0 0 -.286-.468.521.521 0 0 0 -.545.042 13.38 13.38 0 0 0 -4.939 7.138 23.3 23.3 0 0 0 -.541 5.336c-2.145-.458-2.631-3.668-2.636-3.7a.526.526 0 0 0 -.751-.4c-.112.054-2.761 1.4-2.915 6.775-.011.179-.011.358-.011.537a9.469 9.469 0 0 0 18.938 0c.002-.266-.016-.51-.034-.754zm-9.433 9.168a3.268 3.268 0 0 1 -3.156-3.362c0-.063 0-.127 0-.2a4.265 4.265 0 0 1 .332-1.671 1.922 1.922 0 0 0 1.746 1.252.526.526 0 0 0 .526-.526 10.524 10.524 0 0 1 .2-2.393 5.084 5.084 0 0 1 1.065-2.017 6.779 6.779 0 0 0 1.085 1.99 5.994 5.994 0 0 1 1.349 3.285c.007.09.013.181.013.279a3.268 3.268 0 0 1 -3.16 3.363zm3.325-.687a4.508 4.508 0 0 0 .884-2.675c0-.124-.008-.239-.023-.454a6.888 6.888 0 0 0 -1.53-3.715 4.176 4.176 0 0 1 -1.047-2.469.526.526 0 0 0 -.843-.42 6.146 6.146 0 0 0 -2.144 3.275 9.631 9.631 0 0 0 -.221 1.867 2.5 2.5 0 0 1 -.479-1.13.527.527 0 0 0 -.761-.4c-.133.068-1.3.736-1.364 3.192 0 .083-.005.166-.005.249a4.508 4.508 0 0 0 .884 2.675 8.428 8.428 0 0 1 -5.092-7.73c0-.158 0-.315.01-.49.09-3.153 1.1-4.717 1.758-5.407.459 1.644 1.662 3.793 4.018 3.793a.526.526 0 0 0 .526-.526 23.487 23.487 0 0 1 .51-5.658 12.483 12.483 0 0 1 3.765-5.932c.293 2.257 1.521 3.909 2.811 5.642 1.534 2.064 3.119 4.2 3.384 7.655l.018.252c.016.219.033.437.033.672a8.428 8.428 0 0 1 -5.095 7.733z" transform="translate(-64.009 3.187)"/><circle cx="41.73" cy="30.101" r="1.224"/><circle cx="41.73" cy="25.818" r="1.224"/><circle cx="46.625" cy="30.101" r="1.224"/><circle cx="41.73" cy="21.414" r="1.224"/><circle cx="36.836" cy="30.101" r="1.224"/><circle cx="36.836" cy="25.818" r="1.224"/><circle cx="36.836" cy="21.414" r="1.224"/><circle cx="51.519" cy="21.414" r="1.224"/><circle cx="51.519" cy="25.818" r="1.224"/><path d="m30.042 13.109a6.556 6.556 0 0 0 -5.509-2.821h-3.1a10.725 10.725 0 0 0 -18.28-6.636 10.661 10.661 0 0 0 -3.153 7.584v20.587h2.447v-20.587a8.29 8.29 0 0 1 16.525-.948h-3a6.566 6.566 0 0 0 -5.6 3 7.479 7.479 0 0 0 -1.248 4.181v1.384h22.27v-1.422a7.456 7.456 0 0 0 -1.352-4.322zm-18.373 3.3a4.909 4.909 0 0 1 .728-1.755 4.082 4.082 0 0 1 3.571-1.916h8.565a4.066 4.066 0 0 1 3.508 1.783 4.893 4.893 0 0 1 .8 1.888z" transform="translate(23.804 -.499)"/><circle cx="51.519" cy="30.101" r="1.224"/><circle cx="46.625" cy="25.818" r="1.224"/><circle cx="46.625" cy="21.414" r="1.224"/><path d="m82.911 15.032-.018-.247c-.293-3.766-2.042-6.127-3.593-8.209-1.432-1.928-2.669-3.593-2.669-6.05a.527.527 0 0 0 -.286-.468.521.521 0 0 0 -.545.042 13.38 13.38 0 0 0 -4.939 7.138 23.3 23.3 0 0 0 -.541 5.336c-2.145-.458-2.631-3.668-2.636-3.7a.526.526 0 0 0 -.751-.4c-.112.054-2.761 1.4-2.915 6.775-.011.179-.011.358-.011.537a9.469 9.469 0 0 0 18.938 0c.002-.266-.016-.51-.034-.754zm-9.433 9.168a3.268 3.268 0 0 1 -3.156-3.362c0-.063 0-.127 0-.2a4.265 4.265 0 0 1 .332-1.671 1.922 1.922 0 0 0 1.746 1.252.526.526 0 0 0 .526-.526 10.524 10.524 0 0 1 .2-2.393 5.084 5.084 0 0 1 1.065-2.017 6.779 6.779 0 0 0 1.085 1.99 5.994 5.994 0 0 1 1.349 3.285c.007.09.013.181.013.279a3.268 3.268 0 0 1 -3.16 3.363zm3.325-.687a4.508 4.508 0 0 0 .884-2.675c0-.124-.008-.239-.023-.454a6.888 6.888 0 0 0 -1.53-3.715 4.176 4.176 0 0 1 -1.047-2.469.526.526 0 0 0 -.843-.42 6.146 6.146 0 0 0 -2.144 3.275 9.631 9.631 0 0 0 -.221 1.867 2.5 2.5 0 0 1 -.479-1.13.527.527 0 0 0 -.761-.4c-.133.068-1.3.736-1.364 3.192 0 .083-.005.166-.005.249a4.508 4.508 0 0 0 .884 2.675 8.428 8.428 0 0 1 -5.092-7.73c0-.158 0-.315.01-.49.09-3.153 1.1-4.717 1.758-5.407.459 1.644 1.662 3.793 4.018 3.793a.526.526 0 0 0 .526-.526 23.487 23.487 0 0 1 .51-5.658 12.483 12.483 0 0 1 3.765-5.932c.293 2.257 1.521 3.909 2.811 5.642 1.534 2.064 3.119 4.2 3.384 7.655l.018.252c.016.219.033.437.033.672a8.428 8.428 0 0 1 -5.095 7.733z" transform="translate(-64.009 3.187)"/></g></svg>