<svg height="31.758" viewBox="0 0 74.813 31.758" width="74.813" xmlns="http://www.w3.org/2000/svg"><g fill="#323232"><path d="m83.173 15.24-.018-.251c-.293-3.818-2.071-6.211-3.639-8.322-1.452-1.955-2.707-3.643-2.707-6.134a.534.534 0 0 0 -.29-.475.528.528 0 0 0 -.553.042 13.565 13.565 0 0 0 -5.007 7.237 23.624 23.624 0 0 0 -.548 5.41c-2.175-.465-2.668-3.718-2.673-3.754a.533.533 0 0 0 -.761-.4c-.114.055-2.8 1.42-2.956 6.869-.011.181-.011.363-.011.544a9.6 9.6 0 1 0 19.2 0c0-.271-.019-.519-.037-.766zm-9.564 9.295a3.313 3.313 0 0 1 -3.2-3.409c0-.064 0-.129 0-.208a4.324 4.324 0 0 1 .337-1.694 1.948 1.948 0 0 0 1.765 1.276.533.533 0 0 0 .533-.533 10.67 10.67 0 0 1 .2-2.426 5.154 5.154 0 0 1 1.08-2.045 6.873 6.873 0 0 0 1.1 2.017 6.077 6.077 0 0 1 1.367 3.33c.007.092.014.184.014.283a3.313 3.313 0 0 1 -3.196 3.408zm3.371-.7a4.57 4.57 0 0 0 .9-2.712c0-.126-.008-.242-.023-.46a6.983 6.983 0 0 0 -1.557-3.763 4.233 4.233 0 0 1 -1.06-2.5.533.533 0 0 0 -.855-.426 6.231 6.231 0 0 0 -2.174 3.316 9.763 9.763 0 0 0 -.224 1.893 2.533 2.533 0 0 1 -.485-1.145.535.535 0 0 0 -.772-.4c-.134.069-1.315.746-1.383 3.237 0 .084-.005.169-.005.253a4.57 4.57 0 0 0 .9 2.712 8.545 8.545 0 0 1 -5.166-7.84c0-.16 0-.319.01-.5.092-3.2 1.115-4.782 1.782-5.482.466 1.667 1.685 3.845 4.074 3.845a.533.533 0 0 0 .533-.533 23.812 23.812 0 0 1 .518-5.73 12.656 12.656 0 0 1 3.817-6.016c.3 2.284 1.542 3.96 2.85 5.719 1.555 2.093 3.162 4.257 3.431 7.761l.018.255c.017.222.034.443.034.681a8.545 8.545 0 0 1 -5.163 7.837z" transform="translate(-45.15 3.231)"/><circle cx="61.168" cy="30.518" r="1.241"/><circle cx="61.168" cy="26.176" r="1.241"/><circle cx="66.13" cy="30.518" r="1.241"/><circle cx="61.168" cy="21.71" r="1.241"/><circle cx="56.205" cy="30.518" r="1.241"/><circle cx="56.205" cy="26.176" r="1.241"/><circle cx="56.205" cy="21.71" r="1.241"/><circle cx="71.092" cy="21.71" r="1.241"/><circle cx="71.092" cy="26.176" r="1.241"/><path d="m30.458 13.283a6.646 6.646 0 0 0 -5.585-2.86h-3.144a10.873 10.873 0 0 0 -18.529-6.723 10.808 10.808 0 0 0 -3.2 7.685v20.872h2.481v-20.872a8.4 8.4 0 0 1 16.754-.961h-3.046a6.657 6.657 0 0 0 -5.682 3.042 7.582 7.582 0 0 0 -1.265 4.234v1.4h22.578v-1.435a7.559 7.559 0 0 0 -1.362-4.382zm-18.627 3.343a4.977 4.977 0 0 1 .738-1.78 4.139 4.139 0 0 1 3.62-1.942h8.684a4.122 4.122 0 0 1 3.557 1.807 4.96 4.96 0 0 1 .81 1.914z" transform="translate(42.993 -.499)"/><circle cx="71.092" cy="30.518" r="1.241"/><circle cx="66.13" cy="26.176" r="1.241"/><circle cx="66.13" cy="21.71" r="1.241"/><path d="m10.6 13.856h1.627a.7.7 0 0 0 .7-.7v-1.89a.93.93 0 0 0 .7-.9v-.474a2.56 2.56 0 0 0 2.325-2.546v-1.859a.7.7 0 0 0 -.7-.7h-.232v-1.857a.93.93 0 0 0 -1.86 0v1.86h-.93v-1.86a.93.93 0 1 0 -1.86 0v1.86h-.232a.7.7 0 0 0 -.7.7v1.86a2.56 2.56 0 0 0 2.325 2.546v.477a.93.93 0 0 0 .7.9v1.892a.232.232 0 0 1 -.232.232h-1.631a.7.7 0 0 0 -.674.869.71.71 0 0 0 .7.525h4.624a.232.232 0 0 1 .232.232v.232a.232.232 0 0 1 -.232.232h-8.368a1.629 1.629 0 0 1 -1.627-1.627v-4.421h2.092a.7.7 0 0 0 .7-.7v-6.039a.7.7 0 0 0 -.7-.7h-4.647a.7.7 0 0 0 -.7.7v6.042a.7.7 0 0 0 .7.7h2.09v4.417a2.1 2.1 0 0 0 2.092 2.092h8.369a.7.7 0 0 0 .7-.7v-.232a.7.7 0 0 0 -.7-.7h-4.624a.256.256 0 0 1 -.251-.174.224.224 0 0 1 .065-.223.216.216 0 0 1 .159-.066zm3.023-10.926a.465.465 0 1 1 .93 0v2.557h-.93zm-2.79 0a.465.465 0 0 1 .93 0v2.557h-.93zm.932 6.5a2.092 2.092 0 0 1 -1.865-2.083v-1.86a.232.232 0 0 1 .232-.232h.232v.465a.232.232 0 0 0 .232.232h1.404a.232.232 0 0 0 .232-.232v-.465h.93v.465a.232.232 0 0 0 .232.232h1.395a.232.232 0 0 0 .232-.232v-.465h.232a.232.232 0 0 1 .232.232v1.86a2.092 2.092 0 0 1 -1.862 2.078.928.928 0 0 0 -1.855 0zm.463.944v-.93a.465.465 0 1 1 .93 0v.93a.465.465 0 1 1 -.93 0zm-9.528-1.4a.232.232 0 0 1 -.232-.232v-6.042a.232.232 0 0 1 .232-.235h4.647a.232.232 0 0 1 .232.232v6.045a.232.232 0 0 1 -.232.232z" transform="translate(-2 12.876)"/><path d="m11.222 8.97a.232.232 0 0 0 -.2-.109h-1.16v-1.628a.232.232 0 0 0 -.179-.225.229.229 0 0 0 -.26.121l-1.395 2.789a.232.232 0 0 0 .207.337h1.165v1.627a.232.232 0 0 0 .179.225.211.211 0 0 0 .053.007.232.232 0 0 0 .207-.128l1.392-2.786a.234.234 0 0 0 -.009-.228zm-1.36 1.93v-.874a.232.232 0 0 0 -.232-.236h-1.019l.789-1.571v.874a.232.232 0 0 0 .232.232h1.018z" transform="translate(-6.608 9.038)"/></g></svg>