<svg xmlns="http://www.w3.org/2000/svg" width="55.19" height="31.324" viewBox="0 0 55.19 31.324">
  <g id="Grupo_970" data-name="Grupo 970" transform="translate(-945.712 -275.371)">
    <g id="Grupo_191" data-name="Grupo 191" transform="translate(938.5 248)">
      <g id="fire_1_" data-name="fire (1)" transform="translate(7.212 30.557)">
        <g id="Grupo_56" data-name="Grupo 56" transform="translate(0 0)">
          <path id="Trazado_280" data-name="Trazado 280" d="M82.911,15.032l-.018-.247C82.6,11.019,80.851,8.658,79.3,6.576c-1.432-1.928-2.669-3.593-2.669-6.05a.527.527,0,0,0-.286-.468A.521.521,0,0,0,75.8.1a13.38,13.38,0,0,0-4.939,7.138,23.3,23.3,0,0,0-.541,5.336c-2.145-.458-2.631-3.668-2.636-3.7a.526.526,0,0,0-.751-.4c-.112.054-2.761,1.4-2.915,6.775-.011.179-.011.358-.011.537a9.469,9.469,0,0,0,18.938,0C82.947,15.52,82.929,15.276,82.911,15.032ZM73.478,24.2a3.268,3.268,0,0,1-3.156-3.362c0-.063,0-.127,0-.2a4.265,4.265,0,0,1,.332-1.671A1.922,1.922,0,0,0,72.4,20.219a.526.526,0,0,0,.526-.526,10.524,10.524,0,0,1,.2-2.393,5.084,5.084,0,0,1,1.065-2.017,6.779,6.779,0,0,0,1.085,1.99,5.994,5.994,0,0,1,1.349,3.285c.007.09.013.181.013.279A3.268,3.268,0,0,1,73.478,24.2Zm3.325-.687a4.508,4.508,0,0,0,.884-2.675c0-.124-.008-.239-.023-.454a6.888,6.888,0,0,0-1.53-3.715A4.176,4.176,0,0,1,75.087,14.2a.526.526,0,0,0-.843-.42A6.146,6.146,0,0,0,72.1,17.055a9.631,9.631,0,0,0-.221,1.867,2.5,2.5,0,0,1-.479-1.13.527.527,0,0,0-.761-.4c-.133.068-1.3.736-1.364,3.192,0,.083-.005.166-.005.249a4.508,4.508,0,0,0,.884,2.675,8.428,8.428,0,0,1-5.092-7.73c0-.158,0-.315.01-.49.09-3.153,1.1-4.717,1.758-5.407.459,1.644,1.662,3.793,4.018,3.793a.526.526,0,0,0,.526-.526,23.487,23.487,0,0,1,.51-5.658,12.483,12.483,0,0,1,3.765-5.932C75.942,3.815,77.17,5.467,78.46,7.2c1.534,2.064,3.119,4.2,3.384,7.655l.018.252c.016.219.033.437.033.672A8.428,8.428,0,0,1,76.8,23.512Z" transform="translate(-64.009 0.001)" fill="#323232"/>
        </g>
      </g>
      <g id="shower" transform="translate(31.016 27.371)">
        <g id="Grupo_58" data-name="Grupo 58" transform="translate(0 0)">
          <g id="Grupo_57" data-name="Grupo 57">
            <circle id="Elipse_32" data-name="Elipse 32" cx="1.224" cy="1.224" r="1.224" transform="translate(16.702 28.877)" fill="#323232"/>
            <circle id="Elipse_33" data-name="Elipse 33" cx="1.224" cy="1.224" r="1.224" transform="translate(16.702 24.594)" fill="#323232"/>
            <circle id="Elipse_34" data-name="Elipse 34" cx="1.224" cy="1.224" r="1.224" transform="translate(21.597 28.877)" fill="#323232"/>
            <circle id="Elipse_35" data-name="Elipse 35" cx="1.224" cy="1.224" r="1.224" transform="translate(16.702 20.19)" fill="#323232"/>
            <circle id="Elipse_36" data-name="Elipse 36" cx="1.224" cy="1.224" r="1.224" transform="translate(11.808 28.877)" fill="#323232"/>
            <circle id="Elipse_37" data-name="Elipse 37" cx="1.224" cy="1.224" r="1.224" transform="translate(11.808 24.594)" fill="#323232"/>
            <circle id="Elipse_38" data-name="Elipse 38" cx="1.224" cy="1.224" r="1.224" transform="translate(11.808 20.19)" fill="#323232"/>
            <circle id="Elipse_39" data-name="Elipse 39" cx="1.224" cy="1.224" r="1.224" transform="translate(26.491 20.19)" fill="#323232"/>
            <circle id="Elipse_40" data-name="Elipse 40" cx="1.224" cy="1.224" r="1.224" transform="translate(26.491 24.594)" fill="#323232"/>
            <path id="Trazado_284" data-name="Trazado 284" d="M30.042,13.109a6.556,6.556,0,0,0-5.509-2.821h-3.1A10.725,10.725,0,0,0,3.153,3.652,10.661,10.661,0,0,0,0,11.236V31.823H2.447V11.236a8.29,8.29,0,0,1,16.525-.948h-3a6.566,6.566,0,0,0-5.6,3,7.479,7.479,0,0,0-1.248,4.181v1.384h22.27V17.431A7.456,7.456,0,0,0,30.042,13.109Zm-18.373,3.3a4.909,4.909,0,0,1,.728-1.755,4.082,4.082,0,0,1,3.571-1.916h8.565a4.066,4.066,0,0,1,3.508,1.783,4.893,4.893,0,0,1,.8,1.888Z" transform="translate(0 -0.499)" fill="#323232"/>
            <circle id="Elipse_41" data-name="Elipse 41" cx="1.224" cy="1.224" r="1.224" transform="translate(26.491 28.877)" fill="#323232"/>
            <circle id="Elipse_42" data-name="Elipse 42" cx="1.224" cy="1.224" r="1.224" transform="translate(21.597 24.594)" fill="#323232"/>
            <circle id="Elipse_43" data-name="Elipse 43" cx="1.224" cy="1.224" r="1.224" transform="translate(21.597 20.19)" fill="#323232"/>
          </g>
        </g>
      </g>
      <g id="fire_1_2" data-name="fire (1)" transform="translate(7.212 30.557)">
        <g id="Grupo_56-2" data-name="Grupo 56" transform="translate(0 0)">
          <path id="Trazado_280-2" data-name="Trazado 280" d="M82.911,15.032l-.018-.247C82.6,11.019,80.851,8.658,79.3,6.576c-1.432-1.928-2.669-3.593-2.669-6.05a.527.527,0,0,0-.286-.468A.521.521,0,0,0,75.8.1a13.38,13.38,0,0,0-4.939,7.138,23.3,23.3,0,0,0-.541,5.336c-2.145-.458-2.631-3.668-2.636-3.7a.526.526,0,0,0-.751-.4c-.112.054-2.761,1.4-2.915,6.775-.011.179-.011.358-.011.537a9.469,9.469,0,0,0,18.938,0C82.947,15.52,82.929,15.276,82.911,15.032ZM73.478,24.2a3.268,3.268,0,0,1-3.156-3.362c0-.063,0-.127,0-.2a4.265,4.265,0,0,1,.332-1.671A1.922,1.922,0,0,0,72.4,20.219a.526.526,0,0,0,.526-.526,10.524,10.524,0,0,1,.2-2.393,5.084,5.084,0,0,1,1.065-2.017,6.779,6.779,0,0,0,1.085,1.99,5.994,5.994,0,0,1,1.349,3.285c.007.09.013.181.013.279A3.268,3.268,0,0,1,73.478,24.2Zm3.325-.687a4.508,4.508,0,0,0,.884-2.675c0-.124-.008-.239-.023-.454a6.888,6.888,0,0,0-1.53-3.715A4.176,4.176,0,0,1,75.087,14.2a.526.526,0,0,0-.843-.42A6.146,6.146,0,0,0,72.1,17.055a9.631,9.631,0,0,0-.221,1.867,2.5,2.5,0,0,1-.479-1.13.527.527,0,0,0-.761-.4c-.133.068-1.3.736-1.364,3.192,0,.083-.005.166-.005.249a4.508,4.508,0,0,0,.884,2.675,8.428,8.428,0,0,1-5.092-7.73c0-.158,0-.315.01-.49.09-3.153,1.1-4.717,1.758-5.407.459,1.644,1.662,3.793,4.018,3.793a.526.526,0,0,0,.526-.526,23.487,23.487,0,0,1,.51-5.658,12.483,12.483,0,0,1,3.765-5.932C75.942,3.815,77.17,5.467,78.46,7.2c1.534,2.064,3.119,4.2,3.384,7.655l.018.252c.016.219.033.437.033.672A8.428,8.428,0,0,1,76.8,23.512Z" transform="translate(-64.009 0.001)" fill="#323232"/>
        </g>
      </g>
    </g>
  </g>
</svg>
