<svg id="Grupo_490" data-name="Grupo 490" xmlns="http://www.w3.org/2000/svg" width="81.891" height="30.08" viewBox="0 0 81.891 30.08">
  <g id="fire_1_" data-name="fire (1)" transform="translate(28.893 3.06)">
    <g id="Grupo_56" data-name="Grupo 56" transform="translate(0 0)">
      <path id="Trazado_280" data-name="Trazado 280" d="M82.161,14.434l-.017-.237c-.278-3.616-1.961-5.883-3.447-7.882-1.375-1.851-2.563-3.45-2.563-5.809a.506.506,0,0,0-.274-.449.5.5,0,0,0-.525.039,12.849,12.849,0,0,0-4.742,6.854,22.375,22.375,0,0,0-.519,5.124c-2.06-.44-2.527-3.522-2.532-3.555a.505.505,0,0,0-.721-.383c-.108.052-2.652,1.345-2.8,6.506-.01.172-.011.343-.011.516a9.093,9.093,0,0,0,18.186,0C82.2,14.9,82.178,14.669,82.161,14.434Zm-9.059,8.8a3.138,3.138,0,0,1-3.031-3.229c0-.061,0-.122,0-.2a4.1,4.1,0,0,1,.319-1.6,1.845,1.845,0,0,0,1.668,1.208.5.5,0,0,0,.505-.505,10.106,10.106,0,0,1,.194-2.3,4.882,4.882,0,0,1,1.023-1.937,6.51,6.51,0,0,0,1.041,1.911,5.756,5.756,0,0,1,1.295,3.154c.006.087.013.174.013.268A3.138,3.138,0,0,1,73.1,23.238Zm3.193-.66a4.329,4.329,0,0,0,.849-2.569c0-.119-.007-.229-.022-.436a6.614,6.614,0,0,0-1.47-3.568,4.01,4.01,0,0,1-1-2.366.505.505,0,0,0-.81-.4,5.9,5.9,0,0,0-2.059,3.141,9.248,9.248,0,0,0-.212,1.793,2.4,2.4,0,0,1-.46-1.085.506.506,0,0,0-.731-.381c-.127.065-1.246.706-1.31,3.066,0,.08,0,.16,0,.239a4.329,4.329,0,0,0,.849,2.569,8.093,8.093,0,0,1-4.89-7.423c0-.151,0-.3.01-.471.087-3.028,1.056-4.53,1.688-5.192.441,1.579,1.6,3.642,3.859,3.642a.5.5,0,0,0,.505-.505,22.554,22.554,0,0,1,.49-5.433,11.987,11.987,0,0,1,3.615-5.7c.282,2.164,1.46,3.75,2.7,5.417,1.473,1.982,3,4.032,3.25,7.351l.017.242c.016.21.032.42.032.645A8.093,8.093,0,0,1,76.295,22.578Z" transform="translate(-64.009 0.001)" fill="#323232"/>
    </g>
  </g>
  <g id="shower" transform="translate(51.752 0)">
    <g id="Grupo_58" data-name="Grupo 58">
      <g id="Grupo_57" data-name="Grupo 57">
        <circle id="Elipse_32" data-name="Elipse 32" cx="1.175" cy="1.175" r="1.175" transform="translate(16.039 27.73)" fill="#323232"/>
        <circle id="Elipse_33" data-name="Elipse 33" cx="1.175" cy="1.175" r="1.175" transform="translate(16.039 23.618)" fill="#323232"/>
        <circle id="Elipse_34" data-name="Elipse 34" cx="1.175" cy="1.175" r="1.175" transform="translate(20.739 27.73)" fill="#323232"/>
        <circle id="Elipse_35" data-name="Elipse 35" cx="1.175" cy="1.175" r="1.175" transform="translate(16.039 19.388)" fill="#323232"/>
        <circle id="Elipse_36" data-name="Elipse 36" cx="1.175" cy="1.175" r="1.175" transform="translate(11.339 27.73)" fill="#323232"/>
        <circle id="Elipse_37" data-name="Elipse 37" cx="1.175" cy="1.175" r="1.175" transform="translate(11.339 23.618)" fill="#323232"/>
        <circle id="Elipse_38" data-name="Elipse 38" cx="1.175" cy="1.175" r="1.175" transform="translate(11.339 19.388)" fill="#323232"/>
        <circle id="Elipse_39" data-name="Elipse 39" cx="1.175" cy="1.175" r="1.175" transform="translate(25.439 19.388)" fill="#323232"/>
        <circle id="Elipse_40" data-name="Elipse 40" cx="1.175" cy="1.175" r="1.175" transform="translate(25.439 23.618)" fill="#323232"/>
        <path id="Trazado_284" data-name="Trazado 284" d="M28.849,12.608A6.3,6.3,0,0,0,23.559,9.9H20.581A10.3,10.3,0,0,0,3.028,3.527,10.237,10.237,0,0,0,0,10.81V30.579H2.35V10.81A7.961,7.961,0,0,1,18.219,9.9H15.334a6.305,6.305,0,0,0-5.381,2.882,7.182,7.182,0,0,0-1.2,4.015v1.329H30.139V16.758A7.16,7.16,0,0,0,28.849,12.608ZM11.206,15.774a4.714,4.714,0,0,1,.7-1.686,3.92,3.92,0,0,1,3.429-1.839h8.225a3.9,3.9,0,0,1,3.369,1.712,4.7,4.7,0,0,1,.767,1.813Z" transform="translate(0 -0.499)" fill="#323232"/>
        <circle id="Elipse_41" data-name="Elipse 41" cx="1.175" cy="1.175" r="1.175" transform="translate(25.439 27.73)" fill="#323232"/>
        <circle id="Elipse_42" data-name="Elipse 42" cx="1.175" cy="1.175" r="1.175" transform="translate(20.739 23.618)" fill="#323232"/>
        <circle id="Elipse_43" data-name="Elipse 43" cx="1.175" cy="1.175" r="1.175" transform="translate(20.739 19.388)" fill="#323232"/>
      </g>
    </g>
  </g>
  <g id="fire_1_2" data-name="fire (1)" transform="translate(28.893 3.06)">
    <g id="Grupo_56-2" data-name="Grupo 56" transform="translate(0 0)">
      <path id="Trazado_280-2" data-name="Trazado 280" d="M82.161,14.434l-.017-.237c-.278-3.616-1.961-5.883-3.447-7.882-1.375-1.851-2.563-3.45-2.563-5.809a.506.506,0,0,0-.274-.449.5.5,0,0,0-.525.039,12.849,12.849,0,0,0-4.742,6.854,22.375,22.375,0,0,0-.519,5.124c-2.06-.44-2.527-3.522-2.532-3.555a.505.505,0,0,0-.721-.383c-.108.052-2.652,1.345-2.8,6.506-.01.172-.011.343-.011.516a9.093,9.093,0,0,0,18.186,0C82.2,14.9,82.178,14.669,82.161,14.434Zm-9.059,8.8a3.138,3.138,0,0,1-3.031-3.229c0-.061,0-.122,0-.2a4.1,4.1,0,0,1,.319-1.6,1.845,1.845,0,0,0,1.668,1.208.5.5,0,0,0,.505-.505,10.106,10.106,0,0,1,.194-2.3,4.882,4.882,0,0,1,1.023-1.937,6.51,6.51,0,0,0,1.041,1.911,5.756,5.756,0,0,1,1.295,3.154c.006.087.013.174.013.268A3.138,3.138,0,0,1,73.1,23.238Zm3.193-.66a4.329,4.329,0,0,0,.849-2.569c0-.119-.007-.229-.022-.436a6.614,6.614,0,0,0-1.47-3.568,4.01,4.01,0,0,1-1-2.366.505.505,0,0,0-.81-.4,5.9,5.9,0,0,0-2.059,3.141,9.248,9.248,0,0,0-.212,1.793,2.4,2.4,0,0,1-.46-1.085.506.506,0,0,0-.731-.381c-.127.065-1.246.706-1.31,3.066,0,.08,0,.16,0,.239a4.329,4.329,0,0,0,.849,2.569,8.093,8.093,0,0,1-4.89-7.423c0-.151,0-.3.01-.471.087-3.028,1.056-4.53,1.688-5.192.441,1.579,1.6,3.642,3.859,3.642a.5.5,0,0,0,.505-.505,22.554,22.554,0,0,1,.49-5.433,11.987,11.987,0,0,1,3.615-5.7c.282,2.164,1.46,3.75,2.7,5.417,1.473,1.982,3,4.032,3.25,7.351l.017.242c.016.21.032.42.032.645A8.093,8.093,0,0,1,76.295,22.578Z" transform="translate(-64.009 0.001)" fill="#323232"/>
    </g>
  </g>
  <g id="shower-2" data-name="shower" transform="translate(51.752 0)">
    <g id="Grupo_58-2" data-name="Grupo 58">
      <g id="Grupo_57-2" data-name="Grupo 57">
        <circle id="Elipse_32-2" data-name="Elipse 32" cx="1.175" cy="1.175" r="1.175" transform="translate(16.039 27.73)" fill="#323232"/>
        <circle id="Elipse_33-2" data-name="Elipse 33" cx="1.175" cy="1.175" r="1.175" transform="translate(16.039 23.618)" fill="#323232"/>
        <circle id="Elipse_34-2" data-name="Elipse 34" cx="1.175" cy="1.175" r="1.175" transform="translate(20.739 27.73)" fill="#323232"/>
        <circle id="Elipse_35-2" data-name="Elipse 35" cx="1.175" cy="1.175" r="1.175" transform="translate(16.039 19.388)" fill="#323232"/>
        <circle id="Elipse_36-2" data-name="Elipse 36" cx="1.175" cy="1.175" r="1.175" transform="translate(11.339 27.73)" fill="#323232"/>
        <circle id="Elipse_37-2" data-name="Elipse 37" cx="1.175" cy="1.175" r="1.175" transform="translate(11.339 23.618)" fill="#323232"/>
        <circle id="Elipse_38-2" data-name="Elipse 38" cx="1.175" cy="1.175" r="1.175" transform="translate(11.339 19.388)" fill="#323232"/>
        <circle id="Elipse_39-2" data-name="Elipse 39" cx="1.175" cy="1.175" r="1.175" transform="translate(25.439 19.388)" fill="#323232"/>
        <circle id="Elipse_40-2" data-name="Elipse 40" cx="1.175" cy="1.175" r="1.175" transform="translate(25.439 23.618)" fill="#323232"/>
        <path id="Trazado_284-2" data-name="Trazado 284" d="M28.849,12.608A6.3,6.3,0,0,0,23.559,9.9H20.581A10.3,10.3,0,0,0,3.028,3.527,10.237,10.237,0,0,0,0,10.81V30.579H2.35V10.81A7.961,7.961,0,0,1,18.219,9.9H15.334a6.305,6.305,0,0,0-5.381,2.882,7.182,7.182,0,0,0-1.2,4.015v1.329H30.139V16.758A7.16,7.16,0,0,0,28.849,12.608ZM11.206,15.774a4.714,4.714,0,0,1,.7-1.686,3.92,3.92,0,0,1,3.429-1.839h8.225a3.9,3.9,0,0,1,3.369,1.712,4.7,4.7,0,0,1,.767,1.813Z" transform="translate(0 -0.499)" fill="#323232"/>
        <circle id="Elipse_41-2" data-name="Elipse 41" cx="1.175" cy="1.175" r="1.175" transform="translate(25.439 27.73)" fill="#323232"/>
        <circle id="Elipse_42-2" data-name="Elipse 42" cx="1.175" cy="1.175" r="1.175" transform="translate(20.739 23.618)" fill="#323232"/>
        <circle id="Elipse_43-2" data-name="Elipse 43" cx="1.175" cy="1.175" r="1.175" transform="translate(20.739 19.388)" fill="#323232"/>
      </g>
    </g>
  </g>
  <g id="Electric_Plug" data-name="Electric Plug" transform="translate(0 3.06)">
    <path id="Trazado_285" data-name="Trazado 285" d="M16.949,22.605h2.828a1.216,1.216,0,0,0,1.212-1.212V18.1a1.616,1.616,0,0,0,1.212-1.56v-.828a4.449,4.449,0,0,0,4.04-4.424V8.06A1.216,1.216,0,0,0,25.03,6.848h-.4V3.616a1.616,1.616,0,0,0-3.232,0V6.848H19.777V3.616a1.616,1.616,0,1,0-3.232,0V6.848h-.4A1.216,1.216,0,0,0,14.929,8.06v3.232a4.449,4.449,0,0,0,4.04,4.424v.828a1.616,1.616,0,0,0,1.212,1.56v3.289a.4.4,0,0,1-.4.4H16.949a1.21,1.21,0,0,0-1.172,1.511,1.234,1.234,0,0,0,1.216.913H25.03a.4.4,0,0,1,.4.4v.4a.4.4,0,0,1-.4.4H10.485a2.831,2.831,0,0,1-2.828-2.828V14.929h3.636A1.216,1.216,0,0,0,12.5,13.717V3.212A1.216,1.216,0,0,0,11.293,2H3.212A1.216,1.216,0,0,0,2,3.212v10.5a1.216,1.216,0,0,0,1.212,1.212H6.848v7.677a3.642,3.642,0,0,0,3.636,3.636H25.03a1.216,1.216,0,0,0,1.212-1.212v-.4a1.216,1.216,0,0,0-1.212-1.212H16.993a.444.444,0,0,1-.436-.3.389.389,0,0,1,.113-.388A.375.375,0,0,1,16.949,22.605ZM22.2,3.616a.808.808,0,1,1,1.616,0V8.06H22.2Zm-4.848,0a.808.808,0,1,1,1.616,0V8.06H17.353ZM18.973,14.9a3.636,3.636,0,0,1-3.236-3.612V8.06a.4.4,0,0,1,.4-.4h.4v.808a.4.4,0,0,0,.4.4h2.424a.4.4,0,0,0,.4-.4V7.656h1.616v.808a.4.4,0,0,0,.4.4h2.424a.4.4,0,0,0,.4-.4V7.656h.4a.4.4,0,0,1,.4.4v3.232A3.636,3.636,0,0,1,22.2,14.9a1.612,1.612,0,0,0-3.224,0Zm.8,1.64V14.929a.808.808,0,1,1,1.616,0v1.616a.808.808,0,1,1-1.616,0ZM3.212,14.121a.4.4,0,0,1-.4-.4V3.212a.4.4,0,0,1,.4-.4h8.081a.4.4,0,0,1,.4.4v10.5a.4.4,0,0,1-.4.4Z" transform="translate(-2 -2)" fill="#323232"/>
    <rect id="Rectángulo_1135" data-name="Rectángulo 1135" width="2" height="1" transform="translate(16.567 13.505)" fill="#323232"/>
    <path id="Trazado_286" data-name="Trazado 286" d="M13.6,10.423a.4.4,0,0,0-.343-.19h-2.02V7.4a.4.4,0,0,0-.311-.392.4.4,0,0,0-.453.21L8.046,12.071a.4.4,0,0,0,.36.586h2.02v2.828a.4.4,0,0,0,.311.392.367.367,0,0,0,.093.012.4.4,0,0,0,.36-.222l2.424-4.848a.407.407,0,0,0-.016-.4Zm-2.364,3.349V12.253a.4.4,0,0,0-.4-.4H9.06l1.366-2.731v1.519a.4.4,0,0,0,.4.4H12.6Z" transform="translate(-5.578 -4.98)" fill="#323232"/>
  </g>
</svg>
