<svg height="34.574" viewBox="0 0 51.313 34.574" width="51.313" xmlns="http://www.w3.org/2000/svg"><g fill="#323232"><path d="m10.518 13.741h1.611a.693.693 0 0 0 .691-.691v-1.874a.921.921 0 0 0 .691-.889v-.471a2.535 2.535 0 0 0 2.3-2.521v-1.842a.693.693 0 0 0 -.691-.691h-.23v-1.841a.921.921 0 0 0 -1.842 0v1.842h-.921v-1.842a.921.921 0 1 0 -1.842 0v1.842h-.23a.693.693 0 0 0 -.691.691v1.841a2.535 2.535 0 0 0 2.3 2.521v.472a.921.921 0 0 0 .691.889v1.873a.23.23 0 0 1 -.23.23h-1.607a.689.689 0 0 0 -.668.861.7.7 0 0 0 .693.52h4.579a.23.23 0 0 1 .23.23v.23a.23.23 0 0 1 -.23.23h-8.288a1.613 1.613 0 0 1 -1.611-1.611v-4.373h2.072a.693.693 0 0 0 .691-.691v-5.985a.693.693 0 0 0 -.691-.691h-4.6a.693.693 0 0 0 -.695.691v5.985a.693.693 0 0 0 .691.691h2.072v4.374a2.075 2.075 0 0 0 2.072 2.072h8.288a.693.693 0 0 0 .691-.691v-.23a.693.693 0 0 0 -.691-.691h-4.58a.253.253 0 0 1 -.249-.173.221.221 0 0 1 .064-.221.214.214 0 0 1 .16-.066zm2.992-10.82a.46.46 0 1 1 .921 0v2.532h-.921zm-2.763 0a.46.46 0 1 1 .921 0v2.532h-.921zm.923 6.432a2.072 2.072 0 0 1 -1.843-2.058v-1.842a.23.23 0 0 1 .23-.23h.23v.46a.23.23 0 0 0 .23.23h1.383a.23.23 0 0 0 .23-.23v-.46h.921v.46a.23.23 0 0 0 .23.23h1.381a.23.23 0 0 0 .23-.23v-.46h.23a.23.23 0 0 1 .23.23v1.842a2.072 2.072 0 0 1 -1.844 2.058.919.919 0 0 0 -1.837 0zm.458.935v-.921a.46.46 0 1 1 .921 0v.921a.46.46 0 0 1 -.921 0zm-9.437-1.382a.23.23 0 0 1 -.23-.23v-5.985a.23.23 0 0 1 .23-.23h4.6a.23.23 0 0 1 .23.23v5.985a.23.23 0 0 1 -.23.23z" transform="translate(-2 16.556)"/><path d="m7.137 25.632h1v1h-1z"/><path d="m11.191 8.951a.23.23 0 0 0 -.2-.108h-1.147v-1.612a.23.23 0 0 0 -.177-.223.227.227 0 0 0 -.258.12l-1.381 2.762a.23.23 0 0 0 .2.334h1.156v1.611a.23.23 0 0 0 .177.223.209.209 0 0 0 .053.007.23.23 0 0 0 .2-.127l1.386-2.762a.232.232 0 0 0 -.009-.226zm-1.347 1.908v-.866a.23.23 0 0 0 -.23-.23h-1.009l.778-1.556v.866a.23.23 0 0 0 .23.23h1.008z" transform="translate(-6.621 12.706)"/><g transform="translate(16.739 0)"><path d="m334.2 210.446c-.022.032-.534.793-1.054 1.706a6.373 6.373 0 0 0 -1.145 2.98 3.039 3.039 0 1 0 6.077 0 6.373 6.373 0 0 0 -1.145-2.98c-.52-.913-1.032-1.674-1.054-1.706a1.013 1.013 0 0 0 -1.679 0zm.84 2.473a7.841 7.841 0 0 1 1.013 2.213 1.013 1.013 0 0 1 -2.026 0 7.849 7.849 0 0 1 1.012-2.213z" transform="translate(-309.581 -195.819)"/><path d="m1.013 327.248h3.892a21.613 21.613 0 0 1 5.87 1.47 23.434 23.434 0 0 0 6.824 1.635h3.831c3.927 0 7.44-1.891 10.159-5.467 1.521-2 2.984-5.066 2.984-5.842a1.544 1.544 0 0 0 -1.564-1.66c-.791 0-1.752.523-3.118 1.694a39.731 39.731 0 0 0 -3.251 3.222 2.554 2.554 0 0 1 -.534.443 1.779 1.779 0 0 0 .066-.48c0-.916-.687-1.613-2.043-2.072a16.756 16.756 0 0 0 -3.274-.652 21.2 21.2 0 0 1 -6.111-1.824 6.035 6.035 0 0 0 -2.455-.516 6.708 6.708 0 0 0 -3.427.974 6.9 6.9 0 0 1 -3.7.97h-4.149a1.013 1.013 0 0 0 -1.013 1.015v6.077a1.013 1.013 0 0 0 1.013 1.013zm1.013-6.077h3.136a8.923 8.923 0 0 0 4.638-1.2 4.829 4.829 0 0 1 2.491-.745 4.02 4.02 0 0 1 1.636.344 23.131 23.131 0 0 0 6.693 1.983 10.658 10.658 0 0 1 3.339.752 9 9 0 0 1 -3.281.736c-1.317.131-2.573.152-3.079.155h-1.257a1.013 1.013 0 1 0 0 2.026h8.071a4.956 4.956 0 0 0 3.722-1.553 27.327 27.327 0 0 1 4.058-3.823 18.419 18.419 0 0 1 -2.384 4.032c-2.326 2.953-5.145 4.453-8.378 4.453h-3.831a22.294 22.294 0 0 1 -6.172-1.529 22.319 22.319 0 0 0 -6.523-1.577h-2.879z" transform="translate(0 -295.78)"/><path d="m1.013 12.155h7.4a3.044 3.044 0 0 0 2.865 2.026h4.052a3.044 3.044 0 0 0 2.865-2.026h3.213a1.014 1.014 0 0 1 1.013 1.013 1.013 1.013 0 0 0 1.013 1.013h4.052a1.013 1.013 0 0 0 1.014-1.013 7.1 7.1 0 0 0 -7.09-7.09h-3.217a3.043 3.043 0 0 0 -2.865-2.026h-1.012v-2.026h3.039a1.013 1.013 0 0 0 0-2.026h-8.1a1.013 1.013 0 0 0 0 2.026h3.035v2.026h-1.013a3.043 3.043 0 0 0 -2.864 2.025h-7.4a1.013 1.013 0 0 0 -1.013 1.013v4.052a1.013 1.013 0 0 0 1.013 1.013zm25.356 0h-2.1a3.044 3.044 0 0 0 -2.865-2.026h-3.037v-2.029h3.039a5.073 5.073 0 0 1 4.963 4.052zm-15.092-6.078h4.052a1.014 1.014 0 0 1 1.013 1.013v4.052a1.014 1.014 0 0 1 -1.013 1.013h-4.052a1.014 1.014 0 0 1 -1.013-1.013v-4.052a1.014 1.014 0 0 1 1.013-1.013zm-9.251 2.023h6.212v2.026h-6.212z"/></g></g></svg>