<svg height="34.574" viewBox="0 0 51.088 34.574" width="51.088" xmlns="http://www.w3.org/2000/svg"><g fill="#94e538"><path d="m76.362 9.823-.012-.161a9.726 9.726 0 0 0 -2.35-5.362c-.932-1.263-1.74-2.351-1.74-3.956a.344.344 0 0 0 -.187-.306.34.34 0 0 0 -.357.026 8.744 8.744 0 0 0 -3.227 4.665 15.227 15.227 0 0 0 -.354 3.487c-1.4-.3-1.72-2.4-1.723-2.42a.344.344 0 0 0 -.49-.261c-.074.036-1.8.915-1.905 4.428-.007.117-.007.234-.007.351a6.188 6.188 0 1 0 12.376 0c-.001-.172-.013-.332-.024-.491zm-6.162 5.991a2.136 2.136 0 0 1 -2.063-2.2c0-.041 0-.083 0-.134a2.787 2.787 0 0 1 .217-1.092 1.256 1.256 0 0 0 1.135.822.344.344 0 0 0 .344-.344 6.878 6.878 0 0 1 .132-1.564 3.323 3.323 0 0 1 .7-1.318 4.43 4.43 0 0 0 .709 1.3 3.917 3.917 0 0 1 .881 2.147c0 .059.009.119.009.182a2.136 2.136 0 0 1 -2.064 2.201zm2.173-.449a2.946 2.946 0 0 0 .578-1.748c0-.081-.005-.156-.015-.3a4.5 4.5 0 0 0 -1-2.428 2.729 2.729 0 0 1 -.684-1.61.344.344 0 0 0 -.551-.274 4.016 4.016 0 0 0 -1.4 2.138 6.293 6.293 0 0 0 -.144 1.22 1.633 1.633 0 0 1 -.313-.738.345.345 0 0 0 -.5-.26c-.087.044-.848.481-.891 2.086v.163a2.946 2.946 0 0 0 .578 1.748 5.508 5.508 0 0 1 -3.331-5.049c0-.1 0-.206.007-.32a5.153 5.153 0 0 1 1.149-3.533c.3 1.074 1.086 2.479 2.626 2.479a.344.344 0 0 0 .344-.344 15.349 15.349 0 0 1 .333-3.7 8.158 8.158 0 0 1 2.46-3.877 7.844 7.844 0 0 0 1.837 3.687 9.031 9.031 0 0 1 2.212 5l.012.164c.011.143.022.286.022.439a5.508 5.508 0 0 1 -3.332 5.057z" transform="translate(-64.009 15.362)"/><g transform="translate(16.514)"><path d="m334.2 210.446c-.022.032-.534.793-1.054 1.706a6.373 6.373 0 0 0 -1.145 2.98 3.039 3.039 0 1 0 6.077 0 6.373 6.373 0 0 0 -1.145-2.98c-.52-.913-1.032-1.674-1.054-1.706a1.013 1.013 0 0 0 -1.679 0zm.84 2.473a7.841 7.841 0 0 1 1.013 2.213 1.013 1.013 0 0 1 -2.026 0 7.849 7.849 0 0 1 1.012-2.213z" transform="translate(-309.581 -195.819)"/><path d="m1.013 327.248h3.892a21.613 21.613 0 0 1 5.87 1.47 23.434 23.434 0 0 0 6.824 1.635h3.831c3.927 0 7.44-1.891 10.159-5.467 1.521-2 2.984-5.066 2.984-5.842a1.544 1.544 0 0 0 -1.564-1.66c-.791 0-1.752.523-3.118 1.694a39.731 39.731 0 0 0 -3.251 3.222 2.554 2.554 0 0 1 -.534.443 1.779 1.779 0 0 0 .066-.48c0-.916-.687-1.613-2.043-2.072a16.756 16.756 0 0 0 -3.274-.652 21.2 21.2 0 0 1 -6.111-1.824 6.035 6.035 0 0 0 -2.455-.516 6.708 6.708 0 0 0 -3.427.974 6.9 6.9 0 0 1 -3.7.97h-4.149a1.013 1.013 0 0 0 -1.013 1.015v6.077a1.013 1.013 0 0 0 1.013 1.013zm1.013-6.077h3.136a8.923 8.923 0 0 0 4.638-1.2 4.829 4.829 0 0 1 2.491-.745 4.02 4.02 0 0 1 1.636.344 23.131 23.131 0 0 0 6.693 1.983 10.658 10.658 0 0 1 3.339.752 9 9 0 0 1 -3.281.736c-1.317.131-2.573.152-3.079.155h-1.257a1.013 1.013 0 1 0 0 2.026h8.071a4.956 4.956 0 0 0 3.722-1.553 27.327 27.327 0 0 1 4.058-3.823 18.419 18.419 0 0 1 -2.384 4.032c-2.326 2.953-5.145 4.453-8.378 4.453h-3.831a22.294 22.294 0 0 1 -6.172-1.529 22.319 22.319 0 0 0 -6.523-1.577h-2.879z" transform="translate(0 -295.78)"/><path d="m1.013 12.155h7.4a3.044 3.044 0 0 0 2.865 2.026h4.052a3.044 3.044 0 0 0 2.865-2.026h3.213a1.014 1.014 0 0 1 1.013 1.013 1.013 1.013 0 0 0 1.013 1.013h4.052a1.013 1.013 0 0 0 1.014-1.013 7.1 7.1 0 0 0 -7.09-7.09h-3.217a3.043 3.043 0 0 0 -2.865-2.026h-1.012v-2.026h3.039a1.013 1.013 0 0 0 0-2.026h-8.1a1.013 1.013 0 0 0 0 2.026h3.035v2.026h-1.013a3.043 3.043 0 0 0 -2.864 2.025h-7.4a1.013 1.013 0 0 0 -1.013 1.013v4.052a1.013 1.013 0 0 0 1.013 1.013zm25.356 0h-2.1a3.044 3.044 0 0 0 -2.865-2.026h-3.037v-2.029h3.039a5.073 5.073 0 0 1 4.963 4.052zm-15.092-6.078h4.052a1.014 1.014 0 0 1 1.013 1.013v4.052a1.014 1.014 0 0 1 -1.013 1.013h-4.052a1.014 1.014 0 0 1 -1.013-1.013v-4.052a1.014 1.014 0 0 1 1.013-1.013zm-9.251 2.023h6.212v2.026h-6.212z"/></g></g></svg>