<svg height="30.08" viewBox="0 0 58.891 30.08" width="58.891" xmlns="http://www.w3.org/2000/svg"><g fill="#323232"><circle cx="45.966" cy="28.905" r="1.175"/><circle cx="45.966" cy="24.793" r="1.175"/><circle cx="50.666" cy="28.905" r="1.175"/><circle cx="45.966" cy="20.563" r="1.175"/><circle cx="41.266" cy="28.905" r="1.175"/><circle cx="41.266" cy="24.793" r="1.175"/><circle cx="41.266" cy="20.563" r="1.175"/><circle cx="55.366" cy="20.563" r="1.175"/><circle cx="55.366" cy="24.793" r="1.175"/><path d="m28.849 12.608a6.3 6.3 0 0 0 -5.29-2.708h-2.978a10.3 10.3 0 0 0 -17.553-6.373 10.237 10.237 0 0 0 -3.028 7.283v19.769h2.35v-19.769a7.961 7.961 0 0 1 15.869-.91h-2.885a6.305 6.305 0 0 0 -5.381 2.882 7.182 7.182 0 0 0 -1.2 4.015v1.329h21.386v-1.368a7.16 7.16 0 0 0 -1.29-4.15zm-17.643 3.166a4.714 4.714 0 0 1 .7-1.686 3.92 3.92 0 0 1 3.429-1.839h8.225a3.9 3.9 0 0 1 3.369 1.712 4.7 4.7 0 0 1 .767 1.813z" transform="translate(28.752 -.499)"/><circle cx="55.366" cy="28.905" r="1.175"/><circle cx="50.666" cy="24.793" r="1.175"/><circle cx="50.666" cy="20.563" r="1.175"/><path d="m16.949 22.605h2.828a1.216 1.216 0 0 0 1.212-1.212v-3.293a1.616 1.616 0 0 0 1.212-1.56v-.828a4.449 4.449 0 0 0 4.04-4.424v-3.228a1.216 1.216 0 0 0 -1.211-1.212h-.4v-3.232a1.616 1.616 0 0 0 -3.232 0v3.232h-1.621v-3.232a1.616 1.616 0 1 0 -3.232 0v3.232h-.4a1.216 1.216 0 0 0 -1.216 1.212v3.232a4.449 4.449 0 0 0 4.04 4.424v.828a1.616 1.616 0 0 0 1.212 1.56v3.289a.4.4 0 0 1 -.4.4h-2.832a1.21 1.21 0 0 0 -1.172 1.511 1.234 1.234 0 0 0 1.216.913h8.037a.4.4 0 0 1 .4.4v.4a.4.4 0 0 1 -.4.4h-14.545a2.831 2.831 0 0 1 -2.828-2.828v-7.66h3.636a1.216 1.216 0 0 0 1.207-1.212v-10.505a1.216 1.216 0 0 0 -1.207-1.212h-8.081a1.216 1.216 0 0 0 -1.212 1.212v10.5a1.216 1.216 0 0 0 1.212 1.212h3.636v7.677a3.642 3.642 0 0 0 3.636 3.636h14.546a1.216 1.216 0 0 0 1.212-1.212v-.4a1.216 1.216 0 0 0 -1.212-1.212h-8.037a.444.444 0 0 1 -.436-.3.389.389 0 0 1 .113-.388.375.375 0 0 1 .279-.12zm5.251-18.989a.808.808 0 1 1 1.616 0v4.444h-1.616zm-4.848 0a.808.808 0 1 1 1.616 0v4.444h-1.615zm1.621 11.284a3.636 3.636 0 0 1 -3.236-3.612v-3.228a.4.4 0 0 1 .4-.4h.4v.808a.4.4 0 0 0 .4.4h2.424a.4.4 0 0 0 .4-.4v-.812h1.616v.808a.4.4 0 0 0 .4.4h2.424a.4.4 0 0 0 .4-.4v-.808h.4a.4.4 0 0 1 .4.4v3.232a3.636 3.636 0 0 1 -3.201 3.612 1.612 1.612 0 0 0 -3.224 0zm.8 1.64v-1.611a.808.808 0 1 1 1.616 0v1.616a.808.808 0 1 1 -1.616 0zm-16.561-2.419a.4.4 0 0 1 -.4-.4v-10.509a.4.4 0 0 1 .4-.4h8.081a.4.4 0 0 1 .4.4v10.5a.4.4 0 0 1 -.4.4z" transform="translate(-2 1.06)"/><path d="m12.567 15.565h2v1h-2z"/><path d="m13.6 10.423a.4.4 0 0 0 -.343-.19h-2.02v-2.833a.4.4 0 0 0 -.311-.392.4.4 0 0 0 -.453.21l-2.427 4.853a.4.4 0 0 0 .36.586h2.02v2.828a.4.4 0 0 0 .311.392.367.367 0 0 0 .093.012.4.4 0 0 0 .36-.222l2.424-4.848a.407.407 0 0 0 -.016-.4zm-2.364 3.349v-1.519a.4.4 0 0 0 -.4-.4h-1.776l1.366-2.731v1.519a.4.4 0 0 0 .4.4h1.774z" transform="translate(-5.578 -1.92)"/></g></svg>