<svg id="snowflake" xmlns="http://www.w3.org/2000/svg" width="22.927" height="26.103" viewBox="0 0 22.927 26.103">
  <path id="Trazado_287" data-name="Trazado 287" d="M202.432,197.846a.382.382,0,0,0-.382.382v1.124a.382.382,0,0,0,.191.331l2.368,1.367a.382.382,0,0,0,.382,0l2.368-1.367a.382.382,0,0,0,.191-.331v-2.734a.382.382,0,0,0-.191-.331l-2.368-1.367a.382.382,0,0,0-.382,0l-2.368,1.367a.382.382,0,0,0,.382.662l2.177-1.257,1.986,1.146v2.293l-1.986,1.146-1.986-1.146v-.9A.382.382,0,0,0,202.432,197.846Z" transform="translate(-193.337 -184.934)" fill="#323232"/>
  <path id="Trazado_288" data-name="Trazado 288" d="M53.476,17.939l-1.031-.6L53,17.2a1.2,1.2,0,1,0-.621-2.318l-2.87.769-.79-.456V10.913l.79-.456,2.869.769A1.2,1.2,0,1,0,53,8.908l-.552-.148,1.031-.6a1.2,1.2,0,1,0-1.2-2.078l-1.031.6.148-.552a1.2,1.2,0,1,0-2.318-.621l-.382,1.424a.382.382,0,1,0,.739.2l.382-1.425a.435.435,0,0,1,.84.225l-.387,1.444a.382.382,0,0,0,.561.43l1.831-1.057a.434.434,0,0,1,.594.159.435.435,0,0,1-.159.594l-1.83,1.057a.382.382,0,0,0,.092.7l1.444.387a.435.435,0,1,1-.225.84l-3.023-.81a.382.382,0,0,0-.29.038l-2.837,1.638a.382.382,0,0,0-.191.331v2.734a.382.382,0,0,0,.191.331l2.837,1.638a.383.383,0,0,0,.29.038l3.023-.81a.435.435,0,0,1,.224.84l-1.444.387a.382.382,0,0,0-.092.7l1.83,1.057a.435.435,0,0,1-.218.812.427.427,0,0,1-.217-.059L50.828,18.3a.382.382,0,0,0-.561.43l.387,1.444a.435.435,0,1,1-.84.225L49,17.374a.382.382,0,0,0-.178-.232L45.988,15.5a.382.382,0,0,0-.382,0l-2.368,1.367a.382.382,0,0,0-.191.331v3.277a.382.382,0,0,0,.112.27l2.213,2.213a.435.435,0,1,1-.615.615L43.7,22.52a.382.382,0,0,0-.653.27V24.9a.435.435,0,1,1-.87,0V22.79a.382.382,0,0,0-.653-.27l-1.057,1.057a.435.435,0,1,1-.615-.615l2.213-2.213a.382.382,0,0,0,.112-.27V17.2a.382.382,0,0,0-.191-.331L39.618,15.5a.382.382,0,0,0-.382,0L36.4,17.142a.383.383,0,0,0-.178.232L35.41,20.4a.435.435,0,1,1-.84-.225l.387-1.444a.382.382,0,0,0-.561-.43l-1.831,1.057a.427.427,0,0,1-.216.058.435.435,0,0,1-.218-.812l1.83-1.057a.382.382,0,0,0-.092-.7l-1.444-.387a.435.435,0,1,1,.225-.84l3.023.81a.382.382,0,0,0,.29-.038L38.8,14.75a.382.382,0,0,0,.191-.331V11.684a.382.382,0,0,0-.191-.331L35.963,9.715a.383.383,0,0,0-.29-.038l-3.023.81a.43.43,0,0,1-.112.015.435.435,0,0,1-.112-.855l1.444-.387a.382.382,0,0,0,.092-.7L32.13,7.5a.435.435,0,0,1,.105-.8.431.431,0,0,1,.33.044L34.4,7.806a.382.382,0,0,0,.561-.43l-.387-1.444a.435.435,0,1,1,.84-.225l.81,3.023a.383.383,0,0,0,.178.232L39.235,10.6a.382.382,0,0,0,.382,0l2.368-1.367a.382.382,0,0,0,.191-.331V5.625a.382.382,0,0,0-.112-.27L39.852,3.142a.435.435,0,1,1,.615-.615l1.057,1.057a.382.382,0,0,0,.653-.27V1.2a.435.435,0,0,1,.87,0V3.313a.382.382,0,0,0,.653.27l1.057-1.057a.435.435,0,1,1,.615.615L43.159,5.355a.382.382,0,0,0-.112.27V8.9a.382.382,0,0,0,.191.331L45.606,10.6a.382.382,0,0,0,.382,0l2.838-1.638a.382.382,0,1,0-.382-.662l-.928.536L43.812,6.7V5.783l2.1-2.1a1.2,1.2,0,1,0-1.7-1.7l-.4.4V1.2a1.2,1.2,0,1,0-2.4,0V2.39l-.4-.4a1.2,1.2,0,1,0-1.7,1.7l2.1,2.1V6.7l-3.7,2.139-.79-.456-.769-2.87a1.2,1.2,0,1,0-2.318.621l.148.552-1.03-.595a1.2,1.2,0,1,0-1.2,2.078l1.031.6-.552.148a1.2,1.2,0,1,0,.621,2.318l2.87-.769.79.456v4.278l-.79.456-2.869-.769a1.2,1.2,0,1,0-.622,2.317l.552.148-1.031.6a1.2,1.2,0,1,0,1.2,2.078l1.031-.6-.148.552a1.2,1.2,0,1,0,2.318.621l.769-2.87.791-.456,3.7,2.139v.913l-2.1,2.1a1.2,1.2,0,1,0,1.7,1.7l.4-.4V24.9a1.2,1.2,0,0,0,2.4,0v-1.19l.4.4a1.2,1.2,0,1,0,1.7-1.7l-2.1-2.1v-.913l3.7-2.139.791.456.769,2.87a1.2,1.2,0,1,0,2.318-.621l-.148-.552,1.031.6a1.2,1.2,0,1,0,1.2-2.078ZM47,11.905l.954-.551v3.395L47,14.2Zm-.246-2.629-.954.551L43.812,8.681v-1.1Zm-5.339-1.7v1.1L39.426,9.827l-.954-.551Zm-4.14,3.775.954.551V14.2l-.954.551Zm1.2,5.472.954-.551,1.986,1.146v1.1Zm5.339,1.7v-1.1L45.8,16.276l.954.551Z" transform="translate(-31.148)" fill="#323232"/>
</svg>
