<svg height="26.103" viewBox="0 0 22.927 26.103" width="22.927" xmlns="http://www.w3.org/2000/svg"><g fill="#323232"><path d="m202.432 197.846a.382.382 0 0 0 -.382.382v1.124a.382.382 0 0 0 .191.331l2.368 1.367a.382.382 0 0 0 .382 0l2.368-1.367a.382.382 0 0 0 .191-.331v-2.734a.382.382 0 0 0 -.191-.331l-2.368-1.367a.382.382 0 0 0 -.382 0l-2.368 1.367a.382.382 0 0 0 .382.662l2.177-1.257 1.986 1.146v2.293l-1.986 1.146-1.986-1.146v-.9a.382.382 0 0 0 -.382-.385z" transform="translate(-193.337 -184.934)"/><path d="m53.476 17.939-1.031-.6.555-.139a1.2 1.2 0 1 0 -.621-2.318l-2.87.769-.79-.456v-4.282l.79-.456 2.869.769a1.2 1.2 0 1 0 .622-2.318l-.552-.148 1.031-.6a1.2 1.2 0 1 0 -1.2-2.078l-1.031.6.148-.552a1.2 1.2 0 1 0 -2.318-.621l-.382 1.424a.382.382 0 1 0 .739.2l.382-1.425a.435.435 0 0 1 .84.225l-.387 1.444a.382.382 0 0 0 .561.43l1.831-1.057a.434.434 0 0 1 .594.159.435.435 0 0 1 -.159.594l-1.83 1.057a.382.382 0 0 0 .092.7l1.444.387a.435.435 0 1 1 -.225.84l-3.023-.81a.382.382 0 0 0 -.29.038l-2.837 1.638a.382.382 0 0 0 -.191.331v2.734a.382.382 0 0 0 .191.331l2.837 1.638a.383.383 0 0 0 .29.038l3.023-.81a.435.435 0 0 1 .224.84l-1.444.387a.382.382 0 0 0 -.092.7l1.83 1.057a.435.435 0 0 1 -.218.812.427.427 0 0 1 -.217-.059l-1.833-1.052a.382.382 0 0 0 -.561.43l.387 1.444a.435.435 0 1 1 -.84.225l-.814-3.025a.382.382 0 0 0 -.178-.232l-2.834-1.642a.382.382 0 0 0 -.382 0l-2.368 1.367a.382.382 0 0 0 -.191.331v3.277a.382.382 0 0 0 .112.27l2.213 2.213a.435.435 0 1 1 -.615.615l-1.057-1.053a.382.382 0 0 0 -.653.27v2.11a.435.435 0 1 1 -.87 0v-2.11a.382.382 0 0 0 -.653-.27l-1.057 1.057a.435.435 0 1 1 -.615-.615l2.213-2.213a.382.382 0 0 0 .112-.27v-3.279a.382.382 0 0 0 -.191-.331l-2.368-1.369a.382.382 0 0 0 -.382 0l-2.836 1.642a.383.383 0 0 0 -.178.232l-.812 3.026a.435.435 0 1 1 -.84-.225l.387-1.444a.382.382 0 0 0 -.561-.43l-1.831 1.057a.427.427 0 0 1 -.216.058.435.435 0 0 1 -.218-.812l1.83-1.057a.382.382 0 0 0 -.092-.7l-1.444-.387a.435.435 0 1 1 .225-.84l3.023.81a.382.382 0 0 0 .29-.038l2.837-1.642a.382.382 0 0 0 .191-.331v-2.735a.382.382 0 0 0 -.191-.331l-2.837-1.638a.383.383 0 0 0 -.29-.038l-3.023.81a.43.43 0 0 1 -.112.015.435.435 0 0 1 -.112-.855l1.444-.387a.382.382 0 0 0 .092-.7l-1.832-1.06a.435.435 0 0 1 .105-.8.431.431 0 0 1 .33.044l1.835 1.062a.382.382 0 0 0 .561-.43l-.387-1.444a.435.435 0 1 1 .84-.225l.81 3.023a.383.383 0 0 0 .178.232l2.833 1.638a.382.382 0 0 0 .382 0l2.368-1.367a.382.382 0 0 0 .191-.331v-3.277a.382.382 0 0 0 -.112-.27l-2.212-2.213a.435.435 0 1 1 .615-.615l1.057 1.057a.382.382 0 0 0 .653-.27v-2.114a.435.435 0 0 1 .87 0v2.113a.382.382 0 0 0 .653.27l1.057-1.057a.435.435 0 1 1 .615.615l-2.213 2.214a.382.382 0 0 0 -.112.27v3.275a.382.382 0 0 0 .191.331l2.368 1.369a.382.382 0 0 0 .382 0l2.838-1.638a.382.382 0 1 0 -.382-.662l-.928.536-3.704-2.136v-.917l2.1-2.1a1.2 1.2 0 1 0 -1.7-1.7l-.4.4v-1.183a1.2 1.2 0 1 0 -2.4 0v1.19l-.4-.4a1.2 1.2 0 1 0 -1.7 1.7l2.1 2.1v.91l-3.7 2.139-.79-.456-.769-2.87a1.2 1.2 0 1 0 -2.318.621l.148.552-1.03-.595a1.2 1.2 0 1 0 -1.2 2.078l1.031.6-.552.148a1.2 1.2 0 1 0 .621 2.318l2.87-.769.79.456v4.278l-.79.456-2.869-.769a1.2 1.2 0 1 0 -.622 2.317l.552.148-1.031.6a1.2 1.2 0 1 0 1.2 2.078l1.031-.6-.148.552a1.2 1.2 0 1 0 2.318.621l.769-2.87.791-.456 3.7 2.139v.913l-2.1 2.1a1.2 1.2 0 1 0 1.7 1.7l.4-.4v1.171a1.2 1.2 0 0 0 2.4 0v-1.19l.4.4a1.2 1.2 0 1 0 1.7-1.7l-2.1-2.1v-.913l3.7-2.139.791.456.769 2.87a1.2 1.2 0 1 0 2.318-.621l-.148-.552 1.031.6a1.2 1.2 0 1 0 1.2-2.078zm-6.476-6.034.954-.551v3.395l-.954-.549zm-.246-2.629-.954.551-1.988-1.146v-1.1zm-5.339-1.7v1.1l-1.989 1.151-.954-.551zm-4.14 3.775.954.551v2.298l-.954.551zm1.2 5.472.954-.551 1.986 1.146v1.1zm5.339 1.7v-1.1l1.986-1.147.954.551z" transform="translate(-31.148)"/></g></svg>