<svg height="98.87" viewBox="0 0 61 98.87" width="61" xmlns="http://www.w3.org/2000/svg" xmlns:xlink="http://www.w3.org/1999/xlink"><filter id="a" filterUnits="userSpaceOnUse" height="98.87" width="61" x="0" y="0"><feOffset/><feGaussianBlur result="blur" stdDeviation="7.5"/><feFlood flood-color="#94e538"/><feComposite in2="blur" operator="in"/><feComposite in="SourceGraphic"/></filter><g filter="url(#a)"><g transform="translate(22.5 22.5)"><path d="m8 53.37021637c-4.13550997 0-7.5-4.37876892-7.5-9.76100159v-33.34821892c0-5.3822298 3.36449003-9.76099959 7.5-9.76099959 4.13551044 0 7.5 4.37876979 7.5 9.76099959v33.34821892c0 5.38223267-3.36448956 9.76100159-7.5 9.76100159z"/><path d="m8 .99999619c-3.85980988 0-7 4.15446853-7 9.26100158v33.34821701c0 5.10653305 3.14019012 9.26100159 7 9.26100159s7-4.15446854 7-9.26100159v-33.34821701c0-5.10653305-3.14019012-9.26100158-7-9.26100158m0-1c4.41827965 0 8 4.59400177 8 10.26100158v33.34821701c0 5.66699219-3.58172035 10.26100159-8 10.26100159s-8-4.5940094-8-10.26100159v-33.34821701c0-5.66699981 3.58172035-10.26100158 8-10.26100158z" fill="#656565"/></g></g></svg>