<svg xmlns="http://www.w3.org/2000/svg" xmlns:xlink="http://www.w3.org/1999/xlink" width="61" height="98.87" viewBox="0 0 61 98.87">
  <defs>
    <filter id="Trazado_478" x="0" y="0" width="61" height="98.87" filterUnits="userSpaceOnUse">
      <feOffset input="SourceAlpha"/>
      <feGaussianBlur stdDeviation="7.5" result="blur"/>
      <feFlood flood-color="#94e538"/>
      <feComposite operator="in" in2="blur"/>
      <feComposite in="SourceGraphic"/>
    </filter>
  </defs>
  <g transform="matrix(1, 0, 0, 1, 0, 0)" filter="url(#Trazado_478)">
    <g id="Trazado_478-2" data-name="Trazado 478" transform="translate(22.5 22.5)">
      <path d="M 8 53.37021636962891 C 3.864490032196045 53.37021636962891 0.5 48.99144744873047 0.5 43.60921478271484 L 0.5 10.26099586486816 C 0.5 4.878766059875488 3.864490032196045 0.4999962747097015 8 0.4999962747097015 C 12.13551044464111 0.4999962747097015 15.5 4.878766059875488 15.5 10.26099586486816 L 15.5 43.60921478271484 C 15.5 48.99144744873047 12.13551044464111 53.37021636962891 8 53.37021636962891 Z" stroke="none"/>
      <path d="M 8 0.9999961853027344 C 4.140190124511719 0.9999961853027344 1 5.154464721679688 1 10.2609977722168 L 1 43.60921478271484 C 1 48.71574783325195 4.140190124511719 52.87021636962891 8 52.87021636962891 C 11.85980987548828 52.87021636962891 15 48.71574783325195 15 43.60921478271484 L 15 10.2609977722168 C 15 5.154464721679688 11.85980987548828 0.9999961853027344 8 0.9999961853027344 M 8 -3.814697265625e-06 C 12.41827964782715 -3.814697265625e-06 16 4.593997955322266 16 10.2609977722168 L 16 43.60921478271484 C 16 49.27620697021484 12.41827964782715 53.87021636962891 8 53.87021636962891 C 3.581720352172852 53.87021636962891 0 49.27620697021484 0 43.60921478271484 L 0 10.2609977722168 C 0 4.593997955322266 3.581720352172852 -3.814697265625e-06 8 -3.814697265625e-06 Z" stroke="none" fill="#656565"/>
    </g>
  </g>
</svg>
