<svg height="81.403" viewBox="0 0 142.323 81.403" width="142.323" xmlns="http://www.w3.org/2000/svg"><g fill="#393939"><path d="m200.579 307.2h-61.673a2.265 2.265 0 0 0 -2.372 2.142v47.128a2.265 2.265 0 0 0 2.372 2.142h61.674a2.264 2.264 0 0 0 2.372-2.142v-47.128a2.264 2.264 0 0 0 -2.373-2.142zm-2.372 47.128h-56.929v-42.844h56.929z" transform="translate(-98.581 -277.21)"/><path d="m200.579 307.2h-61.673a2.265 2.265 0 0 0 -2.372 2.142v47.128a2.265 2.265 0 0 0 2.372 2.142h61.674a2.264 2.264 0 0 0 2.372-2.142v-47.128a2.264 2.264 0 0 0 -2.373-2.142zm-2.372 47.128h-56.929v-42.844h56.929z" transform="translate(-98.581 -277.21)"/><path d="m40.325 307.2h-37.953a2.265 2.265 0 0 0 -2.372 2.142v47.128a2.265 2.265 0 0 0 2.372 2.142h37.953a2.265 2.265 0 0 0 2.375-2.142v-47.128a2.265 2.265 0 0 0 -2.375-2.142zm-2.372 47.128h-33.209v-42.844h33.209v42.843z" transform="translate(0 -277.21)"/><path d="m398.725 307.2h-37.953a2.264 2.264 0 0 0 -2.372 2.142v47.128a2.264 2.264 0 0 0 2.372 2.142h37.953a2.264 2.264 0 0 0 2.372-2.142v-47.128a2.263 2.263 0 0 0 -2.372-2.142zm-2.372 47.128h-33.209v-42.844h33.209v42.843z" transform="translate(-258.774 -277.21)"/><path d="m215.736 375.467h-42.7a2.265 2.265 0 0 0 -2.372 2.142v21.422a2.265 2.265 0 0 0 2.372 2.142h42.7a2.264 2.264 0 0 0 2.372-2.142v-21.422a2.264 2.264 0 0 0 -2.372-2.142zm-2.372 21.422h-37.953v-17.138h37.953v17.137z" transform="translate(-123.226 -328.339)"/><path d="m0 0h4.744v4.284h-4.744z" transform="translate(73.534 38.559)"/><path d="m0 0h4.744v4.284h-4.744z" transform="translate(64.045 38.559)"/><path d="m0 0h4.744v4.284h-4.744z" transform="translate(54.557 38.559)"/><path d="m0 0h4.744v4.284h-4.744z" transform="translate(83.022 38.559)"/><path d="m0 0h37.953v4.284h-37.953z" transform="translate(2.372 47.128)"/><path d="m0 0h9.488v4.284h-9.488z" transform="translate(16.604 38.559)"/><path d="m0 0h9.488v4.284h-9.488z" transform="translate(16.604 55.696)"/><path d="m0 0h37.953v4.284h-37.953z" transform="translate(101.998 47.128)"/><path d="m0 0h4.744v29.99h-4.744z" transform="translate(118.603 49.27)"/><path d="m0 0h9.488v4.284h-9.488z" transform="translate(116.231 38.559)"/><path d="m0 0h4.744v6.427h-4.744z" transform="translate(109.114 59.981)"/><path d="m0 0h4.744v6.427h-4.744z" transform="translate(128.091 59.981)"/><path d="m436.155 187.733c-5.233 0-9.488 3.843-9.488 8.569v2.142h4.744v-2.144a4.769 4.769 0 0 1 9.488 0v23.564h4.744v-23.564c0-4.724-4.255-8.567-9.488-8.567z" transform="translate(-308.064 -187.733)"/><path d="m0 0h7.116v4.284h-7.116z" transform="translate(128.091 21.422)"/><path d="m179.693 256h-23.72a2.265 2.265 0 0 0 -2.372 2.142v12.858a2.265 2.265 0 0 0 2.372 2.142h23.721a2.265 2.265 0 0 0 2.371-2.142v-12.858a2.265 2.265 0 0 0 -2.372-2.142zm-2.372 12.853h-18.976v-8.569h18.977z" transform="translate(-110.904 -238.863)"/><path d="m0 0h7.116v4.284h-7.116z" transform="translate(37.953 21.422)"/><path d="m0 0h7.116v4.284h-7.116z" transform="translate(68.79 21.422)"/></g></svg>