<svg id="Grupo_434" data-name="Grupo 434" xmlns="http://www.w3.org/2000/svg" width="32.699" height="52.449" viewBox="0 0 32.699 52.449">
  <path id="Trazado_412" data-name="Trazado 412" d="M112.748,0a16.35,16.35,0,0,0-9.766,29.462v1.365a4.818,4.818,0,0,0-.345,6.918,4.824,4.824,0,0,0,2.1,7.9,8.119,8.119,0,0,0,16.022,0,4.824,4.824,0,0,0,2.1-7.9,4.817,4.817,0,0,0-.345-6.918V29.462A16.35,16.35,0,0,0,112.748,0Zm6.584,32.7a1.755,1.755,0,0,1,0,3.511H106.164a1.755,1.755,0,1,1,0-3.511Zm-6.584,16.677a5.057,5.057,0,0,1-4.808-3.51h9.616A5.056,5.056,0,0,1,112.748,49.375Zm6.584-6.583H106.164a1.755,1.755,0,1,1,0-3.51h13.167a1.755,1.755,0,0,1,0,3.51Zm.791-15.4a1.537,1.537,0,0,0-.682,1.277v.961l-.109,0h-1.756V23.569l2.206-2.206a1.537,1.537,0,1,0-2.173-2.173l-2.657,2.657a1.536,1.536,0,0,0-.45,1.086v6.693h-3.51V22.933a1.537,1.537,0,0,0-.45-1.086l-2.657-2.657a1.537,1.537,0,1,0-2.173,2.173l2.206,2.206v6.056h-1.755l-.11,0v-.961a1.537,1.537,0,0,0-.682-1.277,13.276,13.276,0,1,1,14.75,0Zm0,0" transform="translate(-96.398)" fill="#94e538"/>
</svg>
