<svg height="52.449" viewBox="0 0 32.699 52.449" width="32.699" xmlns="http://www.w3.org/2000/svg"><path d="m112.748 0a16.35 16.35 0 0 0 -9.766 29.462v1.365a4.818 4.818 0 0 0 -.345 6.918 4.824 4.824 0 0 0 2.1 7.9 8.119 8.119 0 0 0 16.022 0 4.824 4.824 0 0 0 2.1-7.9 4.817 4.817 0 0 0 -.345-6.918v-1.365a16.35 16.35 0 0 0 -9.766-29.462zm6.584 32.7a1.755 1.755 0 0 1 0 3.511h-13.168a1.755 1.755 0 1 1 0-3.511zm-6.584 16.677a5.057 5.057 0 0 1 -4.808-3.51h9.616a5.056 5.056 0 0 1 -4.808 3.508zm6.584-6.583h-13.168a1.755 1.755 0 1 1 0-3.51h13.167a1.755 1.755 0 0 1 0 3.51zm.791-15.4a1.537 1.537 0 0 0 -.682 1.277v.961h-.109-1.756v-6.063l2.206-2.206a1.537 1.537 0 1 0 -2.173-2.173l-2.657 2.657a1.536 1.536 0 0 0 -.45 1.086v6.693h-3.51v-6.693a1.537 1.537 0 0 0 -.45-1.086l-2.657-2.657a1.537 1.537 0 1 0 -2.173 2.173l2.206 2.206v6.056h-1.755-.11v-.961a1.537 1.537 0 0 0 -.682-1.277 13.276 13.276 0 1 1 14.75 0zm0 0" fill="#94e538" transform="translate(-96.398)"/></svg>