<svg id="letter-m" xmlns="http://www.w3.org/2000/svg" width="94.961" height="85.758" viewBox="0 0 94.961 85.758">
  <path id="Trazado_356" data-name="Trazado 356" d="M84.315,0H10.645C4.776,0,0,4.313,0,9.614v66.53c0,5.3,4.776,9.614,10.645,9.614h73.67c5.87,0,10.646-4.313,10.646-9.614V9.614C94.961,4.313,90.185,0,84.315,0Zm.956,76.144a.914.914,0,0,1-.956.863H10.645a.914.914,0,0,1-.955-.863V9.614a.914.914,0,0,1,.955-.863h73.67a.914.914,0,0,1,.956.863v66.53Z" fill="#393939"/>
  <path id="Trazado_357" data-name="Trazado 357" d="M112.07,67.747a5.822,5.822,0,0,0-6.043-5.166h-5.874a6.008,6.008,0,0,0-5.795,3.9c-2.647,7.973-8.524,25.768-9.707,30.153h-.244c-.929-4.419-6.267-22.024-8.72-30.039a5.983,5.983,0,0,0-5.83-4.011H63.709A5.828,5.828,0,0,0,57.67,67.7l-2.731,38.652a4.866,4.866,0,0,0,1.533,3.852,6.007,6.007,0,0,0,4.16,1.627h0a5.354,5.354,0,0,0,5.565-4.808c.463-9.289,1.456-29.231,1.7-34.283h.161c1.089,5.41,7.963,28.819,10.117,36.111a3.206,3.206,0,0,0,3.135,2.177h4.745a3.228,3.228,0,0,0,3.1-2.067c2.46-7.181,10.557-30.905,11.994-36.221h.243c0,5.376.729,24.713,1.093,34.018a5.583,5.583,0,0,0,5.816,5.074h0a6.422,6.422,0,0,0,4.426-1.72,5.206,5.206,0,0,0,1.659-4.085Z" transform="translate(-37.186 -44.326)" fill="#393939"/>
</svg>
