<svg xmlns="http://www.w3.org/2000/svg" width="60.773" height="60.773" viewBox="0 0 60.773 60.773">
  <path id="Trazado_884" data-name="Trazado 884" d="M44.029,35.636a1.186,1.186,0,0,0-.839-.348,1.2,1.2,0,0,0-.839.348l-.839.839-2.727-2.727a21.364,21.364,0,1,0-5.036,5.036l2.727,2.727-.839.839a1.188,1.188,0,0,0,0,1.679l15.006,15a5.933,5.933,0,1,0,8.391-8.391Zm-5.875,4.2-2.541-2.541c.3-.265.584-.536.863-.816s.551-.568.816-.863l2.541,2.541ZM7.942,34.8a18.99,18.99,0,1,1,26.855,0,18.979,18.979,0,0,1-26.855,0ZM43.19,38.154l3.356,3.357-5.035,5.035L38.155,43.19Zm14.166,19.2a3.555,3.555,0,0,1-5.034,0L43.19,48.225l5.035-5.035,9.131,9.132A3.555,3.555,0,0,1,57.356,57.356Zm0,0" transform="translate(-0.002 -0.001)" fill="#fff"/>
</svg>
