<svg height="51" viewBox="0 0 55.402 51" width="55.402" xmlns="http://www.w3.org/2000/svg"><path d="m34.572 52.5h-9.742v-10.084h9.742zm.056-10.2a13.211 13.211 0 0 0 7.472-14.742 12.768 12.768 0 0 0 -12.534-10.431 12.792 12.792 0 0 0 -12.313 10.706 13.19 13.19 0 0 0 7.77 14.567m6.233-21.2a10.332 10.332 0 0 0 -10.15 10.5m8.853-29.2v7.984m19.229 19.9h7.712m-46.688 0h-7.712m41.22-14.084 5.455-5.643m-5.455 33.818 5.455 5.645m-33.29-33.82-5.455-5.647m5.455 33.822-5.455 5.645" fill="none" stroke="#fff" stroke-linecap="round" stroke-linejoin="round" transform="translate(-2 -2)"/></svg>