<svg height="51" viewBox="0 0 43.258 51" width="43.258" xmlns="http://www.w3.org/2000/svg"><path d="m32.7 48.479h-27.4a2.842 2.842 0 0 1 -2.8-2.885v-27.013a2.842 2.842 0 0 1 2.8-2.881h27.4a2.842 2.842 0 0 1 2.8 2.885v27.009a2.842 2.842 0 0 1 -2.8 2.885zm-9.242-45.979a4.483 4.483 0 0 1 -8.918 0h-7.1v12.99h23.1v-12.99zm20.66 27.612c-4.8-1.392 4.784-14.344-1.216-21.3s-12.327.085-12.327.085" fill="none" stroke="#fff" stroke-linecap="round" stroke-linejoin="round" transform="translate(-2 -2)"/></svg>