<svg xmlns="http://www.w3.org/2000/svg" width="52.009" height="57.788" viewBox="0 0 52.009 57.788">
  <g id="clean" transform="translate(-39.999 -16)">
    <path id="Trazado_847" data-name="Trazado 847" d="M72.282,219.247a.963.963,0,0,0,0,1.362l2.889,2.889a.96.96,0,0,0,.681.282v3.853a.963.963,0,0,0,.963.963h5.779a.963.963,0,0,0,.963-.963v-.963h5.779v.963a.963.963,0,0,0,.963.963h5.779a.963.963,0,0,0,.963-.963V207.407H98a.963.963,0,0,0,.963-.963v-3.853a6.75,6.75,0,0,0-6.426-6.735,6.742,6.742,0,0,0-12.19,0,6.75,6.75,0,0,0-6.426,6.735v3.853a.963.963,0,0,0,.963.963h.963v8.269Zm2.043.681,8.744-8.744a3.881,3.881,0,0,0,1.527,1.527l-8.744,8.744Zm14.048-10.594a1.926,1.926,0,1,1-1.926-1.926A1.926,1.926,0,0,1,88.373,209.333Zm2.889,17.336v-.963a.963.963,0,0,0-.963-.963H82.594a.963.963,0,0,0-.963.963v.963H77.779v-3.853H95.115v3.853Zm3.853-5.779H79.141l7.729-7.729a3.849,3.849,0,0,0,2.912-5.755h5.333Zm1.926-15.41H75.852v-1.926H97.041Zm-16.373-7.705c.083,0,.173,0,.274.008a.957.957,0,0,0,.962-.642,4.816,4.816,0,0,1,9.087,0,.957.957,0,0,0,.962.642c.1-.006.19-.008.274-.008a4.824,4.824,0,0,1,4.719,3.853H93.189V199.7H91.262v1.926H81.631V199.7H79.7v1.926H75.949a4.824,4.824,0,0,1,4.719-3.853Zm-2.889,9.631h5.334a3.823,3.823,0,0,0-.495,1.5l-4.84,4.84Z" transform="translate(-28.149 -154.808)" fill="#393939"/>
    <rect id="Rectángulo_1313" data-name="Rectángulo 1313" width="1" height="2" transform="translate(57.998 42)" fill="#393939"/>
    <path id="Trazado_848" data-name="Trazado 848" d="M93.779,122.889a2.889,2.889,0,1,0-2.889,2.889A2.889,2.889,0,0,0,93.779,122.889Zm-3.853,0a.963.963,0,1,1,.963.963A.963.963,0,0,1,89.926,122.889Z" transform="translate(-42.223 -91.479)" fill="#393939"/>
    <path id="Trazado_849" data-name="Trazado 849" d="M248,154.889A2.889,2.889,0,1,0,250.889,152,2.889,2.889,0,0,0,248,154.889Zm3.853,0a.963.963,0,1,1-.963-.963A.963.963,0,0,1,251.853,154.889Z" transform="translate(-182.96 -119.627)" fill="#393939"/>
    <path id="Trazado_850" data-name="Trazado 850" d="M305.631,16a2.893,2.893,0,0,0-2.889,2.889V48.746h-.963a.963.963,0,0,0-.963.963V52.6h-.226a2.894,2.894,0,0,0-2.867,2.531c0,.009,0,.017,0,.026L296,72.731a.963.963,0,0,0,.959,1.057H314.3a.963.963,0,0,0,.959-1.057l-1.715-17.575c0-.009,0-.017,0-.026a2.894,2.894,0,0,0-2.867-2.531h-.226V49.71a.963.963,0,0,0-.963-.963h-.963V18.889A2.893,2.893,0,0,0,305.631,16Zm-.963,2.889a.963.963,0,0,1,1.926,0V48.746h-1.926Zm6.959,36.469,1.611,16.5h-2.791V67.046a.963.963,0,0,0-1.926,0v4.816h-1.926V67.046a.963.963,0,0,0-1.926,0v4.816h-1.926V67.046a.963.963,0,0,0-1.926,0v4.816h-2.791l1.611-16.5a.965.965,0,0,1,.954-.833h10.083a.965.965,0,0,1,.954.833ZM302.742,52.6V50.673h5.779V52.6Z" transform="translate(-225.181)" fill="#393939"/>
    <path id="Trazado_851" data-name="Trazado 851" d="M426.886,151.7a.963.963,0,0,0,.861-.532l1.926-3.853a.963.963,0,0,0-.181-1.112l-1.926-1.926a.963.963,0,0,0-1.362,0l-1.926,1.926a.963.963,0,0,0-.181,1.112l1.926,3.853A.963.963,0,0,0,426.886,151.7Zm0-5.38.754.755-.754,1.509-.754-1.509Z" transform="translate(-337.768 -112.59)" fill="#393939"/>
    <path id="Trazado_852" data-name="Trazado 852" d="M291.569,32.282a.963.963,0,0,0-1.362,0l-1.926,1.926a.963.963,0,0,0-.181,1.112l1.926,3.853a.963.963,0,0,0,1.723,0l1.926-3.853a.963.963,0,0,0-.181-1.112Zm-.681,4.306-.754-1.509.754-.754.754.754Z" transform="translate(-218.143 -14.073)" fill="#393939"/>
    <path id="Trazado_853" data-name="Trazado 853" d="M43.569,312.282a.963.963,0,0,0-1.362,0l-1.926,1.926a.963.963,0,0,0-.181,1.112l1.926,3.852a.963.963,0,0,0,1.723,0l1.926-3.852a.963.963,0,0,0-.181-1.112Zm-.681,4.306-.754-1.509.754-.755.754.755Z" transform="translate(0 -260.364)" fill="#393939"/>
  </g>
</svg>
