<svg height="62.368" viewBox="0 0 76.565 62.368" width="76.565" xmlns="http://www.w3.org/2000/svg"><g opacity=".14"><g fill="#fff"><path d="m406.28 55.377h4.69a1.615 1.615 0 0 1 1.615 1.615v3.255h-7.92v-3.255a1.615 1.615 0 0 1 1.615-1.615z" transform="translate(-344.151 -54.195)"/><path d="m60.681 55.377h-4.69a1.615 1.615 0 0 0 -1.615 1.615v3.255h7.924v-3.255a1.615 1.615 0 0 0 -1.619-1.615z" transform="translate(-46.245 -54.195)"/><path d="m54.376 71.661h7.924v2.439h-7.92z" transform="translate(-46.245 -68.044)"/><path d="m404.665 71.661h7.92v2.439h-7.92z" transform="translate(-344.151 -68.044)"/></g><path d="m53.245 92.886h-11.782v-3.4a1.539 1.539 0 0 1 1.537-1.541h8.7a1.539 1.539 0 0 1 1.54 1.54v3.4z" fill="#e6e2e6" transform="translate(-35.263 -81.893)"/><path d="m391.752 92.886h11.781v-3.4a1.539 1.539 0 0 0 -1.54-1.54h-8.7a1.539 1.539 0 0 0 -1.54 1.54v3.4z" fill="#e6e2e6" transform="translate(-333.169 -81.893)"/><path d="m41.463 104.464h11.781v2.47h-11.781z" fill="#d8d1d7" transform="translate(-35.263 -95.941)"/><path d="m391.752 104.464h11.781v2.47h-11.781z" fill="#d8d1d7" transform="translate(-333.169 -95.941)"/><path d="m80.677 76.267h-19.686v-6.889a.974.974 0 0 0 -.974-.974h-29.862a.974.974 0 0 0 -.974.974v6.889h-19.681a1.5 1.5 0 0 0 -1.5 1.5v6.267a1.5 1.5 0 0 0 1.5 1.5h71.177a1.5 1.5 0 0 0 1.5-1.5v-6.272a1.5 1.5 0 0 0 -1.5-1.495z" fill="#545454" transform="translate(-6.804 -65.274)"/><path d="m80.677 156.387h-71.177a1.5 1.5 0 0 1 -1.5-1.5v2.692a1.5 1.5 0 0 0 1.5 1.5h71.177a1.5 1.5 0 0 0 1.5-1.5v-2.692a1.5 1.5 0 0 1 -1.5 1.5z" fill="#494949" transform="translate(-6.804 -138.828)"/><path d="m99.973 182.892h-66.573v37.943a2.991 2.991 0 0 0 2.991 2.991h60.6a2.991 2.991 0 0 0 2.991-2.991z" fill="#fff" transform="translate(-28.402 -162.641)"/><path d="m33.4 182.892h66.573v2.692h-66.573z" fill="#fff" transform="translate(-28.402 -162.641)"/><path d="m12.186 0a12.186 12.186 0 1 1 -12.186 12.186 12.186 12.186 0 0 1 12.186-12.186z" fill="#fff" transform="matrix(.98776195 -.15596901 .15596901 .98776195 24.354 30.601)"/><path d="m186.78 321.6a12.186 12.186 0 0 1 -12.11-10.84 12.186 12.186 0 1 0 24.22 0 12.186 12.186 0 0 1 -12.11 10.84z" fill="#fff" transform="translate(-148.485 -271.386)"/><path d="m170.669 57.3h-2.392v-2.284a2.669 2.669 0 0 0 -1.935-2.562v-2.242a2.745 2.745 0 0 0 -2.742-2.742h-4.7a2.745 2.745 0 0 0 -2.742 2.742v2.243a2.669 2.669 0 0 0 -1.935 2.562v2.283h-2.157v-5.778a2.1 2.1 0 0 0 -2.1-2.1h-6.012a1.124 1.124 0 0 0 0 2.248h5.865v6.754a1.124 1.124 0 0 0 1.124 1.124h19.725a.375.375 0 0 1 .375.375v6.277a.375.375 0 0 1 -.375.375h-55.81a1.124 1.124 0 1 0 0 2.248h52.381v36.894a1.875 1.875 0 0 1 -1.873 1.873h-7.766a1.124 1.124 0 1 0 0 2.248h7.769a4.125 4.125 0 0 0 4.12-4.12v-36.894h1.183a2.625 2.625 0 0 0 2.622-2.622v-6.28a2.625 2.625 0 0 0 -2.622-2.622zm-11.769-7.582h4.7a.5.5 0 0 1 .494.494v2.138h-5.688v-2.138a.5.5 0 0 1 .494-.494zm-2.429 5.3a.419.419 0 0 1 .419-.419h8.719a.419.419 0 0 1 .419.419v2.282h-9.557z" transform="translate(-96.726 -47.47)"/><path d="m56.376 107.59h-48.45a1.875 1.875 0 0 1 -1.873-1.873v-36.893h7.584a1.124 1.124 0 0 0 0-2.248h-11.015a.375.375 0 0 1 -.375-.375v-6.279a.375.375 0 0 1 .375-.375h19.725a1.124 1.124 0 0 0 1.124-1.124v-6.754h19.264a1.124 1.124 0 1 0 0-2.248h-19.412a2.1 2.1 0 0 0 -2.1 2.1v5.779h-2.157v-2.284a2.669 2.669 0 0 0 -1.935-2.562v-2.242a2.745 2.745 0 0 0 -2.741-2.742h-4.7a2.745 2.745 0 0 0 -2.742 2.742v2.243a2.669 2.669 0 0 0 -1.935 2.562v2.283h-2.391a2.625 2.625 0 0 0 -2.622 2.622v6.278a2.625 2.625 0 0 0 2.622 2.622h1.183v36.894a4.125 4.125 0 0 0 4.12 4.12h48.45a1.124 1.124 0 1 0 0-2.248zm-46.686-57.872h4.7a.5.5 0 0 1 .494.494v2.138h-5.684v-2.138a.5.5 0 0 1 .49-.494zm-2.429 5.3a.419.419 0 0 1 .419-.418h8.72a.419.419 0 0 1 .419.419v2.281h-9.558z" transform="translate(0 -47.47)"/><path d="m239.983 279.76a1.124 1.124 0 0 0 -.985-.583h-2.533l2.61-4.11a1.124 1.124 0 0 0 -1.9-1.2l-3.707 5.836a1.141 1.141 0 0 0 .949 1.726h2.533l-2.61 4.11a1.124 1.124 0 0 0 1.9 1.205l3.707-5.836a1.124 1.124 0 0 0 .036-1.148z" transform="translate(-198.414 -239.565)"/><path d="m193.588 244.054a13.333 13.333 0 1 0 -13.333 13.333 13.349 13.349 0 0 0 13.333-13.333zm-24.419 0a11.086 11.086 0 1 1 11.086 11.086 11.1 11.1 0 0 1 -11.087-11.086z" transform="translate(-141.959 -203.317)"/></g></svg>