<svg id="parking_1_" data-name="parking (1)" xmlns="http://www.w3.org/2000/svg" width="61.417" height="61.417" viewBox="0 0 61.417 61.417">
  <g id="Grupo_826" data-name="Grupo 826">
    <g id="Grupo_825" data-name="Grupo 825">
      <path id="Trazado_857" data-name="Trazado 857" d="M54.22,0H7.2A7.206,7.206,0,0,0,0,7.2V54.22a7.206,7.206,0,0,0,7.2,7.2H54.22a7.206,7.206,0,0,0,7.2-7.2V7.2A7.206,7.206,0,0,0,54.22,0Zm2.4,54.22a2.4,2.4,0,0,1-2.4,2.4H7.2a2.4,2.4,0,0,1-2.4-2.4V7.2A2.4,2.4,0,0,1,7.2,4.8H54.22a2.4,2.4,0,0,1,2.4,2.4Z" fill="#393939"/>
      <path id="Trazado_858" data-name="Trazado 858" d="M162.794,100H146v37.426h4.8V123.991h12a12,12,0,1,0,0-23.991Zm0,19.193h-12V104.8h12a7.2,7.2,0,1,1,0,14.395Z" transform="translate(-128.486 -88.004)" fill="#393939"/>
    </g>
  </g>
</svg>
