<svg xmlns="http://www.w3.org/2000/svg" width="88.719" height="79.061" viewBox="0 0 88.719 79.061">
  <g id="sleep_2_" data-name="sleep (2)" transform="translate(0 -27.868)">
    <path id="Trazado_839" data-name="Trazado 839" d="M24.179,166.008a30.97,30.97,0,0,0-14.1.4l-5.534,1.483a1.551,1.551,0,0,1-1.9-1.9l1.645-6.141a30.193,30.193,0,0,0,.568-13.35,30.195,30.195,0,0,1,0-10.817,30.193,30.193,0,0,0-.568-13.35l-1.645-6.141a1.551,1.551,0,0,1,1.9-1.9l5.534,1.483a30.413,30.413,0,0,0,9.826.964,1.294,1.294,0,0,0-.164-2.582,27.833,27.833,0,0,1-8.991-.882l-5.534-1.483a4.139,4.139,0,0,0-5.069,5.069L1.79,123a27.592,27.592,0,0,1,.525,12.2,32.78,32.78,0,0,0,0,11.78,27.594,27.594,0,0,1-.525,12.2L.145,165.317a4.144,4.144,0,0,0,3.979,5.213,4.215,4.215,0,0,0,1.09-.145l5.534-1.483a28.37,28.37,0,0,1,12.918-.36,1.294,1.294,0,0,0,.515-2.535Z" transform="translate(0 -69.259)" fill="#393939"/>
    <path id="Trazado_840" data-name="Trazado 840" d="M190.971,156.135a27.592,27.592,0,0,1-.525-12.2,32.778,32.778,0,0,0,0-11.78,27.592,27.592,0,0,1,.525-12.2l1.645-6.141a4.139,4.139,0,0,0-5.069-5.069l-5.533,1.483a28.417,28.417,0,0,1-14.684-.056,73.766,73.766,0,0,0-18.929-2.209,73.766,73.766,0,0,0-18.929,2.209,1.294,1.294,0,1,0,.669,2.5,71.2,71.2,0,0,1,18.26-2.121,71.212,71.212,0,0,1,18.26,2.121,31.008,31.008,0,0,0,16.023.056l5.534-1.483a1.551,1.551,0,0,1,1.9,1.9l-1.645,6.141a30.193,30.193,0,0,0-.568,13.35,30.205,30.205,0,0,1,0,10.817,30.193,30.193,0,0,0,.568,13.35l1.645,6.141a1.551,1.551,0,0,1-1.9,1.9l-5.533-1.483a31.011,31.011,0,0,0-16.023.056c-.884.237-1.8.455-2.74.653a17.44,17.44,0,0,0,1.923-5.33c2.782-.893,4.859-4.45,5.089-7.57a5.513,5.513,0,0,0-1.547-4.565,5.3,5.3,0,0,0-.862-.673v-8.122a14.612,14.612,0,0,0-14.6-14.6H142.988a14.612,14.612,0,0,0-14.6,14.6v8.052a5.322,5.322,0,0,0-.976.742,5.514,5.514,0,0,0-1.547,4.565c.242,3.284,2.48,6.884,5.329,7.639a17.613,17.613,0,0,0,30.584,8.3c1.929-.32,3.795-.72,5.548-1.189a28.416,28.416,0,0,1,14.684-.056l5.534,1.483a4.206,4.206,0,0,0,1.09.145,4.144,4.144,0,0,0,3.979-5.213ZM148.515,170.56a15.064,15.064,0,0,1-14.908-13.068,1.289,1.289,0,0,0-1.3-1.126c-1.68.024-3.662-2.744-3.856-5.385a3.04,3.04,0,0,1,.771-2.52,3.985,3.985,0,0,1,2.524-.957,2.453,2.453,0,0,1,.351,0,1.293,1.293,0,0,0,1.383-1.29v-5.528a4.088,4.088,0,0,1,4.083-4.083h13.771a1.294,1.294,0,1,0,0-2.587H137.563a6.681,6.681,0,0,0-6.582,5.592v-1.793A12.022,12.022,0,0,1,142.988,125.8h10.939a12.022,12.022,0,0,1,12.008,12.008v1.243a6.682,6.682,0,0,0-6.469-5.041h-1.809a1.294,1.294,0,1,0,0,2.587h1.809a4.088,4.088,0,0,1,4.083,4.083v5.52a1.294,1.294,0,0,0,1.294,1.294h.008c.081,0,.146,0,.206.006a3.985,3.985,0,0,1,2.524.957,3.04,3.04,0,0,1,.771,2.52c-.188,2.557-2.071,5.272-3.731,5.381a1.294,1.294,0,0,0-1.2,1.124A15.063,15.063,0,0,1,148.515,170.56Z" transform="translate(-104.042 -66.218)" fill="#393939"/>
    <path id="Trazado_841" data-name="Trazado 841" d="M234.445,393.844a4.783,4.783,0,0,1-6.016,0,1.294,1.294,0,0,0-1.694,1.955,7.366,7.366,0,0,0,9.4,0,1.294,1.294,0,0,0-1.694-1.955Z" transform="translate(-187.078 -302.299)" fill="#393939"/>
    <path id="Trazado_842" data-name="Trazado 842" d="M283.468,341.21a1.293,1.293,0,0,0-1.62.85,1.472,1.472,0,0,1-2.809,0,1.294,1.294,0,0,0-2.47.77,4.059,4.059,0,0,0,7.748,0A1.293,1.293,0,0,0,283.468,341.21Z" transform="translate(-228.597 -258.998)" fill="#393939"/>
    <path id="Trazado_843" data-name="Trazado 843" d="M199.208,342.83a1.294,1.294,0,0,0-2.47-.77,1.471,1.471,0,0,1-2.808,0,1.294,1.294,0,0,0-2.47.77,4.059,4.059,0,0,0,7.749,0Z" transform="translate(-158.235 -258.998)" fill="#393939"/>
    <path id="Trazado_844" data-name="Trazado 844" d="M379.343,175.34c0,1.062.609,1.41,1.654,1.41h7.747c.818,0,1.48-.418,1.48-1.2s-.662-1.2-1.48-1.2h-5.571l6.563-7.8a1.591,1.591,0,0,0,.4-1.027,1.17,1.17,0,0,0-1.323-1.306h-7.521c-.818,0-1.48.418-1.48,1.2s.662,1.2,1.48,1.2h4.979l-6.459,7.625A1.664,1.664,0,0,0,379.343,175.34Z" transform="translate(-313.611 -112.722)" fill="#393939"/>
    <path id="Trazado_845" data-name="Trazado 845" d="M410.941,66.792h6.064a.93.93,0,1,0,0-1.858h-3.912l4.4-4.825a1.251,1.251,0,0,0,.375-.8.935.935,0,0,0-.978-1.043h-5.656a.93.93,0,1,0,0,1.858h3.44L410.192,65a1.223,1.223,0,0,0-.31.864A.956.956,0,0,0,410.941,66.792Z" transform="translate(-338.858 -25.131)" fill="#393939"/>
    <path id="Trazado_846" data-name="Trazado 846" d="M357.127,34.247h4.538a.7.7,0,1,0,0-1.39h-2.927l3.293-3.61a.935.935,0,0,0,.281-.6.7.7,0,0,0-.732-.781h-4.233a.7.7,0,1,0,0,1.391h2.574l-3.354,3.647a.916.916,0,0,0-.232.647A.715.715,0,0,0,357.127,34.247Z" transform="translate(-294.589)" fill="#393939"/>
  </g>
</svg>
