<svg height="79.061" viewBox="0 0 88.719 79.061" width="88.719" xmlns="http://www.w3.org/2000/svg"><g fill="#393939"><path d="m24.179 166.008a30.97 30.97 0 0 0 -14.1.4l-5.534 1.483a1.551 1.551 0 0 1 -1.9-1.9l1.645-6.141a30.193 30.193 0 0 0 .568-13.35 30.195 30.195 0 0 1 0-10.817 30.193 30.193 0 0 0 -.568-13.35l-1.645-6.141a1.551 1.551 0 0 1 1.9-1.9l5.534 1.483a30.413 30.413 0 0 0 9.826.964 1.294 1.294 0 0 0 -.164-2.582 27.833 27.833 0 0 1 -8.991-.882l-5.534-1.483a4.139 4.139 0 0 0 -5.069 5.069l1.643 6.139a27.592 27.592 0 0 1 .525 12.2 32.78 32.78 0 0 0 0 11.78 27.594 27.594 0 0 1 -.525 12.2l-1.645 6.137a4.144 4.144 0 0 0 3.979 5.213 4.215 4.215 0 0 0 1.09-.145l5.534-1.483a28.37 28.37 0 0 1 12.918-.36 1.294 1.294 0 0 0 .515-2.535z" transform="translate(0 -97.127)"/><path d="m190.971 156.135a27.592 27.592 0 0 1 -.525-12.2 32.778 32.778 0 0 0 0-11.78 27.592 27.592 0 0 1 .525-12.2l1.645-6.141a4.139 4.139 0 0 0 -5.069-5.069l-5.533 1.483a28.417 28.417 0 0 1 -14.684-.056 73.766 73.766 0 0 0 -18.929-2.209 73.766 73.766 0 0 0 -18.929 2.209 1.294 1.294 0 1 0 .669 2.5 71.2 71.2 0 0 1 18.26-2.121 71.212 71.212 0 0 1 18.26 2.121 31.008 31.008 0 0 0 16.023.056l5.534-1.483a1.551 1.551 0 0 1 1.9 1.9l-1.645 6.141a30.193 30.193 0 0 0 -.568 13.35 30.205 30.205 0 0 1 0 10.817 30.193 30.193 0 0 0 .568 13.35l1.645 6.141a1.551 1.551 0 0 1 -1.9 1.9l-5.533-1.483a31.011 31.011 0 0 0 -16.023.056c-.884.237-1.8.455-2.74.653a17.44 17.44 0 0 0 1.923-5.33c2.782-.893 4.859-4.45 5.089-7.57a5.513 5.513 0 0 0 -1.547-4.565 5.3 5.3 0 0 0 -.862-.673v-8.122a14.612 14.612 0 0 0 -14.6-14.6h-10.937a14.612 14.612 0 0 0 -14.6 14.6v8.052a5.322 5.322 0 0 0 -.976.742 5.514 5.514 0 0 0 -1.547 4.565c.242 3.284 2.48 6.884 5.329 7.639a17.613 17.613 0 0 0 30.584 8.3c1.929-.32 3.795-.72 5.548-1.189a28.416 28.416 0 0 1 14.684-.056l5.534 1.483a4.206 4.206 0 0 0 1.09.145 4.144 4.144 0 0 0 3.979-5.213zm-42.456 14.425a15.064 15.064 0 0 1 -14.908-13.068 1.289 1.289 0 0 0 -1.3-1.126c-1.68.024-3.662-2.744-3.856-5.385a3.04 3.04 0 0 1 .771-2.52 3.985 3.985 0 0 1 2.524-.957 2.453 2.453 0 0 1 .351 0 1.293 1.293 0 0 0 1.383-1.29v-5.528a4.088 4.088 0 0 1 4.083-4.083h13.771a1.294 1.294 0 1 0 0-2.587h-13.771a6.681 6.681 0 0 0 -6.582 5.592v-1.793a12.022 12.022 0 0 1 12.007-12.015h10.939a12.022 12.022 0 0 1 12.008 12.008v1.243a6.682 6.682 0 0 0 -6.469-5.041h-1.809a1.294 1.294 0 1 0 0 2.587h1.809a4.088 4.088 0 0 1 4.083 4.083v5.52a1.294 1.294 0 0 0 1.294 1.294h.008c.081 0 .146 0 .206.006a3.985 3.985 0 0 1 2.524.957 3.04 3.04 0 0 1 .771 2.52c-.188 2.557-2.071 5.272-3.731 5.381a1.294 1.294 0 0 0 -1.2 1.124 15.063 15.063 0 0 1 -14.906 13.078z" transform="translate(-104.042 -94.086)"/><path d="m234.445 393.844a4.783 4.783 0 0 1 -6.016 0 1.294 1.294 0 0 0 -1.694 1.955 7.366 7.366 0 0 0 9.4 0 1.294 1.294 0 0 0 -1.694-1.955z" transform="translate(-187.078 -330.167)"/><path d="m283.468 341.21a1.293 1.293 0 0 0 -1.62.85 1.472 1.472 0 0 1 -2.809 0 1.294 1.294 0 0 0 -2.47.77 4.059 4.059 0 0 0 7.748 0 1.293 1.293 0 0 0 -.849-1.62z" transform="translate(-228.597 -286.866)"/><path d="m199.208 342.83a1.294 1.294 0 0 0 -2.47-.77 1.471 1.471 0 0 1 -2.808 0 1.294 1.294 0 0 0 -2.47.77 4.059 4.059 0 0 0 7.749 0z" transform="translate(-158.235 -286.866)"/><path d="m379.343 175.34c0 1.062.609 1.41 1.654 1.41h7.747c.818 0 1.48-.418 1.48-1.2s-.662-1.2-1.48-1.2h-5.571l6.563-7.8a1.591 1.591 0 0 0 .4-1.027 1.17 1.17 0 0 0 -1.323-1.306h-7.521c-.818 0-1.48.418-1.48 1.2s.662 1.2 1.48 1.2h4.979l-6.459 7.625a1.664 1.664 0 0 0 -.469 1.098z" transform="translate(-313.611 -140.59)"/><path d="m410.941 66.792h6.064a.93.93 0 1 0 0-1.858h-3.912l4.4-4.825a1.251 1.251 0 0 0 .375-.8.935.935 0 0 0 -.978-1.043h-5.656a.93.93 0 1 0 0 1.858h3.44l-4.482 4.876a1.223 1.223 0 0 0 -.31.864.956.956 0 0 0 1.059.928z" transform="translate(-338.858 -52.999)"/><path d="m357.127 34.247h4.538a.7.7 0 1 0 0-1.39h-2.927l3.293-3.61a.935.935 0 0 0 .281-.6.7.7 0 0 0 -.732-.781h-4.233a.7.7 0 1 0 0 1.391h2.574l-3.354 3.647a.916.916 0 0 0 -.232.647.715.715 0 0 0 .792.696z" transform="translate(-294.589 -27.868)"/></g></svg>