<svg height="59.788" viewBox="0 0 54.467 59.788" width="54.467" xmlns="http://www.w3.org/2000/svg"><path d="m28.369 45.325-12.048-6.956v-13.923l12.048-6.956 12.049 6.956v13.914zm0-42.785v15.041m8.7-10.806-8.645 5.051m-8.747-5.051 8.639 5.051m25.247 5.044-13.027 7.53m13.7 2.119-8.694-4.944m0-10.1-.047 10m-42.319-4.605 13.029 7.53m-13.705 2.129 8.694-4.953m0-10.1.047 10m17.117 38.852v-15.048m-.053 5.755-8.628 5.051m17.386 0-8.641-5.051m-25.246-5.044 13.029-7.531m-5.011 2.825-8.694-4.953m8.7 15.052.047-10m42.315 4.611-13.026-7.535m13.7-2.119-8.694 4.953m0 10.1-.047-10m-17.117-1.2 7.6-4.39v-8.79l-7.6-4.39-7.6 4.39v8.779z" fill="none" stroke="#393939" stroke-linecap="round" stroke-linejoin="round" stroke-width="2" transform="translate(-1.136 -1.54)"/></svg>