<svg xmlns="http://www.w3.org/2000/svg" width="68.192" height="65.253" viewBox="0 0 68.192 65.253">
  <g id="home" transform="translate(0.514 -8.897)" opacity="0.13">
    <path id="Trazado_188" data-name="Trazado 188" d="M60.366,59.13V78.057H14.853V45.246H6.386L37.578,15.8,52.895,29.806" transform="translate(-5.392 -5.404)" fill="#fff" stroke="#707070" stroke-width="1"/>
    <g id="Grupo_30" data-name="Grupo 30" transform="translate(26.583 15.872)">
      <path id="Trazado_189" data-name="Trazado 189" d="M297.548,84c15.565-14.569-4.919-33-4.919-33h-1s-20.484,18.429-4.919,33l5.417,4.919Z" transform="translate(-263.741 -50.997)" fill="#fff" stroke="#707070" stroke-width="1"/>
      <path id="Trazado_190" data-name="Trazado 190" d="M191.207,266.162c-9.028-9.65-20.421,3.051-20.421,3.051v.623s11.394,12.639,20.421,3.051l3.051-3.362Z" transform="translate(-170.786 -229.615)" fill="#fff" stroke="#707070" stroke-width="1"/>
    </g>
    <g id="Grupo_31" data-name="Grupo 31" transform="translate(0 9.397)">
      <path id="Trazado_191" data-name="Trazado 191" d="M56.156,15.063a.936.936,0,0,0-.685-.249h-1a.936.936,0,0,0-.685.249,42.877,42.877,0,0,0-6.475,7.783L32.871,9.646a.936.936,0,0,0-.685-.249c-.374,0-.374,0-16.312,15L.309,39.157A1.083,1.083,0,0,0,.06,40.278a.958.958,0,0,0,.934.623H8.4V72.654a.983.983,0,0,0,1,1H54.911a.983.983,0,0,0,1-1V54.162l5.105-4.607c4.109-3.86,6.226-8.343,6.164-13.324C67.114,25.087,56.592,15.5,56.156,15.063Zm-45.7,56.595V39.842a.983.983,0,0,0-1-1H3.546c5.977-5.666,24.842-23.472,28.64-27.083L46.195,24.589a24.573,24.573,0,0,0-3.549,11.643c-.062,4.981,2.055,9.464,6.164,13.386l5.105,4.607V71.657H10.457ZM59.705,48.123,55.97,51.485V34.8a1,1,0,1,0-1.992,0V51.485l-3.736-3.362C46.568,44.636,44.7,40.652,44.7,36.293c.125-9.339,8.53-17.869,10.148-19.487h.187c1.619,1.557,10.086,10.086,10.148,19.425C65.246,40.652,63.379,44.636,59.705,48.123Z" transform="translate(0 -9.397)" fill="#001b01" stroke="#707070" stroke-width="1"/>
      <path id="Trazado_192" data-name="Trazado 192" d="M190.188,264.166a.79.79,0,0,0-.062-.374.217.217,0,0,0-.062-.124c-.062-.062-.062-.125-.125-.187l-3.051-3.362a11.267,11.267,0,0,0-8.405-3.922c-7.1,0-13.2,6.662-13.448,6.973a.936.936,0,0,0-.249.685v.623a.936.936,0,0,0,.249.685c.249.311,6.351,6.973,13.448,6.973h0a11.394,11.394,0,0,0,8.467-3.922L190,264.851c.062-.062.062-.124.124-.187,0-.062.062-.062.062-.125-.062-.124,0-.249,0-.374Zm-4.794,2.615a9.379,9.379,0,0,1-6.973,3.3c-5.292,0-10.273-4.607-11.643-5.977,1.307-1.37,6.288-5.977,11.643-5.977a9.48,9.48,0,0,1,6.973,3.3l1.494,1.681h-9.464a1,1,0,1,0,0,1.992h9.464Z" transform="translate(-139.137 -217.782)" fill="#001b01" stroke="#707070" stroke-width="1"/>
    </g>
  </g>
</svg>
