<svg xmlns="http://www.w3.org/2000/svg" width="76.565" height="62.368" viewBox="0 0 76.565 62.368">
  <g id="car-battery" transform="translate(0 -47.47)" opacity="0.14">
    <g id="Grupo_33" data-name="Grupo 33" transform="translate(1.196 48.652)">
      <path id="Trazado_206" data-name="Trazado 206" d="M406.28,55.377h4.69a1.615,1.615,0,0,1,1.615,1.615v3.255h-7.92V56.992A1.615,1.615,0,0,1,406.28,55.377Z" transform="translate(-345.347 -55.377)" fill="#fff"/>
      <path id="Trazado_207" data-name="Trazado 207" d="M60.681,55.377h-4.69a1.615,1.615,0,0,0-1.615,1.615v3.255H62.3V56.992A1.615,1.615,0,0,0,60.681,55.377Z" transform="translate(-47.441 -55.377)" fill="#fff"/>
      <path id="Trazado_208" data-name="Trazado 208" d="M54.376,71.661H62.3V74.1h-7.92Z" transform="translate(-47.441 -69.226)" fill="#fff"/>
      <path id="Trazado_209" data-name="Trazado 209" d="M404.665,71.661h7.92V74.1h-7.92Z" transform="translate(-345.347 -69.226)" fill="#fff"/>
      <path id="Trazado_210" data-name="Trazado 210" d="M53.245,92.886H41.463v-3.4A1.539,1.539,0,0,1,43,87.945h8.7a1.539,1.539,0,0,1,1.54,1.54v3.4Z" transform="translate(-36.459 -83.075)" fill="#e6e2e6"/>
      <path id="Trazado_211" data-name="Trazado 211" d="M391.752,92.886h11.781v-3.4a1.539,1.539,0,0,0-1.54-1.54h-8.7a1.539,1.539,0,0,0-1.54,1.54v3.4Z" transform="translate(-334.365 -83.075)" fill="#e6e2e6"/>
      <path id="Trazado_212" data-name="Trazado 212" d="M41.463,104.464H53.244v2.47H41.463Z" transform="translate(-36.459 -97.123)" fill="#d8d1d7"/>
      <path id="Trazado_213" data-name="Trazado 213" d="M391.752,104.464h11.781v2.47H391.752Z" transform="translate(-334.365 -97.123)" fill="#d8d1d7"/>
      <path id="Trazado_214" data-name="Trazado 214" d="M80.677,76.267H60.991V69.378a.974.974,0,0,0-.974-.974H30.155a.974.974,0,0,0-.974.974v6.889H9.5a1.5,1.5,0,0,0-1.5,1.5v6.267a1.5,1.5,0,0,0,1.5,1.5H80.677a1.5,1.5,0,0,0,1.5-1.5V77.762A1.5,1.5,0,0,0,80.677,76.267Z" transform="translate(-8 -66.456)" fill="#545454"/>
      <path id="Trazado_215" data-name="Trazado 215" d="M80.677,156.387H9.5a1.5,1.5,0,0,1-1.5-1.5v2.692a1.5,1.5,0,0,0,1.5,1.5H80.677a1.5,1.5,0,0,0,1.5-1.5v-2.692A1.5,1.5,0,0,1,80.677,156.387Z" transform="translate(-8 -140.01)" fill="#494949"/>
      <path id="Trazado_216" data-name="Trazado 216" d="M99.973,182.892H33.4v37.943a2.991,2.991,0,0,0,2.991,2.991h60.6a2.991,2.991,0,0,0,2.991-2.991Z" transform="translate(-29.598 -163.823)" fill="#fff"/>
      <path id="Trazado_217" data-name="Trazado 217" d="M33.4,182.892H99.973v2.692H33.4Z" transform="translate(-29.598 -163.823)" fill="#fff"/>
      <path id="Trazado_394" data-name="Trazado 394" d="M12.186,0A12.186,12.186,0,1,1,0,12.186,12.186,12.186,0,0,1,12.186,0Z" transform="translate(23.158 29.419) rotate(-8.973)" fill="#fff"/>
      <path id="Trazado_218" data-name="Trazado 218" d="M186.78,321.6a12.186,12.186,0,0,1-12.11-10.84,12.186,12.186,0,1,0,24.22,0A12.186,12.186,0,0,1,186.78,321.6Z" transform="translate(-149.681 -272.568)" fill="#fff"/>
    </g>
    <g id="Grupo_34" data-name="Grupo 34" transform="translate(0 47.47)">
      <path id="Trazado_219" data-name="Trazado 219" d="M170.669,57.3h-2.392V55.016a2.669,2.669,0,0,0-1.935-2.562V50.212A2.745,2.745,0,0,0,163.6,47.47h-4.7a2.745,2.745,0,0,0-2.742,2.742v2.243a2.669,2.669,0,0,0-1.935,2.562V57.3h-2.157V51.522a2.1,2.1,0,0,0-2.1-2.1h-6.012a1.124,1.124,0,0,0,0,2.248h5.865v6.754a1.124,1.124,0,0,0,1.124,1.124h19.725a.375.375,0,0,1,.375.375V66.2a.375.375,0,0,1-.375.375H114.858a1.124,1.124,0,1,0,0,2.248h52.381v36.894a1.875,1.875,0,0,1-1.873,1.873H157.6a1.124,1.124,0,1,0,0,2.248h7.769a4.125,4.125,0,0,0,4.12-4.12V68.824h1.183a2.625,2.625,0,0,0,2.622-2.622V59.922a2.625,2.625,0,0,0-2.622-2.622ZM158.9,49.718h4.7a.5.5,0,0,1,.494.494V52.35h-5.688V50.212A.5.5,0,0,1,158.9,49.718Zm-2.429,5.3a.419.419,0,0,1,.419-.419h8.719a.419.419,0,0,1,.419.419V57.3h-9.557Z" transform="translate(-96.726 -47.47)"/>
      <path id="Trazado_220" data-name="Trazado 220" d="M56.376,107.59H7.926a1.875,1.875,0,0,1-1.873-1.873V68.824h7.584a1.124,1.124,0,0,0,0-2.248H2.622a.375.375,0,0,1-.375-.375V59.922a.375.375,0,0,1,.375-.375H22.347a1.124,1.124,0,0,0,1.124-1.124V51.669H42.735a1.124,1.124,0,1,0,0-2.248H23.323a2.1,2.1,0,0,0-2.1,2.1V57.3H19.066V55.016a2.669,2.669,0,0,0-1.935-2.562V50.212A2.745,2.745,0,0,0,14.39,47.47H9.69a2.745,2.745,0,0,0-2.742,2.742v2.243a2.669,2.669,0,0,0-1.935,2.562V57.3H2.622A2.625,2.625,0,0,0,0,59.922V66.2a2.625,2.625,0,0,0,2.622,2.622H3.805v36.894a4.125,4.125,0,0,0,4.12,4.12h48.45a1.124,1.124,0,1,0,0-2.248ZM9.69,49.718h4.7a.5.5,0,0,1,.494.494V52.35H9.2V50.212A.5.5,0,0,1,9.69,49.718Zm-2.429,5.3A.419.419,0,0,1,7.68,54.6H16.4a.419.419,0,0,1,.419.419V57.3H7.261Z" transform="translate(0 -47.47)"/>
      <path id="Trazado_221" data-name="Trazado 221" d="M239.983,279.76a1.124,1.124,0,0,0-.985-.583h-2.533l2.61-4.11a1.124,1.124,0,0,0-1.9-1.2l-3.707,5.836a1.141,1.141,0,0,0,.949,1.726h2.533l-2.61,4.11a1.124,1.124,0,0,0,1.9,1.205l3.707-5.836A1.124,1.124,0,0,0,239.983,279.76Z" transform="translate(-198.414 -239.565)"/>
      <path id="Trazado_222" data-name="Trazado 222" d="M193.588,244.054a13.333,13.333,0,1,0-13.333,13.333A13.349,13.349,0,0,0,193.588,244.054Zm-24.419,0a11.086,11.086,0,1,1,11.086,11.086A11.1,11.1,0,0,1,169.168,244.054Z" transform="translate(-141.959 -203.317)"/>
    </g>
  </g>
</svg>
