<svg height="69.375" viewBox="0 0 83.144 69.375" width="83.144" xmlns="http://www.w3.org/2000/svg"><path d="m96.555 253.168h-9.936a2.319 2.319 0 0 0 0 4.638h4.338l-9.908 9.908-5.386-5.386a2.319 2.319 0 0 0 -3.279 0l-5.27 5.269a2.319 2.319 0 1 0 3.279 3.28l3.63-3.63 5.385 5.386a2.319 2.319 0 0 0 3.28 0l11.548-11.547v4.337a2.319 2.319 0 1 0 4.638 0v-9.936a2.319 2.319 0 0 0 -2.319-2.319zm0 0" fill="#3c3c3c" transform="translate(-15.729 -251.527)"/><path d="m45.493 27.2a26.207 26.207 0 0 1 5.662 19.64c-2.935 23.371-35.3 30.884-46.061 8.727-5.08-10.467-2.109-23.002 3.912-32.407a15.288 15.288 0 0 0 3.825 11.782 14.371 14.371 0 0 0 7.11 4.017 35.571 35.571 0 0 1 2.872-23.733 34.643 34.643 0 0 1 11.296-12.726c-1.64 11.859 4.611 16.434 11.384 24.7zm-15.784 15.9a13.432 13.432 0 0 0 -4.381 4.932 13.788 13.788 0 0 0 -1.114 9.2 5.585 5.585 0 0 1 -2.754-1.563 5.883 5.883 0 0 1 -1.484-4.565c-2.331 3.644-3.481 8.505-1.512 12.56 4.17 8.589 16.717 5.677 17.852-3.387a10.158 10.158 0 0 0 -2.193-7.608c-2.624-3.2-5.044-4.976-4.412-9.571z" fill="none" stroke="#373737" stroke-linecap="round" stroke-linejoin="round" stroke-width="3" transform="translate(-.993 -1)"/></svg>