<svg xmlns="http://www.w3.org/2000/svg" width="83.144" height="69.375" viewBox="0 0 83.144 69.375">
  <g id="Grupo_965" data-name="Grupo 965" transform="translate(-299.489 -458.5)">
    <g id="popular" transform="translate(339.5 421)">
      <path id="Trazado_855" data-name="Trazado 855" d="M96.555,253.168H86.619a2.319,2.319,0,0,0,0,4.638h4.338l-9.908,9.908-5.386-5.386a2.319,2.319,0,0,0-3.279,0l-5.27,5.269a2.319,2.319,0,1,0,3.279,3.28l3.63-3.63,5.385,5.386a2.319,2.319,0,0,0,3.28,0l11.548-11.547v4.337a2.319,2.319,0,1,0,4.638,0v-9.936a2.319,2.319,0,0,0-2.319-2.319Zm0,0" transform="translate(-55.74 -214.027)" fill="#3c3c3c"/>
    </g>
    <g id="Capa_2" data-name="Capa 2" transform="translate(298.496 457.5)">
      <g id="Capa_2-2" data-name="Capa 2" transform="translate(2.504 2.5)">
        <path id="Trazado_856" data-name="Trazado 856" d="M45.493,27.2A26.207,26.207,0,0,1,51.155,46.84c-2.935,23.371-35.3,30.884-46.061,8.727C.014,45.1,2.985,32.565,9.006,23.16a15.288,15.288,0,0,0,3.825,11.782,14.371,14.371,0,0,0,7.11,4.017,35.571,35.571,0,0,1,2.872-23.733A34.643,34.643,0,0,1,34.109,2.5C32.469,14.359,38.72,18.934,45.493,27.2ZM29.709,43.1a13.432,13.432,0,0,0-4.381,4.932,13.788,13.788,0,0,0-1.114,9.2,5.585,5.585,0,0,1-2.754-1.563,5.883,5.883,0,0,1-1.484-4.565c-2.331,3.644-3.481,8.505-1.512,12.56,4.17,8.589,16.717,5.677,17.852-3.387a10.158,10.158,0,0,0-2.193-7.608c-2.624-3.2-5.044-4.976-4.412-9.571Z" transform="translate(-2.504 -2.5)" fill="none" stroke="#373737" stroke-linecap="round" stroke-linejoin="round" stroke-width="3"/>
      </g>
    </g>
  </g>
</svg>
