<svg height="61.417" viewBox="0 0 61.417 61.417" width="61.417" xmlns="http://www.w3.org/2000/svg"><g fill="#393939"><path d="m54.22 0h-47.02a7.206 7.206 0 0 0 -7.2 7.2v47.02a7.206 7.206 0 0 0 7.2 7.2h47.02a7.206 7.206 0 0 0 7.2-7.2v-47.02a7.206 7.206 0 0 0 -7.2-7.2zm2.4 54.22a2.4 2.4 0 0 1 -2.4 2.4h-47.02a2.4 2.4 0 0 1 -2.4-2.4v-47.02a2.4 2.4 0 0 1 2.4-2.4h47.02a2.4 2.4 0 0 1 2.4 2.4z"/><path d="m162.794 100h-16.794v37.426h4.8v-13.435h12a12 12 0 1 0 0-23.991zm0 19.193h-12v-14.393h12a7.2 7.2 0 1 1 0 14.395z" transform="translate(-128.486 -88.004)"/></g></svg>