<svg height="57.788" viewBox="0 0 52.009 57.788" width="52.009" xmlns="http://www.w3.org/2000/svg"><g fill="#393939"><path d="m72.282 219.247a.963.963 0 0 0 0 1.362l2.889 2.889a.96.96 0 0 0 .681.282v3.853a.963.963 0 0 0 .963.963h5.779a.963.963 0 0 0 .963-.963v-.963h5.779v.963a.963.963 0 0 0 .963.963h5.779a.963.963 0 0 0 .963-.963v-20.226h.959a.963.963 0 0 0 .963-.963v-3.853a6.75 6.75 0 0 0 -6.426-6.735 6.742 6.742 0 0 0 -12.19 0 6.75 6.75 0 0 0 -6.426 6.735v3.853a.963.963 0 0 0 .963.963h.963v8.269zm2.043.681 8.744-8.744a3.881 3.881 0 0 0 1.527 1.527l-8.744 8.744zm14.048-10.594a1.926 1.926 0 1 1 -1.926-1.926 1.926 1.926 0 0 1 1.926 1.925zm2.889 17.336v-.963a.963.963 0 0 0 -.963-.963h-7.705a.963.963 0 0 0 -.963.963v.963h-3.852v-3.853h17.336v3.853zm3.853-5.779h-15.974l7.729-7.729a3.849 3.849 0 0 0 2.912-5.755h5.333zm1.926-15.41h-21.189v-1.926h21.189zm-16.373-7.705c.083 0 .173 0 .274.008a.957.957 0 0 0 .962-.642 4.816 4.816 0 0 1 9.087 0 .957.957 0 0 0 .962.642c.1-.006.19-.008.274-.008a4.824 4.824 0 0 1 4.719 3.853h-3.757v-1.929h-1.927v1.926h-9.631v-1.926h-1.931v1.926h-3.751a4.824 4.824 0 0 1 4.719-3.853zm-2.889 9.631h5.334a3.823 3.823 0 0 0 -.495 1.5l-4.84 4.84z" transform="translate(-68.148 -170.808)"/><path d="m17.999 26h1v2h-1z"/><path d="m93.779 122.889a2.889 2.889 0 1 0 -2.889 2.889 2.889 2.889 0 0 0 2.889-2.889zm-3.853 0a.963.963 0 1 1 .963.963.963.963 0 0 1 -.963-.963z" transform="translate(-82.222 -107.479)"/><path d="m248 154.889a2.889 2.889 0 1 0 2.889-2.889 2.889 2.889 0 0 0 -2.889 2.889zm3.853 0a.963.963 0 1 1 -.963-.963.963.963 0 0 1 .963.963z" transform="translate(-222.959 -135.627)"/><path d="m305.631 16a2.893 2.893 0 0 0 -2.889 2.889v29.857h-.963a.963.963 0 0 0 -.963.963v2.891h-.226a2.894 2.894 0 0 0 -2.867 2.531v.026l-1.723 17.574a.963.963 0 0 0 .959 1.057h17.341a.963.963 0 0 0 .959-1.057l-1.715-17.575c0-.009 0-.017 0-.026a2.894 2.894 0 0 0 -2.867-2.531h-.226v-2.889a.963.963 0 0 0 -.963-.963h-.963v-29.858a2.893 2.893 0 0 0 -2.894-2.889zm-.963 2.889a.963.963 0 0 1 1.926 0v29.857h-1.926zm6.959 36.469 1.611 16.5h-2.791v-4.812a.963.963 0 0 0 -1.926 0v4.816h-1.926v-4.816a.963.963 0 0 0 -1.926 0v4.816h-1.926v-4.816a.963.963 0 0 0 -1.926 0v4.816h-2.791l1.611-16.5a.965.965 0 0 1 .954-.833h10.083a.965.965 0 0 1 .954.833zm-8.885-2.758v-1.927h5.779v1.927z" transform="translate(-265.18 -16)"/><path d="m426.886 151.7a.963.963 0 0 0 .861-.532l1.926-3.853a.963.963 0 0 0 -.181-1.112l-1.926-1.926a.963.963 0 0 0 -1.362 0l-1.926 1.926a.963.963 0 0 0 -.181 1.112l1.926 3.853a.963.963 0 0 0 .863.532zm0-5.38.754.755-.754 1.509-.754-1.509z" transform="translate(-377.767 -128.59)"/><path d="m291.569 32.282a.963.963 0 0 0 -1.362 0l-1.926 1.926a.963.963 0 0 0 -.181 1.112l1.926 3.853a.963.963 0 0 0 1.723 0l1.926-3.853a.963.963 0 0 0 -.181-1.112zm-.681 4.306-.754-1.509.754-.754.754.754z" transform="translate(-258.142 -30.073)"/><path d="m43.569 312.282a.963.963 0 0 0 -1.362 0l-1.926 1.926a.963.963 0 0 0 -.181 1.112l1.926 3.852a.963.963 0 0 0 1.723 0l1.926-3.852a.963.963 0 0 0 -.181-1.112zm-.681 4.306-.754-1.509.754-.755.754.755z" transform="translate(-39.999 -276.364)"/></g></svg>