<svg xmlns="http://www.w3.org/2000/svg" width="56.388" height="89.892" viewBox="0 0 56.388 89.892">
    <defs>
        <style>
            .prefix__cls-1{fill:#94e538}
        </style>
    </defs>
    <g id="prefix__fridge" transform="translate(-77.965)">
        <path id="prefix__Trazado_391" d="M133.165 14.673a1.257 1.257 0 0 0 1.188-1.317V4.925A4.708 4.708 0 0 0 129.91 0h-47.5a4.708 4.708 0 0 0-4.442 4.925v74.55a4.708 4.708 0 0 0 4.439 4.925h.83v2.4a2.956 2.956 0 0 0 2.789 3.092H89.4a2.956 2.956 0 0 0 2.784-3.092v-2.4h27.95v2.4a2.956 2.956 0 0 0 2.789 3.092h3.369a2.956 2.956 0 0 0 2.789-3.092v-2.4h.83a4.708 4.708 0 0 0 4.442-4.925V19.512a1.194 1.194 0 1 0-2.375 0v10.722H98.169a1.324 1.324 0 0 0 0 2.634h33.808v46.608a2.191 2.191 0 0 1-2.067 2.292h-47.5a2.191 2.191 0 0 1-2.067-2.292V32.868h12.274a1.324 1.324 0 0 0 0-2.634H80.34V4.925a2.191 2.191 0 0 1 2.067-2.292h47.5a2.191 2.191 0 0 1 2.067 2.292v8.431a1.257 1.257 0 0 0 1.188 1.317zM89.809 86.8a.438.438 0 0 1-.414.459h-3.369a.438.438 0 0 1-.414-.459v-2.4h4.2zm36.9 0a.438.438 0 0 1-.414.459h-3.369a.438.438 0 0 1-.414-.459v-2.4h4.2z" class="prefix__cls-1" data-name="Trazado 391"/>
        <path id="prefix__Trazado_392" d="M112.011 41.894v14.865a4.514 4.514 0 0 0 9.027 0V41.894a4.514 4.514 0 0 0-9.027 0zm5.84 0v14.865a1.327 1.327 0 0 1-2.653 0V41.894a1.327 1.327 0 0 1 2.653 0z" class="prefix__cls-1" data-name="Trazado 392" transform="translate(-26.812 -29.437)"/>
        <path id="prefix__Trazado_393" d="M112.011 209.336V224.2a4.514 4.514 0 1 0 9.027 0v-14.864a4.514 4.514 0 1 0-9.027 0zm5.84 0V224.2a1.327 1.327 0 0 1-2.653 0v-14.864a1.327 1.327 0 0 1 2.653 0z" class="prefix__cls-1" data-name="Trazado 393" transform="translate(-26.812 -170.989)"/>
    </g>
</svg>
