<svg xmlns="http://www.w3.org/2000/svg" width="17.673" height="20.108" viewBox="0 0 17.673 20.108">
  <g id="turn-off_1_" data-name="turn-off (1)" transform="translate(49.99 -35)">
    <g id="Grupo_466" data-name="Grupo 466" transform="translate(-42.92 35)">
      <g id="Grupo_465" data-name="Grupo 465">
        <path id="Trazado_463" data-name="Trazado 463" d="M212.789,0a1.769,1.769,0,0,0-1.767,1.767V8.877a1.767,1.767,0,1,0,3.535,0V1.767A1.769,1.769,0,0,0,212.789,0Z" transform="translate(-211.022)" fill="#94e538"/>
      </g>
    </g>
    <g id="Grupo_468" data-name="Grupo 468" transform="translate(-49.99 39.205)">
      <g id="Grupo_467" data-name="Grupo 467">
        <path id="Trazado_464" data-name="Trazado 464" d="M45.762,107.536a1.767,1.767,0,1,0-2.352,2.638,5.3,5.3,0,1,1-7.126,0,1.768,1.768,0,1,0-2.363-2.628,8.839,8.839,0,1,0,11.841-.011Z" transform="translate(-31.01 -107.07)" fill="#94e538"/>
      </g>
    </g>
  </g>
</svg>
