<svg height="94.878" viewBox="0 0 122 94.878" width="122" xmlns="http://www.w3.org/2000/svg"><g fill="#393939"><path d="m1.807 145.979a1.724 1.724 0 0 1 -1.8-1.63v-6.52a1.724 1.724 0 0 1 1.8-1.63h24.062a1.724 1.724 0 0 1 1.8 1.63v6.52a1.724 1.724 0 0 1 -1.8 1.63h-10.226v8.909h19.38l2.137-25.86h-15.141a1.724 1.724 0 0 1 -1.8-1.63v-8.692a1.724 1.724 0 0 1 1.8-1.63h5.564a1.638 1.638 0 1 1 0 3.26h-3.759v5.433h43.554v-5.433h-31.278a1.638 1.638 0 1 1 0-3.26h33.083a1.724 1.724 0 0 1 1.8 1.63v8.694a1.724 1.724 0 0 1 -1.8 1.63h-15.14l2.136 25.86h19.381v-8.909h-10.228a1.724 1.724 0 0 1 -1.8-1.63v-6.52a1.724 1.724 0 0 1 1.8-1.63h24.068a1.724 1.724 0 0 1 1.8 1.63v6.52a1.724 1.724 0 0 1 -1.8 1.63h-10.231v8.909h6.472a7.264 7.264 0 0 1 4.792-4.89 7.294 7.294 0 0 1 4.842-4.653v-22.002a15.4 15.4 0 0 1 -6.8 1.561c-7.854 0-14.245-5.771-14.245-12.864a11.733 11.733 0 0 1 .292-2.6 7.019 7.019 0 0 1 -2.573-5.36 6.882 6.882 0 0 1 1.9-4.718 11.822 11.822 0 0 1 -1.9-6.422c0-6.155 4.8-11.38 11.352-12.6 1.752-5.426 7.311-9.255 13.674-9.255a15.335 15.335 0 0 1 6.445 1.389 1.558 1.558 0 0 1 .791 2.191 1.9 1.9 0 0 1 -2.427.714 11.441 11.441 0 0 0 -4.809-1.036c-5.073 0-9.461 3.258-10.434 7.747a1.746 1.746 0 0 1 -1.567 1.306c-5.368.552-9.416 4.653-9.416 9.539a8.925 8.925 0 0 0 2.065 5.685 1.526 1.526 0 0 1 -.337 2.248 3.931 3.931 0 0 0 -1.728 3.208 3.989 3.989 0 0 0 2 3.39 1.554 1.554 0 0 1 .722 1.819 8.755 8.755 0 0 0 -.444 2.749c0 5.3 4.771 9.6 10.635 9.6a11.282 11.282 0 0 0 6.8-2.226v-11.778l-4.989-4.505a1.522 1.522 0 0 1 0-2.306 1.945 1.945 0 0 1 2.552 0l2.437 2.2v-3.438a1.814 1.814 0 0 1 3.61 0v9.988l2.47-2.231a1.945 1.945 0 0 1 2.552 0 1.52 1.52 0 0 1 0 2.3l-5.022 4.537v5.238a11.279 11.279 0 0 0 6.8 2.227c5.865 0 10.635-4.309 10.635-9.6a8.749 8.749 0 0 0 -.474-2.843 1.546 1.546 0 0 1 .667-1.8 3.986 3.986 0 0 0 1.88-3.311 3.933 3.933 0 0 0 -1.728-3.208 1.525 1.525 0 0 1 -.337-2.247 8.925 8.925 0 0 0 2.064-5.686c0-4.885-4.048-8.987-9.416-9.54a1.745 1.745 0 0 1 -1.562-1.307 8.858 8.858 0 0 0 -.72-2.054 1.57 1.57 0 0 1 .912-2.153 1.886 1.886 0 0 1 2.384.823 12.02 12.02 0 0 1 .664 1.633c6.55 1.215 11.35 6.441 11.35 12.595a11.822 11.822 0 0 1 -1.9 6.423 6.885 6.885 0 0 1 1.9 4.717 7.021 7.021 0 0 1 -2.4 5.206 11.7 11.7 0 0 1 .329 2.752c0 7.093-6.391 12.863-14.245 12.863a15.4 15.4 0 0 1 -6.8-1.56v21.675a8.192 8.192 0 0 1 2.24.6 5.159 5.159 0 0 1 2.557-.664h.02a5.159 5.159 0 0 1 2.557.664 8.332 8.332 0 0 1 3.288-.664 7.619 7.619 0 0 1 7.405 5.05 7.084 7.084 0 0 1 4.988 6.1 1.484 1.484 0 0 1 .062.418 1.724 1.724 0 0 1 -1.8 1.63h-118.395a1.638 1.638 0 1 1 0-3.26h10.227v-8.909zm85.785-6.52h-20.454v3.26h20.453zm30.336 15.429a4.054 4.054 0 0 0 -2.875-1.992 1.706 1.706 0 0 1 -1.446-1.415 3.957 3.957 0 0 0 -4.06-3.267 4.347 4.347 0 0 0 -2.419.717 1.939 1.939 0 0 1 -2.488-.3 1.235 1.235 0 0 0 -.916-.413h-.062a1.236 1.236 0 0 0 -.915.412 1.939 1.939 0 0 1 -2.489.305 4.346 4.346 0 0 0 -2.418-.717 3.958 3.958 0 0 0 -4.061 3.267 1.705 1.705 0 0 1 -1.446 1.415 4.054 4.054 0 0 0 -2.876 1.992zm-67.5-25.86h-9.648l-2.137 25.86h13.918zm-26.363 10.431h-20.453v3.26h20.453zm0 0" transform="translate(-.001 -71.094)"/><path d="m120.195 496.852h-118.395a1.638 1.638 0 1 0 0 3.26h118.39a1.638 1.638 0 1 0 0-3.26zm0 0" transform="translate(0 -405.234)"/></g></svg>