<svg id="parking" xmlns="http://www.w3.org/2000/svg" width="127.018" height="127.018" viewBox="0 0 127.018 127.018">
  <path id="Trazado_677" data-name="Trazado 677" d="M220.732,169.645A13.66,13.66,0,0,0,207.087,156H188.481A2.481,2.481,0,0,0,186,158.481v22.327a2.481,2.481,0,0,0,2.481,2.481h18.606A13.66,13.66,0,0,0,220.732,169.645Zm-29.77-8.683h16.125a8.683,8.683,0,0,1,0,17.366H190.962Z" transform="translate(-139.857 -117.299)" fill="#94e538"/>
  <path id="Trazado_678" data-name="Trazado 678" d="M190.5,124.53A28.562,28.562,0,0,0,161.972,96H128.481A2.481,2.481,0,0,0,126,98.481v74.425a2.481,2.481,0,0,0,2.481,2.481h14.885a2.481,2.481,0,0,0,2.481-2.481V153.059h16.125A28.562,28.562,0,0,0,190.5,124.53ZM143.366,148.1a2.481,2.481,0,0,0-2.481,2.481v19.847h-9.923V100.962h31.01a23.568,23.568,0,0,1,0,47.136Z" transform="translate(-94.742 -72.184)" fill="#94e538"/>
  <circle id="Elipse_107" data-name="Elipse 107" cx="2.5" cy="2.5" r="2.5" transform="translate(61 122)" fill="#94e538"/>
  <path id="Trazado_679" data-name="Trazado 679" d="M117.1,0H9.923A9.935,9.935,0,0,0,0,9.923V117.1a9.935,9.935,0,0,0,9.923,9.923H52.345a2.481,2.481,0,1,0,0-4.962H9.923A4.967,4.967,0,0,1,4.962,117.1V9.923A4.967,4.967,0,0,1,9.923,4.962H117.1a4.967,4.967,0,0,1,4.962,4.962V117.1a4.967,4.967,0,0,1-4.962,4.962H74.673a2.481,2.481,0,0,0,0,4.962H117.1a9.935,9.935,0,0,0,9.923-9.923V9.923A9.935,9.935,0,0,0,117.1,0Z" fill="#94e538"/>
</svg>
