<svg xmlns="http://www.w3.org/2000/svg" width="82.071" height="82.071" viewBox="0 0 82.071 82.071">
  <g id="Grupo_1038" data-name="Grupo 1038" transform="translate(-202.929 -197.929)">
    <g id="Grupo_121" data-name="Grupo 121" transform="translate(47 43)">
      <g id="Grupo_120" data-name="Grupo 120" transform="translate(155.929 154.929)">
        <path id="Trazado_385" data-name="Trazado 385" d="M300.824,256H290.565A2.565,2.565,0,0,0,288,258.565v20.518a2.565,2.565,0,0,0,2.565,2.565h10.259a5.129,5.129,0,0,0,5.129-5.129V261.129A5.129,5.129,0,0,0,300.824,256Zm0,20.518h-7.694V261.129h7.694Z" transform="translate(-241.835 -214.964)" fill="#fff"/>
        <path id="Trazado_386" data-name="Trazado 386" d="M431.388,261.129V256H418.565A2.565,2.565,0,0,0,416,258.565v23.082h5.129V271.388h10.259v-5.129H421.129v-5.129Z" transform="translate(-349.317 -214.964)" fill="#fff"/>
        <path id="Trazado_387" data-name="Trazado 387" d="M5.129,74.377V7.694A2.565,2.565,0,0,1,7.694,5.129H46.165V15.388a5.129,5.129,0,0,0,5.129,5.129H61.553v7.694h5.129V17.953a2.564,2.564,0,0,0-.744-1.821L50.551.744A2.565,2.565,0,0,0,48.73,0H7.694A7.694,7.694,0,0,0,0,7.694V74.377a7.694,7.694,0,0,0,7.694,7.694H25.647V76.941H7.694A2.565,2.565,0,0,1,5.129,74.377Z" transform="translate(0 0)" fill="#fff"/>
        <path id="Trazado_388" data-name="Trazado 388" d="M172.824,256H162.565A2.565,2.565,0,0,0,160,258.565v23.082h5.129v-7.694h7.694a5.129,5.129,0,0,0,5.129-5.129v-7.694A5.129,5.129,0,0,0,172.824,256Zm0,12.824h-7.694v-7.694h7.694Z" transform="translate(-134.353 -214.964)" fill="#fff"/>
      </g>
    </g>
  </g>
</svg>
