<svg height="146.071" viewBox="0 0 118 146.071" width="118" xmlns="http://www.w3.org/2000/svg"><g fill="#fff"><g transform="translate(23.929)"><path d="m300.824 256h-10.259a2.565 2.565 0 0 0 -2.565 2.565v20.518a2.565 2.565 0 0 0 2.565 2.565h10.259a5.129 5.129 0 0 0 5.129-5.129v-15.39a5.129 5.129 0 0 0 -5.129-5.129zm0 20.518h-7.694v-15.389h7.694z" transform="translate(-241.835 -214.964)"/><path d="m431.388 261.129v-5.129h-12.823a2.565 2.565 0 0 0 -2.565 2.565v23.082h5.129v-10.259h10.259v-5.129h-10.259v-5.129z" transform="translate(-349.317 -214.964)"/><path d="m5.129 74.377v-66.683a2.565 2.565 0 0 1 2.565-2.565h38.471v10.259a5.129 5.129 0 0 0 5.129 5.129h10.259v7.694h5.129v-10.258a2.564 2.564 0 0 0 -.744-1.821l-15.387-15.388a2.565 2.565 0 0 0 -1.821-.744h-41.036a7.694 7.694 0 0 0 -7.694 7.694v66.683a7.694 7.694 0 0 0 7.694 7.694h17.953v-5.13h-17.953a2.565 2.565 0 0 1 -2.565-2.564z"/><path d="m172.824 256h-10.259a2.565 2.565 0 0 0 -2.565 2.565v23.082h5.129v-7.694h7.694a5.129 5.129 0 0 0 5.129-5.129v-7.694a5.129 5.129 0 0 0 -5.128-5.13zm0 12.824h-7.694v-7.694h7.694z" transform="translate(-134.353 -214.964)"/></g><text font-family="Helvetica-Light, Helvetica" font-size="15" font-weight="300" transform="translate(0 92.071)"><tspan x="27.747" y="12">MANUAL</tspan><tspan x="6.905" y="27">CALEFACCION</tspan></text></g></svg>