<svg xmlns="http://www.w3.org/2000/svg" width="95.108" height="103.354" viewBox="0 0 95.108 103.354">
  <g id="Capa_2" data-name="Capa 2" transform="translate(-1.5 -1.5)">
    <g id="Capa_2-2" data-name="Capa 2" transform="translate(2.5 2.5)">
      <path id="Trazado_942" data-name="Trazado 942" d="M39.487,15.263H15.092V8.347A5.994,5.994,0,0,1,21.222,2.5H33.356a5.994,5.994,0,0,1,6.13,5.847Zm12.592,0H2.5v88.591H52.087Zm43.53,22.863H60.78V30.24H95.608ZM92.065,58.677H65.206V38.126H92.065ZM78.635,67.5h0a4.184,4.184,0,0,1-4.279-4.081V58.771h8.583v4.643a3.989,3.989,0,0,1-1.262,2.894A4.388,4.388,0,0,1,78.635,67.5ZM73.474,30.24h-6.2V16.6a3.029,3.029,0,0,1,3.1-2.955h0a3.176,3.176,0,0,1,2.193.864,2.887,2.887,0,0,1,.909,2.091ZM90.1,30.15H83.9V16.506A3.029,3.029,0,0,1,87,13.551h0a3.176,3.176,0,0,1,2.193.864,2.887,2.887,0,0,1,.909,2.091ZM40.513,59.777H26.646L29.38,81.755,12.215,52.323l13.863-.183V32.945ZM78.586,67.8V86.117a7.978,7.978,0,0,1-15.939,0v-18.2a10.3,10.3,0,0,0-10.426-9.96" transform="translate(-2.5 -2.5)" fill="none" stroke="#94e538" stroke-miterlimit="10" stroke-width="2"/>
    </g>
  </g>
</svg>
