<svg xmlns="http://www.w3.org/2000/svg" width="86.506" height="86.526" viewBox="0 0 86.506 86.526">
    <defs>
        <style>
            .prefix__cls-1{fill:#94e538}.prefix__cls-2{fill:#baeb6c}
        </style>
    </defs>
    <g id="prefix__planet-earth" transform="translate(.541 .517)">
        <path id="prefix__Trazado_193" d="M104.565 159.69a27.652 27.652 0 1 0-27.652 27.725 27.689 27.689 0 0 0 27.652-27.725zm0 0" class="prefix__cls-1" data-name="Trazado 193" transform="translate(-41.034 -109.926)"/>
        <path id="prefix__Trazado_194" d="M194 131.965a27.8 27.8 0 0 0-4.175.314 27.74 27.74 0 0 1 0 54.821A27.721 27.721 0 1 0 194 131.965zm0 0" class="prefix__cls-1" data-name="Trazado 194" transform="translate(-158.124 -109.925)"/>
        <g id="prefix__Grupo_32" data-name="Grupo 32" transform="translate(8.228 22.095)">
            <path id="prefix__Trazado_195" d="M163.983 143.015c-4.259 2.669-7.454 6.94-5.058 11.745s7.72 2.936 12.646 2.269 1.2 14.547 4.126 18.285 11.181-3.737 10.383-8.542c-1.182-7.114-1.6-9.61 7.987-14.681l.026-.009a27.683 27.683 0 0 0-24.784-19.782v.042s-1.065 8.008-5.325 10.678zm0 0" class="prefix__cls-1" data-name="Trazado 195" transform="translate(-139.925 -132.296)"/>
            <path id="prefix__Trazado_196" d="M318.566 168.6h.005zm0 0" class="prefix__cls-2" data-name="Trazado 196" transform="translate(-273.59 -162.535)"/>
            <path id="prefix__Trazado_197" d="M338.809 187.961zm0 0" class="prefix__cls-2" data-name="Trazado 197" transform="translate(-290.452 -178.664)"/>
            <path id="prefix__Trazado_198" d="M58.544 262.332c-1.279-1.951 2.262-6.539 3.062-10.009s-3.994-3.2-5.458-4.4-3.461-6.406-4.925-7.607l-.234-.185a27.8 27.8 0 0 0 9.544 32l.008-.581a12.763 12.763 0 0 0-2-9.21zm0 0" class="prefix__cls-1" data-name="Trazado 198" transform="translate(-49.262 -222.117)"/>
            <path id="prefix__Trazado_199" d="M314.072 338.21l-.017-.1a27.593 27.593 0 0 1-2.3 6.086c1.576-1.86 2.627-4.124 2.317-5.986zm0 0" class="prefix__cls-2" data-name="Trazado 199" transform="translate(-267.918 -303.734)"/>
        </g>
        <path id="prefix__Trazado_200" d="M223.608 132.3v.042s-.089.669-.318 1.682a27.736 27.736 0 0 1 17.772 23.4c1.222-1.671 3.457-3.292 7.3-5.328l.026-.009a27.684 27.684 0 0 0-24.78-19.787zm0 0" class="prefix__cls-1" data-name="Trazado 200" transform="translate(-185.997 -110.202)"/>
        <path id="prefix__Trazado_201" d="M61 38.023c-13.369-2.269-21.664-19.105-21.664-19.105S52.721 5.76 66.093 8.029c6.512 1.1 11.82 5.665 15.754 10.291a48.1 48.1 0 0 1 5.913 8.814S74.375 40.292 61 38.023zm0 0" class="prefix__cls-1" data-name="Trazado 201" transform="translate(-32.766 -6.469)"/>
        <path id="prefix__Trazado_202" d="M161.805 8.035a20.758 20.758 0 0 0-7.567.19c12.812 2.877 20.716 18.915 20.716 18.915s-8.762 8.611-19.19 10.7c.314.071.631.136.951.19 13.371 2.268 26.756-10.89 26.756-10.89s-8.3-16.836-21.667-19.1zm0 0" class="prefix__cls-1" data-name="Trazado 202" transform="translate(-128.479 -6.474)"/>
        <path id="prefix__Trazado_203" d="M378.42 34.495c3.587-8.488 16.016-11.346 16.016-11.346s6.613 10.9 3.026 19.393-16.016 11.346-16.016 11.346-6.613-10.9-3.026-19.392zm0 0" class="prefix__cls-1" data-name="Trazado 203" transform="translate(-314.332 -19.282)"/>
        <path id="prefix__Trazado_204" d="M408.983 23.148a33.255 33.255 0 0 0-6.173 2.252c1.716 3.637 4.438 11.017 1.85 17.141-1.877 4.44-6.173 7.339-9.844 9.095.663 1.4 1.176 2.251 1.176 2.251s12.429-2.857 16.016-11.346-3.026-19.393-3.026-19.393zm0 0" class="prefix__cls-1" data-name="Trazado 204" transform="translate(-328.878 -19.282)"/>
        <path id="prefix__Trazado_205" d="M84.156 9.966a34.4 34.4 0 0 0-2.981-6.783 1.278 1.278 0 0 0-1.352-.571 34.434 34.434 0 0 0-6.94 2.588c-4.924 2.458-8.363 5.74-9.948 9.489a18.379 18.379 0 0 0-.573 11.155 35.531 35.531 0 0 0-6.679-5.813 51.733 51.733 0 0 0-5.8-8.9 1.253 1.253 0 0 0-1.944 1.58 50.114 50.114 0 0 1 4.622 6.8l-11.41-2.224L30.3 2.5a17.706 17.706 0 0 1 3.16.323 21.628 21.628 0 0 1 9.79 5.045 1.253 1.253 0 0 0 1.625-1.907A24.1 24.1 0 0 0 33.946.366c-5.74-1.123-12.434.351-19.36 4.265a49.986 49.986 0 0 0-8.76 6.257 1.326 1.326 0 0 0-.149 1.72 51.117 51.117 0 0 0 5.623 8.819 39.173 39.173 0 0 0 5.922 6.087q-.875.733-1.7 1.538a28.959 28.959 0 0 0 9.369 47.532 1.253 1.253 0 0 0 .942-2.321 26.445 26.445 0 0 1-5.419-2.981 14.113 14.113 0 0 0-2.127-9.88c-.4-.618.79-3.047 1.5-4.5a23.523 23.523 0 0 0 1.84-4.5 3.428 3.428 0 0 0-1.227-3.75 9.245 9.245 0 0 0-2.978-1.32 6.4 6.4 0 0 1-1.636-.641 16.668 16.668 0 0 1-2.121-3.451 21.426 21.426 0 0 0-2.289-3.763 26.638 26.638 0 0 1 7.908-10.419 21.9 21.9 0 0 0 10.555 3.922c-4.427 3.43-5.859 7.81-3.812 12.018 2.39 4.913 7.31 4.128 11.651 3.437.751-.12 1.528-.244 2.272-.337.279-.035.363.041.419.091.951.845.922 4.884.9 7.832-.028 4.079-.054 7.931 1.465 9.909a3.824 3.824 0 0 0 3.146 1.524 6.318 6.318 0 0 0 2.473-.559c3.778-1.618 7.705-6.487 7.106-10.34-.524-3.368-.87-5.594-.053-7.388.755-1.66 2.581-3.2 6.176-5.158a26.451 26.451 0 0 1-28.739 32.023 1.253 1.253 0 0 0-.274 2.49 29.116 29.116 0 0 0 23.446-8.082 28.94 28.94 0 0 0-4.456-44.95c1.655-1.18 2.888-2.2 3.572-2.793A33.259 33.259 0 1 1 2.958 44.329a1.253 1.253 0 0 0-2.471-.409 35.753 35.753 0 0 0 29.452 41.1 36.208 36.208 0 0 0 5.9.486 35.778 35.778 0 0 0 32.72-50.033 36.054 36.054 0 0 0 5.778-2.273c4.923-2.458 8.363-5.74 9.947-9.489s1.541-8.5-.128-13.746zM11.452 44.41a15.6 15.6 0 0 0 2.73 4.2 7.178 7.178 0 0 0 2.507 1.114c2.448.753 2.733 1.122 2.5 2.09a21.877 21.877 0 0 1-1.658 3.986c-1.294 2.647-2.516 5.146-1.358 6.952a11.913 11.913 0 0 1 1.9 6.646 26.7 26.7 0 0 1-7.72-27.013c.369.632.756 1.365 1.1 2.021zm60.606-24.617L68.5 11.166a23.445 23.445 0 0 1 5.454-3.7A33.469 33.469 0 0 1 77.91 5.8zm8.161-13.02a33.488 33.488 0 0 1 1.567 4 23.947 23.947 0 0 1 1.134 6.039l-8.343 3.442zm-14.976 8.893a11.9 11.9 0 0 1 1.4-2.431l4.053 9.82-3.637 8.7a33.323 33.323 0 0 1-1.623-4.125c-1.024-3.238-1.889-7.943-.191-11.959zm8.025 15.269a33.315 33.315 0 0 1-3.833 1.622l3.774-9.022 9.606-3.964a12.1 12.1 0 0 1-.838 3.166c-1.7 4.016-5.672 6.675-8.709 8.2zM28.1 30.222c-.443-.087-.879-.192-1.31-.313l13.862-10.163 11.415 2.225C47.909 25.247 37.789 32.12 28.1 30.222zm-12.672-7.838a48.775 48.775 0 0 1-6.386-8.8l14.527 2.832zm2.566-16.713l6.078 8.29-14.621-2.849a49.349 49.349 0 0 1 8.543-5.44zm9.7 9L20.327 4.617a28.176 28.176 0 0 1 7-1.938l10.193 13.9zm-.78 2.4l10.389 2.025-13.331 9.771a25.914 25.914 0 0 1-6.757-4.687zM60.907 41.53c-4.516 2.406-6.727 4.3-7.776 6.6-1.127 2.475-.714 5.132-.142 8.81.337 2.169-2.24 6.206-5.616 7.652-1.249.535-2.139.472-2.646-.189-1-1.295-.968-5.216-.947-8.365.029-4.358.055-8.122-1.743-9.721a2.953 2.953 0 0 0-2.393-.705c-.787.1-1.587.225-2.358.348-4.6.734-7.5 1.028-9-2.058-2.432-5 2.491-8.7 4.721-10.06a7.931 7.931 0 0 0 1.267-.966 36.42 36.42 0 0 0 15.018-5.852A26.589 26.589 0 0 1 60.907 41.53zm0 0" data-name="Trazado 205" style="stroke:#000;fill:#94e538"/>
    </g>
</svg>
