<svg xmlns="http://www.w3.org/2000/svg" width="35.709" height="42.851" viewBox="0 0 35.709 42.851">
  <g id="repair" transform="translate(-8 -2)">
    <rect id="Rect치ngulo_1317" data-name="Rect치ngulo 1317" width="2" height="3" transform="translate(24 35.851)" fill="#94e538"/>
    <rect id="Rect치ngulo_1318" data-name="Rect치ngulo 1318" width="5" height="2" transform="translate(18 35.851)" fill="#94e538"/>
    <path id="Trazado_887" data-name="Trazado 887" d="M42.281,44.851v-9.7l.8-.8a2.129,2.129,0,0,0,.628-1.515V32.71a2.145,2.145,0,0,0-2.143-2.143h-.123a2.129,2.129,0,0,0-1.515.628L38.623,32.5a.719.719,0,0,1-.5.209H38A.715.715,0,0,1,37.281,32v-.123a.719.719,0,0,1,.209-.5L38.8,30.062a2.129,2.129,0,0,0,.628-1.515v-.123A2.138,2.138,0,0,0,37.493,26.3l-6.005-3a9.189,9.189,0,0,0,1.888-3.552l2.007-1a2.132,2.132,0,0,0,1.184-1.917v-1.26a2.145,2.145,0,0,0-2.143-2.143H33.71V9.856A7.865,7.865,0,0,0,25.854,2H24.426A7.865,7.865,0,0,0,16.57,9.856v3.571h-.714a2.145,2.145,0,0,0-2.143,2.143v1.26A2.132,2.132,0,0,0,14.9,18.746l2.007,1A9.189,9.189,0,0,0,18.793,23.3l-6.45,3.225A7.811,7.811,0,0,0,8,33.553v11.3ZM29.721,43.422,35.939,37.2a.719.719,0,0,1,.5-.209h3.1a2.12,2.12,0,0,0,1.306-.456v6.883Zm8.274-15v.123a.719.719,0,0,1-.209.5l-1.306,1.306a2.129,2.129,0,0,0-.628,1.515V32A2.145,2.145,0,0,0,38,34.138h.123a2.129,2.129,0,0,0,1.515-.628L40.939,32.2a.719.719,0,0,1,.5-.209h.123a.715.715,0,0,1,.714.714v.123a.719.719,0,0,1-.209.5l-2.02,2.02a.719.719,0,0,1-.5.209h-3.1a2.129,2.129,0,0,0-1.515.628l-6.994,6.994A.8.8,0,0,1,26.8,42.055L33.8,35.062a2.129,2.129,0,0,0,.628-1.515v-3.1a.719.719,0,0,1,.209-.5l2.02-2.02a.719.719,0,0,1,.5-.209h.123a.715.715,0,0,1,.714.714ZM27.261,27.71l-.749-.9a4.24,4.24,0,0,0,.929-.433l1.97-1.254a9.392,9.392,0,0,0,1.02-.756l1.916.958-3.622,4.14-1.442-1.73V27.71Zm-2.834.545.714-.857.714.857v5.169H24.426ZM23,27.71v.027l-1.442,1.73-3.622-4.14,1.916-.958a9.393,9.393,0,0,0,1.02.756l1.97,1.254a4.24,4.24,0,0,0,.929.433l-.748.9ZM34.425,14.855a.715.715,0,0,1,.714.714v1.26a.71.71,0,0,1-.395.639l-1.079.539c.018-.238.045-.473.045-.714V14.855Zm-10-11.427h1.428a6.435,6.435,0,0,1,6.428,6.428H18a6.435,6.435,0,0,1,6.428-6.428Zm7.084,7.856-1.07,1.338a2.134,2.134,0,0,1-1.674.8H21.514a2.132,2.132,0,0,1-1.673-.8l-1.071-1.338ZM15.537,17.468a.71.71,0,0,1-.395-.639v-1.26a.715.715,0,0,1,.714-.714h.714v2.438c0,.241.027.477.045.714ZM18,12.606l.727.909a3.555,3.555,0,0,0,2.788,1.34h7.252a3.558,3.558,0,0,0,2.789-1.34l.727-.909v4.686a7.817,7.817,0,0,1-3.639,6.627l-1.97,1.254a2.867,2.867,0,0,1-3.067,0l-1.97-1.254A7.817,7.817,0,0,1,18,17.293ZM9.428,33.553A6.391,6.391,0,0,1,12.982,27.8l3.632-1.816,4.969,5.679L23,29.969v4.883h4.285V29.969l1.415,1.7,4.969-5.679,1.932.966L33.624,28.93A2.129,2.129,0,0,0,33,30.444v3.1a.719.719,0,0,1-.209.5l-6.994,6.994a2.244,2.244,0,0,0-.653,1.576,2.208,2.208,0,0,0,.155.8H16.57V35.566H15.142v7.856H9.428Z" transform="translate(0)" fill="#94e538"/>
  </g>
</svg>
