<svg xmlns="http://www.w3.org/2000/svg" width="48.233" height="49.703" viewBox="0 0 48.233 49.703">
  <path id="Trazado_968" data-name="Trazado 968" d="M51.446,36H50.059V17.685a1.218,1.218,0,0,0-1.218-1.218h-2.51V5.306a1.218,1.218,0,0,0-.357-.861L41.887.357A1.218,1.218,0,0,0,41.026,0H33.289a1.218,1.218,0,0,0-1.218,1.218v15.25H26.024V1.218A1.218,1.218,0,0,0,24.806,0H17.07a1.218,1.218,0,0,0-.861.357L12.12,4.445a1.218,1.218,0,0,0-.357.861V16.468H9.254a1.218,1.218,0,0,0-1.218,1.218V36H6.649a1.218,1.218,0,0,0-1.218,1.218V47.485A1.218,1.218,0,0,0,6.649,48.7h44.8a1.218,1.218,0,0,0,1.218-1.218V37.222A1.218,1.218,0,0,0,51.446,36ZM10.471,18.9H47.624V36H10.471ZM50.229,46.267H7.866V38.44H50.229Z" transform="translate(53.164 49.203) rotate(180)" fill="none" stroke="#fff" stroke-width="1"/>
</svg>
