<svg height="49.703" viewBox="0 0 48.233 49.703" width="48.233" xmlns="http://www.w3.org/2000/svg"><path d="m51.446 36h-1.387v-18.315a1.218 1.218 0 0 0 -1.218-1.218h-2.51v-11.161a1.218 1.218 0 0 0 -.357-.861l-4.087-4.088a1.218 1.218 0 0 0 -.861-.357h-7.737a1.218 1.218 0 0 0 -1.218 1.218v15.25h-6.047v-15.25a1.218 1.218 0 0 0 -1.218-1.218h-7.736a1.218 1.218 0 0 0 -.861.357l-4.089 4.088a1.218 1.218 0 0 0 -.357.861v11.162h-2.509a1.218 1.218 0 0 0 -1.218 1.218v18.314h-1.387a1.218 1.218 0 0 0 -1.218 1.218v10.267a1.218 1.218 0 0 0 1.218 1.215h44.8a1.218 1.218 0 0 0 1.218-1.218v-10.26a1.218 1.218 0 0 0 -1.221-1.222zm-40.975-17.1h37.153v17.1h-37.153zm39.758 27.367h-42.363v-7.827h42.363z" fill="none" stroke="#fff" transform="matrix(-1 0 0 -1 53.164 49.203)"/></svg>