<svg xmlns="http://www.w3.org/2000/svg" width="34.698" height="34.701" viewBox="0 0 34.698 34.701">
  <g id="reset_1_" data-name="reset (1)" transform="translate(-0.025 0)">
    <g id="Grupo_874" data-name="Grupo 874" transform="translate(0.025 0)">
      <g id="Grupo_873" data-name="Grupo 873" transform="translate(0 0)">
        <path id="Trazado_888" data-name="Trazado 888" d="M292.442,397.063a12.332,12.332,0,0,0,2.24-.776l-.9-1.971a10.218,10.218,0,0,1-1.849.64Z" transform="translate(-272.151 -367.596)" fill="#fff"/>
        <path id="Trazado_889" data-name="Trazado 889" d="M80.35,171.66a12.429,12.429,0,0,0-.883,2.2l2.082.609a10.135,10.135,0,0,1,.729-1.816Z" transform="translate(-74.084 -160.028)" fill="#fff"/>
        <path id="Trazado_890" data-name="Trazado 890" d="M407.708,256.012h-2.168a10.366,10.366,0,0,1-.184,1.952l2.13.408A12.6,12.6,0,0,0,407.708,256.012Z" transform="translate(-377.889 -238.664)" fill="#fff"/>
        <path id="Trazado_891" data-name="Trazado 891" d="M366.075,339.729l1.569,1.5a12.662,12.662,0,0,0,1.467-1.862l-1.824-1.175A10.4,10.4,0,0,1,366.075,339.729Z" transform="translate(-341.27 -315.271)" fill="#fff"/>
        <path id="Trazado_892" data-name="Trazado 892" d="M198.173,402.3l.306-2.148a10.259,10.259,0,0,1-1.9-.46l-.708,2.05A12.6,12.6,0,0,0,198.173,402.3Z" transform="translate(-182.596 -372.608)" fill="#fff"/>
        <path id="Trazado_893" data-name="Trazado 893" d="M232.18,74.2l.1-2.171a12.924,12.924,0,0,0-2.367.108l.3,2.154A10.518,10.518,0,0,1,232.18,74.2Z" transform="translate(-214.337 -67.138)" fill="#fff"/>
        <path id="Trazado_894" data-name="Trazado 894" d="M322.2,89.807a12.494,12.494,0,0,0-2.052-1.187l-.9,1.971a10.345,10.345,0,0,1,1.7.982Z" transform="translate(-297.612 -82.615)" fill="#fff"/>
        <path id="Trazado_895" data-name="Trazado 895" d="M113.071,353.019l1.42-1.637a10.317,10.317,0,0,1-1.352-1.418l-1.7,1.339A12.421,12.421,0,0,0,113.071,353.019Z" transform="translate(-103.886 -326.249)" fill="#fff"/>
        <path id="Trazado_896" data-name="Trazado 896" d="M72.907,270.621a12.535,12.535,0,0,0,.446,2.327l2.082-.608a10.444,10.444,0,0,1-.37-1.928Z" transform="translate(-67.968 -252.088)" fill="#fff"/>
        <path id="Trazado_897" data-name="Trazado 897" d="M138.61,98.514l-1.084-1.878a12.549,12.549,0,0,0-1.931,1.377l1.42,1.637A10.216,10.216,0,0,1,138.61,98.514Z" transform="translate(-126.408 -90.088)" fill="#fff"/>
        <path id="Trazado_898" data-name="Trazado 898" d="M159.254,151.6a7.589,7.589,0,1,0-7.589,7.589A7.589,7.589,0,0,0,159.254,151.6Zm-2.277,1.084a5.421,5.421,0,1,1,0-2.168h-5.313v2.168Z" transform="translate(-134.314 -134.253)" fill="#fff"/>
        <path id="Trazado_899" data-name="Trazado 899" d="M34.723,4.338H27.133v7.589H29.3V7.992a15.011,15.011,0,0,1,3.253,9.357A15.186,15.186,0,1,1,24.542,3.971L25.57,2.061a17.347,17.347,0,1,0,9.153,15.287A17.162,17.162,0,0,0,30.892,6.506h3.831Z" transform="translate(-0.025 0)" fill="#fff"/>
      </g>
    </g>
  </g>
</svg>
