<svg height="51.03" viewBox="0 0 54.371 51.03" width="54.371" xmlns="http://www.w3.org/2000/svg"><path d="m39.375 27.476a10.5 10.5 0 0 1 -10.324 10.675 10.5 10.5 0 0 1 -10.325-10.675 10.5 10.5 0 0 1 10.325-10.676 10.506 10.506 0 0 1 10.324 10.674zm-11.029 25a24.021 24.021 0 0 0 20.629-11.961 25.746 25.746 0 0 0 .9-24.437m-12.163-11.656a23.668 23.668 0 0 0 -28.112 7.278 25.683 25.683 0 0 0 -1.173 29.934m47.178-23.1-5.825-2.855-2.757 6.021m-44.523 19.019 6.295 1.4 1.364-6.509m18.892-24.97c-9 0-16.286 7.539-16.286 16.839s7.291 16.838 16.285 16.837 16.283-7.539 16.282-16.839-7.29-16.838-16.282-16.837z" fill="none" stroke="#fff" stroke-linecap="round" stroke-linejoin="round" transform="translate(-1.902 -1.944)"/></svg>