<svg height="75.687" viewBox="0 0 132.331 75.687" width="132.331" xmlns="http://www.w3.org/2000/svg"><path d="m127.714 24.951h-4.414a7.169 7.169 0 0 0 -2.205.366v-2.358c-.007-5.5-4.94-9.952-11.028-9.959h-83.806c-6.087.007-11.02 4.461-11.028 9.959v2.358a7.169 7.169 0 0 0 -2.206-.366h-4.41c-3.655 0-6.617 2.675-6.617 5.975v35.852c.007 5.5 4.94 9.952 11.028 9.959h2.543l1.9 10.287a2.153 2.153 0 0 0 2.175 1.663h13.231a2.153 2.153 0 0 0 2.175-1.663l1.9-10.287h62.428l1.9 10.287a2.153 2.153 0 0 0 2.175 1.663h13.233a2.153 2.153 0 0 0 2.175-1.663l1.9-10.287h2.537c6.087-.007 11.02-4.461 11.028-9.959v-35.852c0-3.3-2.962-5.975-6.617-5.975zm-108.07 29.876a2.107 2.107 0 0 1 2.206-1.992h39.7a2.107 2.107 0 0 1 2.206 1.992v5.973h-44.112zm0-31.868c0-3.3 2.962-5.975 6.617-5.975h83.809c3.654 0 6.617 2.675 6.617 5.975v26.259a7.169 7.169 0 0 0 -2.206-.366h-39.7c-3.654 0-6.617 2.675-6.617 5.975 0-3.3-2.962-5.975-6.617-5.975h-39.697a7.169 7.169 0 0 0 -2.206.366zm97.042 31.868v5.973h-44.11v-5.973a2.107 2.107 0 0 1 2.206-1.992h39.7a2.107 2.107 0 0 1 2.205 1.992zm-85.677 29.873h-9.5l-1.471-7.967h12.442zm83.809 0h-9.5l-1.471-7.967h12.439zm15.1-17.926c0 3.3-2.962 5.975-6.617 5.975h-110.273c-3.654 0-6.617-2.675-6.617-5.975v-35.848a2.107 2.107 0 0 1 2.206-1.992h4.411a2.107 2.107 0 0 1 2.206 1.992v31.868a2.107 2.107 0 0 0 2.206 1.992h101.452a2.107 2.107 0 0 0 2.206-1.992v-31.868a2.107 2.107 0 0 1 2.206-1.992h4.411a2.107 2.107 0 0 1 2.206 1.992z" fill="#94e538" transform="translate(-2 -13)"/></svg>