<svg xmlns="http://www.w3.org/2000/svg" width="132.331" height="75.687" viewBox="0 0 132.331 75.687">
  <path id="Trazado_304" data-name="Trazado 304" d="M127.714,24.951H123.3a7.169,7.169,0,0,0-2.205.366V22.959c-.007-5.5-4.94-9.952-11.028-9.959H26.261c-6.087.007-11.02,4.461-11.028,9.959v2.358a7.169,7.169,0,0,0-2.206-.366H8.617C4.962,24.951,2,27.626,2,30.926V66.778c.007,5.5,4.94,9.952,11.028,9.959h2.543l1.9,10.287a2.153,2.153,0,0,0,2.175,1.663H32.877a2.153,2.153,0,0,0,2.175-1.663l1.9-10.287H99.38l1.9,10.287a2.153,2.153,0,0,0,2.175,1.663h13.233a2.153,2.153,0,0,0,2.175-1.663l1.9-10.287H123.3c6.087-.007,11.02-4.461,11.028-9.959V30.926c0-3.3-2.962-5.975-6.617-5.975ZM19.644,54.827a2.107,2.107,0,0,1,2.206-1.992h39.7a2.107,2.107,0,0,1,2.206,1.992V60.8H19.644Zm0-31.868c0-3.3,2.962-5.975,6.617-5.975H110.07c3.654,0,6.617,2.675,6.617,5.975V49.218a7.169,7.169,0,0,0-2.206-.366h-39.7c-3.654,0-6.617,2.675-6.617,5.975,0-3.3-2.962-5.975-6.617-5.975H21.85a7.169,7.169,0,0,0-2.206.366Zm97.042,31.868V60.8H72.576V54.827a2.107,2.107,0,0,1,2.206-1.992h39.7A2.107,2.107,0,0,1,116.687,54.827ZM31.009,84.7h-9.5l-1.471-7.967H32.48Zm83.809,0h-9.5l-1.471-7.967h12.439Zm15.1-17.926c0,3.3-2.962,5.975-6.617,5.975H13.028c-3.654,0-6.617-2.675-6.617-5.975V30.926a2.107,2.107,0,0,1,2.206-1.992h4.411a2.107,2.107,0,0,1,2.206,1.992V62.794a2.107,2.107,0,0,0,2.206,1.992H118.892a2.107,2.107,0,0,0,2.206-1.992V30.926a2.107,2.107,0,0,1,2.206-1.992h4.411a2.107,2.107,0,0,1,2.206,1.992Z" transform="translate(-2 -13)" fill="#94e538"/>
</svg>
