<svg xmlns="http://www.w3.org/2000/svg" width="120.702" height="147.141" viewBox="0 0 120.702 147.141">
  <g id="shield" transform="translate(-46)">
    <g id="Grupo_730" data-name="Grupo 730" transform="translate(103.48 11.498)">
      <g id="Grupo_729" data-name="Grupo 729">
        <path id="Trazado_672" data-name="Trazado 672" d="M248.881,40.01a2.871,2.871,0,1,0,2.871,2.871A2.865,2.865,0,0,0,248.881,40.01Z" transform="translate(-246.01 -40.01)" fill="#94e538"/>
      </g>
    </g>
    <g id="Grupo_732" data-name="Grupo 732" transform="translate(46)">
      <g id="Grupo_731" data-name="Grupo 731">
        <path id="Trazado_673" data-name="Trazado 673" d="M163.828,17.243A14.386,14.386,0,0,1,149.458,2.874,2.874,2.874,0,0,0,146.585,0H66.117a2.874,2.874,0,0,0-2.874,2.874A14.386,14.386,0,0,1,48.874,17.243,2.874,2.874,0,0,0,46,20.117v46.9a83.476,83.476,0,0,0,59.525,80,2.873,2.873,0,0,0,1.651,0,83.485,83.485,0,0,0,59.525-80v-46.9A2.874,2.874,0,0,0,163.828,17.243Zm-2.874,49.772a77.287,77.287,0,0,1-54.6,74.247,77.707,77.707,0,0,1-54.6-74.247V22.786A20.164,20.164,0,0,0,68.786,5.748h75.129a20.164,20.164,0,0,0,17.038,17.038Z" transform="translate(-46)" fill="#94e538"/>
      </g>
    </g>
    <g id="Grupo_734" data-name="Grupo 734" transform="translate(57.495 11.495)">
      <g id="Grupo_733" data-name="Grupo 733">
        <path id="Trazado_674" data-name="Trazado 674" d="M181.99,55.085a25.887,25.887,0,0,1-13.364-13.364A2.874,2.874,0,0,0,165.993,40H146.345a2.874,2.874,0,1,0,0,5.748h17.831a31.593,31.593,0,0,0,13.787,13.787V95.52a65.466,65.466,0,0,1-43.108,62.1,65.466,65.466,0,0,1-43.108-62.1V59.534a31.6,31.6,0,0,0,13.787-13.787h17.831a2.874,2.874,0,1,0,0-5.748H103.717a2.874,2.874,0,0,0-2.632,1.721A25.887,25.887,0,0,1,87.721,55.085,2.875,2.875,0,0,0,86,57.717v37.8a71.541,71.541,0,0,0,47.9,67.87,2.873,2.873,0,0,0,1.917,0,71.542,71.542,0,0,0,47.9-67.87v-37.8A2.874,2.874,0,0,0,181.99,55.085Z" transform="translate(-86 -40)" fill="#94e538"/>
      </g>
    </g>
    <g id="Grupo_736" data-name="Grupo 736" transform="translate(80.486 41.958)">
      <g id="Grupo_735" data-name="Grupo 735">
        <path id="Trazado_675" data-name="Trazado 675" d="M191.865,146a25.865,25.865,0,1,0,25.865,25.865A25.894,25.894,0,0,0,191.865,146Zm0,45.982a20.117,20.117,0,1,1,20.117-20.117A20.14,20.14,0,0,1,191.865,191.982Z" transform="translate(-166 -146)" fill="#94e538"/>
      </g>
    </g>
    <g id="Grupo_738" data-name="Grupo 738" transform="translate(94.855 59.201)">
      <g id="Grupo_737" data-name="Grupo 737">
        <path id="Trazado_676" data-name="Trazado 676" d="M241.022,206.841a2.875,2.875,0,0,0-4.064,0l-12.337,12.337-3.716-3.715a2.874,2.874,0,1,0-4.064,4.064l5.748,5.748a2.874,2.874,0,0,0,4.064,0l14.369-14.369A2.874,2.874,0,0,0,241.022,206.841Z" transform="translate(-215.999 -206)" fill="#94e538"/>
      </g>
    </g>
  </g>
</svg>
