<svg height="22.966" viewBox="0 0 34.67 22.966" width="34.67" xmlns="http://www.w3.org/2000/svg"><g fill="#b5b5b5"><path d="m3.417 10.1a4.6 4.6 0 0 1 -1.9-.393 4.9 4.9 0 0 1 -1.517-1.047l.743-.86a4.055 4.055 0 0 0 1.226.884 3.382 3.382 0 0 0 1.463.334 2.31 2.31 0 0 0 1.5-.437 1.416 1.416 0 0 0 .536-1.152 1.23 1.23 0 0 0 -.461-1.073 6.5 6.5 0 0 0 -1.159-.646l-1.4-.613a4.5 4.5 0 0 1 -1.338-.864 2.117 2.117 0 0 1 -.635-1.648 2.325 2.325 0 0 1 .866-1.851 3.291 3.291 0 0 1 2.195-.734 3.921 3.921 0 0 1 1.609.333 4.056 4.056 0 0 1 1.272.873l-.67.8a3.455 3.455 0 0 0 -.987-.677 2.967 2.967 0 0 0 -1.225-.239 2.121 2.121 0 0 0 -1.315.386 1.248 1.248 0 0 0 -.5 1.039 1.16 1.16 0 0 0 .52 1.041 6.415 6.415 0 0 0 1.1.579l1.381.594a4.693 4.693 0 0 1 1.425.939 2.227 2.227 0 0 1 .579 1.656 2.565 2.565 0 0 1 -.884 1.968 3.456 3.456 0 0 1 -2.424.808z" transform="translate(0 .001)"/><path d="m64.47 11.074v-9.744h1.23v8.69h4.263v1.054z" transform="translate(-55.825 -1.152)"/><path d="m118.31 11.074v-9.744h1.234v9.744z" transform="translate(-102.446 -1.152)"/><path d="m147.45 11.074v-9.744h2.435a4.475 4.475 0 0 1 3.433 1.255 5.045 5.045 0 0 1 1.182 3.572 5.181 5.181 0 0 1 -1.173 3.62 4.365 4.365 0 0 1 -3.378 1.3zm1.232-1.01h1.118a3.144 3.144 0 0 0 2.562-1.026 4.38 4.38 0 0 0 .854-2.882 4.2 4.2 0 0 0 -.854-2.829 3.2 3.2 0 0 0 -2.562-.987h-1.114z" transform="translate(-127.679 -1.152)"/><path d="m215.58 11.074v-9.744h5.614v1.039h-4.382v3.061h3.7v1.054h-3.7v3.536h4.531v1.054z" transform="translate(-186.673 -1.152)"/><path d="m37.389 106a3.745 3.745 0 0 1 -3-1.377 5.589 5.589 0 0 1 -1.159-3.723 5.381 5.381 0 0 1 1.159-3.669 4.037 4.037 0 0 1 6.01 0 5.4 5.4 0 0 1 1.165 3.669 5.613 5.613 0 0 1 -1.164 3.72 3.767 3.767 0 0 1 -3.011 1.38zm0-1.085a2.458 2.458 0 0 0 2.094-1.1 4.877 4.877 0 0 0 .787-2.919 4.662 4.662 0 0 0 -.787-2.867 2.608 2.608 0 0 0 -4.189 0 4.69 4.69 0 0 0 -.787 2.867 4.918 4.918 0 0 0 .787 2.916 2.459 2.459 0 0 0 2.095 1.101z" transform="translate(-28.774 -83.032)"/><path d="m114.175 107.192a3.538 3.538 0 0 1 -2.5-.929 4.354 4.354 0 0 1 -1-3.274v-5.719h1.225v5.748a3.448 3.448 0 0 0 .654 2.428 2.183 2.183 0 0 0 1.618.661 2.237 2.237 0 0 0 1.635-.661 3.39 3.39 0 0 0 .67-2.428v-5.748h1.189v5.719a4.36 4.36 0 0 1 -1 3.274 3.536 3.536 0 0 1 -2.491.929z" transform="translate(-95.831 -84.227)"/><path d="m178.522 107.014v-8.708h-2.942v-1.036h7.131v1.036h-2.941v8.7z" transform="translate(-152.037 -84.227)"/></g></svg>