<svg height="33.5" viewBox="0 0 33.5 33.5" width="33.5" xmlns="http://www.w3.org/2000/svg"><g fill="#fff"><path d="m33.394 302.187-6.378-12.626a.982.982 0 0 0 -.876-.539h-18.78a.982.982 0 0 0 -.876.539l-6.377 12.626a.982.982 0 0 0 .876 1.424h31.535a.982.982 0 0 0 .876-1.424zm-15.662-11.2h7.8l2.2 4.35h-10zm-1.963 10.664h-13.191l2.2-4.35h10.991zm0-6.313h-10l2.2-4.35h7.8zm1.963 6.313v-4.351h10.993l2.2 4.35z" transform="translate(0 -270.111)"/><path d="m204.6 77.011a3.6 3.6 0 1 0 3.6 3.6 3.6 3.6 0 0 0 -3.6-3.6zm0 5.234a1.636 1.636 0 1 1 1.636-1.636 1.638 1.638 0 0 1 -1.636 1.636z" transform="translate(-187.85 -71.972)"/><path d="m241.981 0a.981.981 0 0 0 -.981.981v2.16a.981.981 0 1 0 1.963 0v-2.16a.981.981 0 0 0 -.982-.981z" transform="translate(-225.231)"/><path d="m241.981 201.016a.981.981 0 0 0 -.981.984v2.16a.981.981 0 1 0 1.963 0v-2.16a.981.981 0 0 0 -.982-.984z" transform="translate(-225.231 -187.864)"/><path d="m161.469 36.087-1.527-1.527a.981.981 0 1 0 -1.388 1.388l1.527 1.527a.981.981 0 1 0 1.388-1.388z" transform="translate(-147.91 -32.031)"/><path d="m303.6 178.226-1.527-1.527a.981.981 0 0 0 -1.388 1.388l1.527 1.527a.981.981 0 0 0 1.388-1.388z" transform="translate(-280.741 -164.869)"/><path d="m127.136 117.011h-2.16a.981.981 0 0 0 0 1.963h2.16a.981.981 0 0 0 0-1.963z" transform="translate(-115.882 -109.355)"/><path d="m328.141 117.011h-2.159a.981.981 0 0 0 0 1.963h2.159a.981.981 0 0 0 0-1.963z" transform="translate(-303.735 -109.355)"/><path d="m161.468 176.7a.981.981 0 0 0 -1.388 0l-1.527 1.527a.981.981 0 1 0 1.388 1.388l1.527-1.527a.981.981 0 0 0 0-1.388z" transform="translate(-147.91 -164.868)"/><path d="m303.6 34.56a.981.981 0 0 0 -1.388 0l-1.527 1.527a.981.981 0 0 0 1.388 1.388l1.527-1.527a.981.981 0 0 0 0-1.388z" transform="translate(-280.741 -32.031)"/></g></svg>