<svg xmlns="http://www.w3.org/2000/svg" width="67.761" height="55.744" viewBox="0 0 67.761 55.744">
  <g id="spotlight" transform="translate(0 -45.399)">
    <g id="Grupo_752" data-name="Grupo 752" transform="translate(0 45.399)">
      <path id="Trazado_692" data-name="Trazado 692" d="M58.959,66.991a1.985,1.985,0,0,0,3.068-1.181l1.186-5.117,3.357-4.825a6.662,6.662,0,1,0-10.937-7.61l-3.357,4.825L47.89,55.974a1.985,1.985,0,0,0-.041,3.287l.448.312L33.88,72.249,19.464,59.573l.448-.312a1.985,1.985,0,0,0-.041-3.287l-4.385-2.891-3.357-4.825a6.662,6.662,0,0,0-10.938,7.61l3.357,4.825L5.734,65.81A1.985,1.985,0,0,0,8.8,66.992l.448-.312,7.808,20.36L4.971,97.667a1.985,1.985,0,0,0,1.311,3.476h55.2a1.985,1.985,0,0,0,1.311-3.476L50.7,87.04,58.51,66.68Zm-4.179-10.8a1.985,1.985,0,0,0,.537-.524l3.575-5.138A2.692,2.692,0,0,1,63.31,53.6l-3.575,5.138a1.984,1.984,0,0,0-.3.685l-.611,2.633-6.3-4.382ZM8.941,62.058,8.33,59.425a1.984,1.984,0,0,0-.3-.685L4.451,53.6a2.691,2.691,0,1,1,4.418-3.074l3.575,5.138a1.988,1.988,0,0,0,.537.524l2.257,1.488Zm2.607,35.114,7.028-6.179,2.369,6.179Zm44.667,0H25.2l-12.2-31.825,3.922-2.729ZM47.522,84.243,36.887,74.893,50.847,62.619l3.922,2.729Z" transform="translate(0 -45.399)" fill="#393939"/>
    </g>
  </g>
</svg>
