<svg xmlns="http://www.w3.org/2000/svg" width="49.207" height="51" viewBox="0 0 49.207 51">
    <g id="prefix__Capa_2" data-name="Capa 2" transform="translate(.5 .5)">
        <g id="prefix__Capa_2-2" data-name="Capa 2">
            <path id="prefix__Trazado_623" d="M17.47 52.5H5.281A2.825 2.825 0 0 1 2.5 49.633V7.408a2.825 2.825 0 0 1 2.781-2.867H17.47a2.825 2.825 0 0 1 2.781 2.867v42.225A2.825 2.825 0 0 1 17.47 52.5zm7.73-36.258h-4.95V40.8h4.95zm25.505 12.31v-.061a3.861 3.861 0 0 0-3.8-3.916H25.2v7.9h21.7a3.861 3.861 0 0 0 3.8-3.92zM45.842 8.293V8.27a1.507 1.507 0 0 0-1.483-1.529h-10.3a1.507 1.507 0 0 0-1.483 1.529v.023a1.507 1.507 0 0 0 1.483 1.529h10.3a1.461 1.461 0 0 0 1.05-.449 1.553 1.553 0 0 0 .433-1.084zm0 3.083v-.025a1.507 1.507 0 0 0-1.483-1.529h-10.3a1.507 1.507 0 0 0-1.483 1.529v.025a1.507 1.507 0 0 0 1.483 1.524h10.3a1.461 1.461 0 0 0 1.05-.449 1.553 1.553 0 0 0 .433-1.084zm0 3.081v-.023a1.507 1.507 0 0 0-1.483-1.534h-10.3a1.507 1.507 0 0 0-1.483 1.529v.011a1.507 1.507 0 0 0 1.483 1.529h10.3a1.507 1.507 0 0 0 1.483-1.529zm0 3.083v-.04a1.507 1.507 0 0 0-1.483-1.529h-10.3a1.507 1.507 0 0 0-1.483 1.529v.025a1.507 1.507 0 0 0 1.483 1.529h10.3a1.506 1.506 0 0 0 1.483-1.521zm0 3.081V20.6a1.507 1.507 0 0 0-1.483-1.529h-10.3a1.507 1.507 0 0 0-1.483 1.529v.023a1.507 1.507 0 0 0 1.483 1.529h10.3a1.461 1.461 0 0 0 1.05-.449 1.553 1.553 0 0 0 .433-1.084zm-3.13 1.529h-7.007v2.12h7.007zM39.226 2.5h-.035a2.354 2.354 0 0 0-2.318 2.389v1.753h4.671V4.889A2.354 2.354 0 0 0 39.226 2.5zM20.251 7.936l-5.191 5.351m5.192.625l-5.192 5.352m5.192.625L15.06 25.24m5.192.625l-5.192 5.351m5.192.627l-5.192 5.352m5.192.627l-5.192 5.351m0 5.971l5.192-5.351M2.641 7.936l5.192 5.351m-5.192.625l5.192 5.351m-5.192.625l5.191 5.352m0 5.971l-5.191-5.352m0 5.973l5.192 5.351m0 5.971L2.641 37.8m0 5.971l5.192 5.351" data-name="Trazado 623" transform="translate(-2.5 -2.5)" style="fill:none;stroke:#fff;stroke-miterlimit:10"/>
        </g>
    </g>
</svg>
