<svg height="51" viewBox="0 0 49.207 51" width="49.207" xmlns="http://www.w3.org/2000/svg"><path d="m17.47 52.5h-12.189a2.825 2.825 0 0 1 -2.781-2.867v-42.225a2.825 2.825 0 0 1 2.781-2.867h12.189a2.825 2.825 0 0 1 2.781 2.867v42.225a2.825 2.825 0 0 1 -2.781 2.867zm7.73-36.258h-4.95v24.558h4.95zm25.505 12.31v-.061a3.861 3.861 0 0 0 -3.8-3.916h-21.705v7.9h21.7a3.861 3.861 0 0 0 3.8-3.92zm-4.863-20.259v-.023a1.507 1.507 0 0 0 -1.483-1.529h-10.3a1.507 1.507 0 0 0 -1.483 1.529v.023a1.507 1.507 0 0 0 1.483 1.529h10.3a1.461 1.461 0 0 0 1.05-.449 1.553 1.553 0 0 0 .433-1.084zm0 3.083v-.025a1.507 1.507 0 0 0 -1.483-1.529h-10.3a1.507 1.507 0 0 0 -1.483 1.529v.025a1.507 1.507 0 0 0 1.483 1.524h10.3a1.461 1.461 0 0 0 1.05-.449 1.553 1.553 0 0 0 .433-1.084zm0 3.081v-.023a1.507 1.507 0 0 0 -1.483-1.534h-10.3a1.507 1.507 0 0 0 -1.483 1.529v.011a1.507 1.507 0 0 0 1.483 1.529h10.3a1.507 1.507 0 0 0 1.483-1.529zm0 3.083v-.04a1.507 1.507 0 0 0 -1.483-1.529h-10.3a1.507 1.507 0 0 0 -1.483 1.529v.025a1.507 1.507 0 0 0 1.483 1.529h10.3a1.506 1.506 0 0 0 1.483-1.521zm0 3.081v-.021a1.507 1.507 0 0 0 -1.483-1.529h-10.3a1.507 1.507 0 0 0 -1.483 1.529v.023a1.507 1.507 0 0 0 1.483 1.529h10.3a1.461 1.461 0 0 0 1.05-.449 1.553 1.553 0 0 0 .433-1.084zm-3.13 1.529h-7.007v2.12h7.007zm-3.486-19.65h-.035a2.354 2.354 0 0 0 -2.318 2.389v1.753h4.671v-1.753a2.354 2.354 0 0 0 -2.318-2.389zm-18.975 5.436-5.191 5.351m5.192.625-5.192 5.352m5.192.625-5.192 5.351m5.192.625-5.192 5.351m5.192.627-5.192 5.352m5.192.627-5.192 5.351m0 5.971 5.192-5.351m-17.611-35.857 5.192 5.351m-5.192.625 5.192 5.351m-5.192.625 5.191 5.352m0 5.971-5.191-5.352m0 5.973 5.192 5.351m0 5.971-5.192-5.354m0 5.971 5.192 5.351" fill="none" stroke="#fff" stroke-miterlimit="10" transform="translate(-2 -2)"/></svg>