<svg height="59.146" viewBox="0 0 55.234 59.146" width="55.234" xmlns="http://www.w3.org/2000/svg"><path d="m3402.523 9136.473h7v44.091l-7 6.352zm3.5 28.256a2.2 2.2 0 1 0 -2.2-2.2 2.2 2.2 0 0 0 2.198 2.2zm0 6.862a2.2 2.2 0 1 0 -2.2-2.2 2.2 2.2 0 0 0 2.198 2.2zm0 6.861a2.2 2.2 0 1 0 -2.2-2.2 2.2 2.2 0 0 0 2.198 2.2zm0-34.306a2.2 2.2 0 1 0 -2.2-2.2 2.2 2.2 0 0 0 2.198 2.2zm0 6.862a2.2 2.2 0 1 0 -2.2-2.2 2.2 2.2 0 0 0 2.198 2.201zm0 6.859a2.2 2.2 0 1 0 -2.2-2.2 2.2 2.2 0 0 0 2.198 2.201zm-3.724 29.047h-6.545m0-6.546h6.545m-4.288 4.289h2.031v-2.03h-2.031zm-2.37-48.186h-7v44.091l7 6.352zm-1.3 26.057a2.2 2.2 0 1 0 -2.2 2.2 2.2 2.2 0 0 0 2.201-2.199zm0 6.861a2.2 2.2 0 1 0 -2.2 2.2 2.2 2.2 0 0 0 2.201-2.198zm0 6.86a2.2 2.2 0 1 0 -2.2 2.2 2.2 2.2 0 0 0 2.201-2.198zm0-34.306a2.2 2.2 0 1 0 -2.2 2.2 2.2 2.2 0 0 0 2.201-2.198zm0 6.862a2.2 2.2 0 1 0 -2.2 2.2 2.2 2.2 0 0 0 2.201-2.197zm0 6.86a2.2 2.2 0 1 0 -2.2 2.2 2.2 2.2 0 0 0 2.201-2.197zm-12.469-19.2-7 6.354v44.089h7zm-3.5 22.187a2.2 2.2 0 1 0 2.2 2.2 2.2 2.2 0 0 0 -2.198-2.193zm0-6.861a2.2 2.2 0 1 0 2.2 2.2 2.2 2.2 0 0 0 -2.198-2.191zm0-6.86a2.2 2.2 0 1 0 2.2 2.2 2.2 2.2 0 0 0 -2.198-2.193zm0 34.3a2.2 2.2 0 1 0 2.2 2.2 2.2 2.2 0 0 0 -2.198-2.19zm0-6.86a2.2 2.2 0 1 0 2.2 2.2 2.2 2.2 0 0 0 -2.198-2.19zm0-6.861a2.2 2.2 0 1 0 2.2 2.2 2.2 2.2 0 0 0 -2.198-2.19zm3.5-29.047h6.545m0 6.546h-6.545m2.257-2.259h2.031v-2.029h-2.031zm32.782 21.385h-4.627m3.272 5.7-3.272-3.272m0-4.853 3.272-3.271m-48.072 5.7h4.626m-3.271-5.7 3.271 3.271m-3.271 8.125 3.271-3.272m-5.2 10.156v19.3m-3.424-3.331 3.424 3.425 3.424-3.425" fill="none" stroke="#3d3d3d" stroke-linecap="round" stroke-linejoin="round" stroke-width="1.5" transform="translate(-3362.427 -9135.723)"/></svg>