<svg xmlns="http://www.w3.org/2000/svg" width="55.234" height="59.146" viewBox="0 0 55.234 59.146">
  <path id="Trazado_669" data-name="Trazado 669" d="M3402.523,9136.473h7v44.091l-7,6.352Zm3.5,28.256a2.2,2.2,0,1,0-2.2-2.2A2.2,2.2,0,0,0,3406.021,9164.729Zm0,6.862a2.2,2.2,0,1,0-2.2-2.2A2.2,2.2,0,0,0,3406.021,9171.591Zm0,6.861a2.2,2.2,0,1,0-2.2-2.2A2.2,2.2,0,0,0,3406.021,9178.452Zm0-34.306a2.2,2.2,0,1,0-2.2-2.2A2.2,2.2,0,0,0,3406.021,9144.146Zm0,6.862a2.2,2.2,0,1,0-2.2-2.2A2.2,2.2,0,0,0,3406.021,9151.009Zm0,6.859a2.2,2.2,0,1,0-2.2-2.2A2.2,2.2,0,0,0,3406.021,9157.868Zm-3.724,29.047h-6.545m0-6.546h6.545m-4.288,4.289h2.031v-2.03h-2.031Zm-2.37-48.186h-7v44.091l7,6.352Zm-1.3,26.057a2.2,2.2,0,1,0-2.2,2.2A2.2,2.2,0,0,0,3394.342,9162.529Zm0,6.861a2.2,2.2,0,1,0-2.2,2.2A2.2,2.2,0,0,0,3394.342,9169.391Zm0,6.86a2.2,2.2,0,1,0-2.2,2.2A2.2,2.2,0,0,0,3394.342,9176.251Zm0-34.306a2.2,2.2,0,1,0-2.2,2.2A2.2,2.2,0,0,0,3394.342,9141.945Zm0,6.862a2.2,2.2,0,1,0-2.2,2.2A2.2,2.2,0,0,0,3394.342,9148.808Zm0,6.86a2.2,2.2,0,1,0-2.2,2.2A2.2,2.2,0,0,0,3394.342,9155.668Zm-12.469-19.2-7,6.354v44.089h7Zm-3.5,22.187a2.2,2.2,0,1,0,2.2,2.2A2.2,2.2,0,0,0,3378.374,9158.659Zm0-6.861a2.2,2.2,0,1,0,2.2,2.2A2.2,2.2,0,0,0,3378.374,9151.8Zm0-6.86a2.2,2.2,0,1,0,2.2,2.2A2.2,2.2,0,0,0,3378.374,9144.938Zm0,34.3a2.2,2.2,0,1,0,2.2,2.2A2.2,2.2,0,0,0,3378.374,9179.241Zm0-6.86a2.2,2.2,0,1,0,2.2,2.2A2.2,2.2,0,0,0,3378.374,9172.381Zm0-6.861a2.2,2.2,0,1,0,2.2,2.2A2.2,2.2,0,0,0,3378.374,9165.52Zm3.5-29.047h6.545m0,6.546h-6.545m2.257-2.259h2.031v-2.029h-2.031Zm32.782,21.385h-4.627m3.272,5.7-3.272-3.272m0-4.853,3.272-3.271m-48.072,5.7h4.626m-3.271-5.7,3.271,3.271m-3.271,8.125,3.271-3.272m-5.2,10.156v19.3m-3.424-3.331,3.424,3.425,3.424-3.425" transform="translate(-3362.427 -9135.723)" fill="none" stroke="#3d3d3d" stroke-linecap="round" stroke-linejoin="round" stroke-width="1.5"/>
</svg>
