<svg height="81" viewBox="0 0 65 81" width="65" xmlns="http://www.w3.org/2000/svg"><path d="m57.312 15.721 6.223-7.132a1.348 1.348 0 0 1 1.015-.463h12.4a4.063 4.063 0 0 0 0-8.126h-12.4a9.438 9.438 0 0 0 -7.112 3.238l-6.222 7.132a1.348 1.348 0 0 1 -1.017.463h-2.949v-2.708a2.7 2.7 0 0 0 -2.7-2.708h-8.1a2.7 2.7 0 0 0 -2.7 2.708v2.708h-1.35a4.063 4.063 0 0 0 -3.357 6.332 2.69 2.69 0 0 0 -.693 1.793v2.708a2.7 2.7 0 0 0 2.7 2.708v2.708h-6.75a4.051 4.051 0 0 0 -3.8 2.708h-2.95a2.7 2.7 0 0 0 -2.7 2.708h-13.5a1.352 1.352 0 0 0 -1.35 1.356v24.375a1.352 1.352 0 0 0 1.35 1.354h13.5a2.7 2.7 0 0 0 2.7 2.708h2.95a4.051 4.051 0 0 0 3.8 2.709h32.4a4.051 4.051 0 0 0 3.8-2.708h2.95a2.7 2.7 0 0 0 2.7-2.708h13.5a1.352 1.352 0 0 0 1.35-1.355v-24.375a1.352 1.352 0 0 0 -1.35-1.354h-13.5a2.7 2.7 0 0 0 -2.7-2.708h-2.95a4.051 4.051 0 0 0 -3.8-2.708h-6.75v-2.709a2.7 2.7 0 0 0 2.7-2.708v-2.709a2.664 2.664 0 0 0 -.034-.329 9.446 9.446 0 0 0 4.7-2.909zm-20.862-7.596h8.1v2.708h-8.1zm-33.75 48.75v-21.667h12.15v21.667zm14.85 1.354v-25.729h2.7v27.083h-2.7zm60.75-23.021v21.667h-12.15v-21.667zm-14.85-1.354v25.729h-2.7v-27.083h2.7zm-5.4-2.708v29.792a1.352 1.352 0 0 1 -1.35 1.354h-22.95v-27.084a1.35 1.35 0 1 0 -2.7 0v27.084h-6.75a1.352 1.352 0 0 1 -1.35-1.354v-29.792a1.352 1.352 0 0 1 1.35-1.354h32.4a1.352 1.352 0 0 1 1.35 1.354zm-10.8-4.062h-13.5v-2.709h13.5zm2.7-5.417h-18.9v-2.709h18.9zm.25-5.417h-17.8a1.354 1.354 0 0 1 0-2.708h17.8a4.045 4.045 0 0 0 3.048-1.387l6.223-7.134a6.741 6.741 0 0 1 5.079-2.313h12.4a1.354 1.354 0 0 1 0 2.708h-12.4a4.045 4.045 0 0 0 -3.05 1.384l-6.223 7.134a6.741 6.741 0 0 1 -5.077 2.316z" fill="#fff" transform="matrix(0 1 -1 0 65 0)"/></svg>