<svg xmlns="http://www.w3.org/2000/svg" width="65" height="81" viewBox="0 0 65 81">
    <g id="prefix__Page-1" transform="rotate(90 342 -275)">
        <g id="prefix___016---Lever" data-name="016---Lever" transform="translate(617 2)">
            <path id="prefix__Shape" d="M57.312 15.721l6.223-7.132a1.348 1.348 0 0 1 1.015-.463h12.4a4.063 4.063 0 0 0 0-8.126h-12.4a9.438 9.438 0 0 0-7.112 3.238l-6.222 7.132a1.348 1.348 0 0 1-1.017.463H47.25V8.125a2.7 2.7 0 0 0-2.7-2.708h-8.1a2.7 2.7 0 0 0-2.7 2.708v2.708H32.4a4.063 4.063 0 0 0-3.357 6.332 2.69 2.69 0 0 0-.693 1.793v2.708a2.7 2.7 0 0 0 2.7 2.708v2.708H24.3a4.051 4.051 0 0 0-3.8 2.708h-2.95a2.7 2.7 0 0 0-2.7 2.708H1.35A1.352 1.352 0 0 0 0 33.854v24.375a1.352 1.352 0 0 0 1.35 1.354h13.5a2.7 2.7 0 0 0 2.7 2.708h2.95A4.051 4.051 0 0 0 24.3 65h32.4a4.051 4.051 0 0 0 3.8-2.708h2.95a2.7 2.7 0 0 0 2.7-2.708h13.5A1.352 1.352 0 0 0 81 58.229V33.854a1.352 1.352 0 0 0-1.35-1.354h-13.5a2.7 2.7 0 0 0-2.7-2.708H60.5a4.051 4.051 0 0 0-3.8-2.708h-6.75v-2.709a2.7 2.7 0 0 0 2.7-2.708v-2.709a2.664 2.664 0 0 0-.034-.329 9.446 9.446 0 0 0 4.7-2.909zM36.45 8.125h8.1v2.708h-8.1zM2.7 56.875V35.208h12.15v21.667zm14.85 1.354V32.5h2.7v27.083h-2.7zM78.3 35.208v21.667H66.15V35.208zm-14.85-1.354v25.729h-2.7V32.5h2.7zm-5.4-2.708v29.792a1.352 1.352 0 0 1-1.35 1.354H33.75V35.208a1.35 1.35 0 1 0-2.7 0v27.084H24.3a1.352 1.352 0 0 1-1.35-1.354V31.146a1.352 1.352 0 0 1 1.35-1.354h32.4a1.352 1.352 0 0 1 1.35 1.354zm-10.8-4.062h-13.5v-2.709h13.5zm2.7-5.417h-18.9v-2.709h18.9zm.25-5.417H32.4a1.354 1.354 0 0 1 0-2.708h17.8a4.045 4.045 0 0 0 3.048-1.387l6.223-7.134a6.741 6.741 0 0 1 5.079-2.313h12.4a1.354 1.354 0 0 1 0 2.708h-12.4A4.045 4.045 0 0 0 61.5 6.8l-6.223 7.134A6.741 6.741 0 0 1 50.2 16.25z" style="fill:#fff"/>
        </g>
    </g>
</svg>
