<svg height="51" viewBox="0 0 49.496 51" width="49.496" xmlns="http://www.w3.org/2000/svg"><path d="m51 27.5c0 13.807-10.856 25-24.248 25s-24.252-11.193-24.252-25 10.856-25 24.248-25 24.252 11.193 24.252 25zm-24.252-19.3c-10.337 0-18.718 8.642-18.718 19.3s8.38 19.3 18.718 19.3 18.718-8.64 18.718-19.3-8.38-19.3-18.718-19.3zm-3.191 38.138s1.8-12.052-1.063-15.577c-3.3-4.056-14.251-1.538-14.251-1.538m36.373-5.923-13.3-2.765a22.375 22.375 0 0 0 -9.14 0l-13.3 2.775m36.372 5.921s-10.948-2.519-14.248 1.54c-2.856 3.519-1.06 15.577-1.06 15.577m-3.191-23.2a3.036 3.036 0 1 0 2.942 3.034 2.99 2.99 0 0 0 -2.942-3.034z" fill="none" stroke="#fff" stroke-linecap="round" stroke-linejoin="round" transform="translate(-2 -2)"/></svg>