<svg xmlns="http://www.w3.org/2000/svg" width="49.496" height="51" viewBox="0 0 49.496 51">
    <g id="prefix__Capa_2" data-name="Capa 2" transform="translate(.5 .5)">
        <g id="prefix__Capa_2-2" data-name="Capa 2">
            <path id="prefix__Trazado_618" d="M51 27.5c0 13.807-10.856 25-24.248 25S2.5 41.307 2.5 27.5s10.856-25 24.248-25S51 13.693 51 27.5zM26.748 8.2C16.411 8.2 8.03 16.842 8.03 27.5s8.38 19.3 18.718 19.3 18.718-8.64 18.718-19.3-8.38-19.3-18.718-19.3zm-3.191 38.138s1.8-12.052-1.063-15.577c-3.3-4.056-14.251-1.538-14.251-1.538M44.616 23.3l-13.3-2.765a22.375 22.375 0 0 0-9.14 0l-13.3 2.775m36.372 5.921S34.3 26.712 31 30.771c-2.856 3.519-1.06 15.577-1.06 15.577m-3.191-23.2a3.036 3.036 0 1 0 2.942 3.034 2.99 2.99 0 0 0-2.942-3.034z" data-name="Trazado 618" transform="translate(-2.5 -2.5)" style="fill:none;stroke:#fff;stroke-linecap:round;stroke-linejoin:round"/>
        </g>
    </g>
</svg>
