<svg xmlns="http://www.w3.org/2000/svg" width="70.405" height="50.263" viewBox="0 0 70.405 50.263">
  <g id="wifi" transform="translate(-0.001 -42.362)">
    <path id="Trazado_877" data-name="Trazado 877" d="M69.849,56.713a49,49,0,0,0-69.291,0,1.9,1.9,0,0,0,2.69,2.69,45.191,45.191,0,0,1,63.911,0,1.9,1.9,0,1,0,2.689-2.69Z" fill="#393939"/>
    <path id="Trazado_878" data-name="Trazado 878" d="M59.17,86.829A38.175,38.175,0,0,0,32,98.083a1.9,1.9,0,1,0,2.69,2.69,34.622,34.622,0,0,1,48.962,0,1.9,1.9,0,0,0,2.69-2.69A38.173,38.173,0,0,0,59.17,86.829Z" transform="translate(-23.966 -33.896)" fill="#393939"/>
    <path id="Trazado_879" data-name="Trazado 879" d="M82.657,130.407a27.883,27.883,0,0,0-19.845,8.22,1.9,1.9,0,0,0,2.69,2.69,24.26,24.26,0,0,1,34.311,0,1.9,1.9,0,0,0,2.69-2.689A27.88,27.88,0,0,0,82.657,130.407Z" transform="translate(-47.454 -67.114)" fill="#393939"/>
    <path id="Trazado_880" data-name="Trazado 880" d="M106.386,174.428a17.484,17.484,0,0,0-12.445,5.155,1.9,1.9,0,0,0,2.69,2.689,13.8,13.8,0,0,1,19.51,0,1.9,1.9,0,0,0,2.69-2.689A17.482,17.482,0,0,0,106.386,174.428Z" transform="translate(-71.183 -100.67)" fill="#393939"/>
    <path id="Trazado_881" data-name="Trazado 881" d="M135.88,221.79a3.8,3.8,0,1,0,2.69,1.114A3.793,3.793,0,0,0,135.88,221.79Z" transform="translate(-100.677 -136.772)" fill="#393939"/>
  </g>
</svg>
