<svg xmlns="http://www.w3.org/2000/svg" viewBox="0 0 116.77 63.14"><defs><style>.cls-1{fill:#d6d6d6;}.cls-2{fill:#b3b3b3;}.cls-3{fill:#fff;}</style></defs><g id="Capa_2" data-name="Capa 2"><g id="Capa_1-2" data-name="Capa 1"><g id="Grupo_276" data-name="Grupo 276"><g id="Grupo_28" data-name="Grupo 28"><g id="Grupo_26" data-name="Grupo 26"><path id="Trazado_163" data-name="Trazado 163" class="cls-1" d="M38.66,22.58a47.22,47.22,0,0,0-8.46,6.5L19,17.83a63.21,63.21,0,0,1,11.75-9l4.43,7.67Z"/><path id="Trazado_164" data-name="Trazado 164" class="cls-1" d="M78.28,1.92,76,10.4l-1.85,6.88a46.59,46.59,0,0,0-10.58-1.39V0A62.85,62.85,0,0,1,78.28,1.92Z"/><path id="Trazado_165" data-name="Trazado 165" class="cls-1" d="M29.08,30.2a47.22,47.22,0,0,0-6.5,8.46l-5.87-3.39L8.8,30.7a63.21,63.21,0,0,1,9-11.75l6.36,6.36Z"/><path id="Trazado_166" data-name="Trazado 166" class="cls-1" d="M17.28,51.41A46.59,46.59,0,0,0,15.89,62H0a62.92,62.92,0,0,1,1.92-14.7l9,2.43Z"/><path id="Trazado_167" data-name="Trazado 167" class="cls-1" d="M62,0V15.89a46.59,46.59,0,0,0-10.58,1.39L49.57,10.4,47.29,1.92A62.92,62.92,0,0,1,62,0Z"/><path id="Trazado_168" data-name="Trazado 168" class="cls-1" d="M106.62,17.83l-6.34,6.35-4.91,4.9a46.87,46.87,0,0,0-8.46-6.5l3.53-6.1,4.43-7.67A62.73,62.73,0,0,1,106.62,17.83Z"/><path id="Trazado_169" data-name="Trazado 169" class="cls-1" d="M21.79,40a46.17,46.17,0,0,0-4.1,9.85l-6.35-1.7-9-2.41A62.6,62.6,0,0,1,8,32.07l7.93,4.58Z"/><path id="Trazado_170" data-name="Trazado 170" class="cls-1" d="M116.77,30.7l-7.91,4.57L103,38.66a47.22,47.22,0,0,0-6.5-8.46l4.9-4.9L107.75,19A62.73,62.73,0,0,1,116.77,30.7Z"/><path id="Trazado_171" data-name="Trazado 171" class="cls-1" d="M49.88,17.69A46.17,46.17,0,0,0,40,21.79L36.5,15.67,32.07,8a62.6,62.6,0,0,1,13.7-5.68L48,10.81Z"/><path id="Trazado_172" data-name="Trazado 172" class="cls-1" d="M93.5,8l-4.43,7.66-3.53,6.12a46.25,46.25,0,0,0-9.86-4.1l1.85-6.88L79.8,2.33A62.6,62.6,0,0,1,93.5,8Z"/></g></g><g id="Grupo_29" data-name="Grupo 29"><path id="Trazado_177" data-name="Trazado 177" class="cls-2" d="M11,49.72l6.32,1.69A46.59,46.59,0,0,0,15.89,62H9.53A53.37,53.37,0,0,1,11,49.72Z"/><path id="Trazado_178" data-name="Trazado 178" class="cls-2" d="M15.94,36.65,21.79,40a46.38,46.38,0,0,0-4.1,9.85l-6.35-1.7A52.67,52.67,0,0,1,15.94,36.65Z"/><path id="Trazado_179" data-name="Trazado 179" class="cls-2" d="M24.19,25.31l4.9,4.9a47.21,47.21,0,0,0-6.51,8.45l-5.86-3.38A53.08,53.08,0,0,1,24.19,25.31Z"/><path id="Trazado_180" data-name="Trazado 180" class="cls-2" d="M35.13,16.47l3.53,6.1a47.74,47.74,0,0,0-8.46,6.51l-4.91-4.91A53.92,53.92,0,0,1,35.13,16.47Z"/><path id="Trazado_181" data-name="Trazado 181" class="cls-2" d="M48,10.81l1.84,6.88A46.38,46.38,0,0,0,40,21.79L36.5,15.67A53,53,0,0,1,48,10.81Z"/><path id="Trazado_182" data-name="Trazado 182" class="cls-2" d="M62,15.89a46.59,46.59,0,0,0-10.58,1.39l-1.85-6.89A53.72,53.72,0,0,1,62,8.75Z"/><path id="Trazado_183" data-name="Trazado 183" class="cls-2" d="M74.16,17.28a47.16,47.16,0,0,0-10.58-1.39V8.75A53.2,53.2,0,0,1,76,10.4Z"/><path id="Trazado_184" data-name="Trazado 184" class="cls-2" d="M89.07,15.67l-3.53,6.12a46.25,46.25,0,0,0-9.86-4.1l1.85-6.88A53,53,0,0,1,89.07,15.67Z"/><path id="Trazado_185" data-name="Trazado 185" class="cls-2" d="M95.37,29.08a46.87,46.87,0,0,0-8.46-6.5l3.53-6.1a53.49,53.49,0,0,1,9.84,7.7Z"/><path id="Trazado_186" data-name="Trazado 186" class="cls-2" d="M96.49,30.2l4.9-4.9a53.34,53.34,0,0,1,7.47,10L103,38.65A47.67,47.67,0,0,0,96.49,30.2Z"/></g></g><path id="Trazado_724" data-name="Trazado 724" class="cls-3" d="M60,60.68a4.28,4.28,0,0,0,3.39-5h0a4.27,4.27,0,0,0-5-3.39h0c-2.32.44-34.13,10.85-34.13,10.85S57.67,61.12,60,60.68ZM58.71,54a2.56,2.56,0,0,1,3,2h0a2.56,2.56,0,0,1-2,3h0a2.57,2.57,0,0,1-3-2h0a2.57,2.57,0,0,1,2-3Z"/></g></g></svg>