<svg xmlns="http://www.w3.org/2000/svg" viewBox="0 0 259.52 265"><defs><style>.cls-1{fill:none;stroke:#000;stroke-linecap:round;stroke-linejoin:round;stroke-width:5px;}</style></defs><title>220 externa</title><g id="Capa_2" data-name="Capa 2"><g id="Capa_2-2" data-name="Capa 2"><path class="cls-1" d="M117.85,214.31h-83a23.07,23.07,0,0,1-23.07-23.07L2.5,89.73A23.07,23.07,0,0,1,25.57,66.66H127.08a23.07,23.07,0,0,1,23.07,23.07l-9.23,101.51A23.07,23.07,0,0,1,117.85,214.31Z"/><line class="cls-1" x1="26.6" y1="105.62" x2="126.05" y2="105.62"/><line class="cls-1" x1="33.26" y1="132.28" x2="119.39" y2="132.28"/><line class="cls-1" x1="40.95" y1="158.94" x2="111.7" y2="158.94"/><path class="cls-1" d="M257,87.17h0a70.75,70.75,0,0,0-70.75,70.75v56.39a48.19,48.19,0,0,1-48.19,48.19H123.73a48.19,48.19,0,0,1-48.19-48.19h0"/><path class="cls-1" d="M33,65.94V15.19A12.69,12.69,0,0,1,45.67,2.5h0A12.69,12.69,0,0,1,58.36,15.19V65.94"/><path class="cls-1" d="M94.51,65.94V15.19A12.69,12.69,0,0,1,107.19,2.5h0a12.69,12.69,0,0,1,12.69,12.69V65.94"/></g></g></svg>