<svg xmlns="http://www.w3.org/2000/svg" viewBox="0 0 265 162.59"><defs><style>.cls-1{fill:none;stroke:#000;stroke-width:5px;}</style></defs><title>360</title><g id="Capa_2" data-name="Capa 2"><g id="Capa_2-2" data-name="Capa 2"><path d="M76.56,8A23.52,23.52,0,0,0,65.7,10.43a39.44,39.44,0,0,0-8.82,6.13l4.73,5.59a29.32,29.32,0,0,1,6.67-5,16.46,16.46,0,0,1,8-2c3.65,0,6.54,1,8.65,3A10.28,10.28,0,0,1,88.07,26a11.62,11.62,0,0,1-4.25,9.09q-4.25,3.7-15.22,3.71v6.77q12.27,0,17.1,3.77a11.91,11.91,0,0,1,4.84,9.89,11.49,11.49,0,0,1-4,9.14,15,15,0,0,1-10.21,3.44,20.05,20.05,0,0,1-10.27-2.47,31.29,31.29,0,0,1-7.26-5.7L54.3,69.47a33.48,33.48,0,0,0,8.93,6.72q5.48,3,13.65,3a25,25,0,0,0,16-5.21q6.56-5.22,6.56-14.36a15.76,15.76,0,0,0-4.31-11.5,21.45,21.45,0,0,0-10.53-5.92v-.43a22.19,22.19,0,0,0,9-6.13A15.05,15.05,0,0,0,97.1,25.38q0-8.28-5.81-12.85T76.56,8Z"/><path d="M136.24,8a23.18,23.18,0,0,0-12.74,3.82q-6,3.81-9.68,12.2t-3.71,22.15q0,16.56,6.77,24.79t16.89,8.22A19.36,19.36,0,0,0,148.07,73q6-6.12,6-15.91,0-10.55-5.32-15.86t-14.25-5.32a17.61,17.61,0,0,0-8.5,2.36,26.25,26.25,0,0,0-7.52,6.24q.31-16.35,5.59-22.74t12.47-6.4a14.15,14.15,0,0,1,11.29,5.37l5-5.48a25.31,25.31,0,0,0-6.94-5.22A20.66,20.66,0,0,0,136.24,8Zm-2.47,64.19q-13.34,0-15.06-20.53a21.47,21.47,0,0,1,7.1-6.89,15,15,0,0,1,7.2-2.15q6.35,0,9.52,3.93T145.7,57.1q0,6.78-3.44,10.91a10.62,10.62,0,0,1-8.49,4.14Z"/><path d="M185.17,8Q174.84,8,169,17t-5.86,26.34q0,17.33,5.86,26.57t16.19,9.24q10.22,0,16.07-9.24t5.86-26.57Q207.1,26,201.24,17T185.17,8Zm0,64.09q-6,0-9.73-6.83t-3.71-21.89q0-15,3.71-21.66t9.73-6.62q5.91,0,9.62,6.62t3.71,21.66q0,15.06-3.71,21.89t-9.62,6.83Z"/><path d="M231.41,0A15.92,15.92,0,0,0,219.9,4.73q-4.85,4.74-4.84,13.44,0,8.5,4.84,13.28a16.21,16.21,0,0,0,23,0q4.84-4.78,4.84-13.28,0-8.7-4.84-13.44A15.89,15.89,0,0,0,231.41,0Zm0,30.75a8.22,8.22,0,0,1-7-3.49,14.93,14.93,0,0,1-2.59-9.09A15.1,15.1,0,0,1,224.42,9a8.23,8.23,0,0,1,7-3.5A8.1,8.1,0,0,1,238.34,9a15.36,15.36,0,0,1,2.53,9.19,15.19,15.19,0,0,1-2.53,9.09,8.09,8.09,0,0,1-6.93,3.49Z"/><path class="cls-1" d="M155.89,144.29c60.63-5.16,106.61-30,106.61-59.85,0-12.6-8.18-24.31-22.2-34m-215.89,0C10.57,60.12,2.5,71.75,2.5,84.27c0,30.13,46.82,55.14,108.27,60M94.68,160.83,112,143.52,94.68,126.21"/></g></g></svg>