<svg xmlns="http://www.w3.org/2000/svg" viewBox="0 0 263.52 251.68"><defs><style>.cls-1{fill:none;stroke:#000;stroke-miterlimit:10;stroke-width:5px;}</style></defs><title>accesorios</title><g id="Capa_2" data-name="Capa 2"><g id="Capa_2-2" data-name="Capa 2"><path class="cls-1" d="M184.55,40h61.67A14.8,14.8,0,0,1,261,54.8V234.38a14.8,14.8,0,0,1-14.8,14.8H17.3a14.8,14.8,0,0,1-14.8-14.8V54.8A14.8,14.8,0,0,1,17.3,40H75M186,17.91A15.41,15.41,0,0,0,170.62,2.5H92.9A15.41,15.41,0,0,0,77.49,17.91V47.4H186Zm-79.18,140v41.48h49.82V157.87a48.18,48.18,0,0,1-49.82,0Zm49.82,0a48.12,48.12,0,0,0-4.08-84.53V109l-20.83,12-20.83-12V73.34a48.12,48.12,0,0,0-4.08,84.53M1.76,115.73h81.9m97.19,0h80.91"/></g></g></svg>