<svg xmlns="http://www.w3.org/2000/svg" viewBox="0 0 260 209.3"><defs><style>.cls-1{fill:#ff1515;}.cls-2{fill:#fbc23c;}.cls-3{fill:#1d1d1d;}</style></defs><title>averia rojo</title><g id="Capa_2" data-name="Capa 2"><g id="Capa_2-2" data-name="Capa 2"><path class="cls-1" d="M43.82,209.3A43.8,43.8,0,0,1,11,136.51L97.45,14.41,99,12.83a43.79,43.79,0,0,1,61.94,0l1.58,1.58L249,136.51a43.8,43.8,0,0,1-32.83,72.79Z"/><path class="cls-2" d="M43.82,183H216.18c15.58,0,23.38-18.83,12.36-29.84L142.36,31.43a17.49,17.49,0,0,0-24.72,0L31.46,153.14C20.44,164.15,28.24,183,43.82,183Z"/><path class="cls-3" d="M125,160.46c-.09-2.75,1.92-5,5.13-5a4.79,4.79,0,0,1,4.85,5,4.9,4.9,0,0,1-5,5A4.78,4.78,0,0,1,125,160.46Z"/><rect class="cls-3" x="125.93" y="64.85" width="8.06" height="83.14"/></g></g></svg>