<svg xmlns="http://www.w3.org/2000/svg" viewBox="0 0 265 214.3"><defs><style>.cls-1{fill:none;stroke:#000;stroke-linecap:round;stroke-linejoin:round;stroke-width:5px;}</style></defs><title>aviso averia</title><g id="Capa_2" data-name="Capa 2"><g id="Capa_2-2" data-name="Capa 2"><path class="cls-1" d="M46.32,211.8A43.8,43.8,0,0,1,13.49,139L100,16.91l1.58-1.58a43.79,43.79,0,0,1,61.94,0l1.58,1.58L251.51,139a43.8,43.8,0,0,1-32.83,72.79Zm0-26.32H218.68c15.58,0,23.38-18.83,12.36-29.84L144.86,33.93a17.49,17.49,0,0,0-24.72,0L34,155.64C22.94,166.65,30.74,185.48,46.32,185.48ZM127.51,163c-.09-2.75,1.92-5,5.13-5a4.79,4.79,0,0,1,4.85,5,4.9,4.9,0,0,1-5,5A4.78,4.78,0,0,1,127.51,163Zm9-95.61V150.5h-8.06V67.35Z"/></g></g></svg>