<svg xmlns="http://www.w3.org/2000/svg" viewBox="0 0 288.93 265"><defs><style>.cls-1{fill:none;stroke:#000;stroke-linecap:round;stroke-linejoin:round;stroke-width:5px;}</style></defs><title>bomba de agua</title><g id="Capa_2" data-name="Capa 2"><g id="Capa_2-2" data-name="Capa 2"><path class="cls-1" d="M78,184.09c-7.7-35.21,20.89-68.32,37.27-96.7L144.92,36l29.7,51.44c16.38,28.38,45,61.49,37.27,96.7-6.75,30.82-36,51.74-67,51.86C114,235.83,84.7,214.91,78,184.09ZM153.68,207a38.58,38.58,0,0,0,38.58-38.58m-47.49-100-38.46,63.85m166.42-23.6a130,130,0,0,0-255.62,0m0,47.7a130,130,0,0,0,255.62,0M2.5,91.68l13.07,20.86L36.43,99.47m250,75-13.07-20.86L252.5,166.68"/></g></g></svg>