<svg xmlns="http://www.w3.org/2000/svg" viewBox="0 0 265 240.73"><defs><style>.cls-1{fill:none;stroke:#000;stroke-linecap:round;stroke-linejoin:round;stroke-width:5px;}</style></defs><title>calendario</title><g id="Capa_2" data-name="Capa 2"><g id="Capa_2-2" data-name="Capa 2"><rect class="cls-1" x="2.5" y="2.5" width="260" height="235.73"/><line class="cls-1" x1="3.31" y1="39.3" x2="261.69" y2="39.3"/><path class="cls-1" d="M62.09,100.82H20.14V58.87h42Zm61.45-41.95H81.6v41.95h41.94Zm61.46,0H143.05v41.95H185ZM62.09,117.32H20.14v41.94h42Zm61.45,0H81.6v41.94h41.94Zm61.46,0H143.05v41.94H185ZM62.09,175.76H20.14V217.7h42Zm61.45,0H81.6V217.7h41.94Zm61.46,0H143.05V217.7H185Z"/><path class="cls-1" d="M245.17,58.87H203.23v41.95h41.94Zm0,58.45H203.23v41.94h41.94Zm0,58.44H203.23V217.7h41.94Z"/></g></g></svg>