<svg xmlns="http://www.w3.org/2000/svg" viewBox="0 0 265 163.33"><defs><style>.cls-1{fill:none;stroke:#000;stroke-linecap:round;stroke-linejoin:round;stroke-width:5px;}</style></defs><title>camara 360</title><g id="Capa_2" data-name="Capa 2"><g id="Capa_2-2" data-name="Capa 2"><path d="M76.88,79.14q-8.17,0-13.65-3a33.48,33.48,0,0,1-8.93-6.72l4.52-5.81a31.29,31.29,0,0,0,7.26,5.7,20.05,20.05,0,0,0,10.27,2.47,15,15,0,0,0,10.21-3.44,11.49,11.49,0,0,0,4-9.14,11.91,11.91,0,0,0-4.84-9.89q-4.83-3.77-17.1-3.77V38.82q11,0,15.22-3.71A11.62,11.62,0,0,0,88.07,26a10.28,10.28,0,0,0-3.18-7.9c-2.11-2-5-3-8.65-3a16.46,16.46,0,0,0-8,2,29.32,29.32,0,0,0-6.67,5l-4.73-5.59a39.44,39.44,0,0,1,8.82-6.13A23.52,23.52,0,0,1,76.56,8q8.93,0,14.73,4.57T97.1,25.38a15.05,15.05,0,0,1-3.44,10.21,22.19,22.19,0,0,1-9,6.13v.43a21.45,21.45,0,0,1,10.53,5.92,15.76,15.76,0,0,1,4.31,11.5q0,9.15-6.56,14.36A25,25,0,0,1,76.88,79.14Z"/><path d="M154.09,57.1q0,9.78-6,15.91a19.36,19.36,0,0,1-14.3,6.13q-10.11,0-16.89-8.22t-6.77-24.79q0-13.76,3.71-22.15t9.68-12.21A23.26,23.26,0,0,1,136.24,8a20.66,20.66,0,0,1,9.62,2.09,25.46,25.46,0,0,1,6.94,5.22l-5,5.48a14.15,14.15,0,0,0-11.29-5.37q-7.2,0-12.47,6.4T118.5,44.52A26.16,26.16,0,0,1,126,38.28a17.55,17.55,0,0,1,8.49-2.36q8.92,0,14.25,5.32T154.09,57.1ZM133.77,72.15A10.62,10.62,0,0,0,142.26,68q3.45-4.12,3.44-10.91t-3.17-10.59q-3.17-3.93-9.52-3.93a15,15,0,0,0-7.2,2.15,21.47,21.47,0,0,0-7.1,6.89Q120.44,72.16,133.77,72.15Z"/><path d="M185.17,79.14q-10.33,0-16.19-9.24t-5.86-26.56Q163.12,26,169,17t16.19-9q10.22,0,16.07,9t5.86,26.35q0,17.31-5.86,26.56T185.17,79.14Zm0-7.09q5.91,0,9.62-6.83t3.71-21.88q0-15.06-3.71-21.67t-9.62-6.62q-6,0-9.73,6.62t-3.71,21.67q0,15,3.71,21.88T185.17,72.05Z"/><path d="M231.41,36.24a15.82,15.82,0,0,1-11.51-4.79q-4.85-4.78-4.84-13.28,0-8.7,4.84-13.44a16.36,16.36,0,0,1,23,0q4.84,4.74,4.84,13.44,0,8.5-4.84,13.28A15.79,15.79,0,0,1,231.41,36.24Zm0-5.49a8.09,8.09,0,0,0,6.93-3.49,15.19,15.19,0,0,0,2.53-9.09A15.36,15.36,0,0,0,238.34,9a8.1,8.1,0,0,0-6.93-3.5,8.23,8.23,0,0,0-7,3.5,15.1,15.1,0,0,0-2.59,9.19,14.93,14.93,0,0,0,2.59,9.09A8.22,8.22,0,0,0,231.41,30.75Z"/><path class="cls-1" d="M240.3,50.42c14,9.71,22.2,21.42,22.2,34,0,29.86-46,54.69-106.61,59.85"/><path class="cls-1" d="M110.77,144.25C49.32,139.41,2.5,114.4,2.5,84.27c0-12.52,8.07-24.15,21.91-33.82"/><polyline class="cls-1" points="94.68 126.21 111.99 143.52 94.68 160.83"/></g></g></svg>