<svg xmlns="http://www.w3.org/2000/svg" viewBox="0 0 413.08 265"><defs><style>.cls-1{fill:none;stroke:#000;stroke-linecap:round;stroke-linejoin:round;stroke-width:5px;}</style></defs><title>clima nube sol</title><g id="Capa_2" data-name="Capa 2"><g id="Capa_2-2" data-name="Capa 2"><path class="cls-1" d="M100.39,261.85l-53.11-.26a44.79,44.79,0,0,1,0-89.57h1.3a74.74,74.74,0,0,1,70.06-59.77m56.48,22.33a74.45,74.45,0,0,0-53.32-22.39c-1.06,0-2.11,0-3.16.06a110.3,110.3,0,0,1,40.25-50.38A68.39,68.39,0,0,0,56,151.32m119.12-16.74a75,75,0,0,1,10.53,13.51H194a56.92,56.92,0,0,1,56.75,56.75c0,31.22-25.54,57-56.75,57H100.39c3.54.6,210.42,0,210.42,0l16.29.65a83.48,83.48,0,1,0,0-166.95H314.8A109.93,109.93,0,0,0,158.89,61.87m230,116.56a55.2,55.2,0,0,0-55.19-55.2M23.4,171.33l22.86-14.5M184.39,27.68,166.23,47.75M137.14,33.67,146.6,8.32M104.43,29.45,102,2.5M59.47,15.41,73,38.85M48,62.39,26.11,46.49m9.53,46-26.13-7M7.36,131.85l26.52-5.41"/></g></g></svg>