<svg xmlns="http://www.w3.org/2000/svg" viewBox="0 0 413.08 224.77"><defs><style>.cls-1{fill:none;stroke:#000;stroke-linecap:round;stroke-linejoin:round;stroke-width:5px;}</style></defs><title>clima nublado</title><g id="Capa_2" data-name="Capa 2"><g id="Capa_2-2" data-name="Capa 2"><path class="cls-1" d="M100.39,221.63l-53.11-.26a44.79,44.79,0,0,1,0-89.57h1.3A74.72,74.72,0,0,1,118.64,72m56.48,22.32A74.49,74.49,0,0,0,121.8,72c-1.06,0-2.11,0-3.16.07a110.28,110.28,0,0,1,40.25-50.39m16.23,72.71a74.7,74.7,0,0,1,10.53,13.52H194a56.91,56.91,0,0,1,56.75,56.75c0,31.21-25.54,57-56.75,57H100.39c3.54.59,210.42,0,210.42,0l16.29.64a83.48,83.48,0,1,0,0-167H314.8A109.93,109.93,0,0,0,158.89,21.64m230,116.56A55.19,55.19,0,0,0,333.69,83"/></g></g></svg>