<svg xmlns="http://www.w3.org/2000/svg" viewBox="0 0 196.53 265"><defs><style>.cls-1{fill:none;stroke:#000;stroke-linecap:round;stroke-linejoin:round;stroke-width:5px;}</style></defs><title>clima</title><g id="Capa_2" data-name="Capa 2"><g id="Capa_2-2" data-name="Capa 2"><path class="cls-1" d="M171.07,99.36a102.76,102.76,0,0,1,22.2,77C181.76,268,54.84,297.46,12.66,210.58-7.26,169.55,4.39,120.39,28,83.51c-.4,3.8-2.51,27.79,15,46.2a56.35,56.35,0,0,0,27.88,15.75c-2.69-12-10-51.63,11.26-93.06A135.84,135.84,0,0,1,126.43,2.5C120,49,144.51,66.94,171.07,99.36Zm-61.89,62.35A52.67,52.67,0,0,0,92,181.05c-8.25,16.07-5.41,31.44-4.37,36.08A21.9,21.9,0,0,1,76.83,211c-6.8-7.13-6-16.43-5.82-17.9-9.14,14.29-13.65,33.35-5.93,49.25,16.35,33.68,65.55,22.26,70-13.28a39.83,39.83,0,0,0-8.6-29.83C116.19,186.69,106.7,179.73,109.18,161.71Z"/></g></g></svg>