<svg xmlns="http://www.w3.org/2000/svg" viewBox="0 0 237.74 265"><defs><style>.cls-1{fill:none;stroke:#000;stroke-linecap:round;stroke-linejoin:round;stroke-width:5px;}</style></defs><title>clima helado</title><g id="Capa_2" data-name="Capa 2"><g id="Capa_2-2" data-name="Capa 2"><path class="cls-1" d="M118.87,195l-54.2-31.29V101.08l54.2-31.29,54.2,31.29v62.59Zm0-192.46V70.2M158,21.59,119.11,44.31M79.77,21.59l38.86,22.72M232.2,67l-58.6,33.88m61.64,9.53L196.13,88.17m0-45.43-.21,45M5.54,67l58.61,33.88M2.5,110.45,41.61,88.17m0-45.43.21,45m77,174.75V194.8m-.24,25.89L79.77,243.41m78.21,0-38.87-22.72M5.54,198l58.61-33.88M41.61,176.83,2.5,154.55m39.14,67.71.21-45M232.2,198l-58.6-33.88m61.64-9.53-39.11,22.28m0,45.43-.21-45"/></g></g></svg>