<svg xmlns="http://www.w3.org/2000/svg" viewBox="0 0 265 265"><defs><style>.cls-1{fill:none;stroke:#000;stroke-linecap:round;stroke-linejoin:round;stroke-width:5px;}</style></defs><title>config</title><g id="Capa_2" data-name="Capa 2"><g id="Capa_2-2" data-name="Capa 2"><path class="cls-1" d="M171.5,132.5a39,39,0,1,1-39-39A39,39,0,0,1,171.5,132.5Zm55.88,0a33,33,0,0,1,33-33c.71,0,1.42,0,2.12.08V97.67L227.67,37.33l-2-1.14a33,33,0,1,1-57.15-33l-1.21-.7H97.67l-1.56.9A33,33,0,0,1,39,36.39l-1.63.94L2.5,97.67v1.85l.88,0a33,33,0,0,1,0,66l-.88,0v1.85l34.83,60.34,1.13.64a33,33,0,1,1,57.14,33l2.07,1.19h69.66l1.6-.92a33,33,0,1,1,57.12-33l1.62-.93,34.83-60.34v-1.91c-.7.05-1.41.08-2.12.08A33,33,0,0,1,227.38,132.5Zm-88.13,105a58,58,0,0,1,80.81-46.65l6.5-11.26a57.94,57.94,0,0,1,0-94.18l-7-12.17A57.95,57.95,0,0,1,139.58,27.5H125A58.09,58.09,0,0,1,67.47,77.79a57.73,57.73,0,0,1-22.08-4.41L38.08,86.05a58,58,0,0,1,0,92.9l6.74,11.68A58,58,0,0,1,67.45,186c1,0,2,0,3,.07a58.09,58.09,0,0,1,54.65,51.39Z"/></g></g></svg>