<svg xmlns="http://www.w3.org/2000/svg" viewBox="0 0 157.24 265"><defs><style>.cls-1{fill:none;stroke:#000;stroke-linecap:round;stroke-linejoin:round;stroke-width:5px;}</style></defs><title>ducha</title><g id="Capa_2" data-name="Capa 2"><g id="Capa_2-2" data-name="Capa 2"><path class="cls-1" d="M13.31,262.12V52.56A50.2,50.2,0,0,1,63.37,2.5h0a50.21,50.21,0,0,1,50.06,50.06m16.49.78H95.12A24.88,24.88,0,0,0,70.31,78.15h84.43A24.89,24.89,0,0,0,129.92,53.34ZM85.2,105.86a6.7,6.7,0,0,0,6.54-5.07c.75-3.44-2-6.67-3.64-9.44l-2.9-5-2.9,5c-1.6,2.77-4.39,6-3.64,9.44A6.7,6.7,0,0,0,85.2,105.86Zm27.32,0a6.7,6.7,0,0,0,6.54-5.07c.75-3.44-2-6.67-3.64-9.44l-2.9-5-2.9,5c-1.6,2.77-4.39,6-3.64,9.44A6.7,6.7,0,0,0,112.52,105.86Zm27.32,0a6.69,6.69,0,0,0,6.54-5.07c.76-3.44-2-6.67-3.64-9.44l-2.9-5-2.9,5c-1.6,2.77-4.39,6-3.64,9.44A6.7,6.7,0,0,0,139.84,105.86ZM85.2,137.34a6.71,6.71,0,0,0,6.54-5.07c.75-3.44-2-6.67-3.64-9.44l-2.9-5-2.9,5c-1.6,2.77-4.39,6-3.64,9.44A6.71,6.71,0,0,0,85.2,137.34Zm27.32,0a6.71,6.71,0,0,0,6.54-5.07c.75-3.44-2-6.67-3.64-9.44l-2.9-5-2.9,5c-1.6,2.77-4.39,6-3.64,9.44A6.71,6.71,0,0,0,112.52,137.34Zm27.32,0a6.7,6.7,0,0,0,6.54-5.07c.76-3.44-2-6.67-3.64-9.44l-2.9-5-2.9,5c-1.6,2.77-4.39,6-3.64,9.44A6.71,6.71,0,0,0,139.84,137.34ZM85.2,168.82a6.71,6.71,0,0,0,6.54-5.07c.75-3.44-2-6.67-3.64-9.44l-2.9-5-2.9,5c-1.6,2.77-4.39,6-3.64,9.44A6.71,6.71,0,0,0,85.2,168.82Zm27.32,0a6.71,6.71,0,0,0,6.54-5.07c.75-3.44-2-6.67-3.64-9.44l-2.9-5-2.9,5c-1.6,2.77-4.39,6-3.64,9.44A6.71,6.71,0,0,0,112.52,168.82Zm27.32,0a6.7,6.7,0,0,0,6.54-5.07c.76-3.44-2-6.67-3.64-9.44l-2.9-5-2.9,5c-1.6,2.77-4.39,6-3.64,9.44A6.71,6.71,0,0,0,139.84,168.82ZM85.2,200.3a6.71,6.71,0,0,0,6.54-5.07c.75-3.44-2-6.67-3.64-9.44l-2.9-5-2.9,5c-1.6,2.77-4.39,6-3.64,9.44A6.71,6.71,0,0,0,85.2,200.3Zm27.32,0a6.71,6.71,0,0,0,6.54-5.07c.75-3.44-2-6.67-3.64-9.44l-2.9-5-2.9,5c-1.6,2.77-4.39,6-3.64,9.44A6.71,6.71,0,0,0,112.52,200.3Zm27.32,0a6.7,6.7,0,0,0,6.54-5.07c.76-3.44-2-6.67-3.64-9.44l-2.9-5-2.9,5c-1.6,2.77-4.39,6-3.64,9.44A6.71,6.71,0,0,0,139.84,200.3ZM2.5,262.5H24.23"/></g></g></svg>