<svg xmlns="http://www.w3.org/2000/svg" viewBox="0 0 222.62 265"><defs><style>.cls-1{fill:none;stroke:#000;stroke-linecap:round;stroke-linejoin:round;stroke-width:5px;}</style></defs><title>e-alarm</title><g id="Capa_2" data-name="Capa 2"><g id="Capa_2-2" data-name="Capa 2"><path class="cls-1" d="M205.12,262.5H17.5a15,15,0,0,1-15-15V105.69a15,15,0,0,1,15-15H205.12a15,15,0,0,1,15,15V247.5A15,15,0,0,1,205.12,262.5ZM168.58,90.69V59.77A57.27,57.27,0,0,0,111.31,2.5h0A57.27,57.27,0,0,0,54,59.77V90.69m79,77.89A21.76,21.76,0,1,0,98.24,186a12.82,12.82,0,0,0-.1,1.53v25.2a13.17,13.17,0,0,0,26.34,0v-25.2c0-.52,0-1-.09-1.53A21.74,21.74,0,0,0,133.07,168.58Z"/></g></g></svg>