<svg xmlns="http://www.w3.org/2000/svg" viewBox="0 0 265 265"><defs><style>.cls-1{fill:none;stroke:#000;stroke-linecap:round;stroke-linejoin:round;stroke-width:5px;}</style></defs><title>e-carplay</title><g id="Capa_2" data-name="Capa 2"><g id="Capa_2-2" data-name="Capa 2"><path class="cls-1" d="M262.5,132.5a130,130,0,1,1-130-130A130,130,0,0,1,262.5,132.5ZM132.5,32.15A100.35,100.35,0,1,0,232.85,132.5,100.35,100.35,0,0,0,132.5,32.15ZM115.39,230.46s9.63-62.67-5.7-81c-17.67-21.09-76.4-8-76.4-8m195-30.79L157,96.29a123.6,123.6,0,0,0-49,0L36.71,110.72m195,30.79s-58.73-13.11-76.4,8c-15.33,18.3-5.7,81-5.7,81M132.5,109.88a15.78,15.78,0,1,0,15.77,15.78A15.78,15.78,0,0,0,132.5,109.88Z"/></g></g></svg>