<svg xmlns="http://www.w3.org/2000/svg" viewBox="0 0 232.57 265"><defs><style>.cls-1{fill:none;stroke:#000;stroke-linecap:round;stroke-linejoin:round;stroke-width:5px;}</style></defs><title>e-gazkon</title><g id="Capa_2" data-name="Capa 2"><g id="Capa_2-2" data-name="Capa 2"><path class="cls-1" d="M164.41,241.59H17.5a15,15,0,0,1-15-15V86.12a15,15,0,0,1,15-15H164.41a15,15,0,0,1,15,15V226.59A15,15,0,0,1,164.41,241.59ZM157.7,262.5h0ZM114.86,2.5A24.13,24.13,0,0,1,91,23.41,24.12,24.12,0,0,1,67.05,2.5H29V70.05H152.87V2.5ZM225.62,146.08c-25.73-7.24,25.65-74.59-6.52-110.78s-66.09.44-66.09.44"/></g></g></svg>