<svg xmlns="http://www.w3.org/2000/svg" viewBox="0 0 198.89 265"><defs><style>.cls-1{fill:none;stroke:#000;stroke-linecap:round;stroke-width:5px;}</style></defs><title>e-liftkon</title><g id="Capa_2" data-name="Capa 2"><g id="Capa_2-2" data-name="Capa 2"><path class="cls-1" d="M135.82,134a20.7,20.7,0,0,0,1.85,8.51l-38.22,81L60.39,140.73A19.76,19.76,0,0,0,59.92,126L99.45,42.26l38.75,82.11A20.59,20.59,0,0,0,135.82,134ZM100.4,40.24h0ZM59.92,126,99.45,42.26l-1-2-29.73.13L32.53,116.25A19.9,19.9,0,0,1,59.92,126Zm78.28-1.63a20.66,20.66,0,0,1,27.87-8.72L130.12,40.38l-29.72-.13-1,2ZM98.49,40.24h0Zm1.91,0H98.5l1,2ZM98.49,225.5h0Zm39.18-83-38.22,81,1,2,29.72-.13L164.7,153a20.65,20.65,0,0,1-27-10.47Zm-37.27,83h0Zm-40-84.77A19.94,19.94,0,0,1,33.9,152.36l34.87,73,29.73.13,1-2ZM98.5,225.49h1.9l-1-2ZM60.39,140.73A19.76,19.76,0,0,0,59.92,126m-27.39-9.75a19.94,19.94,0,0,0,1.37,36.11m130.8.6a20.67,20.67,0,0,0,1.37-37.31m-27.87,8.72a20.55,20.55,0,0,0-.53,18.12m28.4-26.84a20.66,20.66,0,0,0-27.87,8.72M147.83,2.5H51.07V26.88h96.76ZM131.58,27.61H67.32V40.17h64.26ZM51.07,262.5h96.76V238.13H51.07Zm16.25-25.11h64.26V224.83H67.32ZM21,133.05H2.5m193.89,0H177.93"/></g></g></svg>