<svg xmlns="http://www.w3.org/2000/svg" viewBox="0 0 265 192.59"><defs><style>.cls-1{fill:none;stroke:#000;stroke-linecap:round;stroke-linejoin:round;stroke-width:5px;}</style></defs><title>e-media</title><g id="Capa_2" data-name="Capa 2"><g id="Capa_2-2" data-name="Capa 2"><path class="cls-1" d="M211.38,58.86A16.38,16.38,0,1,1,195,42.49,16.37,16.37,0,0,1,211.38,58.86ZM195,27.6a31.27,31.27,0,1,0,31.26,31.26A31.27,31.27,0,0,0,195,27.6Zm52.6-25.1H142.4a14.88,14.88,0,0,0-14.88,14.89V72h19.89A14.89,14.89,0,0,1,162.3,86.87v22a44.11,44.11,0,1,1,0,59.17v7.16a14.89,14.89,0,0,1-14.89,14.89h100.2A14.89,14.89,0,0,0,262.5,175.2V17.39A14.89,14.89,0,0,0,247.61,2.5ZM162.3,168V108.87a44.11,44.11,0,1,1,0,59.17Zm7-29.59A25.73,25.73,0,1,0,195,112.72,25.73,25.73,0,0,0,169.28,138.45ZM195,164.18a25.73,25.73,0,1,0-25.73-25.73A25.73,25.73,0,0,0,195,164.18ZM127.52,72H17.39A14.89,14.89,0,0,0,2.5,86.87V175.2a14.89,14.89,0,0,0,14.89,14.89H159.28m-38-59.06L43.53,91.16v79.75Z"/></g></g></svg>