<svg xmlns="http://www.w3.org/2000/svg" viewBox="0 0 265 241.73"><defs><style>.cls-1{fill:none;stroke:#000;stroke-linecap:round;stroke-linejoin:round;stroke-width:5px;}</style></defs><title>e-restart</title><g id="Capa_2" data-name="Capa 2"><g id="Capa_2-2" data-name="Capa 2"><path class="cls-1" d="M183.05,120.86A50.55,50.55,0,1,1,132.5,70.31,50.56,50.56,0,0,1,183.05,120.86Zm-54,118.37A118.4,118.4,0,0,0,234.45,66.89M174.91,11.7A118.39,118.39,0,0,0,31.52,187.9m231-109.38L234,65,220.5,93.49M2.5,183.57l30.82,6.65L40,159.4M132.5,41.14a79.73,79.73,0,1,0,79.72,79.72A79.72,79.72,0,0,0,132.5,41.14Z"/></g></g></svg>