<svg xmlns="http://www.w3.org/2000/svg" viewBox="0 0 265 266.61"><defs><style>.cls-1{fill:none;}.cls-1,.cls-2{stroke:#000;stroke-miterlimit:10;stroke-width:5px;}</style></defs><title>e-suspension</title><g id="Capa_2" data-name="Capa 2"><g id="Capa_2-2" data-name="Capa 2"><rect class="cls-1" x="2.5" y="13.18" width="95.74" height="250.93" rx="15" ry="15"/><rect class="cls-1" x="98.24" y="74.4" width="26.71" height="128.49"/><path class="cls-1" d="M193.56,69.87h.32a20.5,20.5,0,0,1,20.5,20.5V207.43a0,0,0,0,1,0,0H173.06a0,0,0,0,1,0,0V90.37A20.5,20.5,0,0,1,193.56,69.87Z" transform="translate(332.37 -55.07) rotate(90)"/><rect class="cls-1" x="192.43" y="-3.04" width="16.12" height="71.55" rx="8" ry="8" transform="translate(233.22 -167.75) rotate(90)"/><rect class="cls-1" x="192.43" y="13.08" width="16.12" height="71.55" rx="8" ry="8" transform="translate(249.34 -151.63) rotate(90)"/><rect class="cls-1" x="192.43" y="29.21" width="16.12" height="71.55" rx="8" ry="8" transform="translate(265.47 -135.51) rotate(90)"/><rect class="cls-1" x="192.43" y="45.33" width="16.12" height="71.55" rx="8" ry="8" transform="translate(281.59 -119.38) rotate(90)"/><rect class="cls-1" x="192.43" y="61.45" width="16.12" height="71.55" rx="8" ry="8" transform="translate(297.72 -103.26) rotate(90)"/><rect class="cls-1" x="181.59" y="105.29" width="37.79" height="11.09"/><path class="cls-1" d="M200.39,2.5h.19A12.5,12.5,0,0,1,213.08,15v9.17a0,0,0,0,1,0,0H187.89a0,0,0,0,1,0,0V15A12.5,12.5,0,0,1,200.39,2.5Z"/><path class="cls-2" d="M98.24,30.94l-28,28m28,3.27-28,28m28,3.27-28,28m28,3.27-28,28m28,3.28-28,28m28,3.28-28,28m0,31.24,28-28"/><line class="cls-1" x1="3.26" y1="30.94" x2="31.22" y2="58.91"/><line class="cls-1" x1="3.26" y1="62.18" x2="31.22" y2="90.15"/><line class="cls-1" x1="3.26" y1="93.42" x2="31.22" y2="121.39"/><line class="cls-1" x1="31.22" y1="152.63" x2="3.26" y2="124.66"/><line class="cls-1" x1="3.26" y1="155.91" x2="31.22" y2="183.87"/><line class="cls-1" x1="31.22" y1="215.11" x2="3.26" y2="187.15"/><line class="cls-1" x1="3.26" y1="218.39" x2="31.22" y2="246.35"/></g></g></svg>