<svg xmlns="http://www.w3.org/2000/svg" viewBox="0 0 351.77 265"><defs><style>.cls-1{fill:none;stroke:#000;stroke-linecap:round;stroke-linejoin:round;stroke-width:5px;}</style></defs><title>exterior </title><g id="Capa_2" data-name="Capa 2"><g id="Capa_2-2" data-name="Capa 2"><path class="cls-1" d="M10.65,262.5H346.41M7.79,242.5H349.27M69.94,78.19V239.64m-.71-110.73L39.94,99.62m67.15-37.15L69.94,99.62m225.39,28.1H148.17v35.72H295.33Zm-52.39,35.72H200.56L191,242h61.44Zm65.25,45.48v32.86m34.29-58.58H273.9v25.72h68.58ZM135.31,208.92v32.86M169.6,183.2H101v25.72H169.6ZM152.05,77.28a26.2,26.2,0,0,0-21.65-25.8A41.43,41.43,0,0,0,55.86,20,38.09,38.09,0,0,0,12,80.06a42.39,42.39,0,0,0,55.13,62.83,38.1,38.1,0,0,0,63.3-39.82A26.2,26.2,0,0,0,152.05,77.28Z"/></g></g></svg>