<svg xmlns="http://www.w3.org/2000/svg" viewBox="0 0 263.54 250.67"><defs><style>.cls-1{fill:none;stroke:#000;stroke-miterlimit:10;stroke-width:5px;}</style></defs><title>home</title><g id="Capa_2" data-name="Capa 2"><g id="Capa_2-2" data-name="Capa 2"><path class="cls-1" d="M216,79.65v155.2a13.32,13.32,0,0,1-13.32,13.32H179.22a13.32,13.32,0,0,1-13.33-13.32V161.22a13.33,13.33,0,0,0-13.33-13.33h-38.8a13.33,13.33,0,0,0-13.33,13.33v73.63A13.32,13.32,0,0,1,87.1,248.17H63.62a13.32,13.32,0,0,1-13.33-13.32V79.65m211.48,47.08L141.62,6.58a13.93,13.93,0,0,0-19.7,0L1.77,126.73m130-59.09c-14.92,0-27,8.73-27,19.5s12.08,19.5,27,19.5,27-8.73,27-19.5S146.68,67.64,131.77,67.64Z"/></g></g></svg>