<svg xmlns="http://www.w3.org/2000/svg" viewBox="0 0 265 265"><defs><style>.cls-1{fill:none;stroke:#000;stroke-linecap:round;stroke-linejoin:round;stroke-width:5px;}</style></defs><title>inicio sesion</title><g id="Capa_2" data-name="Capa 2"><g id="Capa_2-2" data-name="Capa 2"><path class="cls-1" d="M170.66,98.34A38.16,38.16,0,1,1,132.5,60.18,38.17,38.17,0,0,1,170.66,98.34Zm7.5,42.56a12.21,12.21,0,0,0-15.26-.74,51.67,51.67,0,0,1-60.8,0,12.21,12.21,0,0,0-15.26.74,68.7,68.7,0,0,0-23.27,51.61v12.31H201.43V192.51A68.7,68.7,0,0,0,178.16,140.9Zm63.89,86.15V38a15,15,0,0,0-15-15H38A15,15,0,0,0,23,38v189.1a15,15,0,0,0,15,15h189.1A15,15,0,0,0,242.05,227.05ZM262.5,247.5V17.5a15,15,0,0,0-15-15H17.5a15,15,0,0,0-15,15v230a15,15,0,0,0,15,15h230A15,15,0,0,0,262.5,247.5Z"/></g></g></svg>