<svg xmlns="http://www.w3.org/2000/svg" viewBox="0 0 232.82 265"><defs><style>.cls-1{fill:none;stroke:#000;stroke-miterlimit:10;stroke-width:5px;}</style></defs><title>inversor</title><g id="Capa_2" data-name="Capa 2"><g id="Capa_2-2" data-name="Capa 2"><path class="cls-1" d="M93,35.24H33.31V17.5a15,15,0,0,1,15-15H78a15,15,0,0,1,15,15Zm30.81,0H2.5V262.5H123.83ZM230.32,93.89H145.1V73.66h85.22Zm-8.67,52.72H155.93V93.89h65.72Zm-32.86,22.62h0a10.47,10.47,0,0,1-10.47-10.47V146.85h21v11.91A10.47,10.47,0,0,1,188.79,169.23ZM176.16,73.66H161v-35a7.58,7.58,0,0,1,7.58-7.58h0a7.58,7.58,0,0,1,7.59,7.58Zm40.68-.23H201.67v-35a7.58,7.58,0,0,1,7.58-7.58h0a7.58,7.58,0,0,1,7.59,7.58Zm-121.33,76H61.58l6.69,56.38-42-75.5,33.92-.47V80.6ZM188.67,170V217a19.5,19.5,0,1,1-39,0V170.31a25.79,25.79,0,0,0-25.51-25.55"/></g></g></svg>