<svg xmlns="http://www.w3.org/2000/svg" viewBox="0 0 241.71 260.42"><defs><style>.cls-1{fill:none;stroke:#000;stroke-linecap:round;stroke-linejoin:round;stroke-width:5px;}</style></defs><title>led sup</title><g id="Capa_2" data-name="Capa 2"><g id="Capa_2-2" data-name="Capa 2"><path class="cls-1" d="M66.25,257.92h-31V62.57l31-28.15Zm-15.5-125.2a9.75,9.75,0,1,0,9.75,9.75A9.76,9.76,0,0,0,50.75,132.72Zm0-30.4a9.75,9.75,0,1,0,9.75,9.75A9.76,9.76,0,0,0,50.75,102.32Zm0-30.4a9.75,9.75,0,1,0,9.75,9.75A9.76,9.76,0,0,0,50.75,71.92Zm0,152a9.75,9.75,0,1,0,9.75,9.75A9.76,9.76,0,0,0,50.75,223.92Zm0-30.4a9.75,9.75,0,1,0,9.75,9.75A9.76,9.76,0,0,0,50.75,193.52Zm0-30.4a9.75,9.75,0,1,0,9.75,9.75A9.76,9.76,0,0,0,50.75,163.12Zm16.5-128.7h29m0,29h-29m19-19h-9v9h9Zm10.5,213.5h31V62.57l-31-28.15Zm5.75-115.45a9.75,9.75,0,1,0,9.75-9.75A9.75,9.75,0,0,0,102.5,142.47Zm0-30.4a9.75,9.75,0,1,0,9.75-9.75A9.75,9.75,0,0,0,102.5,112.07Zm0-30.4a9.75,9.75,0,1,0,9.75-9.75A9.75,9.75,0,0,0,102.5,81.67Zm0,152a9.75,9.75,0,1,0,9.75-9.75A9.75,9.75,0,0,0,102.5,233.67Zm0-30.4a9.75,9.75,0,1,0,9.75-9.75A9.75,9.75,0,0,0,102.5,203.27Zm0-30.4a9.75,9.75,0,1,0,9.75-9.75A9.75,9.75,0,0,0,102.5,172.87Zm55.25,85.05,31-28.14V34.42h-31Zm15.5-98.3a9.75,9.75,0,1,0-9.75-9.75A9.75,9.75,0,0,0,173.25,159.62Zm0,30.4a9.75,9.75,0,1,0-9.75-9.75A9.75,9.75,0,0,0,173.25,190Zm0,30.4a9.75,9.75,0,1,0-9.75-9.75A9.75,9.75,0,0,0,173.25,220.42Zm0-152a9.75,9.75,0,1,0-9.75-9.75A9.75,9.75,0,0,0,173.25,68.42Zm0,30.4a9.75,9.75,0,1,0-9.75-9.75A9.75,9.75,0,0,0,173.25,98.82Zm0,30.4a9.75,9.75,0,1,0-9.75-9.75A9.75,9.75,0,0,0,173.25,129.22Zm-15.5,128.7h-29m0-29h29m-10,10h-9v9h9ZM2.5,144.17H23M8.5,118.92,23,133.42m0,21.5L8.5,169.42m213-25.25H201m14.5,25.25L201,154.92m14.5-36L201,133.42m23-45V2.92m15.17,14.75L224,2.5,208.87,17.67"/></g></g></svg>