<svg xmlns="http://www.w3.org/2000/svg" viewBox="0 0 265 252.62"><defs><style>.cls-1{fill:none;stroke:#000;stroke-linecap:round;stroke-linejoin:round;stroke-width:5px;}</style></defs><title>luz</title><g id="Capa_2" data-name="Capa 2"><g id="Capa_2-2" data-name="Capa 2"><path class="cls-1" d="M155.78,233.4H109.22V186.83h46.56Zm.27-47.11a60.51,60.51,0,1,0-45.91.49M133.73,2.5V39.37m91.9,91.91H262.5m-223.13,0H2.5m197-65.07,26.07-26.06M199.5,196.34l26.07,26.07M66.47,66.21,40.4,40.15M66.47,196.34,40.4,222.41m70.68-23.79h42.84m-44.17,18.5h45.5m-38.75,17a16,16,0,0,0,32,0m-22-47.75v-22l-15-14.5m42,0-15,14.5v22"/></g></g></svg>