<svg xmlns="http://www.w3.org/2000/svg" viewBox="0 0 224.74 265"><defs><style>.cls-1{fill:none;stroke:#000;stroke-linecap:round;stroke-linejoin:round;stroke-width:5px;}</style></defs><title>manuales</title><g id="Capa_2" data-name="Capa 2"><g id="Capa_2-2" data-name="Capa 2"><path class="cls-1" d="M4.12,39.77h216.5M222.24,2.5H17.5a15,15,0,0,0-15,15v245H222.24ZM112.37,86.87a66.75,66.75,0,1,0,66.75,66.75A66.75,66.75,0,0,0,112.37,86.87Zm0,35.7a4.94,4.94,0,0,0-5.06,5.06,4.82,4.82,0,0,0,4.88,5c3.22,0,5.24-2.21,5.15-5A4.81,4.81,0,0,0,112.41,122.57Zm4,62.1V140.15h-8.09v44.52Z"/></g></g></svg>