<svg xmlns="http://www.w3.org/2000/svg" viewBox="0 0 264.5 265"><defs><style>.cls-1{fill:none;stroke:#000;stroke-linecap:round;stroke-linejoin:round;stroke-width:5px;}</style></defs><title>modos</title><g id="Capa_2" data-name="Capa 2"><g id="Capa_2-2" data-name="Capa 2"><path class="cls-1" d="M173,156.77v89.09a16.64,16.64,0,0,1-16.64,16.64H19.14A16.64,16.64,0,0,1,2.5,245.86V156.77a16.64,16.64,0,0,1,16.64-16.64H156.36A16.64,16.64,0,0,1,173,156.77ZM3.57,178.23h167.3m20.63,66.94H247c8.28,0,15-7.28,15-16.25V18.75c0-9-6.72-16.25-15-16.25H33c-8.28,0-15,7.28-15,16.25v95.33m0-70.95H260.5m-73,87.2L222,93m0,24.37V93H199.5"/></g></g></svg>