<svg xmlns="http://www.w3.org/2000/svg" viewBox="0 0 408.49 229.76"><defs><style>.cls-1{fill:none;stroke:#000;stroke-linecap:round;stroke-linejoin:round;stroke-width:5px;}</style></defs><title>panel solar</title><g id="Capa_2" data-name="Capa 2"><g id="Capa_2-2" data-name="Capa 2"><path class="cls-1" d="M78.14,227.26,2.5,188.48,97.85,2.5l75.64,38.78ZM135.33,22.62,40.16,207.79M69.76,60.58l73,37.41M31.93,131.08,105.79,169"/><path class="cls-1" d="M194.39,227.26l-75.64-38.78L214.1,2.5l75.64,38.78ZM251.58,22.62,156.41,207.79M186,60.58,259,98m-110.8,33.09L222,169"/><path class="cls-1" d="M310.64,227.26,235,188.48l95.35-186L406,41.28ZM367.83,22.62,272.66,207.79m29.6-147.21,73,37.41m-110.8,33.09L338.29,169"/></g></g></svg>