<svg xmlns="http://www.w3.org/2000/svg" viewBox="0 0 258.56 171.27"><title>slide out</title><g id="Capa_2" data-name="Capa 2"><g id="Capa_2-2" data-name="Capa 2"><path d="M25.48,75.33A34.31,34.31,0,0,1,11.3,72.4,36.51,36.51,0,0,1,0,64.59l5.54-6.43a30.24,30.24,0,0,0,9.14,6.59,25.22,25.22,0,0,0,10.91,2.49q7.2,0,11.19-3.26a10.56,10.56,0,0,0,4-8.59q0-5.53-3.44-8a48.49,48.49,0,0,0-8.64-4.82L18.28,38a33.58,33.58,0,0,1-10-6.43Q3.54,27.25,3.54,19.28A17.34,17.34,0,0,1,10,5.48Q16.51,0,26.37,0a29.24,29.24,0,0,1,12,2.49A30.25,30.25,0,0,1,47.86,9l-5,6a25.77,25.77,0,0,0-7.36-5.05,22.13,22.13,0,0,0-9.14-1.82c-4.07,0-7.33,1-9.81,2.88a9.31,9.31,0,0,0-3.71,7.75,8.65,8.65,0,0,0,3.88,7.76,47.84,47.84,0,0,0,8.2,4.32l10.3,4.43a35,35,0,0,1,10.63,7q4.32,4.27,4.32,12.35a19.13,19.13,0,0,1-6.59,14.68Q37,75.33,25.48,75.33Z"/><path d="M64.47,74V1.33h9.2V66.14h31.79V74Z"/><path d="M118.31,74V1.33h9.2V74Z"/><path d="M147.45,74V1.33h18.16q16.84,0,25.6,9.36T200,37.33q0,17.4-8.75,27T166.06,74Zm9.19-7.53H165q12.74,0,19.11-7.65t6.37-21.49q0-13.72-6.37-21.1T165,8.86h-8.31Z"/><path d="M215.58,74V1.33h41.87V9.08H224.77V31.91h27.58v7.86H224.77V66.14h33.79V74Z"/><path d="M64.25,171.27A27.93,27.93,0,0,1,41.87,161q-8.64-10.25-8.64-27.75t8.64-27.36q8.66-10,22.38-10t22.44,10q8.69,10,8.69,27.36T86.69,161A28.09,28.09,0,0,1,64.25,171.27Zm0-8.09A18.33,18.33,0,0,0,79.87,155q5.88-8.14,5.87-21.77t-5.87-21.38A18.54,18.54,0,0,0,64.25,104a18.55,18.55,0,0,0-15.62,7.87q-5.87,7.86-5.87,21.38T48.63,155A18.34,18.34,0,0,0,64.25,163.18Z"/><path d="M136.81,171.27q-11.19,0-18.66-6.93t-7.48-24.42V97.27h9.19v42.87q0,13.19,4.88,18.11a16.28,16.28,0,0,0,12.07,4.93A16.68,16.68,0,0,0,149,158.25q5-4.92,5-18.11V97.27h8.87v42.65q0,17.51-7.43,24.42T136.81,171.27Z"/><path d="M197.52,169.94V105H175.58V97.27h53.18V105H206.83v64.92Z"/></g></g></svg>