<svg xmlns="http://www.w3.org/2000/svg" viewBox="0 0 97.69 265"><defs><style>.cls-1{fill:none;stroke:#000;stroke-linecap:round;stroke-linejoin:round;stroke-width:5px;}</style></defs><title>temperatura</title><g id="Capa_2" data-name="Capa 2"><g id="Capa_2-2" data-name="Capa 2"><path class="cls-1" d="M95.19,229.58A32.92,32.92,0,1,1,42,203.64V22.76a20.26,20.26,0,1,1,40.52,0V203.64A32.83,32.83,0,0,1,95.19,229.58ZM2.5,32.22H30.26m-12,17.22h12m-12,17.22h12M2.5,83.88H30.26m-12,17.21h12m-12,17.22h12M2.5,135.53H30.26m-12,17.22h12M18.26,170h12M2.5,187.18H30.26m33.18,52.15H61.1A9.36,9.36,0,0,1,51.77,230v-2.34a9.36,9.36,0,0,1,9.33-9.34h2.34a9.36,9.36,0,0,1,9.34,9.34V230A9.36,9.36,0,0,1,63.44,239.33ZM62.27,129v89.3" transform="translate(0)"/></g></g></svg>