<svg xmlns="http://www.w3.org/2000/svg" viewBox="0 0 265 228.31"><defs><style>.cls-1{fill:none;stroke:#000;stroke-linecap:round;stroke-linejoin:round;stroke-width:5px;}</style></defs><title>valvula agua</title><g id="Capa_2" data-name="Capa 2"><g id="Capa_2-2" data-name="Capa 2"><path class="cls-1" d="M181.73,225.81H82.31a15,15,0,0,1-15-15V113.14a15,15,0,0,1,15-15h99.42a15,15,0,0,1,15,15v97.67A15,15,0,0,1,181.73,225.81ZM211,117.8H196.63v88.35H211Zm50.38,7.75h-49.6V198.4h49.6Zm-101-43.73H103.73v15.5H160.3Zm5.14-18.14H98.6V81.37h66.84Zm-12.89-34.1v-3a9.33,9.33,0,0,0-9.33-9.33H120.81a9.33,9.33,0,0,0-9.33,9.33v3a9.33,9.33,0,0,0,9.33,9.33h22.41A9.33,9.33,0,0,0,152.55,29.58ZM250.16,2.71,207.43,2.5a12.39,12.39,0,0,0-8.83,3.63l-29,29.05a12.39,12.39,0,0,1-8.77,3.63H102.47a12.4,12.4,0,0,0-12.4,12.4h0a12.4,12.4,0,0,0,12.4,12.4h68.84a12.4,12.4,0,0,0,8.81-3.67l28.47-28.7a12.43,12.43,0,0,1,8.8-3.66H250.1a12.4,12.4,0,0,0,12.4-12.4v-.07A12.4,12.4,0,0,0,250.16,2.71ZM52.87,206.15H67.21V117.8H52.87ZM2.5,198.4H52.1V125.55H2.5Z"/></g></g></svg>